<svg xmlns="http://www.w3.org/2000/svg" xmlns:xlink="http://www.w3.org/1999/xlink" width="185.374" height="136.772" viewBox="0 0 185.374 136.772">
  <defs>
    <clipPath id="clip-path">
      <rect id="Rectangle_426" data-name="Rectangle 426" width="185.374" height="95.546" fill="none"/>
    </clipPath>
  </defs>
  <g id="apply-done" transform="translate(-450 -765.398)">
    <circle id="Ellipse_16" data-name="Ellipse 16" cx="68.386" cy="68.386" r="68.386" transform="translate(474 765.398)" fill="#a6e1f3" opacity="0.5"/>
    <g id="Group_517" data-name="Group 517" transform="translate(450 793.312)">
      <path id="Path_773" data-name="Path 773" d="M37.429,59.361,12.275,94.7H189.361L164.206,59.361Z" transform="translate(-3.986 -19.276)" fill="#cad4ea"/>
      <g id="Group_516" data-name="Group 516">
        <g id="Group_515" data-name="Group 515" clip-path="url(#clip-path)">
          <path id="Path_774" data-name="Path 774" d="M143.4,78.535V97.158h3.09c23.9-3.2,50.8-6.485,78.8-2.059l-22.54-28.162c-21.023.441-46.764,8.95-59.353,11.6" transform="translate(-46.564 -21.736)" fill="#fff" fill-rule="evenodd"/>
          <path id="Path_775" data-name="Path 775" d="M143.4,50.941V89.015h3.09c23.9-6.55,50.666-10.291,80.588-10.946l-32.535-36.21c-21.023.9-38.554,3.669-51.143,9.082" transform="translate(-46.564 -13.593)" fill="#fff" fill-rule="evenodd"/>
          <rect id="Rectangle_425" data-name="Rectangle 425" width="177.085" height="4.672" transform="translate(8.289 75.422)" fill="#71aea8" stroke="#fff" stroke-width="1"/>
          <path id="Path_776" data-name="Path 776" d="M143.4,36.3V80.974H146.2a147.734,147.734,0,0,1,73.207-23.138L189.854,17.1c-19.1,1.9-35.023,7.756-46.458,19.2" transform="translate(-46.564 -5.552)" fill="#fff" fill-rule="evenodd"/>
          <path id="Path_777" data-name="Path 777" d="M103.157,50.941V89.015h-3.09c-23.9-6.55-50.666-10.291-80.588-10.946l32.536-36.21c21.023.9,38.554,3.669,51.143,9.082" transform="translate(-6.325 -13.593)" fill="#d0f1f1" stroke="#fff" stroke-width="1" fill-rule="evenodd"/>
          <path id="Path_778" data-name="Path 778" d="M112.818,30.866V75.544l-2.348-.683C92.309,55.74,71.968,41.922,49.229,33.931L73.954.376c15.976,6.545,29.3,16.268,38.864,30.49" transform="translate(-15.986 -0.122)" fill="#fff" fill-rule="evenodd"/>
          <path id="Path_779" data-name="Path 779" d="M143.1,45.432a.2.2,0,0,1,.4,0V90.99a.2.2,0,1,1-.4,0Z" transform="translate(-46.468 -14.688)" fill="#94d8d8"/>
          <path id="Path_780" data-name="Path 780" d="M233.174,95.107a.254.254,0,0,1,0,.507,310.933,310.933,0,0,0-36.261,2.241,303.956,303.956,0,0,0-34.42,6.195.253.253,0,0,1-.118-.492,304.8,304.8,0,0,1,34.477-6.208,311.691,311.691,0,0,1,36.321-2.243" transform="translate(-52.664 -30.883)" fill="#94d8d8"/>
          <path id="Path_781" data-name="Path 781" d="M83.181,20.207a.2.2,0,1,1,.159-.366,91.529,91.529,0,0,1,16.981,9.848,127.849,127.849,0,0,1,15.361,13.279.2.2,0,1,1-.283.281,127.484,127.484,0,0,0-15.313-13.236,91.18,91.18,0,0,0-16.906-9.806m-2.795,7.735a.2.2,0,0,1,.15-.371A89.6,89.6,0,0,1,98.678,37.632a126.433,126.433,0,0,1,16.3,13.955.2.2,0,0,1-.283.282A126.082,126.082,0,0,0,98.447,37.958,89.218,89.218,0,0,0,80.386,27.942m-1.9,9.5a.2.2,0,1,1,.151-.371A89.573,89.573,0,0,1,96.774,47.129a126.42,126.42,0,0,1,16.3,13.954.2.2,0,1,1-.283.282,125.969,125.969,0,0,0-16.252-13.91A89.138,89.138,0,0,0,78.481,37.438m7.2-24.492a.2.2,0,0,1,.166-.363,92.662,92.662,0,0,1,16.41,9.725,128.679,128.679,0,0,1,14.895,12.938.2.2,0,0,1-.283.282,128.2,128.2,0,0,0-14.848-12.9,92.223,92.223,0,0,0-16.34-9.684" transform="translate(-25.444 -4.08)" fill="#e6e6e6"/>
          <path id="Path_782" data-name="Path 782" d="M83.181,20.207a.2.2,0,1,1,.159-.366,91.529,91.529,0,0,1,16.981,9.848,127.849,127.849,0,0,1,15.361,13.279.2.2,0,1,1-.283.281,127.484,127.484,0,0,0-15.313-13.236,91.18,91.18,0,0,0-16.906-9.806m-2.795,7.735a.2.2,0,0,1,.15-.371A89.6,89.6,0,0,1,98.678,37.632a126.433,126.433,0,0,1,16.3,13.955.2.2,0,0,1-.283.282A126.082,126.082,0,0,0,98.447,37.958,89.218,89.218,0,0,0,80.386,27.942Zm-1.9,9.5a.2.2,0,1,1,.151-.371A89.573,89.573,0,0,1,96.774,47.129a126.42,126.42,0,0,1,16.3,13.954.2.2,0,1,1-.283.282,125.969,125.969,0,0,0-16.252-13.91A89.138,89.138,0,0,0,78.481,37.438Zm7.2-24.492a.2.2,0,0,1,.166-.363,92.662,92.662,0,0,1,16.41,9.725,128.679,128.679,0,0,1,14.895,12.938.2.2,0,0,1-.283.282,128.2,128.2,0,0,0-14.848-12.9A92.223,92.223,0,0,0,85.685,12.946Z" transform="translate(-25.444 -4.08)" fill="#999" stroke="#d1d1d1" stroke-miterlimit="10" stroke-width="2"/>
          <path id="Path_783" data-name="Path 783" d="M110.532,74.565a.254.254,0,1,1-.367.35A172.35,172.35,0,0,0,81.3,50.312,142.6,142.6,0,0,0,49.024,34.05a.256.256,0,0,1-.155-.324.285.285,0,0,1,.034-.067L73.627.105a.253.253,0,1,1,.409.3L49.514,33.684A143.242,143.242,0,0,1,81.585,49.891a172.866,172.866,0,0,1,28.946,24.674" transform="translate(-15.864 0)" fill="#94d8d8"/>
          <path id="Path_784" data-name="Path 784" d="M147.567,81.066a.253.253,0,1,1-.272-.427,147.188,147.188,0,0,1,34.611-16.27,152.557,152.557,0,0,1,38.252-6.884L190.876,17.124a.254.254,0,1,1,.411-.3l29.555,40.738h0a.249.249,0,0,1,.048.137.253.253,0,0,1-.24.265,152.21,152.21,0,0,0-38.591,6.884,146.708,146.708,0,0,0-34.492,16.214" transform="translate(-47.792 -5.43)" fill="#94d8d8"/>
          <path id="Path_785" data-name="Path 785" d="M152.688,58.354a.254.254,0,1,1-.294-.413,93.981,93.981,0,0,1,19.33-10.565,101.206,101.206,0,0,1,22.036-6.036.254.254,0,0,1,.08.5,100.677,100.677,0,0,0-21.926,6.006,93.486,93.486,0,0,0-19.225,10.508m-1.982-7.792a.254.254,0,0,1-.3-.414A91.186,91.186,0,0,1,169.164,39.9a98.149,98.149,0,0,1,21.377-5.856.253.253,0,1,1,.079.5,97.706,97.706,0,0,0-21.268,5.826,90.646,90.646,0,0,0-18.646,10.193m-1.984-7.793a.253.253,0,1,1-.294-.413,91.218,91.218,0,0,1,18.752-10.25,98.2,98.2,0,0,1,21.379-5.855.253.253,0,1,1,.078.5,97.735,97.735,0,0,0-21.268,5.826,90.706,90.706,0,0,0-18.648,10.192m6.052,24.7a.254.254,0,0,1-.3-.414A98.381,98.381,0,0,1,174.71,55.992a105.977,105.977,0,0,1,23.063-6.317.253.253,0,0,1,.08.5A105.472,105.472,0,0,0,174.9,56.463a97.892,97.892,0,0,0-20.125,11" transform="translate(-48.164 -8.523)" fill="#e6e6e6"/>
          <path id="Path_786" data-name="Path 786" d="M152.688,58.354a.254.254,0,1,1-.294-.413,93.981,93.981,0,0,1,19.33-10.565,101.206,101.206,0,0,1,22.036-6.036.254.254,0,0,1,.08.5,100.677,100.677,0,0,0-21.926,6.006,93.486,93.486,0,0,0-19.225,10.508m-1.982-7.792a.254.254,0,0,1-.3-.414A91.186,91.186,0,0,1,169.164,39.9a98.149,98.149,0,0,1,21.377-5.856.253.253,0,1,1,.079.5,97.706,97.706,0,0,0-21.268,5.826A90.646,90.646,0,0,0,150.706,50.562Zm-1.984-7.793a.253.253,0,1,1-.294-.413,91.218,91.218,0,0,1,18.752-10.25,98.2,98.2,0,0,1,21.379-5.855.253.253,0,1,1,.078.5,97.735,97.735,0,0,0-21.268,5.826A90.706,90.706,0,0,0,148.722,42.768Zm6.052,24.7a.254.254,0,0,1-.3-.414A98.381,98.381,0,0,1,174.71,55.992a105.977,105.977,0,0,1,23.063-6.317.253.253,0,0,1,.08.5A105.472,105.472,0,0,0,174.9,56.463,97.892,97.892,0,0,0,154.774,67.464Z" transform="translate(-48.164 -8.523)" fill="none" stroke="#94d8d8" stroke-miterlimit="10" stroke-width="2"/>
          <path id="Path_787" data-name="Path 787" d="M87.022,126.288l13.011-13.109,3.076,9.559L96.6,129.293Z" transform="translate(-28.258 -36.752)" fill="#fff"/>
          <path id="Path_788" data-name="Path 788" d="M101.21,133.889l6.506-6.555,3.075,9.56Z" transform="translate(-32.865 -41.348)" fill="#999"/>
          <path id="Path_789" data-name="Path 789" d="M13.012,26.8,71.776,85.13,67.738,89.2,66.584,90.36l-7.82,7.878L0,39.909l4.487-4.52h0l4.487-4.52h0Z" transform="translate(0 -8.703)" fill="#8ea9f5" stroke="#fff" stroke-width="1"/>
        </g>
      </g>
    </g>
  </g>
</svg>
