<svg xmlns="http://www.w3.org/2000/svg" xmlns:xlink="http://www.w3.org/1999/xlink" width="1929" height="1369" viewBox="0 0 1929 1369">
  <defs>
    <clipPath id="clip-path">
      <rect id="Rectangle_794" data-name="Rectangle 794" width="1929" height="1369" transform="translate(-2845 5644)" fill="#fff" stroke="#707070" stroke-width="1"/>
    </clipPath>
    <clipPath id="clip-path-2">
      <rect id="Rectangle_409" data-name="Rectangle 409" width="179.458" height="197.771" fill="#b7e1d1"/>
    </clipPath>
    <clipPath id="clip-path-3">
      <rect id="Rectangle_410" data-name="Rectangle 410" width="243.817" height="168.298" fill="#9accb9"/>
    </clipPath>
    <clipPath id="clip-path-4">
      <rect id="Rectangle_411" data-name="Rectangle 411" width="242.796" height="150.082" fill="#b7e1d1"/>
    </clipPath>
    <clipPath id="clip-path-5">
      <rect id="Rectangle_411-2" data-name="Rectangle 411" width="242.796" height="150.082" fill="#9accb9"/>
    </clipPath>
    <clipPath id="clip-path-6">
      <rect id="Rectangle_409-2" data-name="Rectangle 409" width="127.354" height="140.349" fill="#9accb9"/>
    </clipPath>
    <clipPath id="clip-path-7">
      <rect id="Rectangle_410-2" data-name="Rectangle 410" width="243.817" height="168.298" fill="#b7e1d1"/>
    </clipPath>
    <linearGradient id="linear-gradient" x1="0.5" y1="0.125" x2="0.5" y2="1" gradientUnits="objectBoundingBox">
      <stop offset="0" stop-color="#b7e1d1"/>
      <stop offset="1" stop-color="#d1e7f2"/>
    </linearGradient>
    <clipPath id="clip-path-10">
      <rect id="Rectangle_398" data-name="Rectangle 398" width="49.892" height="34.054" fill="#44ab75"/>
    </clipPath>
  </defs>
  <g id="bg-bottom" transform="translate(2845 -5644)" clip-path="url(#clip-path)">
    <g id="Group_829" data-name="Group 829" transform="translate(-2842.652 4540.031)">
      <g id="Group_502" data-name="Group 502" transform="translate(0 316)">
        <g id="Group_491" data-name="Group 491" transform="translate(1749.542 1011.784)">
          <g id="Group_490" data-name="Group 490" transform="translate(0 0.004)" clip-path="url(#clip-path-2)">
            <path id="Path_707" data-name="Path 707" d="M90.816,20.087c-4.513-2.532-15.347,2.155-25.95,8.737-3.349,2.078-6.673,4.345-9.769,6.634-2.923,2.161-5.641,4.339-7.981,6.4-.866.762-1.682,1.507-2.436,2.228a43.3,43.3,0,0,0-3.558,3.773C32.46,58.462,42.354,67.308,50.5,71.74A37.041,37.041,0,0,1,55.788,75.3a31.762,31.762,0,0,1,7.792,8.676c1.912,3.424,2.316,6.826-.19,9.374C57.37,99.467,51.3,94.8,43.037,89.337c-2.512-1.663-3.892-4.828-4.878-8.5-.561-2.089-.994-4.341-1.434-6.573-1.326-6.735-2.717-13.278-7.9-14.56C23.795,58.461,16.2,63.959,10.11,72.969A58.7,58.7,0,0,0,1.729,92.04,49.728,49.728,0,0,0,.393,106.154c1.352,25.2,14.481,23.628,18.573,21.809s13.267-2.217,19.409,2.124c.108.077.213.157.316.24a7.773,7.773,0,0,1,2.638,5.3,14.256,14.256,0,0,1-12.952,15.221C15.4,152.45,6.759,133.1,1.77,134.391s1.689,14.164,6.247,21.2a80.872,80.872,0,0,0,17.4,19.277q.819.638,1.669,1.255A49.728,49.728,0,0,0,42.392,183.8c15.912,4.6,17.844-11.861,25.013-13.389q0-.2,0-.4l.04-1.271q.041-1.27.082-2.535l.141-2.522q.036-.629.071-1.257l.1-1.252.2-2.5c.023-.237.048-.474.072-.71a1.564,1.564,0,0,1-.17-.072c-.107-.063-.255-.115-.4-.2-.076-.042-.156-.09-.24-.144s-.189-.095-.29-.151a8.693,8.693,0,0,0-1.688-.737,8.121,8.121,0,0,0-1.676-.341,10.576,10.576,0,0,0-1.737-.005,12.081,12.081,0,0,0-3.362.745,39.39,39.39,0,0,0-6.079,3.261,27.729,27.729,0,0,1-5.955,2.907,18.074,18.074,0,0,1-10.513.1,16.168,16.168,0,0,1-3.312-1.381l-.6-.349c-.187-.11-.35-.234-.506-.339a6.92,6.92,0,0,1-.758-.577c-.388-.341-.567-.546-.524-.607.1-.141,1.008.418,2.748,1.115a19.554,19.554,0,0,0,3.247.971,18.658,18.658,0,0,0,4.426.375,17.452,17.452,0,0,0,5.222-1,27.652,27.652,0,0,0,5.485-2.9A38.313,38.313,0,0,1,57.8,155.09a13.925,13.925,0,0,1,3.943-.909,12.517,12.517,0,0,1,2.1,0,10.131,10.131,0,0,1,2.134.431c.133.043.262.08.385.127l.353.152a4.27,4.27,0,0,1,.624.313c.187.113.363.213.517.323s.286.228.41.332c.023.018.041.036.062.054.156-1.553.38-3.093.575-4.628.049-.408.116-.812.179-1.217l.19-1.213.19-1.21.1-.6.109-.6c.3-1.6.567-3.2.916-4.768.168-.787.328-1.574.5-2.356l.555-2.331.276-1.161c.049-.2.1-.391.153-.585-.169-.3-.362-.676-.616-1.137-.19-.351-.376-.767-.621-1.228s-.52-.982-.829-1.569a38.626,38.626,0,0,0-3.1-4.691l-.882-1.066c-.149-.175-.288-.358-.444-.525l-.466-.5c-.315-.33-.608-.678-.936-.99l-.97-.941a34.77,34.77,0,0,0-4.117-3.3l-.53-.369c-.175-.124-.363-.227-.543-.342l-.143-.088a6.849,6.849,0,0,1-1.355.133c-11.989.235-21.718-.056-21.729-.65-.011-.557,8.523-1.183,19.469-1.452l-.649-.3c-.368-.174-.75-.307-1.121-.461-.742-.307-1.488-.578-2.241-.82-1.5-.491-3-.909-4.458-1.353a28.411,28.411,0,0,1-7.895-3.43,18.524,18.524,0,0,1-2.914-2.441c-.427-.421-.8-.868-1.166-1.3-.179-.217-.341-.443-.507-.658l-.245-.323-.223-.33a18.771,18.771,0,0,1-2.38-4.8,16.177,16.177,0,0,1-.7-3.294c-.045-.769-.027-1.171.046-1.179s.2.377.381,1.1a27.017,27.017,0,0,0,1.053,3.078,20.084,20.084,0,0,0,2.569,4.387l.226.3.246.29c.167.193.329.4.506.591.363.382.73.783,1.145,1.156a17.817,17.817,0,0,0,2.786,2.144,27.986,27.986,0,0,0,7.563,2.992c1.443.4,2.963.786,4.53,1.262.784.235,1.579.5,2.372.816.4.156.8.291,1.2.469l1.188.534c.4.17.79.379,1.182.583s.79.4,1.18.624l1.159.692c.192.119.393.227.58.355l.567.383a35.935,35.935,0,0,1,4.4,3.456l1.036.99c.349.329.663.7,1,1.044l.5.531c.167.176.316.37.475.554l.941,1.127a39.729,39.729,0,0,1,3.3,4.979c.354.672.644,1.273.9,1.8.028.064.052.124.079.187.195-.717.417-1.424.622-2.134L73.825,129c.11-.375.219-.749.344-1.118l.722-2.215c.121-.367.237-.736.362-1.1l.388-1.089a135.28,135.28,0,0,1,7.072-16.526c2.676-5.191,5.6-10.013,8.5-14.6s5.805-8.938,8.532-13.142l2.014-3.125,1.94-3.071-.009-.157a8.055,8.055,0,0,0-.422-2.041,8.269,8.269,0,0,0-.871-1.734,9.038,9.038,0,0,0-1.251-1.494A8.543,8.543,0,0,0,99.625,66.4a12.694,12.694,0,0,0-1.744-.907,44.564,44.564,0,0,0-7.593-2.113c-.2-.047-.4-.1-.6-.145a1.011,1.011,0,0,1-.26.025,14.93,14.93,0,0,1-2.318-.517,15.236,15.236,0,0,0-5.438-.151,43.881,43.881,0,0,0-5.206,1.115c-1.68.434-3.31.856-4.883,1.124-.786.134-1.555.232-2.3.287a16.4,16.4,0,0,1-2.166.014,11.421,11.421,0,0,1-6.152-2.011,7.626,7.626,0,0,1-.782-.662,7.1,7.1,0,0,1-.491-.564c-.232-.334-.322-.528-.267-.578s.252.045.565.262c.159.106.365.224.59.377.244.13.5.3.826.452a12.284,12.284,0,0,0,5.748,1.2,16.508,16.508,0,0,0,1.961-.145c.682-.093,1.392-.223,2.125-.386,1.468-.325,3.027-.8,4.7-1.285a40.517,40.517,0,0,1,5.441-1.292q.217-.031.438-.058a21.219,21.219,0,0,1-4.251-2.832A16.283,16.283,0,0,1,74.092,53.4a13.271,13.271,0,0,1-1.467-3.84,9.743,9.743,0,0,1-.187-2.575c.063-.588.145-.887.217-.884.182,0,.137,1.231.781,3.246a14.265,14.265,0,0,0,1.681,3.423,16.08,16.08,0,0,0,3.42,3.674,21.727,21.727,0,0,0,5.327,3.008,32.987,32.987,0,0,0,3.122,1.072c.2.038.408.079.613.127a8.8,8.8,0,0,1,1.08.33q1,.249,2.04.467c1.246.264,2.551.509,3.893.826a25.276,25.276,0,0,1,4.1,1.286,14.582,14.582,0,0,1,2.026,1.032A10.846,10.846,0,0,1,105.3,70.1c.022.065.039.127.059.19l.194-.317c.606-1,1.179-2,1.76-2.988q3.424-5.932,5.992-11.537l1.2-2.781c.1-.229.2-.455.291-.684l.264-.689.521-1.361.514-1.34c.168-.444.31-.893.464-1.333s.306-.878.444-1.316l.4-1.3a86.626,86.626,0,0,0,3.484-18.2l.077-.941c.027-.309.05-.614.063-.915q.05-.9.1-1.751c.029-.566.035-1.113.053-1.643s.036-1.041.031-1.532c0-.984.019-1.894-.009-2.726s-.02-1.587-.056-2.261-.045-1.27-.062-1.783-.047-.943-.056-1.291c-.018-.7,0-1.056.062-1.064s.159.338.3,1.023q.1.514.232,1.279c.076.511.151,1.106.236,1.781s.153,1.434.228,2.271.122,1.756.177,2.751c.032.5.039,1.015.051,1.552s.03,1.092.028,1.666-.011,1.168-.017,1.779c0,.306-.01.616-.024.931s-.025.634-.038.958A82.621,82.621,0,0,1,119.3,45.192l-.381,1.346c-.13.452-.28.9-.421,1.359s-.281.919-.442,1.378l-.493,1.384-.5,1.406-.254.711c-.087.237-.188.47-.282.706l-1.167,2.87c-1.661,3.845-3.629,7.811-5.876,11.863-2.573,4.675-5.538,9.441-8.671,14.389.233-.1.477-.192.739-.288a33.744,33.744,0,0,1,10.213-1.8c3.328-.127,6.493.072,9.477.216,2.322.117,4.539.21,6.639.191a.878.878,0,0,1,.13-.04,1.818,1.818,0,0,1,.764.019l.026.006c.284-.007.568-.016.847-.028,1.3-.057,2.559-.167,3.752-.331a27.576,27.576,0,0,0,3.381-.689,26.691,26.691,0,0,0,2.974-1,22.7,22.7,0,0,0,2.512-1.223,18.227,18.227,0,0,0,3.6-2.646l.329-.308c.1-.1.2-.209.291-.308l.526-.563c.3-.372.571-.676.772-.937.392-.528.634-.8.7-.76s-.048.371-.333.992c-.147.307-.373.662-.629,1.092-.141.205-.3.421-.471.654-.087.115-.171.239-.268.357l-.31.359a16.82,16.82,0,0,1-3.584,3.1,21.978,21.978,0,0,1-2.588,1.449,26.121,26.121,0,0,1-3.1,1.2,27.594,27.594,0,0,1-3.55.869c-.468.082-.947.152-1.431.216.622.341,1.222.693,1.8,1.044l3.479,2.161a32,32,0,0,0,3.158,1.732,20.323,20.323,0,0,0,2.889,1.11,14.934,14.934,0,0,0,2.484.513,13.347,13.347,0,0,0,1.922.062c.269,0,.5-.035.712-.043s.385-.03.531-.04c.292-.018.462,0,.487.074s-.1.184-.36.341a2.924,2.924,0,0,1-.507.247,5.564,5.564,0,0,1-.729.248,9.289,9.289,0,0,1-2.1.313,12.954,12.954,0,0,1-2.8-.235,18.346,18.346,0,0,1-3.24-.95,27.934,27.934,0,0,1-3.45-1.657c-2.332-1.278-4.714-2.882-7.349-4.042a11.893,11.893,0,0,1-1.112-.532c-2.206.084-4.513.039-6.893-.038-3-.091-6.119-.241-9.3-.09a32.614,32.614,0,0,0-9.572,1.716c-1.733.636-2.782,1.136-3.475,1.422-1.683,2.65-3.4,5.356-5.119,8.132-2.825,4.583-5.656,9.374-8.214,14.454Q82.9,113.515,80.709,119.1a16.25,16.25,0,0,1,4.928-1.4q1.86-.238,3.706-.336a9.237,9.237,0,0,1,.841-1.6c.987-1.563,2-3.076,3.089-4.477a30.273,30.273,0,0,1,3.458-3.8,21.868,21.868,0,0,1,3.779-2.789,20.543,20.543,0,0,1,3.728-1.66A18,18,0,0,1,110,102.1c1.378.022,2.122.212,2.117.349,0,.159-.748.255-2.049.485a24.683,24.683,0,0,0-5.3,1.532,21.856,21.856,0,0,0-3.33,1.758,22.178,22.178,0,0,0-3.345,2.706,31.633,31.633,0,0,0-3.143,3.641c-1.008,1.348-1.978,2.814-2.946,4.348-.085.137-.167.264-.245.384q1.813,0,3.6.13a49.644,49.644,0,0,1,9.3,1.592,48.8,48.8,0,0,1,16.014,7.659c2.289,1.685,4.358,3.488,6.343,5.227s3.9,3.416,5.83,4.9c.487.364.965.735,1.456,1.071.244.17.484.347.729.51l.736.481c.242.164.49.314.738.46l.739.442.748.4c.249.131.492.276.748.383l1.5.687c.5.209,1.019.376,1.519.564.253.084.5.2.755.258l.761.21c.506.132,1,.3,1.506.38l1.491.293c.5.072.987.121,1.472.183.242.028.483.062.723.084l.718.033c.476.019.945.051,1.408.061l1.371-.033c.225-.007.449-.008.671-.019l.658-.063,1.286-.121c.42-.056.829-.134,1.234-.2a29.372,29.372,0,0,0,8-2.555l.765-.364c.242-.129.469-.266.694-.392.446-.258.871-.488,1.255-.719l1.032-.689.454-.3.211-.138.188-.145a6.44,6.44,0,0,1,1.57-1.065c.051.054-.394.532-1.3,1.4l-.175.168-.2.161-.431.346-1,.788c-.374.265-.792.53-1.233.823-.222.144-.448.3-.689.446l-.764.419a28.468,28.468,0,0,1-8.169,2.994c-.419.081-.843.177-1.279.249l-1.336.169-.685.086c-.231.019-.465.027-.7.041l-1.433.076c-.485,0-.977-.015-1.477-.023l-.754-.016c-.253-.017-.506-.045-.762-.068-.511-.051-1.03-.091-1.553-.155l-1.579-.271c-.537-.074-1.062-.237-1.6-.365l-.811-.205c-.275-.059-.535-.172-.806-.256-.535-.188-1.086-.355-1.626-.567l-1.616-.7c-.276-.111-.534-.258-.8-.391l-.8-.414-.786-.451c-.265-.149-.528-.3-.784-.469l-.78-.491c-.259-.167-.511-.345-.769-.518-.519-.343-1.018-.717-1.528-1.087-2.022-1.5-3.989-3.179-5.994-4.891s-4.056-3.457-6.27-5.054a47.413,47.413,0,0,0-15.4-7.228c-1.519-.4-3.074-.735-4.653-.992a12.186,12.186,0,0,1,1.784,3.456c.526,1.56.819,3.049,1.164,4.4.172.674.353,1.314.562,1.914q.155.451.339.867c.112.284.253.549.381.815a13.5,13.5,0,0,0,1.871,2.726,15.447,15.447,0,0,0,3.775,3.084c1.013.6,1.625.884,1.58,1.039-.036.13-.736.116-1.927-.277a10.947,10.947,0,0,1-2.078-.953,13.172,13.172,0,0,1-2.442-1.834,13.657,13.657,0,0,1-2.337-2.916c-.167-.295-.345-.592-.493-.911s-.306-.639-.439-.972c-.269-.665-.5-1.356-.7-2.058-.414-1.4-.747-2.85-1.242-4.226a9.486,9.486,0,0,0-2.212-3.644c-.381-.358-.677-.6-.9-.792-.06-.057-.115-.106-.166-.152-.255-.023-.509-.046-.765-.064a46.472,46.472,0,0,0-9.274.271,16.434,16.434,0,0,0-5.021,1.406,9.508,9.508,0,0,0-1.308.772q-.46,1.256-.9,2.529l-.372,1.065c-.119.357-.23.718-.346,1.078l-.69,2.168c-.119.361-.223.727-.328,1.094l-.318,1.1c-.208.736-.435,1.469-.628,2.214l-.582,2.241c-.1.375-.2.749-.29,1.126l-.263,1.136-.529,2.281-.476,2.306c-.334,1.538-.588,3.1-.872,4.665l-.059.334a5.793,5.793,0,0,1,.629-.034,12.088,12.088,0,0,1,3.68.524,18.9,18.9,0,0,1,5.842,2.935,27.189,27.189,0,0,1,4.528,4.312,98.432,98.432,0,0,1,6.6,9.41,40.909,40.909,0,0,0,6.315,7.8l.432.388.447.358c.3.234.584.482.887.7.618.421,1.21.858,1.845,1.2l.464.274.23.136.238.119.941.469.232.116.238.1.473.2c.316.125.619.273.935.376a24.993,24.993,0,0,0,7.022,1.455,26.057,26.057,0,0,0,5.454-.266c2.974-.516,4.546-1.2,4.618-1.025.03.068-.335.291-1.069.658a12.7,12.7,0,0,1-1.4.579,20.34,20.34,0,0,1-1.982.609,23.723,23.723,0,0,1-5.661.648,24.934,24.934,0,0,1-7.482-1.22c-.34-.1-.669-.243-1.01-.365l-.512-.193-.258-.1-.252-.115-1.023-.471-.259-.12-.252-.138-.507-.279c-.692-.354-1.345-.8-2.024-1.244-.334-.228-.65-.487-.981-.733l-.494-.377-.475-.405a41.251,41.251,0,0,1-6.774-8.028,104.137,104.137,0,0,0-6.555-9.15,25.526,25.526,0,0,0-4.189-3.954,16.95,16.95,0,0,0-5.182-2.6,16.247,16.247,0,0,0-3.318-.614c-.206-.028-.395-.028-.569-.041-.039,0-.075-.006-.112-.008l-.021.136-.181,1.187c-.06.4-.124.792-.17,1.191-.195,1.594-.426,3.192-.572,4.808-.08.807-.169,1.615-.243,2.426l-.189,2.442q-.046.612-.093,1.225t-.065,1.23l-.131,2.468q-.036,1.238-.072,2.48-.018.622-.036,1.244,0,.352,0,.706c9.448,3.552,10.274,21.906,32.673,26.147,1.475.279,2.979.486,4.5.626a52.221,52.221,0,0,0,22.692-2.871c5.369-2.085,9.253-5.106,10.161-8.7,2.178-8.625-4.127-15.358-15.263-18.391a27.01,27.01,0,0,1-12.862-8.545c-4.053-4.914-5.105-10.4.87-12.549,5.8-2.084,10.469,1.559,14.048,6.39a73.465,73.465,0,0,1,6.637,11.83c3.27,6.758,15.831,14.153,32.792.942s13.279-48,7.459-52.273c-2.776-2.038-6.847-1.595-11.171-.131-4.744,1.606-9.794,4.443-13.774,6.587-7.608,4.1-14.645,3.943-23.3-5.985-4.934-5.661.473-10.538,7.4-13.078a31.441,31.441,0,0,1,7.8-1.777,14.262,14.262,0,0,1,6.678.674c7.079,3.125,12.469,8.364,21.064,2.523.37-.251.745-.521,1.127-.814,1.658-1.273,2.182-3.8,1.907-7.114-1.258-15.174-19.293-46.726-21.654-48.612A3.5,3.5,0,0,0,149.089,45a8.385,8.385,0,0,0-3.072.12c-3.379.676-7.346,2.867-9.134,5.186-2.794,3.623-8.44,11.148-12.445,6.253s2.337-10.947,6.176-13.158,9.518-2.007,13.885-5.115c2.472-1.759-.612-12.366-5.183-21.911-3.5-7.314-7.877-14-11.294-15.61-3.444-1.619-8.109-.472-12.673,1.78a54.387,54.387,0,0,0-11.2,7.63,38.506,38.506,0,0,0-3.1,3.009c-4.077,4.508-.282,11.173,3.4,17.088.7,1.12,1.388,2.212,2.022,3.258,3.954,6.526,6.57,13.1,1.052,17.607l-.12.1c-5.677,4.511-10.282-3.879-9.793-9.318.29-3.23.917-8.6-.447-13.447a13.292,13.292,0,0,0-6.339-8.381" transform="translate(-0.001 -0.004)" fill="#b7e1d1"/>
          </g>
        </g>
        <g id="Group_495" data-name="Group 495" transform="matrix(-0.454, -0.891, 0.891, -0.454, 1703.656, 1292.323)">
          <g id="Group_493" data-name="Group 493" clip-path="url(#clip-path-3)">
            <path id="Path_708" data-name="Path 708" d="M132.176,165.19c1.135-1.238.606-3.636-.894-6.779-.5-1.052-1.113-2.187-1.807-3.391-1.366-2.368-3.052-5-4.863-7.779q-.6-.917-1.212-1.854c-1.866-2.852-3.813-5.824-5.641-8.8-7.059-11.484-25.6-28.237-24.924-33.943a1.844,1.844,0,0,1,.743-1.321,2.269,2.269,0,0,1,.352-.211c3.113-1.541,9.37,4.367,16.01,12.85,1.6,2.046,3.225,4.241,4.833,6.518,3.279,4.646,6.49,9.629,9.3,14.37,10.125,17.07,17.664,22.07,36.83,26.567a36.621,36.621,0,0,0,17.245-.1,35.955,35.955,0,0,0,3.829-1.182c8.568-3.184,14.1-9.035,13.658-13-.755-6.691-14-11.31-28.7-15.6s-20.816-16.475-19.923-19.788c.694-2.573,8.131,2.818,15.168,7.719,1.137.791,2.263,1.57,3.349,2.3.846.569,1.668,1.109,2.45,1.6a70.225,70.225,0,0,0,7.916,4.114c1.2.546,2.454,1.1,3.751,1.643a179.482,179.482,0,0,0,19.873,7.049,69.865,69.865,0,0,0,6.964,1.64c9.992,1.7,35.6-15.852,37.289-30.57s-44.939-40.13-52.216-40.614S174.11,75.771,164.608,81.49a73.42,73.42,0,0,1-14.9,6.84q-1.044.328-2.065.594c-3.713.967-7.116,1.263-9.52.379a5,5,0,0,1-3.1-2.988c-.6-1.562.192-3.155,1.906-4.72,6.909-6.31,28.867-12.173,35.839-13.754,8.7-1.974,14.878-2.307,17.235-9.4s-21.618-22.7-28.478-27.394a5.316,5.316,0,0,0-2.841-.886,11.634,11.634,0,0,0-4.081.695c-8.77,2.9-22.99,14.4-42.607,27.9a110.754,110.754,0,0,1-16.042,9.231c-18.38,8.546-31.845,7.848-32.821,4.6-.579-1.926,2.386-4.523,7.2-7.27,1.682-.96,3.59-1.938,5.653-2.912l.089-.042c4.7-2.217,10.2-4.412,15.634-6.323,14.689-5.162,36.532-15.759,42.657-20.351s12.318-12.249-3.392-23.02a41.512,41.512,0,0,0-15.837-6.585A45.144,45.144,0,0,0,93.679,7.253c-.824.263-1.556.532-2.182.793-6.408,2.674-13.085,17.608-21.74,28.573S43.606,59.778,39.065,57.911s1.6-13.783,15.02-25.214S82.454,20.619,83.145,8.873a5.679,5.679,0,0,0-.113-1.51C81.7,1.033,69.4-2,55.523,1.427A53.1,53.1,0,0,0,29.175,17a87.823,87.823,0,0,0-14.35,21.374q-.882,1.836-1.65,3.624A95.4,95.4,0,0,0,6.46,65.111l.762.319c.947.405,1.905.783,2.86,1.163.919.374,1.842.733,2.766,1.087.012-.195.032-.4.066-.622.067-.427.16-.9.282-1.441.319-1.539.774-3.025,1.178-4.5.484-1.45.916-2.895,1.47-4.268l.394-1.032c.13-.343.26-.683.41-1.014l.861-1.976.214-.487.233-.475.463-.941L18.877,50l.228-.46.246-.448a65.074,65.074,0,0,1,8.1-11.855l.49-.576.5-.541.969-1.034c.617-.679,1.255-1.268,1.84-1.825a40.905,40.905,0,0,1,3.136-2.707l.325-.256.32-.226q.311-.217.586-.4.549-.365.949-.587c.531-.294.855-.393.953-.28.446.5-3.117,3.95-7.661,10.322A82.606,82.606,0,0,0,22.91,50.891l-.215.432-.2.443-.4.894-.406.9-.205.455-.187.466-.76,1.885c-.134.315-.249.639-.363.965l-.35.98c-.5,1.3-.88,2.668-1.324,4.035-.364,1.391-.788,2.787-1.085,4.233-.123.541-.246,1.012-.369,1.422s-.213.767-.325,1.068l-.023.06c1.627.593,3.248,1.188,4.878,1.748,1.915.681,3.842,1.317,5.755,1.965,1.922.628,3.833,1.261,5.748,1.866,1.887.614,3.783,1.178,5.665,1.757a3.4,3.4,0,0,1,.165-.4,10.32,10.32,0,0,1,1.4-2.008c.356-.418.77-.892,1.274-1.405s1.087-1.077,1.755-1.7c1.9-1.8,3.839-3.509,5.732-5.214,1.933-1.66,3.815-3.322,5.729-4.878C58.589,57.7,62.361,54.795,66,52.091c7.3-5.376,14.144-9.828,20.032-13.316,11.8-6.963,19.629-10.231,19.875-9.749.306.578-6.99,4.793-18.239,12.337-5.618,3.78-12.2,8.435-19.26,13.909-3.519,2.753-7.184,5.679-10.876,8.84-1.867,1.555-3.707,3.209-5.6,4.854-1.855,1.69-3.763,3.376-5.63,5.152-.707.662-1.338,1.231-1.9,1.72s-1.045.913-1.48,1.257q-.324.257-.607.463l2.193.671c15.135,4.54,29.885,8.416,44.027,11.714L93.8,91.157l2.612.6,2.6.551.852.18c.011-.057.021-.111.033-.17a5.657,5.657,0,0,1,.213-.776q.133-.41.3-.873a8.446,8.446,0,0,1,.414-.958c.161-.332.328-.688.525-1.052a29.22,29.22,0,0,1,4.062-5.562,45.284,45.284,0,0,1,4.761-4.448c1.638-1.337,3.3-2.549,4.951-3.681l1.234-.834,1.222-.8C118.4,72.8,119.2,72.29,120,71.785a184.1,184.1,0,0,1,17.507-9.8c2.565-1.252,4.92-2.31,7-3.205,1.046-.437,2.018-.844,2.922-1.2s1.731-.673,2.483-.94,1.423-.5,2.008-.686,1.09-.327,1.5-.43c.823-.2,1.282-.246,1.341-.108s-.285.447-.992.908c-.353.232-.8.5-1.327.807s-1.139.66-1.832,1.043l-2.3,1.274-2.739,1.507c-1.958,1.091-4.188,2.326-6.626,3.733-4.875,2.816-10.606,6.282-16.762,10.435-.769.519-1.548,1.044-2.328,1.588l-1.18.814-1.172.83c-1.561,1.121-3.114,2.3-4.617,3.56a43.3,43.3,0,0,0-4.278,4.077,25.744,25.744,0,0,0-3.464,4.765c-.553,1.046-.972,1.887-1.3,2.571l5.419,1.145,9.983,1.935c.82.156,1.634.323,2.449.47l2.436.428,4.812.846,4.731.834,4.66.741,4.575.724,2.255.357c.748.119,1.492.241,2.235.339,5.941.819,11.634,1.687,17.094,2.314,21.815,2.726,39.581,4,51.862,4.763l4.347.279,1.976.132,1.843.093c2.366.123,4.369.238,5.988.346,3.237.216,4.938.4,4.936.551s-1.707.256-4.954.322c-1.624.033-3.633.055-6.008.068l-1.849.008-1.983-.032-4.364-.082c-8.4-.166-19.355-.6-32.423-1.6.072.107.146.222.22.345.436.754.923,1.465,1.376,2.183.488.694.945,1.4,1.444,2.051.961,1.337,1.972,2.565,2.954,3.722a70.293,70.293,0,0,0,5.653,5.8c3.431,3.13,5.818,4.9,5.514,5.454-.142.258-.928.151-2.23-.32a27.722,27.722,0,0,1-5.157-2.712,41.823,41.823,0,0,1-6.707-5.511,44.374,44.374,0,0,1-3.405-3.868c-.566-.695-1.083-1.445-1.627-2.194-.509-.773-1.044-1.546-1.521-2.368a9,9,0,0,1-.449-.833,4.229,4.229,0,0,1-.238-.686,1.738,1.738,0,0,1-.009-.975,1.16,1.16,0,0,1,.237-.4q-7.476-.618-15.775-1.5c-5.495-.532-11.226-1.311-17.208-2.047-.748-.088-1.5-.2-2.25-.308l-2.27-.327-4.607-.665-4.693-.684-4.764-.779-3.947-.647c.023.047.046.093.068.143.125.264.232.575.364.93s.268.757.4,1.216c.358,1.322.834,2.591,1.252,3.858.493,1.24.928,2.483,1.469,3.659l.384.886c.125.295.252.588.4.871l.82,1.7.2.42.219.408.433.811.427.8.211.4.227.386a75.035,75.035,0,0,0,7.2,10.449c4.64,5.6,8.192,8.554,7.791,9.089-.089.12-.4.062-.924-.164-.26-.113-.573-.267-.934-.462q-.271-.146-.579-.322l-.316-.183-.323-.211a36.54,36.54,0,0,1-3.133-2.268c-.588-.473-1.227-.972-1.853-1.557l-.98-.889-.508-.466-.5-.5a58.672,58.672,0,0,1-8.371-10.471l-.259-.4-.243-.414-.489-.836-.493-.847-.248-.428-.231-.44-.929-1.787c-.161-.3-.3-.608-.446-.919l-.432-.937c-.6-1.245-1.093-2.566-1.633-3.889-.465-1.351-.979-2.709-1.365-4.127-.156-.53-.277-1-.369-1.413a9.237,9.237,0,0,1-.144-1.1,3.306,3.306,0,0,1,.136-1.4,1.355,1.355,0,0,1,.094-.192c-.738-.128-1.477-.268-2.22-.4l-10.056-1.843L98.208,96.128,95.584,95.6l-2.631-.584-5.313-1.18Q83.1,92.808,78.48,91.7c.1.225.189.48.282.768.129.385.238.833.378,1.344s.285,1.088.43,1.744c.38,1.884.907,3.71,1.364,5.525.55,1.789,1.03,3.572,1.643,5.279l.433,1.283c.142.427.284.851.449,1.264l.937,2.474.231.611.252.6.5,1.188.492,1.175.244.583.264.569a116.515,116.515,0,0,0,8.506,15.586c5.56,8.5,9.917,13.175,9.426,13.652-.106.105-.484-.08-1.111-.533q-.47-.34-1.123-.878l-.7-.584-.379-.327-.386-.364q-.791-.753-1.739-1.691c-.643-.615-1.287-1.33-1.984-2.1s-1.452-1.582-2.185-2.5l-1.15-1.4-.6-.733-.581-.775a94.129,94.129,0,0,1-9.618-15.661l-.293-.584-.272-.6-.548-1.207-.552-1.222-.278-.616-.256-.63-1.031-2.555c-.18-.428-.336-.867-.492-1.309l-.474-1.329c-.666-1.771-1.191-3.624-1.777-5.488-.494-1.89-1.048-3.8-1.447-5.764-.162-.737-.29-1.386-.386-1.959s-.123-1.076-.147-1.507a5.717,5.717,0,0,1,.136-1.873,1.893,1.893,0,0,1,.109-.283C64.713,88.34,54.1,85.493,43.29,82.293l-5.732-1.732c-1.918-.584-3.849-1.151-5.774-1.772-1.456-.455-2.914-.929-4.375-1.4l-.022.119c-.081.474-.2,1-.331,1.6-.363,1.7-.629,3.409-.827,5.1-.173,1.692-.278,3.366-.3,5.016-.009.412,0,.823,0,1.232s0,.816.027,1.221.033.808.049,1.209.059.8.088,1.2q.022.3.043.593t.063.588l.124,1.168q.08.579.16,1.15l.078.57.1.564a56.221,56.221,0,0,0,4.918,15.412,61.514,61.514,0,0,0,3.038,5.5c.5.778.962,1.514,1.421,2.167.439.668.873,1.256,1.252,1.8l.276.4.27.364.483.668c.291.423.55.771.747,1.068.393.592.554.958.45,1.066s-.466-.048-1.069-.45a11.146,11.146,0,0,1-1.065-.8l-.647-.549-.353-.309-.36-.343c-.492-.473-1.041-1-1.6-1.619-.576-.6-1.153-1.3-1.777-2.047a46.918,46.918,0,0,1-3.763-5.452A51.8,51.8,0,0,1,22.74,99.427l-.125-.6-.105-.611L22.3,96.978l-.171-1.255q-.042-.316-.085-.633l-.064-.639q-.063-.641-.126-1.289l-.083-1.306c-.033-.438-.045-.878-.055-1.321s-.03-.887-.028-1.335c-.007-1.789.085-3.61.258-5.453a54.968,54.968,0,0,1,.879-5.562c.158-.7.323-1.3.478-1.833.032-.1.065-.2.1-.295-1.08-.362-2.161-.729-3.241-1.11-1.948-.666-3.889-1.382-5.841-2.088-1.942-.738-3.9-1.461-5.838-2.249-.973-.386-1.949-.77-2.916-1.183l-.489-.2A44.155,44.155,0,0,0,.68,82.571,50.093,50.093,0,0,0,0,90.878a56.272,56.272,0,0,0,2.79,17.177q.608,1.9,1.371,3.859A73.461,73.461,0,0,0,8.078,120.3q1.035,1.9,2.173,3.692,1.191,1.888,2.48,3.658a70.377,70.377,0,0,0,7.594,8.8q1.22,1.2,2.475,2.327c18.237,16.358,41.458,21.117,46.593,18.552,6.712-3.352-5.2-26.27-9.372-36.608s-9.151-26.9-3.726-29.2c2.127-.9,4.193,1.752,6.056,5.793a81.221,81.221,0,0,1,3.558,9.761c.578,1.885,1.112,3.752,1.594,5.48.591,2.12,1.1,4.032,1.523,5.509.115.4.233.831.356,1.275,2.316,8.357,6.3,23.468,20.576,37.9,8.1,8.189,18.811,10.868,27.46,11.057,7.4.162,13.292-1.5,14.757-3.1" transform="translate(0 0)" fill="#9accb9"/>
          </g>
        </g>
        <g id="Group_497" data-name="Group 497" transform="translate(1495 1080.567) rotate(-45)">
          <g id="Group_496" data-name="Group 496" clip-path="url(#clip-path-4)">
            <path id="Path_709" data-name="Path 709" d="M1170.6,332.025c5.1.49,23.227-1.008,18.97-5.7-4.392-4.841-18.486,4.528-19.858,5.459.181.046.349.09.5.131s.275.076.39.111" transform="translate(-954.899 -265.268)" fill="#b7e1d1"/>
            <path id="Path_710" data-name="Path 710" d="M1120.559,276.35c-6.551-4.08-25.069,11.173-24.455,12.656h.008c.505-.173,28.887-9.893,24.448-12.658" transform="translate(-894.792 -225.034)" fill="#b7e1d1"/>
            <path id="Path_711" data-name="Path 711" d="M1019.793,240.331s36.848-17.487,29.077-21.526c-5.7-2.964-29.077,21.526-29.077,21.526" transform="translate(-832.508 -178.418)" fill="#b7e1d1"/>
            <path id="Path_712" data-name="Path 712" d="M940.488,190.571q-1.073.963-2.12,1.922c-2.362,2.164-4.588,4.274-6.517,6.137q-.834.8-1.59,1.544c-2,1.957-3.554,3.514-4.408,4.379l.612.035c1.155-.617,2.984-1.606,5.229-2.854l1.051-.587c2.638-1.478,5.742-3.256,8.95-5.182l.482-.29c11.4-6.871,23.86-15.477,21.242-18.894-1.571-2.051-6.452.539-12.226,4.867l-.075.057c-3.4,2.555-7.109,5.707-10.63,8.867" transform="translate(-755.82 -143.731)" fill="#b7e1d1"/>
            <path id="Path_713" data-name="Path 713" d="M865.988,135.128A55.447,55.447,0,0,0,857.762,142c-1.125,1.09-2.277,2.249-3.443,3.454-1.885,1.95-3.8,4.019-5.682,6.107q-.6.667-1.2,1.337l-.577.65q-1.079,1.219-2.128,2.425c-4.76,5.475-8.92,10.575-11.2,13.408l1.333.019c2.251-1.644,5.514-4.061,9.176-6.877,1.107-.851,2.25-1.738,3.412-2.652q1.117-.878,2.254-1.786,1.263-1.009,2.533-2.045c1.9-1.551,3.8-3.135,5.611-4.707,1.269-1.1,2.5-2.194,3.668-3.268a64.511,64.511,0,0,0,7.875-8.312,9.688,9.688,0,0,0,1.974-3.877,1.9,1.9,0,0,0-.405-1.632,1.575,1.575,0,0,0-.576-.405c-.993-.407-2.521.111-4.407,1.293" transform="translate(-680.461 -109.144)" fill="#b7e1d1"/>
            <path id="Path_714" data-name="Path 714" d="M740.3,119.61c-10.007,10.671-20.495,24.262-22.962,27.494l.5-.02c2.691-1.9,10.2-7.26,18.153-13.53,5.357-4.224,10.912-8.859,15.33-13.125q.592-.572,1.156-1.134t1.122-1.14c.916-.949,1.759-1.872,2.511-2.757.661-.778,1.252-1.527,1.762-2.241,2.011-2.816,2.762-5.086,1.564-6.407-.811-.894-2.1-.9-3.741-.226a12.736,12.736,0,0,0-1.4.687,23.388,23.388,0,0,0-2.093,1.349A89.857,89.857,0,0,0,740.3,119.61" transform="translate(-585.601 -86.573)" fill="#b7e1d1"/>
            <path id="Path_715" data-name="Path 715" d="M1199.3,374.155c.51-7.182-27.607-8.728-27.607-8.728s27.1,15.91,27.607,8.728" transform="translate(-956.514 -298.316)" fill="#b7e1d1"/>
            <path id="Path_716" data-name="Path 716" d="M1080.6,378.461c2.406-9.534-26.259-23.746-34.918-27.8l-1.589-.142c5.314,6.063,33.94,38.112,36.506,27.94" transform="translate(-852.345 -286.148)" fill="#b7e1d1"/>
            <path id="Path_717" data-name="Path 717" d="M977.609,382.438c8.632-7.369-39.312-34-48.9-39.013l-.946-.035c5.339,6.126,41.108,46.51,49.85,39.048" transform="translate(-757.376 -280.327)" fill="#b7e1d1"/>
            <path id="Path_718" data-name="Path 718" d="M887.883,391.386c4.308-10.419-44.859-43.88-53.383-49.581h-.573c5.963,7.309,49.564,60.2,53.956,49.58" transform="translate(-680.777 -279.033)" fill="#b7e1d1"/>
            <path id="Path_719" data-name="Path 719" d="M775.343,401.731c2.719,1.522,4.856,2.059,6.158,1.261a2.332,2.332,0,0,0,.731-.714c4.68-7.077-52.893-50.219-62.568-57.395l-.5.026c5.91,7.064,40.6,48.1,56.184,56.821" transform="translate(-587.086 -281.546)" fill="#b7e1d1"/>
            <path id="Path_720" data-name="Path 720" d="M660.727,417.392c2.332,1.054,3.964.989,4.627-.561,1.062-2.482-1.25-6.677-5.562-11.755-15.237-17.943-55.455-46.9-60.082-50.211l-.164.018c3.811,4.6,46.463,55.859,61.18,62.508" transform="translate(-489.44 -289.694)" fill="#b7e1d1"/>
            <path id="Path_721" data-name="Path 721" d="M534.992,424.042q.666.717,1.323,1.413c9.189,9.735,16.944,16.311,19.9,14.614a1.916,1.916,0,0,0,.592-.536,2.371,2.371,0,0,0,.381-.829c1.043-4.12-6.76-13.789-17.358-24.627-17.676-18.078-43.117-39.4-48.23-43.654l-.309.054c3.272,4.367,19.244,25.54,34.68,43.446,3.064,3.555,6.108,6.981,9.026,10.121" transform="translate(-401.062 -302.394)" fill="#b7e1d1"/>
            <path id="Path_722" data-name="Path 722" d="M452.7,462.446a3.963,3.963,0,0,0,.087-3.361c-1.369-4.464-7.039-11.735-14.487-19.888-17.217-18.845-43.928-42.387-48.963-46.789l-.261.066c6.017,8.3,57.622,78.987,63.624,69.972" transform="translate(-317.626 -320.342)" fill="#b7e1d1"/>
            <path id="Path_723" data-name="Path 723" d="M337.085,500.058c3.747-5.274-31.111-37.172-52.876-56.268-7.747-6.8-13.835-11.972-15.931-13.746l-.223.086c1.708,2.262,7.133,9.4,14.259,18.342,18.736,23.5,49.221,59.4,54.771,51.586" transform="translate(-218.827 -351.066)" fill="#b7e1d1"/>
            <path id="Path_724" data-name="Path 724" d="M175.441,502.82c9.7,12.273,21.106,25.524,29.08,31.047,3.776,2.615,6.783,3.5,8.473,1.723,1.311-1.378-.91-5.147-5.12-10.144-6.2-7.363-16.723-17.393-26.635-26.381-3.163-2.868-6.264-5.629-9.142-8.164-6.076-5.35-11.162-9.688-13.753-11.882l-.537.292c1.931,2.709,5.852,8.147,10.774,14.639,2.127,2.805,4.44,5.806,6.86,8.869" transform="translate(-128.826 -391.048)" fill="#b7e1d1"/>
            <path id="Path_725" data-name="Path 725" d="M49.235,342.944c-.509,1.206-.8,1.893-.8,1.893s.018-.583.074-1.631l-.3.107-2.388.913-1.2.46c-.4.156-.793.322-1.19.484l-2.385.976-2.373,1.031-1.189.52-1.18.546c-.786.367-1.579.724-2.364,1.1-1.561.772-3.139,1.525-4.685,2.354-.456.232-.909.472-1.36.715-.152,1.024-.233,1.593-.233,1.593s-.071-.487-.188-1.364c-.954.519-1.9,1.052-2.856,1.581-.767.437-1.523.9-2.287,1.345l-1.143.679-1.127.71-1.129.711c-.376.239-.756.47-1.123.723L15.6,359.882a90.469,90.469,0,0,0-9.319,7.3q-.821.76-1.515,1.419c-.231.221-.455.431-.664.639l-.588.612c-.636.669-1.169,1.245-1.609,1.751-.076.088-.151.174-.222.258a18.161,18.161,0,0,0-1.12,1.523c-.707,1.1-.634,1.506-.37,1.751.334.311.7.533,2.445-.766.141-.105.29-.219.45-.345.4-.323.877-.69,1.433-1.135.182-.146.372-.3.569-.464l1.318-1.1q.735-.585,1.593-1.288c2.307-1.859,5.37-4.321,9.678-7.273l2.159-1.45c.356-.246.727-.47,1.092-.7l1.1-.692,1.1-.691,1.113-.661c.743-.437,1.478-.885,2.225-1.311.844-.469,1.684-.942,2.527-1.405l.537-.292c.482-.261.966-.519,1.454-.769,1.506-.812,3.047-1.549,4.57-2.306.766-.37,1.541-.72,2.309-1.08L39,350.871l1.163-.511,2.32-1.014,2.334-.962c.389-.159.775-.322,1.165-.477l1.172-.454,2.072-.8.223-.086.043-.017,2.347-.856c.391-.141.779-.288,1.171-.423l1.176-.4.9-.308,1.444-.493,2.35-.757,1.171-.376,1.176-.355,2.343-.709c2.639-.756,5.263-1.485,7.882-2.15l.261-.066c.4-.1.8-.205,1.2-.3,3.1-.782,6.191-1.464,9.252-2.121l2.3-.464c.763-.152,1.523-.313,2.285-.451,1.164-.215,2.32-.439,3.474-.645l.309-.054c.253-.044.506-.089.759-.132,6.029-1.055,11.946-1.9,17.715-2.582.367-.043.732-.083,1.1-.125l.164-.019c5.328-.6,10.529-1.068,15.576-1.422q3.154-.22,6.226-.385l.5-.026c7.223-.38,14.1-.546,20.572-.564h.573c.84,0,1.676,0,2.5,0q4.308.02,8.359.116l.633.016q2.641.065,5.166.157l.946.035q5.266.2,9.993.5,5.535.345,10.279.757l.146.013,1.589.142c2.484.226,4.787.453,6.893.679,5.18.554,9.192,1.085,11.916,1.432q1.021.133,1.8.224c.518.066.953.116,1.3.15.7.069,1.069.076,1.081.016s-.2-.134-.625-.259c-.115-.034-.243-.071-.39-.111s-.317-.084-.5-.131c-.234-.06-.491-.124-.778-.193q-.764-.178-1.775-.4c-2.532-.539-6.214-1.236-10.946-1.953h-.008l-.91-.136c-2.588-.384-5.471-.766-8.633-1.144s-6.6-.726-10.306-1.051c-3.389-.3-7-.564-10.817-.785l-.612-.035q-2.053-.115-4.183-.212-.855-.039-1.722-.074-3.827-.157-7.885-.248-.909-.019-1.83-.034l-1.333-.019c-6.548-.087-13.512-.018-20.836.279l-.5.02q-3.014.126-6.107.306-6.594.386-13.526,1.049c-1.379,1.318-2.2,2.1-2.2,2.1s.333-.722.96-1.978q-1.117.113-2.241.233c-5.636.612-11.418,1.387-17.313,2.362-.763.949-1.195,1.489-1.195,1.489s.172-.492.5-1.376c-1.5.241-3.008.526-4.526.8-.772.134-1.542.292-2.316.441L81.454,334c-3.1.646-6.242,1.319-9.391,2.1l-.651.158c-.752,1.246-1.181,1.961-1.181,1.961s.11-.628.337-1.754c-2.659.66-5.325,1.39-8.007,2.146l-2.385.71-1.2.356-1.193.378-2.394.761L53,341.615l-1.2.406-.089.031c-.37.128-.736.264-1.106.4l-1.374.5" transform="translate(0 -267.589)" fill="#b7e1d1"/>
            <path id="Path_726" data-name="Path 726" d="M140.767,127.871s.081-.568.233-1.593c.4-2.672,1.27-8.45,2.433-15.35,1.247-7.394,2.825-16.078,4.5-23.612,1.609-7.228,4.346-14.247,6.414-20.19,2.871-8.247,4.457-14.42-.047-16.2-3.159-1.248-6.927,5.714-9.978,14.779a125.569,125.569,0,0,0-5.141,21.677c-1.06,7.77-.644,18.031.027,26.279.472,5.8,1.069,10.6,1.368,12.846.117.877.188,1.364.188,1.364" transform="translate(-113.096 -41.456)" fill="#b7e1d1"/>
            <path id="Path_727" data-name="Path 727" d="M264.014,80.4c-.089,1.192-.149,2.181-.19,2.931-.057,1.049-.074,1.631-.074,1.631s.289-.687.8-1.893c.229-.541.5-1.187.814-1.923,2.876-6.784,9.052-21.234,13.934-31.882,4.045-8.821,10.074-20.355,13.426-28.733,2.112-5.278,3.161-9.3,1.979-10.606-2.364-2.606-9.921,5.7-17.208,19.577-1.547,2.946-3.082,6.142-4.552,9.539-6.27,14.486-8.3,32.937-8.927,41.359" transform="translate(-215.312 -7.712)" fill="#b7e1d1"/>
            <path id="Path_728" data-name="Path 728" d="M383.6,68.661c3.219-5.332,12.372-20.423,19.338-31.219,8.594-13.319,23.448-33.049,20.9-36.8C421.45-2.877,409.2,8.417,398.1,26.457,388.72,41.7,383.993,62.723,382.754,68.868c-.227,1.126-.337,1.754-.337,1.754s.429-.714,1.181-1.961" transform="translate(-312.186 0)" fill="#b7e1d1"/>
            <path id="Path_729" data-name="Path 729" d="M491.908,87.711c3.543-4.409,14.255-17.692,22.282-27.166,9.755-11.513,26.172-28.626,24.319-31.731-1.737-2.911-14.6,6.99-27.315,22.569-10.828,13.269-18.067,31.366-19.976,36.441-.332.883-.5,1.376-.5,1.376s.432-.54,1.195-1.489" transform="translate(-400.594 -23.109)" fill="#b7e1d1"/>
            <path id="Path_730" data-name="Path 730" d="M600.663,118.766c4.443-4.248,14.694-14.087,22.069-21.452,7.454-7.443,18.168-17.934,22.034-23.6,1.146-1.681,1.692-2.939,1.369-3.565-.656-1.275-4.021.093-8.789,3.391a124.207,124.207,0,0,0-17.5,15.272c-10.18,10.527-17.831,24.883-20.426,30.076-.628,1.256-.96,1.978-.96,1.978s.82-.781,2.2-2.1" transform="translate(-488.556 -56.88)" fill="#b7e1d1"/>
          </g>
        </g>
        <g id="Group_500" data-name="Group 500" transform="translate(2083.142 964.76) rotate(162)">
          <g id="Group_496-2" data-name="Group 496" clip-path="url(#clip-path-5)">
            <path id="Path_709-2" data-name="Path 709" d="M1170.6,332.025c5.1.49,23.227-1.008,18.97-5.7-4.392-4.841-18.486,4.528-19.858,5.459.181.046.349.09.5.131s.275.076.39.111" transform="translate(-954.899 -265.268)" fill="#9accb9"/>
            <path id="Path_710-2" data-name="Path 710" d="M1120.559,276.35c-6.551-4.08-25.069,11.173-24.455,12.656h.008c.505-.173,28.887-9.893,24.448-12.658" transform="translate(-894.792 -225.034)" fill="#9accb9"/>
            <path id="Path_711-2" data-name="Path 711" d="M1019.793,240.331s36.848-17.487,29.077-21.526c-5.7-2.964-29.077,21.526-29.077,21.526" transform="translate(-832.508 -178.418)" fill="#9accb9"/>
            <path id="Path_712-2" data-name="Path 712" d="M940.488,190.571q-1.073.963-2.12,1.922c-2.362,2.164-4.588,4.274-6.517,6.137q-.834.8-1.59,1.544c-2,1.957-3.554,3.514-4.408,4.379l.612.035c1.155-.617,2.984-1.606,5.229-2.854l1.051-.587c2.638-1.478,5.742-3.256,8.95-5.182l.482-.29c11.4-6.871,23.86-15.477,21.242-18.894-1.571-2.051-6.452.539-12.226,4.867l-.075.057c-3.4,2.555-7.109,5.707-10.63,8.867" transform="translate(-755.82 -143.731)" fill="#9accb9"/>
            <path id="Path_713-2" data-name="Path 713" d="M865.988,135.128A55.447,55.447,0,0,0,857.762,142c-1.125,1.09-2.277,2.249-3.443,3.454-1.885,1.95-3.8,4.019-5.682,6.107q-.6.667-1.2,1.337l-.577.65q-1.079,1.219-2.128,2.425c-4.76,5.475-8.92,10.575-11.2,13.408l1.333.019c2.251-1.644,5.514-4.061,9.176-6.877,1.107-.851,2.25-1.738,3.412-2.652q1.117-.878,2.254-1.786,1.263-1.009,2.533-2.045c1.9-1.551,3.8-3.135,5.611-4.707,1.269-1.1,2.5-2.194,3.668-3.268a64.511,64.511,0,0,0,7.875-8.312,9.688,9.688,0,0,0,1.974-3.877,1.9,1.9,0,0,0-.405-1.632,1.575,1.575,0,0,0-.576-.405c-.993-.407-2.521.111-4.407,1.293" transform="translate(-680.461 -109.144)" fill="#9accb9"/>
            <path id="Path_714-2" data-name="Path 714" d="M740.3,119.61c-10.007,10.671-20.495,24.262-22.962,27.494l.5-.02c2.691-1.9,10.2-7.26,18.153-13.53,5.357-4.224,10.912-8.859,15.33-13.125q.592-.572,1.156-1.134t1.122-1.14c.916-.949,1.759-1.872,2.511-2.757.661-.778,1.252-1.527,1.762-2.241,2.011-2.816,2.762-5.086,1.564-6.407-.811-.894-2.1-.9-3.741-.226a12.736,12.736,0,0,0-1.4.687,23.388,23.388,0,0,0-2.093,1.349A89.857,89.857,0,0,0,740.3,119.61" transform="translate(-585.601 -86.573)" fill="#9accb9"/>
            <path id="Path_715-2" data-name="Path 715" d="M1199.3,374.155c.51-7.182-27.607-8.728-27.607-8.728s27.1,15.91,27.607,8.728" transform="translate(-956.514 -298.316)" fill="#9accb9"/>
            <path id="Path_716-2" data-name="Path 716" d="M1080.6,378.461c2.406-9.534-26.259-23.746-34.918-27.8l-1.589-.142c5.314,6.063,33.94,38.112,36.506,27.94" transform="translate(-852.345 -286.148)" fill="#9accb9"/>
            <path id="Path_717-2" data-name="Path 717" d="M977.609,382.438c8.632-7.369-39.312-34-48.9-39.013l-.946-.035c5.339,6.126,41.108,46.51,49.85,39.048" transform="translate(-757.376 -280.327)" fill="#9accb9"/>
            <path id="Path_718-2" data-name="Path 718" d="M887.883,391.386c4.308-10.419-44.859-43.88-53.383-49.581h-.573c5.963,7.309,49.564,60.2,53.956,49.58" transform="translate(-680.777 -279.033)" fill="#9accb9"/>
            <path id="Path_719-2" data-name="Path 719" d="M775.343,401.731c2.719,1.522,4.856,2.059,6.158,1.261a2.332,2.332,0,0,0,.731-.714c4.68-7.077-52.893-50.219-62.568-57.395l-.5.026c5.91,7.064,40.6,48.1,56.184,56.821" transform="translate(-587.086 -281.546)" fill="#9accb9"/>
            <path id="Path_720-2" data-name="Path 720" d="M660.727,417.392c2.332,1.054,3.964.989,4.627-.561,1.062-2.482-1.25-6.677-5.562-11.755-15.237-17.943-55.455-46.9-60.082-50.211l-.164.018c3.811,4.6,46.463,55.859,61.18,62.508" transform="translate(-489.44 -289.694)" fill="#9accb9"/>
            <path id="Path_721-2" data-name="Path 721" d="M534.992,424.042q.666.717,1.323,1.413c9.189,9.735,16.944,16.311,19.9,14.614a1.916,1.916,0,0,0,.592-.536,2.371,2.371,0,0,0,.381-.829c1.043-4.12-6.76-13.789-17.358-24.627-17.676-18.078-43.117-39.4-48.23-43.654l-.309.054c3.272,4.367,19.244,25.54,34.68,43.446,3.064,3.555,6.108,6.981,9.026,10.121" transform="translate(-401.062 -302.394)" fill="#9accb9"/>
            <path id="Path_722-2" data-name="Path 722" d="M452.7,462.446a3.963,3.963,0,0,0,.087-3.361c-1.369-4.464-7.039-11.735-14.487-19.888-17.217-18.845-43.928-42.387-48.963-46.789l-.261.066c6.017,8.3,57.622,78.987,63.624,69.972" transform="translate(-317.626 -320.342)" fill="#9accb9"/>
            <path id="Path_723-2" data-name="Path 723" d="M337.085,500.058c3.747-5.274-31.111-37.172-52.876-56.268-7.747-6.8-13.835-11.972-15.931-13.746l-.223.086c1.708,2.262,7.133,9.4,14.259,18.342,18.736,23.5,49.221,59.4,54.771,51.586" transform="translate(-218.827 -351.066)" fill="#9accb9"/>
            <path id="Path_724-2" data-name="Path 724" d="M175.441,502.82c9.7,12.273,21.106,25.524,29.08,31.047,3.776,2.615,6.783,3.5,8.473,1.723,1.311-1.378-.91-5.147-5.12-10.144-6.2-7.363-16.723-17.393-26.635-26.381-3.163-2.868-6.264-5.629-9.142-8.164-6.076-5.35-11.162-9.688-13.753-11.882l-.537.292c1.931,2.709,5.852,8.147,10.774,14.639,2.127,2.805,4.44,5.806,6.86,8.869" transform="translate(-128.826 -391.048)" fill="#9accb9"/>
            <path id="Path_725-2" data-name="Path 725" d="M49.235,342.944c-.509,1.206-.8,1.893-.8,1.893s.018-.583.074-1.631l-.3.107-2.388.913-1.2.46c-.4.156-.793.322-1.19.484l-2.385.976-2.373,1.031-1.189.52-1.18.546c-.786.367-1.579.724-2.364,1.1-1.561.772-3.139,1.525-4.685,2.354-.456.232-.909.472-1.36.715-.152,1.024-.233,1.593-.233,1.593s-.071-.487-.188-1.364c-.954.519-1.9,1.052-2.856,1.581-.767.437-1.523.9-2.287,1.345l-1.143.679-1.127.71-1.129.711c-.376.239-.756.47-1.123.723L15.6,359.882a90.469,90.469,0,0,0-9.319,7.3q-.821.76-1.515,1.419c-.231.221-.455.431-.664.639l-.588.612c-.636.669-1.169,1.245-1.609,1.751-.076.088-.151.174-.222.258a18.161,18.161,0,0,0-1.12,1.523c-.707,1.1-.634,1.506-.37,1.751.334.311.7.533,2.445-.766.141-.105.29-.219.45-.345.4-.323.877-.69,1.433-1.135.182-.146.372-.3.569-.464l1.318-1.1q.735-.585,1.593-1.288c2.307-1.859,5.37-4.321,9.678-7.273l2.159-1.45c.356-.246.727-.47,1.092-.7l1.1-.692,1.1-.691,1.113-.661c.743-.437,1.478-.885,2.225-1.311.844-.469,1.684-.942,2.527-1.405l.537-.292c.482-.261.966-.519,1.454-.769,1.506-.812,3.047-1.549,4.57-2.306.766-.37,1.541-.72,2.309-1.08L39,350.871l1.163-.511,2.32-1.014,2.334-.962c.389-.159.775-.322,1.165-.477l1.172-.454,2.072-.8.223-.086.043-.017,2.347-.856c.391-.141.779-.288,1.171-.423l1.176-.4.9-.308,1.444-.493,2.35-.757,1.171-.376,1.176-.355,2.343-.709c2.639-.756,5.263-1.485,7.882-2.15l.261-.066c.4-.1.8-.205,1.2-.3,3.1-.782,6.191-1.464,9.252-2.121l2.3-.464c.763-.152,1.523-.313,2.285-.451,1.164-.215,2.32-.439,3.474-.645l.309-.054c.253-.044.506-.089.759-.132,6.029-1.055,11.946-1.9,17.715-2.582.367-.043.732-.083,1.1-.125l.164-.019c5.328-.6,10.529-1.068,15.576-1.422q3.154-.22,6.226-.385l.5-.026c7.223-.38,14.1-.546,20.572-.564h.573c.84,0,1.676,0,2.5,0q4.308.02,8.359.116l.633.016q2.641.065,5.166.157l.946.035q5.266.2,9.993.5,5.535.345,10.279.757l.146.013,1.589.142c2.484.226,4.787.453,6.893.679,5.18.554,9.192,1.085,11.916,1.432q1.021.133,1.8.224c.518.066.953.116,1.3.15.7.069,1.069.076,1.081.016s-.2-.134-.625-.259c-.115-.034-.243-.071-.39-.111s-.317-.084-.5-.131c-.234-.06-.491-.124-.778-.193q-.764-.178-1.775-.4c-2.532-.539-6.214-1.236-10.946-1.953h-.008l-.91-.136c-2.588-.384-5.471-.766-8.633-1.144s-6.6-.726-10.306-1.051c-3.389-.3-7-.564-10.817-.785l-.612-.035q-2.053-.115-4.183-.212-.855-.039-1.722-.074-3.827-.157-7.885-.248-.909-.019-1.83-.034l-1.333-.019c-6.548-.087-13.512-.018-20.836.279l-.5.02q-3.014.126-6.107.306-6.594.386-13.526,1.049c-1.379,1.318-2.2,2.1-2.2,2.1s.333-.722.96-1.978q-1.117.113-2.241.233c-5.636.612-11.418,1.387-17.313,2.362-.763.949-1.195,1.489-1.195,1.489s.172-.492.5-1.376c-1.5.241-3.008.526-4.526.8-.772.134-1.542.292-2.316.441L81.454,334c-3.1.646-6.242,1.319-9.391,2.1l-.651.158c-.752,1.246-1.181,1.961-1.181,1.961s.11-.628.337-1.754c-2.659.66-5.325,1.39-8.007,2.146l-2.385.71-1.2.356-1.193.378-2.394.761L53,341.615l-1.2.406-.089.031c-.37.128-.736.264-1.106.4l-1.374.5" transform="translate(0 -267.589)" fill="#9accb9"/>
            <path id="Path_726-2" data-name="Path 726" d="M140.767,127.871s.081-.568.233-1.593c.4-2.672,1.27-8.45,2.433-15.35,1.247-7.394,2.825-16.078,4.5-23.612,1.609-7.228,4.346-14.247,6.414-20.19,2.871-8.247,4.457-14.42-.047-16.2-3.159-1.248-6.927,5.714-9.978,14.779a125.569,125.569,0,0,0-5.141,21.677c-1.06,7.77-.644,18.031.027,26.279.472,5.8,1.069,10.6,1.368,12.846.117.877.188,1.364.188,1.364" transform="translate(-113.096 -41.456)" fill="#9accb9"/>
            <path id="Path_727-2" data-name="Path 727" d="M264.014,80.4c-.089,1.192-.149,2.181-.19,2.931-.057,1.049-.074,1.631-.074,1.631s.289-.687.8-1.893c.229-.541.5-1.187.814-1.923,2.876-6.784,9.052-21.234,13.934-31.882,4.045-8.821,10.074-20.355,13.426-28.733,2.112-5.278,3.161-9.3,1.979-10.606-2.364-2.606-9.921,5.7-17.208,19.577-1.547,2.946-3.082,6.142-4.552,9.539-6.27,14.486-8.3,32.937-8.927,41.359" transform="translate(-215.312 -7.712)" fill="#9accb9"/>
            <path id="Path_728-2" data-name="Path 728" d="M383.6,68.661c3.219-5.332,12.372-20.423,19.338-31.219,8.594-13.319,23.448-33.049,20.9-36.8C421.45-2.877,409.2,8.417,398.1,26.457,388.72,41.7,383.993,62.723,382.754,68.868c-.227,1.126-.337,1.754-.337,1.754s.429-.714,1.181-1.961" transform="translate(-312.186 0)" fill="#9accb9"/>
            <path id="Path_729-2" data-name="Path 729" d="M491.908,87.711c3.543-4.409,14.255-17.692,22.282-27.166,9.755-11.513,26.172-28.626,24.319-31.731-1.737-2.911-14.6,6.99-27.315,22.569-10.828,13.269-18.067,31.366-19.976,36.441-.332.883-.5,1.376-.5,1.376s.432-.54,1.195-1.489" transform="translate(-400.594 -23.109)" fill="#9accb9"/>
            <path id="Path_730-2" data-name="Path 730" d="M600.663,118.766c4.443-4.248,14.694-14.087,22.069-21.452,7.454-7.443,18.168-17.934,22.034-23.6,1.146-1.681,1.692-2.939,1.369-3.565-.656-1.275-4.021.093-8.789,3.391a124.207,124.207,0,0,0-17.5,15.272c-10.18,10.527-17.831,24.883-20.426,30.076-.628,1.256-.96,1.978-.96,1.978s.82-.781,2.2-2.1" transform="translate(-488.556 -56.88)" fill="#9accb9"/>
          </g>
        </g>
      </g>
      <g id="Group_501" data-name="Group 501" transform="translate(0 316)">
        <g id="Group_492" data-name="Group 492" transform="translate(-28.938 1165.555) rotate(-60)">
          <g id="Group_490-2" data-name="Group 490" transform="translate(0 0.004)" clip-path="url(#clip-path-6)">
            <path id="Path_707-2" data-name="Path 707" d="M64.448,14.256c-3.2-1.8-10.891,1.529-18.416,6.2C43.656,21.931,41.3,23.54,39.1,25.164c-2.074,1.533-4,3.079-5.664,4.54-.615.54-1.194,1.069-1.729,1.581a30.731,30.731,0,0,0-2.525,2.677c-6.147,7.527.875,13.8,6.654,16.95a26.286,26.286,0,0,1,3.755,2.524,22.54,22.54,0,0,1,5.529,6.157c1.357,2.43,1.644,4.844-.135,6.652C40.713,70.588,36.4,67.279,30.541,63.4c-1.782-1.18-2.762-3.426-3.461-6.03-.4-1.483-.706-3.081-1.017-4.664-.941-4.779-1.928-9.423-5.6-10.333-3.571-.884-8.964,3.018-13.283,9.412A41.656,41.656,0,0,0,1.227,65.318,35.29,35.29,0,0,0,.279,75.333C1.239,93.218,10.556,92.1,13.459,90.81s9.415-1.573,13.774,1.508c.077.054.151.112.224.171a5.516,5.516,0,0,1,1.872,3.759,10.117,10.117,0,0,1-9.191,10.8C10.928,108.188,4.8,94.456,1.257,95.372s1.2,10.051,4.433,15.042a57.392,57.392,0,0,0,12.348,13.68q.581.452,1.185.891a35.29,35.29,0,0,0,10.862,5.451c11.292,3.268,12.663-8.417,17.751-9.5q0-.143,0-.285l.029-.9q.029-.9.058-1.8l.1-1.789q.025-.447.05-.892l.07-.888.143-1.771c.016-.168.034-.336.051-.5a1.11,1.11,0,0,1-.121-.051c-.076-.045-.181-.082-.287-.144-.054-.03-.111-.064-.17-.1s-.134-.067-.206-.107a6.168,6.168,0,0,0-1.2-.523,5.763,5.763,0,0,0-1.189-.242,7.5,7.5,0,0,0-1.233,0,8.573,8.573,0,0,0-2.386.529,27.954,27.954,0,0,0-4.314,2.314,19.678,19.678,0,0,1-4.226,2.063,12.826,12.826,0,0,1-7.46.069,11.474,11.474,0,0,1-2.351-.98l-.426-.247c-.133-.078-.249-.166-.359-.241a4.911,4.911,0,0,1-.538-.41c-.276-.242-.4-.388-.372-.431.069-.1.715.3,1.95.791a13.877,13.877,0,0,0,2.3.689,13.241,13.241,0,0,0,3.141.266,12.385,12.385,0,0,0,3.706-.707,19.624,19.624,0,0,0,3.892-2.06,27.189,27.189,0,0,1,4.522-2.515,9.882,9.882,0,0,1,2.8-.645,8.883,8.883,0,0,1,1.492,0,7.19,7.19,0,0,1,1.515.306c.094.031.186.057.273.09l.25.108a3.03,3.03,0,0,1,.443.222c.133.08.258.151.367.229s.2.162.291.236c.016.012.029.026.044.038.111-1.1.27-2.195.408-3.284.035-.289.082-.576.127-.864l.135-.861.135-.858.067-.428.078-.426c.212-1.135.4-2.268.65-3.384.119-.559.232-1.117.355-1.672l.394-1.654.2-.824c.035-.139.071-.277.108-.415-.12-.213-.257-.48-.437-.807-.135-.249-.266-.544-.44-.871s-.369-.7-.588-1.113a27.41,27.41,0,0,0-2.2-3.329l-.626-.756c-.106-.124-.2-.254-.315-.372l-.33-.357c-.223-.234-.431-.481-.664-.7L44.858,87a24.675,24.675,0,0,0-2.921-2.342l-.376-.262c-.124-.088-.258-.161-.385-.243l-.1-.062a4.86,4.86,0,0,1-.961.094c-8.508.167-15.412-.04-15.42-.461-.008-.4,6.048-.839,13.816-1.031l-.461-.216c-.261-.124-.533-.218-.8-.327-.527-.218-1.056-.41-1.59-.582-1.066-.349-2.13-.645-3.164-.96a20.162,20.162,0,0,1-5.6-2.434,13.146,13.146,0,0,1-2.068-1.732c-.3-.3-.568-.616-.827-.92-.127-.154-.242-.314-.36-.467l-.174-.229-.158-.234a13.321,13.321,0,0,1-1.689-3.407,11.48,11.48,0,0,1-.493-2.338c-.032-.546-.019-.831.032-.837s.143.267.271.783a19.172,19.172,0,0,0,.747,2.185A14.253,14.253,0,0,0,24,74.089l.16.212.175.206c.119.137.234.281.359.419.258.271.518.555.813.82a12.644,12.644,0,0,0,1.977,1.521,19.86,19.86,0,0,0,5.367,2.124c1.024.284,2.1.558,3.215.9.556.166,1.121.358,1.683.579.281.111.571.207.85.333l.843.379c.286.121.561.269.839.414s.561.287.837.443l.822.491c.137.084.279.161.412.252l.4.272A25.5,25.5,0,0,1,45.875,85.9l.735.7c.248.234.471.493.709.741l.353.377c.118.125.224.262.337.393l.668.8a28.194,28.194,0,0,1,2.344,3.533c.251.477.457.9.637,1.276.02.045.037.088.056.132.138-.509.3-1.011.441-1.514l.236-.8c.078-.266.155-.531.244-.793l.512-1.572c.086-.261.168-.522.257-.781l.276-.772A96,96,0,0,1,58.7,75.9c1.9-3.684,3.972-7.106,6.032-10.363s4.12-6.343,6.055-9.326l1.429-2.218,1.377-2.179-.006-.111a5.716,5.716,0,0,0-.3-1.448,5.868,5.868,0,0,0-.618-1.23,6.414,6.414,0,0,0-.888-1.06,6.063,6.063,0,0,0-1.08-.837,9.009,9.009,0,0,0-1.237-.644,31.625,31.625,0,0,0-5.388-1.5c-.144-.033-.286-.068-.429-.1a.718.718,0,0,1-.184.018,10.6,10.6,0,0,1-1.645-.367,10.812,10.812,0,0,0-3.859-.107,31.141,31.141,0,0,0-3.694.792c-1.192.308-2.349.607-3.465.8-.558.1-1.1.165-1.634.2a11.637,11.637,0,0,1-1.537.01A8.105,8.105,0,0,1,43.261,44.8a5.412,5.412,0,0,1-.555-.469,5.042,5.042,0,0,1-.349-.4c-.165-.237-.229-.374-.19-.41s.179.032.4.186c.113.075.259.159.419.268.173.092.357.216.586.321a8.717,8.717,0,0,0,4.079.853,11.714,11.714,0,0,0,1.392-.1c.484-.066.988-.158,1.508-.274,1.041-.231,2.148-.564,3.337-.912a28.753,28.753,0,0,1,3.862-.917q.154-.022.311-.041a15.058,15.058,0,0,1-3.017-2.01A11.555,11.555,0,0,1,52.58,37.9a9.418,9.418,0,0,1-1.041-2.725,6.914,6.914,0,0,1-.133-1.828c.045-.417.1-.629.154-.627.129,0,.1.874.554,2.3a10.124,10.124,0,0,0,1.193,2.429,11.411,11.411,0,0,0,2.427,2.607,15.419,15.419,0,0,0,3.78,2.134,23.41,23.41,0,0,0,2.216.761c.145.027.29.056.435.09a6.245,6.245,0,0,1,.766.234q.709.176,1.448.331c.884.188,1.81.361,2.763.586a17.938,17.938,0,0,1,2.91.912,10.348,10.348,0,0,1,1.438.733,7.7,7.7,0,0,1,3.238,3.912c.016.046.028.09.042.135l.138-.225c.43-.71.837-1.422,1.249-2.12q2.43-4.21,4.252-8.187l.852-1.974c.069-.163.143-.323.207-.485l.187-.489.37-.966.365-.951c.119-.315.22-.634.329-.946s.217-.623.315-.934l.287-.926a61.475,61.475,0,0,0,2.473-12.914l.054-.668c.019-.219.036-.436.045-.649q.035-.641.068-1.243c.021-.4.024-.79.038-1.166s.025-.738.022-1.088c0-.7.013-1.344-.006-1.934s-.014-1.126-.04-1.6-.032-.9-.044-1.265-.033-.669-.04-.916c-.013-.493,0-.75.044-.755s.113.24.21.726q.072.364.164.908c.054.363.107.785.168,1.264s.108,1.018.162,1.612.087,1.246.126,1.953c.023.353.028.72.036,1.1s.021.775.02,1.183-.008.829-.012,1.263c0,.217-.007.437-.017.661s-.018.45-.027.68a58.633,58.633,0,0,1-2.1,13.244l-.27.955c-.092.321-.2.64-.3.964s-.2.652-.314.978l-.35.982-.356,1-.18.5c-.062.168-.134.333-.2.5l-.828,2.037c-1.179,2.729-2.576,5.543-4.17,8.419-1.826,3.317-3.93,6.7-6.153,10.211.165-.068.339-.136.525-.2a23.946,23.946,0,0,1,7.248-1.277c2.362-.09,4.608.051,6.725.153,1.648.083,3.221.149,4.712.135a.623.623,0,0,1,.092-.028,1.291,1.291,0,0,1,.542.013l.018,0c.2-.005.4-.011.6-.02.926-.041,1.816-.118,2.662-.235a19.569,19.569,0,0,0,2.4-.489,18.941,18.941,0,0,0,2.111-.707,16.111,16.111,0,0,0,1.783-.868,12.934,12.934,0,0,0,2.558-1.878l.234-.219c.074-.072.139-.148.207-.219l.373-.4c.211-.264.405-.48.548-.665.278-.375.45-.564.5-.54s-.034.264-.236.7c-.1.218-.265.47-.446.775-.1.146-.214.3-.334.464-.062.082-.121.169-.19.253l-.22.254a11.936,11.936,0,0,1-2.543,2.2,15.6,15.6,0,0,1-1.837,1.028,18.537,18.537,0,0,1-2.2.854,19.582,19.582,0,0,1-2.519.617c-.332.058-.672.108-1.016.153.442.242.867.492,1.278.741l2.469,1.534a22.7,22.7,0,0,0,2.241,1.229,14.423,14.423,0,0,0,2.05.787,10.6,10.6,0,0,0,1.763.364A9.472,9.472,0,0,0,105,63.18c.191,0,.356-.025.505-.031s.273-.022.377-.028c.207-.013.328,0,.346.052s-.068.131-.256.242a2.075,2.075,0,0,1-.36.175,3.949,3.949,0,0,1-.518.176,6.592,6.592,0,0,1-1.488.222,9.193,9.193,0,0,1-1.984-.167,13.019,13.019,0,0,1-2.3-.674,19.823,19.823,0,0,1-2.448-1.176c-1.655-.907-3.345-2.045-5.215-2.868a8.441,8.441,0,0,1-.789-.378c-1.565.059-3.2.027-4.892-.027-2.127-.064-4.342-.171-6.6-.064a23.145,23.145,0,0,0-6.793,1.218c-1.23.451-1.974.806-2.466,1.009-1.194,1.881-2.413,3.8-3.633,5.771-2,3.253-4.013,6.652-5.829,10.258q-1.827,3.666-3.382,7.633a11.532,11.532,0,0,1,3.5-.995q1.32-.169,2.63-.239a6.555,6.555,0,0,1,.6-1.136c.7-1.109,1.422-2.183,2.192-3.177a21.483,21.483,0,0,1,2.454-2.7A15.519,15.519,0,0,1,71.327,74.3a14.578,14.578,0,0,1,2.645-1.178,12.771,12.771,0,0,1,4.09-.668c.978.016,1.506.15,1.5.248,0,.113-.531.181-1.454.344a17.517,17.517,0,0,0-3.761,1.087,15.51,15.51,0,0,0-2.363,1.247,15.738,15.738,0,0,0-2.374,1.92,22.449,22.449,0,0,0-2.231,2.584c-.715.956-1.4,2-2.091,3.085-.061.1-.118.187-.174.272q1.286,0,2.558.092a35.23,35.23,0,0,1,6.6,1.13A34.634,34.634,0,0,1,85.637,89.9c1.624,1.2,3.093,2.475,4.5,3.71s2.764,2.424,4.137,3.476c.346.258.685.521,1.033.76.173.121.343.246.518.362l.522.341c.172.116.348.223.524.326l.524.314.531.287c.177.093.349.2.531.272l1.067.488c.357.148.723.267,1.078.4.18.06.352.14.536.183l.54.149c.359.094.709.213,1.069.269l1.058.208c.351.051.7.086,1.045.13.172.02.343.044.513.06l.509.024c.337.014.671.036,1,.043l.973-.024c.16,0,.319-.005.476-.013l.467-.045.913-.086c.3-.039.588-.1.876-.141a20.844,20.844,0,0,0,5.681-1.813l.543-.259c.172-.091.333-.189.492-.278.316-.183.618-.346.891-.51l.733-.489.322-.212.15-.1.133-.1a4.57,4.57,0,0,1,1.114-.756c.036.038-.279.378-.921,1l-.124.119-.14.114-.306.245-.707.559c-.266.188-.562.376-.875.584-.158.1-.318.212-.489.316l-.542.3a20.2,20.2,0,0,1-5.8,2.125c-.3.057-.6.125-.908.176l-.948.12-.486.061c-.164.013-.33.019-.5.029l-1.017.054c-.344,0-.694-.011-1.048-.016l-.535-.011c-.179-.012-.359-.032-.541-.048-.363-.036-.731-.065-1.1-.11l-1.121-.192c-.381-.052-.753-.168-1.136-.259l-.576-.146c-.195-.042-.38-.122-.572-.182-.38-.133-.77-.252-1.154-.4l-1.147-.5c-.2-.079-.379-.183-.569-.278l-.567-.294-.558-.32c-.188-.106-.375-.215-.556-.333l-.553-.348c-.184-.118-.363-.245-.546-.368-.368-.244-.722-.509-1.085-.771-1.435-1.064-2.83-2.256-4.253-3.471s-2.878-2.453-4.449-3.587a33.647,33.647,0,0,0-10.926-5.129c-1.078-.287-2.181-.522-3.3-.7a8.647,8.647,0,0,1,1.266,2.452c.373,1.107.581,2.164.826,3.12.122.478.25.932.4,1.358q.11.32.241.616c.079.2.179.389.271.579a9.579,9.579,0,0,0,1.328,1.934,10.962,10.962,0,0,0,2.679,2.188c.719.423,1.153.627,1.121.737-.025.092-.522.082-1.368-.2a7.769,7.769,0,0,1-1.475-.676,9.348,9.348,0,0,1-1.733-1.3,9.692,9.692,0,0,1-1.659-2.069c-.118-.209-.245-.42-.35-.646s-.217-.454-.311-.69c-.191-.472-.352-.962-.5-1.46-.294-.995-.53-2.022-.882-3a6.732,6.732,0,0,0-1.57-2.586c-.27-.254-.48-.429-.64-.562-.043-.04-.082-.075-.118-.108-.181-.016-.362-.033-.543-.046a32.979,32.979,0,0,0-6.581.192,11.663,11.663,0,0,0-3.563,1,6.747,6.747,0,0,0-.928.548q-.326.891-.639,1.794l-.264.756c-.085.254-.163.51-.245.765l-.489,1.538c-.085.256-.158.516-.233.776L54.4,93c-.147.523-.309,1.043-.446,1.571l-.413,1.59c-.068.266-.14.531-.206.8l-.187.806-.376,1.618-.338,1.636c-.237,1.092-.417,2.2-.619,3.31l-.042.237a4.112,4.112,0,0,1,.446-.024,8.578,8.578,0,0,1,2.612.372A13.411,13.411,0,0,1,58.975,107a19.3,19.3,0,0,1,3.213,3.06,69.853,69.853,0,0,1,4.681,6.678,29.031,29.031,0,0,0,4.481,5.538l.306.275.317.254c.212.166.414.342.63.5.439.3.859.609,1.309.855l.329.194.163.1.169.084.667.333.165.082.169.07.336.14c.224.089.439.194.663.266a17.736,17.736,0,0,0,4.983,1.032,18.492,18.492,0,0,0,3.87-.188c2.11-.366,3.226-.852,3.278-.727.021.048-.238.207-.758.467a9.015,9.015,0,0,1-.993.411,14.435,14.435,0,0,1-1.407.432,16.835,16.835,0,0,1-4.017.46,17.694,17.694,0,0,1-5.31-.866c-.242-.069-.475-.172-.717-.259l-.363-.137-.183-.069-.179-.082-.726-.334-.184-.085-.179-.1-.36-.2c-.491-.251-.955-.571-1.437-.882-.237-.162-.461-.346-.7-.52l-.35-.268-.337-.288a29.274,29.274,0,0,1-4.807-5.7,73.9,73.9,0,0,0-4.652-6.493,18.115,18.115,0,0,0-2.973-2.806,12.028,12.028,0,0,0-3.678-1.844,11.53,11.53,0,0,0-2.354-.436c-.146-.02-.28-.02-.4-.029l-.08-.006-.015.1-.128.842c-.043.281-.088.562-.121.845-.138,1.131-.3,2.265-.406,3.412-.057.572-.12,1.146-.172,1.721l-.134,1.733-.066.869q-.023.436-.046.873l-.093,1.751q-.026.878-.051,1.76-.013.441-.026.883,0,.25,0,.5c6.705,2.521,7.291,15.546,23.186,18.556,1.047.2,2.114.345,3.191.444a37.059,37.059,0,0,0,16.1-2.037c3.81-1.479,6.567-3.623,7.211-6.175,1.546-6.121-2.929-10.9-10.831-13.051a19.168,19.168,0,0,1-9.128-6.064c-2.877-3.487-3.623-7.381.618-8.906,4.113-1.479,7.429,1.107,9.969,4.535a52.134,52.134,0,0,1,4.71,8.4c2.321,4.8,11.234,10.044,23.271.669s9.424-34.064,5.293-37.1c-1.97-1.446-4.859-1.132-7.928-.093a67.758,67.758,0,0,0-9.775,4.674c-5.4,2.909-10.393,2.8-16.534-4.247-3.5-4.018.336-7.478,5.253-9.281a22.312,22.312,0,0,1,5.536-1.261,10.121,10.121,0,0,1,4.739.478c5.024,2.218,8.849,5.935,14.948,1.791.262-.178.529-.37.8-.578,1.177-.9,1.548-2.7,1.353-5.048C121.4,56.134,108.6,33.743,106.922,32.4a2.482,2.482,0,0,0-1.12-.471,5.951,5.951,0,0,0-2.18.085A12.063,12.063,0,0,0,97.14,35.7c-1.982,2.571-5.99,7.911-8.832,4.438s1.659-7.769,4.383-9.337,6.755-1.424,9.854-3.63c1.754-1.249-.435-8.776-3.678-15.549C96.381,6.43,93.277,1.682,90.852.542,88.408-.607,85.1.207,81.859,1.805A38.6,38.6,0,0,0,73.908,7.22a27.326,27.326,0,0,0-2.2,2.136c-2.893,3.2-.2,7.929,2.41,12.127.494.795.985,1.57,1.435,2.312,2.806,4.632,4.662,9.3.747,12.5l-.085.07c-4.028,3.2-7.3-2.753-6.95-6.613.206-2.292.651-6.1-.317-9.543a9.433,9.433,0,0,0-4.5-5.947" transform="translate(-0.001 -0.004)" fill="#9accb9"/>
          </g>
        </g>
        <g id="Group_494" data-name="Group 494" transform="matrix(-0.454, -0.891, 0.891, -0.454, 136.656, 1215)">
          <g id="Group_493-2" data-name="Group 493" clip-path="url(#clip-path-7)">
            <path id="Path_708-2" data-name="Path 708" d="M132.176,165.19c1.135-1.238.606-3.636-.894-6.779-.5-1.052-1.113-2.187-1.807-3.391-1.366-2.368-3.052-5-4.863-7.779q-.6-.917-1.212-1.854c-1.866-2.852-3.813-5.824-5.641-8.8-7.059-11.484-25.6-28.237-24.924-33.943a1.844,1.844,0,0,1,.743-1.321,2.269,2.269,0,0,1,.352-.211c3.113-1.541,9.37,4.367,16.01,12.85,1.6,2.046,3.225,4.241,4.833,6.518,3.279,4.646,6.49,9.629,9.3,14.37,10.125,17.07,17.664,22.07,36.83,26.567a36.621,36.621,0,0,0,17.245-.1,35.955,35.955,0,0,0,3.829-1.182c8.568-3.184,14.1-9.035,13.658-13-.755-6.691-14-11.31-28.7-15.6s-20.816-16.475-19.923-19.788c.694-2.573,8.131,2.818,15.168,7.719,1.137.791,2.263,1.57,3.349,2.3.846.569,1.668,1.109,2.45,1.6a70.225,70.225,0,0,0,7.916,4.114c1.2.546,2.454,1.1,3.751,1.643a179.482,179.482,0,0,0,19.873,7.049,69.865,69.865,0,0,0,6.964,1.64c9.992,1.7,35.6-15.852,37.289-30.57s-44.939-40.13-52.216-40.614S174.11,75.771,164.608,81.49a73.42,73.42,0,0,1-14.9,6.84q-1.044.328-2.065.594c-3.713.967-7.116,1.263-9.52.379a5,5,0,0,1-3.1-2.988c-.6-1.562.192-3.155,1.906-4.72,6.909-6.31,28.867-12.173,35.839-13.754,8.7-1.974,14.878-2.307,17.235-9.4s-21.618-22.7-28.478-27.394a5.316,5.316,0,0,0-2.841-.886,11.634,11.634,0,0,0-4.081.695c-8.77,2.9-22.99,14.4-42.607,27.9a110.754,110.754,0,0,1-16.042,9.231c-18.38,8.546-31.845,7.848-32.821,4.6-.579-1.926,2.386-4.523,7.2-7.27,1.682-.96,3.59-1.938,5.653-2.912l.089-.042c4.7-2.217,10.2-4.412,15.634-6.323,14.689-5.162,36.532-15.759,42.657-20.351s12.318-12.249-3.392-23.02a41.512,41.512,0,0,0-15.837-6.585A45.144,45.144,0,0,0,93.679,7.253c-.824.263-1.556.532-2.182.793-6.408,2.674-13.085,17.608-21.74,28.573S43.606,59.778,39.065,57.911s1.6-13.783,15.02-25.214S82.454,20.619,83.145,8.873a5.679,5.679,0,0,0-.113-1.51C81.7,1.033,69.4-2,55.523,1.427A53.1,53.1,0,0,0,29.175,17a87.823,87.823,0,0,0-14.35,21.374q-.882,1.836-1.65,3.624A95.4,95.4,0,0,0,6.46,65.111l.762.319c.947.405,1.905.783,2.86,1.163.919.374,1.842.733,2.766,1.087.012-.195.032-.4.066-.622.067-.427.16-.9.282-1.441.319-1.539.774-3.025,1.178-4.5.484-1.45.916-2.895,1.47-4.268l.394-1.032c.13-.343.26-.683.41-1.014l.861-1.976.214-.487.233-.475.463-.941L18.877,50l.228-.46.246-.448a65.074,65.074,0,0,1,8.1-11.855l.49-.576.5-.541.969-1.034c.617-.679,1.255-1.268,1.84-1.825a40.905,40.905,0,0,1,3.136-2.707l.325-.256.32-.226q.311-.217.586-.4.549-.365.949-.587c.531-.294.855-.393.953-.28.446.5-3.117,3.95-7.661,10.322A82.606,82.606,0,0,0,22.91,50.891l-.215.432-.2.443-.4.894-.406.9-.205.455-.187.466-.76,1.885c-.134.315-.249.639-.363.965l-.35.98c-.5,1.3-.88,2.668-1.324,4.035-.364,1.391-.788,2.787-1.085,4.233-.123.541-.246,1.012-.369,1.422s-.213.767-.325,1.068l-.023.06c1.627.593,3.248,1.188,4.878,1.748,1.915.681,3.842,1.317,5.755,1.965,1.922.628,3.833,1.261,5.748,1.866,1.887.614,3.783,1.178,5.665,1.757a3.4,3.4,0,0,1,.165-.4,10.32,10.32,0,0,1,1.4-2.008c.356-.418.77-.892,1.274-1.405s1.087-1.077,1.755-1.7c1.9-1.8,3.839-3.509,5.732-5.214,1.933-1.66,3.815-3.322,5.729-4.878C58.589,57.7,62.361,54.795,66,52.091c7.3-5.376,14.144-9.828,20.032-13.316,11.8-6.963,19.629-10.231,19.875-9.749.306.578-6.99,4.793-18.239,12.337-5.618,3.78-12.2,8.435-19.26,13.909-3.519,2.753-7.184,5.679-10.876,8.84-1.867,1.555-3.707,3.209-5.6,4.854-1.855,1.69-3.763,3.376-5.63,5.152-.707.662-1.338,1.231-1.9,1.72s-1.045.913-1.48,1.257q-.324.257-.607.463l2.193.671c15.135,4.54,29.885,8.416,44.027,11.714L93.8,91.157l2.612.6,2.6.551.852.18c.011-.057.021-.111.033-.17a5.657,5.657,0,0,1,.213-.776q.133-.41.3-.873a8.446,8.446,0,0,1,.414-.958c.161-.332.328-.688.525-1.052a29.22,29.22,0,0,1,4.062-5.562,45.284,45.284,0,0,1,4.761-4.448c1.638-1.337,3.3-2.549,4.951-3.681l1.234-.834,1.222-.8C118.4,72.8,119.2,72.29,120,71.785a184.1,184.1,0,0,1,17.507-9.8c2.565-1.252,4.92-2.31,7-3.205,1.046-.437,2.018-.844,2.922-1.2s1.731-.673,2.483-.94,1.423-.5,2.008-.686,1.09-.327,1.5-.43c.823-.2,1.282-.246,1.341-.108s-.285.447-.992.908c-.353.232-.8.5-1.327.807s-1.139.66-1.832,1.043l-2.3,1.274-2.739,1.507c-1.958,1.091-4.188,2.326-6.626,3.733-4.875,2.816-10.606,6.282-16.762,10.435-.769.519-1.548,1.044-2.328,1.588l-1.18.814-1.172.83c-1.561,1.121-3.114,2.3-4.617,3.56a43.3,43.3,0,0,0-4.278,4.077,25.744,25.744,0,0,0-3.464,4.765c-.553,1.046-.972,1.887-1.3,2.571l5.419,1.145,9.983,1.935c.82.156,1.634.323,2.449.47l2.436.428,4.812.846,4.731.834,4.66.741,4.575.724,2.255.357c.748.119,1.492.241,2.235.339,5.941.819,11.634,1.687,17.094,2.314,21.815,2.726,39.581,4,51.862,4.763l4.347.279,1.976.132,1.843.093c2.366.123,4.369.238,5.988.346,3.237.216,4.938.4,4.936.551s-1.707.256-4.954.322c-1.624.033-3.633.055-6.008.068l-1.849.008-1.983-.032-4.364-.082c-8.4-.166-19.355-.6-32.423-1.6.072.107.146.222.22.345.436.754.923,1.465,1.376,2.183.488.694.945,1.4,1.444,2.051.961,1.337,1.972,2.565,2.954,3.722a70.293,70.293,0,0,0,5.653,5.8c3.431,3.13,5.818,4.9,5.514,5.454-.142.258-.928.151-2.23-.32a27.722,27.722,0,0,1-5.157-2.712,41.823,41.823,0,0,1-6.707-5.511,44.374,44.374,0,0,1-3.405-3.868c-.566-.695-1.083-1.445-1.627-2.194-.509-.773-1.044-1.546-1.521-2.368a9,9,0,0,1-.449-.833,4.229,4.229,0,0,1-.238-.686,1.738,1.738,0,0,1-.009-.975,1.16,1.16,0,0,1,.237-.4q-7.476-.618-15.775-1.5c-5.495-.532-11.226-1.311-17.208-2.047-.748-.088-1.5-.2-2.25-.308l-2.27-.327-4.607-.665-4.693-.684-4.764-.779-3.947-.647c.023.047.046.093.068.143.125.264.232.575.364.93s.268.757.4,1.216c.358,1.322.834,2.591,1.252,3.858.493,1.24.928,2.483,1.469,3.659l.384.886c.125.295.252.588.4.871l.82,1.7.2.42.219.408.433.811.427.8.211.4.227.386a75.035,75.035,0,0,0,7.2,10.449c4.64,5.6,8.192,8.554,7.791,9.089-.089.12-.4.062-.924-.164-.26-.113-.573-.267-.934-.462q-.271-.146-.579-.322l-.316-.183-.323-.211a36.54,36.54,0,0,1-3.133-2.268c-.588-.473-1.227-.972-1.853-1.557l-.98-.889-.508-.466-.5-.5a58.672,58.672,0,0,1-8.371-10.471l-.259-.4-.243-.414-.489-.836-.493-.847-.248-.428-.231-.44-.929-1.787c-.161-.3-.3-.608-.446-.919l-.432-.937c-.6-1.245-1.093-2.566-1.633-3.889-.465-1.351-.979-2.709-1.365-4.127-.156-.53-.277-1-.369-1.413a9.237,9.237,0,0,1-.144-1.1,3.306,3.306,0,0,1,.136-1.4,1.355,1.355,0,0,1,.094-.192c-.738-.128-1.477-.268-2.22-.4l-10.056-1.843L98.208,96.128,95.584,95.6l-2.631-.584-5.313-1.18Q83.1,92.808,78.48,91.7c.1.225.189.48.282.768.129.385.238.833.378,1.344s.285,1.088.43,1.744c.38,1.884.907,3.71,1.364,5.525.55,1.789,1.03,3.572,1.643,5.279l.433,1.283c.142.427.284.851.449,1.264l.937,2.474.231.611.252.6.5,1.188.492,1.175.244.583.264.569a116.515,116.515,0,0,0,8.506,15.586c5.56,8.5,9.917,13.175,9.426,13.652-.106.105-.484-.08-1.111-.533q-.47-.34-1.123-.878l-.7-.584-.379-.327-.386-.364q-.791-.753-1.739-1.691c-.643-.615-1.287-1.33-1.984-2.1s-1.452-1.582-2.185-2.5l-1.15-1.4-.6-.733-.581-.775a94.129,94.129,0,0,1-9.618-15.661l-.293-.584-.272-.6-.548-1.207-.552-1.222-.278-.616-.256-.63-1.031-2.555c-.18-.428-.336-.867-.492-1.309l-.474-1.329c-.666-1.771-1.191-3.624-1.777-5.488-.494-1.89-1.048-3.8-1.447-5.764-.162-.737-.29-1.386-.386-1.959s-.123-1.076-.147-1.507a5.717,5.717,0,0,1,.136-1.873,1.893,1.893,0,0,1,.109-.283C64.713,88.34,54.1,85.493,43.29,82.293l-5.732-1.732c-1.918-.584-3.849-1.151-5.774-1.772-1.456-.455-2.914-.929-4.375-1.4l-.022.119c-.081.474-.2,1-.331,1.6-.363,1.7-.629,3.409-.827,5.1-.173,1.692-.278,3.366-.3,5.016-.009.412,0,.823,0,1.232s0,.816.027,1.221.033.808.049,1.209.059.8.088,1.2q.022.3.043.593t.063.588l.124,1.168q.08.579.16,1.15l.078.57.1.564a56.221,56.221,0,0,0,4.918,15.412,61.514,61.514,0,0,0,3.038,5.5c.5.778.962,1.514,1.421,2.167.439.668.873,1.256,1.252,1.8l.276.4.27.364.483.668c.291.423.55.771.747,1.068.393.592.554.958.45,1.066s-.466-.048-1.069-.45a11.146,11.146,0,0,1-1.065-.8l-.647-.549-.353-.309-.36-.343c-.492-.473-1.041-1-1.6-1.619-.576-.6-1.153-1.3-1.777-2.047a46.918,46.918,0,0,1-3.763-5.452A51.8,51.8,0,0,1,22.74,99.427l-.125-.6-.105-.611L22.3,96.978l-.171-1.255q-.042-.316-.085-.633l-.064-.639q-.063-.641-.126-1.289l-.083-1.306c-.033-.438-.045-.878-.055-1.321s-.03-.887-.028-1.335c-.007-1.789.085-3.61.258-5.453a54.968,54.968,0,0,1,.879-5.562c.158-.7.323-1.3.478-1.833.032-.1.065-.2.1-.295-1.08-.362-2.161-.729-3.241-1.11-1.948-.666-3.889-1.382-5.841-2.088-1.942-.738-3.9-1.461-5.838-2.249-.973-.386-1.949-.77-2.916-1.183l-.489-.2A44.155,44.155,0,0,0,.68,82.571,50.093,50.093,0,0,0,0,90.878a56.272,56.272,0,0,0,2.79,17.177q.608,1.9,1.371,3.859A73.461,73.461,0,0,0,8.078,120.3q1.035,1.9,2.173,3.692,1.191,1.888,2.48,3.658a70.377,70.377,0,0,0,7.594,8.8q1.22,1.2,2.475,2.327c18.237,16.358,41.458,21.117,46.593,18.552,6.712-3.352-5.2-26.27-9.372-36.608s-9.151-26.9-3.726-29.2c2.127-.9,4.193,1.752,6.056,5.793a81.221,81.221,0,0,1,3.558,9.761c.578,1.885,1.112,3.752,1.594,5.48.591,2.12,1.1,4.032,1.523,5.509.115.4.233.831.356,1.275,2.316,8.357,6.3,23.468,20.576,37.9,8.1,8.189,18.811,10.868,27.46,11.057,7.4.162,13.292-1.5,14.757-3.1" transform="translate(0 0)" fill="#b7e1d1"/>
          </g>
        </g>
        <g id="Group_498" data-name="Group 498" transform="translate(-167.838 1001.043) rotate(-45)">
          <g id="Group_496-3" data-name="Group 496" clip-path="url(#clip-path-4)">
            <path id="Path_709-3" data-name="Path 709" d="M1170.6,332.025c5.1.49,23.227-1.008,18.97-5.7-4.392-4.841-18.486,4.528-19.858,5.459.181.046.349.09.5.131s.275.076.39.111" transform="translate(-954.899 -265.268)" fill="#b7e1d1"/>
            <path id="Path_710-3" data-name="Path 710" d="M1120.559,276.35c-6.551-4.08-25.069,11.173-24.455,12.656h.008c.505-.173,28.887-9.893,24.448-12.658" transform="translate(-894.792 -225.034)" fill="#b7e1d1"/>
            <path id="Path_711-3" data-name="Path 711" d="M1019.793,240.331s36.848-17.487,29.077-21.526c-5.7-2.964-29.077,21.526-29.077,21.526" transform="translate(-832.508 -178.418)" fill="#b7e1d1"/>
            <path id="Path_712-3" data-name="Path 712" d="M940.488,190.571q-1.073.963-2.12,1.922c-2.362,2.164-4.588,4.274-6.517,6.137q-.834.8-1.59,1.544c-2,1.957-3.554,3.514-4.408,4.379l.612.035c1.155-.617,2.984-1.606,5.229-2.854l1.051-.587c2.638-1.478,5.742-3.256,8.95-5.182l.482-.29c11.4-6.871,23.86-15.477,21.242-18.894-1.571-2.051-6.452.539-12.226,4.867l-.075.057c-3.4,2.555-7.109,5.707-10.63,8.867" transform="translate(-755.82 -143.731)" fill="#b7e1d1"/>
            <path id="Path_713-3" data-name="Path 713" d="M865.988,135.128A55.447,55.447,0,0,0,857.762,142c-1.125,1.09-2.277,2.249-3.443,3.454-1.885,1.95-3.8,4.019-5.682,6.107q-.6.667-1.2,1.337l-.577.65q-1.079,1.219-2.128,2.425c-4.76,5.475-8.92,10.575-11.2,13.408l1.333.019c2.251-1.644,5.514-4.061,9.176-6.877,1.107-.851,2.25-1.738,3.412-2.652q1.117-.878,2.254-1.786,1.263-1.009,2.533-2.045c1.9-1.551,3.8-3.135,5.611-4.707,1.269-1.1,2.5-2.194,3.668-3.268a64.511,64.511,0,0,0,7.875-8.312,9.688,9.688,0,0,0,1.974-3.877,1.9,1.9,0,0,0-.405-1.632,1.575,1.575,0,0,0-.576-.405c-.993-.407-2.521.111-4.407,1.293" transform="translate(-680.461 -109.144)" fill="#b7e1d1"/>
            <path id="Path_714-3" data-name="Path 714" d="M740.3,119.61c-10.007,10.671-20.495,24.262-22.962,27.494l.5-.02c2.691-1.9,10.2-7.26,18.153-13.53,5.357-4.224,10.912-8.859,15.33-13.125q.592-.572,1.156-1.134t1.122-1.14c.916-.949,1.759-1.872,2.511-2.757.661-.778,1.252-1.527,1.762-2.241,2.011-2.816,2.762-5.086,1.564-6.407-.811-.894-2.1-.9-3.741-.226a12.736,12.736,0,0,0-1.4.687,23.388,23.388,0,0,0-2.093,1.349A89.857,89.857,0,0,0,740.3,119.61" transform="translate(-585.601 -86.573)" fill="#b7e1d1"/>
            <path id="Path_715-3" data-name="Path 715" d="M1199.3,374.155c.51-7.182-27.607-8.728-27.607-8.728s27.1,15.91,27.607,8.728" transform="translate(-956.514 -298.316)" fill="#b7e1d1"/>
            <path id="Path_716-3" data-name="Path 716" d="M1080.6,378.461c2.406-9.534-26.259-23.746-34.918-27.8l-1.589-.142c5.314,6.063,33.94,38.112,36.506,27.94" transform="translate(-852.345 -286.148)" fill="#b7e1d1"/>
            <path id="Path_717-3" data-name="Path 717" d="M977.609,382.438c8.632-7.369-39.312-34-48.9-39.013l-.946-.035c5.339,6.126,41.108,46.51,49.85,39.048" transform="translate(-757.376 -280.327)" fill="#b7e1d1"/>
            <path id="Path_718-3" data-name="Path 718" d="M887.883,391.386c4.308-10.419-44.859-43.88-53.383-49.581h-.573c5.963,7.309,49.564,60.2,53.956,49.58" transform="translate(-680.777 -279.033)" fill="#b7e1d1"/>
            <path id="Path_719-3" data-name="Path 719" d="M775.343,401.731c2.719,1.522,4.856,2.059,6.158,1.261a2.332,2.332,0,0,0,.731-.714c4.68-7.077-52.893-50.219-62.568-57.395l-.5.026c5.91,7.064,40.6,48.1,56.184,56.821" transform="translate(-587.086 -281.546)" fill="#b7e1d1"/>
            <path id="Path_720-3" data-name="Path 720" d="M660.727,417.392c2.332,1.054,3.964.989,4.627-.561,1.062-2.482-1.25-6.677-5.562-11.755-15.237-17.943-55.455-46.9-60.082-50.211l-.164.018c3.811,4.6,46.463,55.859,61.18,62.508" transform="translate(-489.44 -289.694)" fill="#b7e1d1"/>
            <path id="Path_721-3" data-name="Path 721" d="M534.992,424.042q.666.717,1.323,1.413c9.189,9.735,16.944,16.311,19.9,14.614a1.916,1.916,0,0,0,.592-.536,2.371,2.371,0,0,0,.381-.829c1.043-4.12-6.76-13.789-17.358-24.627-17.676-18.078-43.117-39.4-48.23-43.654l-.309.054c3.272,4.367,19.244,25.54,34.68,43.446,3.064,3.555,6.108,6.981,9.026,10.121" transform="translate(-401.062 -302.394)" fill="#b7e1d1"/>
            <path id="Path_722-3" data-name="Path 722" d="M452.7,462.446a3.963,3.963,0,0,0,.087-3.361c-1.369-4.464-7.039-11.735-14.487-19.888-17.217-18.845-43.928-42.387-48.963-46.789l-.261.066c6.017,8.3,57.622,78.987,63.624,69.972" transform="translate(-317.626 -320.342)" fill="#b7e1d1"/>
            <path id="Path_723-3" data-name="Path 723" d="M337.085,500.058c3.747-5.274-31.111-37.172-52.876-56.268-7.747-6.8-13.835-11.972-15.931-13.746l-.223.086c1.708,2.262,7.133,9.4,14.259,18.342,18.736,23.5,49.221,59.4,54.771,51.586" transform="translate(-218.827 -351.066)" fill="#b7e1d1"/>
            <path id="Path_724-3" data-name="Path 724" d="M175.441,502.82c9.7,12.273,21.106,25.524,29.08,31.047,3.776,2.615,6.783,3.5,8.473,1.723,1.311-1.378-.91-5.147-5.12-10.144-6.2-7.363-16.723-17.393-26.635-26.381-3.163-2.868-6.264-5.629-9.142-8.164-6.076-5.35-11.162-9.688-13.753-11.882l-.537.292c1.931,2.709,5.852,8.147,10.774,14.639,2.127,2.805,4.44,5.806,6.86,8.869" transform="translate(-128.826 -391.048)" fill="#b7e1d1"/>
            <path id="Path_725-3" data-name="Path 725" d="M49.235,342.944c-.509,1.206-.8,1.893-.8,1.893s.018-.583.074-1.631l-.3.107-2.388.913-1.2.46c-.4.156-.793.322-1.19.484l-2.385.976-2.373,1.031-1.189.52-1.18.546c-.786.367-1.579.724-2.364,1.1-1.561.772-3.139,1.525-4.685,2.354-.456.232-.909.472-1.36.715-.152,1.024-.233,1.593-.233,1.593s-.071-.487-.188-1.364c-.954.519-1.9,1.052-2.856,1.581-.767.437-1.523.9-2.287,1.345l-1.143.679-1.127.71-1.129.711c-.376.239-.756.47-1.123.723L15.6,359.882a90.469,90.469,0,0,0-9.319,7.3q-.821.76-1.515,1.419c-.231.221-.455.431-.664.639l-.588.612c-.636.669-1.169,1.245-1.609,1.751-.076.088-.151.174-.222.258a18.161,18.161,0,0,0-1.12,1.523c-.707,1.1-.634,1.506-.37,1.751.334.311.7.533,2.445-.766.141-.105.29-.219.45-.345.4-.323.877-.69,1.433-1.135.182-.146.372-.3.569-.464l1.318-1.1q.735-.585,1.593-1.288c2.307-1.859,5.37-4.321,9.678-7.273l2.159-1.45c.356-.246.727-.47,1.092-.7l1.1-.692,1.1-.691,1.113-.661c.743-.437,1.478-.885,2.225-1.311.844-.469,1.684-.942,2.527-1.405l.537-.292c.482-.261.966-.519,1.454-.769,1.506-.812,3.047-1.549,4.57-2.306.766-.37,1.541-.72,2.309-1.08L39,350.871l1.163-.511,2.32-1.014,2.334-.962c.389-.159.775-.322,1.165-.477l1.172-.454,2.072-.8.223-.086.043-.017,2.347-.856c.391-.141.779-.288,1.171-.423l1.176-.4.9-.308,1.444-.493,2.35-.757,1.171-.376,1.176-.355,2.343-.709c2.639-.756,5.263-1.485,7.882-2.15l.261-.066c.4-.1.8-.205,1.2-.3,3.1-.782,6.191-1.464,9.252-2.121l2.3-.464c.763-.152,1.523-.313,2.285-.451,1.164-.215,2.32-.439,3.474-.645l.309-.054c.253-.044.506-.089.759-.132,6.029-1.055,11.946-1.9,17.715-2.582.367-.043.732-.083,1.1-.125l.164-.019c5.328-.6,10.529-1.068,15.576-1.422q3.154-.22,6.226-.385l.5-.026c7.223-.38,14.1-.546,20.572-.564h.573c.84,0,1.676,0,2.5,0q4.308.02,8.359.116l.633.016q2.641.065,5.166.157l.946.035q5.266.2,9.993.5,5.535.345,10.279.757l.146.013,1.589.142c2.484.226,4.787.453,6.893.679,5.18.554,9.192,1.085,11.916,1.432q1.021.133,1.8.224c.518.066.953.116,1.3.15.7.069,1.069.076,1.081.016s-.2-.134-.625-.259c-.115-.034-.243-.071-.39-.111s-.317-.084-.5-.131c-.234-.06-.491-.124-.778-.193q-.764-.178-1.775-.4c-2.532-.539-6.214-1.236-10.946-1.953h-.008l-.91-.136c-2.588-.384-5.471-.766-8.633-1.144s-6.6-.726-10.306-1.051c-3.389-.3-7-.564-10.817-.785l-.612-.035q-2.053-.115-4.183-.212-.855-.039-1.722-.074-3.827-.157-7.885-.248-.909-.019-1.83-.034l-1.333-.019c-6.548-.087-13.512-.018-20.836.279l-.5.02q-3.014.126-6.107.306-6.594.386-13.526,1.049c-1.379,1.318-2.2,2.1-2.2,2.1s.333-.722.96-1.978q-1.117.113-2.241.233c-5.636.612-11.418,1.387-17.313,2.362-.763.949-1.195,1.489-1.195,1.489s.172-.492.5-1.376c-1.5.241-3.008.526-4.526.8-.772.134-1.542.292-2.316.441L81.454,334c-3.1.646-6.242,1.319-9.391,2.1l-.651.158c-.752,1.246-1.181,1.961-1.181,1.961s.11-.628.337-1.754c-2.659.66-5.325,1.39-8.007,2.146l-2.385.71-1.2.356-1.193.378-2.394.761L53,341.615l-1.2.406-.089.031c-.37.128-.736.264-1.106.4l-1.374.5" transform="translate(0 -267.589)" fill="#b7e1d1"/>
            <path id="Path_726-3" data-name="Path 726" d="M140.767,127.871s.081-.568.233-1.593c.4-2.672,1.27-8.45,2.433-15.35,1.247-7.394,2.825-16.078,4.5-23.612,1.609-7.228,4.346-14.247,6.414-20.19,2.871-8.247,4.457-14.42-.047-16.2-3.159-1.248-6.927,5.714-9.978,14.779a125.569,125.569,0,0,0-5.141,21.677c-1.06,7.77-.644,18.031.027,26.279.472,5.8,1.069,10.6,1.368,12.846.117.877.188,1.364.188,1.364" transform="translate(-113.096 -41.456)" fill="#b7e1d1"/>
            <path id="Path_727-3" data-name="Path 727" d="M264.014,80.4c-.089,1.192-.149,2.181-.19,2.931-.057,1.049-.074,1.631-.074,1.631s.289-.687.8-1.893c.229-.541.5-1.187.814-1.923,2.876-6.784,9.052-21.234,13.934-31.882,4.045-8.821,10.074-20.355,13.426-28.733,2.112-5.278,3.161-9.3,1.979-10.606-2.364-2.606-9.921,5.7-17.208,19.577-1.547,2.946-3.082,6.142-4.552,9.539-6.27,14.486-8.3,32.937-8.927,41.359" transform="translate(-215.312 -7.712)" fill="#b7e1d1"/>
            <path id="Path_728-3" data-name="Path 728" d="M383.6,68.661c3.219-5.332,12.372-20.423,19.338-31.219,8.594-13.319,23.448-33.049,20.9-36.8C421.45-2.877,409.2,8.417,398.1,26.457,388.72,41.7,383.993,62.723,382.754,68.868c-.227,1.126-.337,1.754-.337,1.754s.429-.714,1.181-1.961" transform="translate(-312.186 0)" fill="#b7e1d1"/>
            <path id="Path_729-3" data-name="Path 729" d="M491.908,87.711c3.543-4.409,14.255-17.692,22.282-27.166,9.755-11.513,26.172-28.626,24.319-31.731-1.737-2.911-14.6,6.99-27.315,22.569-10.828,13.269-18.067,31.366-19.976,36.441-.332.883-.5,1.376-.5,1.376s.432-.54,1.195-1.489" transform="translate(-400.594 -23.109)" fill="#b7e1d1"/>
            <path id="Path_730-3" data-name="Path 730" d="M600.663,118.766c4.443-4.248,14.694-14.087,22.069-21.452,7.454-7.443,18.168-17.934,22.034-23.6,1.146-1.681,1.692-2.939,1.369-3.565-.656-1.275-4.021.093-8.789,3.391a124.207,124.207,0,0,0-17.5,15.272c-10.18,10.527-17.831,24.883-20.426,30.076-.628,1.256-.96,1.978-.96,1.978s.82-.781,2.2-2.1" transform="translate(-488.556 -56.88)" fill="#b7e1d1"/>
          </g>
        </g>
        <g id="Group_499" data-name="Group 499" transform="translate(273.748 1245.68) rotate(-104)">
          <g id="Group_496-4" data-name="Group 496" transform="translate(0 0)" clip-path="url(#clip-path-5)">
            <path id="Path_709-4" data-name="Path 709" d="M.888.088c5.1-.49,23.227,1.008,18.97,5.7C15.466,10.63,1.372,1.26,0,.33.181.283.349.24.5.2S.772.122.888.088" transform="translate(214.818 83.237)" fill="#9accb9"/>
            <path id="Path_710-4" data-name="Path 710" d="M24.47,12.658C17.919,16.737-.6,1.484.015,0H.023C.528.173,28.91,9.893,24.47,12.658" transform="translate(201.296 86.109)" fill="#9accb9"/>
            <path id="Path_711-4" data-name="Path 711" d="M0,0S36.848,17.487,29.076,21.526C23.373,24.49,0,0,0,0" transform="translate(187.285 88.17)" fill="#9accb9"/>
            <path id="Path_712-4" data-name="Path 712" d="M14.635,14.016q-1.073-.963-2.12-1.922C10.153,9.93,7.927,7.821,6,5.958q-.834-.8-1.59-1.544C2.4,2.457.854.9,0,.035L.612,0C1.767.617,3.6,1.606,5.842,2.854l1.051.587c2.638,1.478,5.742,3.256,8.95,5.182l.482.29c11.4,6.871,23.86,15.477,21.242,18.894C36,29.858,31.115,27.268,25.34,22.94l-.075-.057c-3.4-2.555-7.109-5.707-10.63-8.867" transform="translate(170.033 89.226)" fill="#9accb9"/>
            <path id="Path_713-4" data-name="Path 713" d="M32.448,34.268A55.447,55.447,0,0,1,24.222,27.4c-1.125-1.09-2.277-2.249-3.443-3.454-1.885-1.95-3.8-4.019-5.682-6.107q-.6-.667-1.2-1.337l-.577-.65q-1.079-1.219-2.128-2.425C6.436,7.953,2.276,2.852,0,.019L1.333,0c2.251,1.644,5.514,4.061,9.176,6.877,1.107.851,2.25,1.738,3.412,2.652q1.117.878,2.254,1.786,1.263,1.009,2.533,2.045c1.9,1.551,3.8,3.135,5.611,4.707,1.269,1.1,2.5,2.194,3.668,3.268a64.511,64.511,0,0,1,7.875,8.312,9.688,9.688,0,0,1,1.974,3.877,1.9,1.9,0,0,1-.405,1.632,1.575,1.575,0,0,1-.576.405c-.993.407-2.521-.111-4.407-1.293" transform="translate(153.079 89.83)" fill="#9accb9"/>
            <path id="Path_714-4" data-name="Path 714" d="M22.962,27.494C12.955,16.823,2.467,3.233,0,0L.5.02c2.691,1.9,10.2,7.26,18.153,13.53,5.357,4.224,10.912,8.859,15.33,13.125q.592.572,1.156,1.134t1.122,1.14c.916.949,1.759,1.872,2.511,2.757.661.778,1.252,1.527,1.762,2.241,2.011,2.816,2.762,5.086,1.564,6.407-.811.894-2.1.9-3.741.226a12.736,12.736,0,0,1-1.4-.687,23.388,23.388,0,0,1-2.093-1.349A89.857,89.857,0,0,1,22.962,27.494" transform="translate(131.74 89.551)" fill="#9accb9"/>
            <path id="Path_715-4" data-name="Path 715" d="M27.607,1.862C28.117,9.044,0,10.59,0,10.59S27.1-5.32,27.607,1.862" transform="translate(215.182 72.382)" fill="#9accb9"/>
            <path id="Path_716-4" data-name="Path 716" d="M36.506,1.979c2.406,9.534-26.259,23.746-34.918,27.8L0,29.919C5.314,23.856,33.94-8.193,36.506,1.979" transform="translate(191.747 55.79)" fill="#9accb9"/>
            <path id="Path_717-4" data-name="Path 717" d="M49.85.916c8.632,7.369-39.312,34-48.9,39.013L0,39.964C5.339,33.839,41.108-6.546,49.85.916" transform="translate(170.383 47.054)" fill="#9accb9"/>
            <path id="Path_718-4" data-name="Path 718" d="M53.956,1.4C58.264,11.823,9.1,45.284.573,50.985H0C5.963,43.675,49.564-9.217,53.956,1.4" transform="translate(153.15 36.325)" fill="#9accb9"/>
            <path id="Path_719-4" data-name="Path 719" d="M56.184,1.629C58.9.107,61.04-.43,62.342.368a2.332,2.332,0,0,1,.731.714C67.753,8.159,10.18,51.3.5,58.476L0,58.45c5.91-7.064,40.6-48.1,56.184-56.821" transform="translate(132.073 28.268)" fill="#9accb9"/>
            <path id="Path_720-4" data-name="Path 720" d="M61.18.71c2.332-1.054,3.964-.989,4.627.561,1.062,2.482-1.25,6.677-5.562,11.755C45.008,30.969,4.791,59.929.164,63.237L0,63.218C3.811,58.616,46.463,7.359,61.18.71" transform="translate(110.107 21.675)" fill="#9accb9"/>
            <path id="Path_721-4" data-name="Path 721" d="M43.706,16.294q.666-.717,1.323-1.413C54.218,5.145,61.973-1.43,64.924.267A1.916,1.916,0,0,1,65.516.8a2.371,2.371,0,0,1,.381.829c1.043,4.12-6.76,13.789-17.358,24.627C30.864,44.337,5.423,65.663.309,69.914L0,69.861c3.272-4.367,19.244-25.54,34.68-43.446,3.064-3.555,6.108-6.981,9.026-10.121" transform="translate(90.225 12.14)" fill="#9accb9"/>
            <path id="Path_722-4" data-name="Path 722" d="M63.624.793a3.963,3.963,0,0,1,.087,3.361c-1.369,4.464-7.039,11.735-14.487,19.888C32.007,42.887,5.3,66.428.261,70.831L0,70.765C6.017,62.464,57.622-8.222,63.624.793" transform="translate(71.454 7.186)" fill="#9accb9"/>
            <path id="Path_723-4" data-name="Path 723" d="M69.03,1.091c3.747,5.274-31.111,37.172-52.876,56.268C8.407,64.156,2.32,69.331.223,71.105L0,71.019c1.708-2.262,7.133-9.4,14.259-18.342C32.995,29.178,63.481-6.72,69.03,1.091" transform="translate(49.228 0)" fill="#9accb9"/>
            <path id="Path_724-4" data-name="Path 724" d="M17.634,33.7c9.7-12.273,21.106-25.524,29.08-31.047C50.49.035,53.5-.849,55.187.928c1.311,1.378-.91,5.147-5.12,10.144-6.2,7.363-16.723,17.393-26.635,26.381-3.163,2.868-6.264,5.629-9.142,8.164C8.213,50.966,3.128,55.3.537,57.5L0,57.205C1.931,54.5,5.852,49.058,10.774,42.566c2.127-2.805,4.44-5.806,6.86-8.869" transform="translate(28.981 4.613)" fill="#9accb9"/>
            <path id="Path_725-4" data-name="Path 725" d="M49.236,32.431c-.509-1.206-.8-1.893-.8-1.893s.018.583.074,1.631l-.3-.107-2.388-.913-1.2-.46c-.4-.156-.793-.322-1.19-.484l-2.385-.976L38.682,28.2l-1.189-.52-1.18-.546c-.786-.367-1.579-.724-2.364-1.1-1.561-.772-3.139-1.525-4.685-2.354-.456-.232-.909-.472-1.36-.715-.152-1.024-.233-1.593-.233-1.593s-.071.487-.188,1.364c-.954-.519-1.9-1.052-2.856-1.581-.767-.437-1.523-.9-2.287-1.345L21.2,19.129l-1.127-.71-1.129-.711c-.376-.239-.756-.47-1.123-.723L15.6,15.492a90.469,90.469,0,0,1-9.319-7.3q-.821-.76-1.515-1.419c-.231-.221-.455-.431-.664-.639l-.588-.612C2.873,4.853,2.34,4.276,1.9,3.771c-.076-.088-.151-.174-.222-.258A18.161,18.161,0,0,1,.558,1.99C-.149.886-.076.484.188.239.522-.072.888-.294,2.633,1c.141.105.29.219.45.345.4.323.877.69,1.433,1.135.182.146.372.3.569.464L6.4,4.047Q7.138,4.633,8,5.335c2.307,1.859,5.37,4.321,9.678,7.273l2.159,1.45c.356.246.727.47,1.092.7l1.1.692,1.1.691,1.113.661c.743.437,1.478.885,2.225,1.311.844.469,1.684.942,2.527,1.405l.537.292c.482.261.966.519,1.454.769,1.506.812,3.047,1.549,4.57,2.306.766.37,1.541.72,2.309,1.08L39,24.5l1.163.511,2.32,1.014,2.334.962c.389.159.775.322,1.165.477l1.172.454,2.072.8.223.086.043.017,2.347.856c.391.141.779.288,1.171.423l1.176.4.9.308,1.444.493,2.35.757,1.171.376,1.176.355,2.343.709c2.639.756,5.263,1.485,7.882,2.15l.261.066c.4.1.8.205,1.2.3,3.1.782,6.191,1.464,9.252,2.121l2.3.464c.763.152,1.523.313,2.285.451,1.164.215,2.32.439,3.474.645l.309.054c.253.044.506.089.759.132,6.029,1.055,11.946,1.9,17.715,2.582.367.043.732.083,1.1.125l.164.019c5.328.6,10.529,1.068,15.576,1.422q3.154.22,6.226.385l.5.026c7.223.38,14.1.546,20.572.564h.573c.84,0,1.676,0,2.5,0q4.308-.02,8.359-.116l.633-.016q2.641-.065,5.166-.157l.946-.035q5.266-.2,9.993-.5,5.535-.345,10.279-.757l.146-.013,1.589-.142c2.484-.226,4.787-.453,6.893-.679,5.18-.554,9.192-1.085,11.916-1.432q1.021-.133,1.8-.224c.518-.066.953-.116,1.3-.15.7-.069,1.069-.076,1.081-.016s-.2.134-.625.259c-.115.034-.243.071-.39.111s-.317.084-.5.131c-.234.06-.491.124-.778.193q-.764.178-1.775.4c-2.532.539-6.214,1.236-10.946,1.953h-.008l-.91.136c-2.588.384-5.471.766-8.633,1.144s-6.6.726-10.306,1.051c-3.389.3-7,.564-10.817.785l-.612.035q-2.053.115-4.183.212-.855.039-1.722.074-3.827.157-7.885.248-.909.019-1.83.034l-1.333.019c-6.548.087-13.512.018-20.836-.279l-.5-.02q-3.014-.126-6.107-.306-6.594-.386-13.526-1.049c-1.379-1.318-2.2-2.1-2.2-2.1s.333.722.96,1.978q-1.117-.113-2.241-.233c-5.636-.612-11.418-1.387-17.313-2.362-.763-.949-1.195-1.489-1.195-1.489s.172.492.5,1.376c-1.5-.241-3.008-.526-4.526-.8-.772-.134-1.542-.292-2.316-.441l-2.328-.455c-3.1-.646-6.242-1.319-9.391-2.1l-.651-.158c-.752-1.246-1.181-1.961-1.181-1.961s.11.628.337,1.754c-2.659-.66-5.325-1.39-8.007-2.146l-2.385-.71-1.2-.356-1.193-.378-2.394-.761L53,33.76l-1.2-.406-.089-.031c-.37-.128-.736-.264-1.106-.4l-1.374-.5" transform="translate(0 42.297)" fill="#9accb9"/>
            <path id="Path_726-4" data-name="Path 726" d="M2.229,0s.081.568.233,1.593c.4,2.672,1.27,8.45,2.433,15.35C6.141,24.337,7.72,33.021,9.4,40.555c1.609,7.228,4.346,14.247,6.414,20.19,2.871,8.247,4.457,14.42-.047,16.2-3.159,1.248-6.927-5.714-9.978-14.779A125.57,125.57,0,0,1,.646,40.488C-.414,32.718,0,22.458.673,14.21c.472-5.8,1.069-10.6,1.368-12.846C2.158.487,2.229,0,2.229,0" transform="translate(25.442 63.667)" fill="#9accb9"/>
            <path id="Path_727-4" data-name="Path 727" d="M.264,4.562C.175,3.371.115,2.382.074,1.631.018.583,0,0,0,0S.289.687.8,1.893c.229.541.5,1.187.814,1.923C4.489,10.6,10.664,25.05,15.546,35.7,19.591,44.518,25.62,56.052,28.972,64.43c2.112,5.278,3.161,9.3,1.979,10.606-2.364,2.606-9.921-5.7-17.208-19.577-1.547-2.946-3.082-6.142-4.552-9.539C2.921,31.435.891,12.983.264,4.562" transform="translate(48.438 72.835)" fill="#9accb9"/>
            <path id="Path_728-4" data-name="Path 728" d="M1.181,1.961C4.4,7.292,13.553,22.384,20.519,33.179c8.594,13.319,23.448,33.049,20.9,36.8C39.033,73.5,26.786,62.2,15.685,44.164,6.3,28.918,1.576,7.9.337,1.754.11.628,0,0,0,0S.429.714,1.181,1.961" transform="translate(70.231 79.461)" fill="#9accb9"/>
            <path id="Path_729-4" data-name="Path 729" d="M1.195,1.489C4.738,5.9,15.45,19.181,23.477,28.655,33.231,40.167,49.648,57.281,47.8,60.385,46.058,63.3,33.193,53.4,20.48,37.817,9.652,24.548,2.413,6.451.5,1.376.172.492,0,0,0,0S.432.54,1.195,1.489" transform="translate(90.119 83.991)" fill="#9accb9"/>
            <path id="Path_730-4" data-name="Path 730" d="M2.2,2.1C6.642,6.347,16.893,16.187,24.268,23.551c7.454,7.443,18.168,17.934,22.034,23.6,1.146,1.681,1.692,2.939,1.369,3.565-.656,1.275-4.021-.093-8.789-3.391a124.207,124.207,0,0,1-17.5-15.272C11.207,21.528,3.555,7.171.96,1.978.333.722,0,0,0,0S.82.781,2.2,2.1" transform="translate(109.908 86.097)" fill="#9accb9"/>
          </g>
        </g>
      </g>
      <path id="Union_1" data-name="Union 1" d="M-337,1092V240.589c-22.176-15.814-34-32.437-34-49.589s11.824-33.775,34-49.589V129h19.81C-182.534,53.949,189.786,0,628,0s810.534,53.949,945.19,129H1593v12.411c22.176,15.814,34,32.437,34,49.589s-11.824,33.775-34,49.589V1092Z" transform="translate(336 1381)" fill="url(#linear-gradient)"/>
      <g id="Group_485" data-name="Group 485" transform="translate(147.354 1103.969)">
        <g id="Group_484" data-name="Group 484" clip-path="url(#clip-path-10)">
          <path id="Path_702" data-name="Path 702" d="M37.862,18.094s1.452-6.639,0-7.675S15.877-.783,10.483.048s-2.075,3.524,0,4.979S14.839,10,15.669,12.078s2.28,10.784,4.976,11.615c0,0-19.08,8.088-20.532,9.955S11.729,30.33,11.729,30.33s15.349,1.452,19.7-.622,10.991-7.882,13.481-10.369c1.912-1.914,4.979-.209,4.979-.209s-4.356-6.428-12.03-1.035" transform="translate(0 0)" fill="#44ab75"/>
        </g>
      </g>
    </g>
  </g>
</svg>
