<svg xmlns="http://www.w3.org/2000/svg" width="345" height="5" viewBox="0 0 345 5">
  <g id="dots" transform="translate(-676 -2840)">
    <path id="dots-2" data-name="dots" d="M895.607,226.5h-5v-5h5Zm-15,0h-5v-5h5Zm-15,0h-5v-5h5Zm-15,0h-5v-5h5Zm-15,0h-5v-5h5Zm-15,0h-5v-5h5Zm-15,0h-5v-5h5Zm-15,0h-5v-5h5Zm-15,0h-5v-5h5Zm-15,0h-5v-5h5Zm-15,0h-5v-5h5Zm-15,0h-5v-5h5Zm-15,0h-5v-5h5Zm-15,0h-5v-5h5Zm-15,0h-5v-5h5Zm-15,0h-5v-5h5Zm-15,0h-5v-5h5Zm-15,0h-5v-5h5Zm-15,0h-5v-5h5Zm-15,0h-5v-5h5Zm-15,0h-5v-5h5Zm-15,0h-5v-5h5Zm-15,0h-5v-5h5Z" transform="translate(115.393 2618.5)" fill="#c1bfbf"/>
    <rect id="Rectangle_729" data-name="Rectangle 729" width="10" height="5" transform="translate(1011 2840)" fill="none"/>
  </g>
</svg>
