<svg xmlns="http://www.w3.org/2000/svg" xmlns:xlink="http://www.w3.org/1999/xlink" width="1920" height="317" viewBox="0 0 1920 317">
  <defs>
    <clipPath id="clip-path">
      <rect id="Rectangle_587" data-name="Rectangle 587" width="1920" height="317" transform="translate(-103 -1185)" fill="#fff" stroke="#707070" stroke-width="1"/>
    </clipPath>
    <clipPath id="clip-path-2">
      <rect id="Rectangle_487" data-name="Rectangle 487" width="859.365" height="324.021" fill="none"/>
    </clipPath>
    <linearGradient id="linear-gradient" x1="0.5" x2="0.5" y2="1" gradientUnits="objectBoundingBox">
      <stop offset="0" stop-color="#acdd90"/>
      <stop offset="1" stop-color="#acdd90"/>
    </linearGradient>
    <clipPath id="clip-path-3">
      <rect id="Rectangle_571" data-name="Rectangle 571" width="322.839" height="90.971" fill="none"/>
    </clipPath>
    <clipPath id="clip-path-7">
      <rect id="Rectangle_574" data-name="Rectangle 574" width="202.854" height="76.727" transform="translate(0 0)" fill="none"/>
    </clipPath>
    <clipPath id="clip-path-8">
      <rect id="Rectangle_575" data-name="Rectangle 575" width="172.227" height="183.893" fill="none"/>
    </clipPath>
  </defs>
  <g id="footer-bg" transform="translate(103 1185)" clip-path="url(#clip-path)">
    <g id="Group_644" data-name="Group 644" transform="translate(0 0.474)">
      <g id="Component_6_5" data-name="Component 6 – 5" transform="translate(-142 -1185.474)">
        <g id="Group_594" data-name="Group 594" transform="translate(17.78)" opacity="0.4">
          <g id="Group_575" data-name="Group 575" clip-path="url(#clip-path-2)">
            <path id="Path_1168" data-name="Path 1168" d="M8.992,220.026l31.9-46.514,29.238-18.6,14.618-29.236L99.361,71.184l15.948-22.592L134.9,31.316l6.992-19.934L160.492.75,189.73,11.382l18.605,6.644,18.6,13.29,31.895,26.578,13.29,23.921,11.96,23.921h7.974v49.171l11.96,18.6H330.6l31.895,9.3,11.961-9.3,13.29-7.973,35.881,7.973,15.948,9.3,23.922-9.3,38.539,9.3,26.58,11.96,19.934-21.263,19.934-7.973,15.947-10.632,11.96-17.276h26.579L642.9,154.907l38.54,18.6,86.382,46.514H787.76c5.514,0,14.413,6.6,18.609,9.966,6.23,5,12.394,10.033,18.293,15.426a299.452,299.452,0,0,1,32.6,34.972c.764.964,1.568,2.117,1.3,3.317-.374,1.663-2.444,2.193-4.138,2.379-31.059,3.4-62.17-1.212-93.149-3.272-13.669-.909-30.166-3.53-42.888,1.783a449.949,449.949,0,0,1-44.6,15.7c-17.2,5.123-34.94,8.24-52.7,10.867-81.955,12.123-165.169,14-247.947,10.609-40.8-1.671-81.7-4.634-121.707-12.808-20.062-4.1-39.9-9.5-60.221-12.007C127.609,289.123,59.376,309.491.944,283.172c-1.358-15.5,4.733-26.36,7.783-40.712,1.486-6.992.266-15.283.265-22.434" fill="#61d6c2"/>
            <path id="Path_1169" data-name="Path 1169" d="M8.992,220.026l31.9-46.514,29.238-18.6,14.618-29.236L99.361,71.184l15.948-22.592L134.9,31.316l6.992-19.934L160.492.75,189.73,11.382l18.605,6.644,18.6,13.29,31.895,26.578,13.29,23.921,11.96,23.921h7.974v49.171l11.96,18.6H330.6l31.895,9.3,11.961-9.3,13.29-7.973,35.881,7.973,15.948,9.3,23.922-9.3,38.539,9.3,26.58,11.96,19.934-21.263,19.934-7.973,15.947-10.632,11.96-17.276h26.579L642.9,154.907l38.54,18.6,86.382,46.514H787.76c5.514,0,14.413,6.6,18.609,9.966,6.23,5,12.394,10.033,18.293,15.426a299.452,299.452,0,0,1,32.6,34.972c.764.964,1.568,2.117,1.3,3.317-.374,1.663-2.444,2.193-4.138,2.379-31.059,3.4-62.17-1.212-93.149-3.272-13.669-.909-30.166-3.53-42.888,1.783a449.949,449.949,0,0,1-44.6,15.7c-17.2,5.123-34.94,8.24-52.7,10.867-81.955,12.123-165.169,14-247.947,10.609-40.8-1.671-81.7-4.634-121.707-12.808-20.062-4.1-39.9-9.5-60.221-12.007C127.609,289.123,59.376,309.491.944,283.172c-1.358-15.5,4.733-26.36,7.783-40.712C10.213,235.468,8.993,227.177,8.992,220.026Z" fill="none" stroke="#fff" stroke-linecap="round" stroke-linejoin="round" stroke-width="1.5"/>
          </g>
        </g>
        <g id="Group_565" data-name="Group 565" transform="translate(2.818 -1360.526)">
          <g id="Group_415" data-name="Group 415" transform="translate(-2.818 1560.561)">
            <path id="Path_452" data-name="Path 452" d="M3210.617,2192.4s357.461-82.6,1069.118-116.356c1.632-23.013,0,116.356,0,116.356Z" transform="translate(-2283.825 -2073.48)" stroke="#fff" stroke-width="2" fill="url(#linear-gradient)"/>
            <path id="Path_453" data-name="Path 453" d="M4280.46,2192.4S3923,2109.8,3211.342,2076.046c-1.632-23.013,0,116.356,0,116.356Z" transform="translate(-3210.617 -2073.48)" stroke="#fff" stroke-width="2" fill="url(#linear-gradient)"/>
          </g>
          <rect id="Rectangle_447" data-name="Rectangle 447" width="1988" height="32" transform="translate(-0.038 1669)" fill="url(#linear-gradient)"/>
        </g>
      </g>
      <g id="Group_642" data-name="Group 642" transform="translate(-125 -1740)">
        <g id="Group_619" data-name="Group 619" transform="translate(0 702.515)">
          <g id="Group_609" data-name="Group 609" transform="translate(0 0)" clip-path="url(#clip-path-3)">
            <path id="Path_2156" data-name="Path 2156" d="M322.238,90.37a8.972,8.972,0,0,0-4.355-3.775c-2.607-1-5.584-.787-8.127-1.942-2.025-.917-3.582-2.617-5.454-3.819-9.573-6.147-22.238,2.483-33.411.343,3.655-6.137-3.253-15.2-10.139-13.3,6.121-4.8,6.33-15.36.405-20.4-1.5-1.276-3.292-2.222-4.585-3.708-1.421-1.632-2.116-3.773-3.38-5.53-3.469-4.821-11.448-5.417-15.6-1.168-1.643,1.683-3.114,4.138-5.465,4.069-1.323-.039-2.446-.92-3.547-1.656-7.8-5.207-19.359-3.716-25.586,3.3-2.059-4.794-8.288-6.6-13.356-5.35s-9.225,4.755-13.183,8.158c1.354-5.95-3.7-12.488-9.8-12.681,4.658-4.957,4.035-13.868-1.267-18.13-2.327-1.87-5.3-2.882-7.376-5.03-2.544-2.635-3.558-6.806-6.83-8.452-5.568-2.8-11.169,3.926-17.275,5.179-3.131.641-6.376-.222-9.565-.009-6.669.45-12.121,5.489-16.069,10.882s-7.087,11.5-12.12,15.9c-.109-2.727-3.075-4.619-5.8-4.573s-5.218,1.473-7.567,2.861a8.737,8.737,0,0,0-3.155-10.882A8.734,8.734,0,0,0,68.5,22.732c-6.6-5.89-18.847-2.72-21.762,5.633-2.667-1.808-6.422-1.155-9.061.7s-4.412,4.664-6.114,7.4q-2.326,3.735-4.65,7.472c-1.989,3.2-3.933,7.528-1.519,10.415C17.975,52.145,9.276,57.912,8.421,65.6a23.651,23.651,0,0,0-7.8-2.72V90.37Z" transform="translate(-0.01 -0.01)" fill="#5daf80"/>
            <path id="Path_2157" data-name="Path 2157" d="M322.238,90.37a8.972,8.972,0,0,0-4.355-3.775c-2.607-1-5.584-.787-8.127-1.942-2.025-.917-3.582-2.617-5.454-3.819-9.573-6.147-22.238,2.483-33.411.343,3.655-6.137-3.253-15.2-10.139-13.3,6.121-4.8,6.33-15.36.405-20.4-1.5-1.276-3.292-2.222-4.585-3.708-1.421-1.632-2.116-3.773-3.38-5.53-3.469-4.821-11.448-5.417-15.6-1.168-1.643,1.683-3.114,4.138-5.465,4.069-1.323-.039-2.446-.92-3.547-1.656-7.8-5.207-19.359-3.716-25.586,3.3-2.059-4.794-8.288-6.6-13.356-5.35s-9.225,4.755-13.183,8.158c1.354-5.95-3.7-12.488-9.8-12.681,4.658-4.957,4.035-13.868-1.267-18.13-2.327-1.87-5.3-2.882-7.376-5.03-2.544-2.635-3.558-6.806-6.83-8.452-5.568-2.8-11.169,3.926-17.275,5.179-3.131.641-6.376-.222-9.565-.009-6.669.45-12.121,5.489-16.069,10.882s-7.087,11.5-12.12,15.9c-.109-2.727-3.075-4.619-5.8-4.573s-5.218,1.473-7.567,2.861a8.737,8.737,0,0,0-3.155-10.882A8.734,8.734,0,0,0,68.5,22.732c-6.6-5.89-18.847-2.72-21.762,5.633-2.667-1.808-6.422-1.155-9.061.7s-4.412,4.664-6.114,7.4q-2.326,3.735-4.65,7.472c-1.989,3.2-3.933,7.528-1.519,10.415C17.975,52.145,9.276,57.912,8.421,65.6a23.651,23.651,0,0,0-7.8-2.72V90.37Z" transform="translate(-0.01 -0.01)" fill="none" stroke="#fff" stroke-linecap="round" stroke-linejoin="round" stroke-width="1.242"/>
            <path id="Path_2158" data-name="Path 2158" d="M116.795,73.887c-1.07-1.4-4.022-1.76-5.608-1.76-1.175,0-3.036.453-1.953,1.865,1.07,1.4,4.022,1.758,5.607,1.758,1.176,0,3.037-.453,1.954-1.863" transform="translate(-1.766 -1.169)" fill="#a2c683"/>
            <path id="Path_2159" data-name="Path 2159" d="M133.268,27.54c-1.951,0-5.032,5.526-3.43,5.526,1.95,0,5.032-5.526,3.43-5.526" transform="translate(-2.098 -0.446)" fill="#a2c683"/>
            <path id="Path_2160" data-name="Path 2160" d="M156.848,64.547c-.68-1.008-1.991-2.531-3.349-2.531-1.317,0,.088,2.41.339,2.782.68,1.008,1.991,2.531,3.349,2.531,1.316,0-.089-2.41-.339-2.782" transform="translate(-2.48 -1.005)" fill="#a2c683"/>
            <path id="Path_2161" data-name="Path 2161" d="M153.3,84.888c-.357-.723-2.235-.811-2.878-.811-.777,0-1.321.255-.965.976s2.235.811,2.878.811c.777,0,1.321-.255.965-.976" transform="translate(-2.422 -1.363)" fill="#a2c683"/>
            <path id="Path_2162" data-name="Path 2162" d="M195.573,66.53c-2.237,0-3.471,6.833-2.007,6.833,2.238,0,3.472-6.833,2.007-6.833" transform="translate(-3.129 -1.079)" fill="#a2c683"/>
            <path id="Path_2163" data-name="Path 2163" d="M185.858,51.082a4.92,4.92,0,0,0-3.244-1.323c-1.007,0-1.071.554-.5,1.233a4.922,4.922,0,0,0,3.244,1.323c1.008,0,1.072-.556.5-1.233" transform="translate(-2.947 -0.807)" fill="#a2c683"/>
            <path id="Path_2164" data-name="Path 2164" d="M223.19,75.235a6.5,6.5,0,0,0-4.271,1.956c-.863.967-.552,1.623.743,1.623a6.509,6.509,0,0,0,4.272-1.956c.862-.968.551-1.623-.744-1.623" transform="translate(-3.542 -1.22)" fill="#a2c683"/>
            <path id="Path_2165" data-name="Path 2165" d="M229.42,54.34c-3.339,0,.913,10.88,4.269,10.88,3.339,0-.913-10.88-4.269-10.88" transform="translate(-3.701 -0.881)" fill="#a2c683"/>
            <path id="Path_2166" data-name="Path 2166" d="M248.041,74.472c-1.862,0-5.007.6-6.2,2.211-1.231,1.661,1.009,2,2.267,2,1.863,0,5.008-.6,6.2-2.212,1.231-1.66-1.009-2-2.267-2" transform="translate(-3.916 -1.207)" fill="#a2c683"/>
            <path id="Path_2167" data-name="Path 2167" d="M250.549,57.329c-.466-1.547-4.283-1.973-5.463-1.973-1.005,0-4,.007-3.484,1.706.467,1.545,4.284,1.974,5.463,1.974,1.005,0,4-.008,3.484-1.707" transform="translate(-3.917 -0.897)" fill="#a2c683"/>
            <path id="Path_2168" data-name="Path 2168" d="M122.124,65.465c-3.033,0-2.866,11.53.344,11.53,3.034,0,2.866-11.53-.344-11.53" transform="translate(-1.945 -1.061)" fill="#a2c683"/>
            <path id="Path_2169" data-name="Path 2169" d="M130.594,53.023a4.352,4.352,0,0,0-2.95-1.889c-1.1,0,.265,2.045.462,2.293a4.344,4.344,0,0,0,2.949,1.89c1.1,0-.265-2.045-.461-2.294" transform="translate(-2.063 -0.829)" fill="#a2c683"/>
            <path id="Path_2170" data-name="Path 2170" d="M109.331,47.484a11.932,11.932,0,0,0-7.453-2.83c-2.133,0-2.621,1.422-1.076,2.832a11.932,11.932,0,0,0,7.454,2.83c2.132,0,2.621-1.422,1.075-2.832" transform="translate(-1.62 -0.724)" fill="#a2c683"/>
            <path id="Path_2171" data-name="Path 2171" d="M82.882,71.173c-.914-2.4-6.383-3.216-8.407-3.216-1.358,0-6.444-.069-5.447,2.546.914,2.4,6.383,3.214,8.408,3.214,1.357,0,6.443.069,5.446-2.544" transform="translate(-1.117 -1.102)" fill="#a2c683"/>
            <path id="Path_2172" data-name="Path 2172" d="M66.607,79.474A12.683,12.683,0,0,0,58.489,82.9c-1.717,1.689-1.094,3.084,1.3,3.084a12.675,12.675,0,0,0,8.117-3.423c1.718-1.688,1.094-3.085-1.3-3.085" transform="translate(-0.933 -1.289)" fill="#a2c683"/>
            <path id="Path_2173" data-name="Path 2173" d="M60.837,32.007c-4,0-5.39,13.207-2.232,13.207,4,0,5.39-13.207,2.232-13.207" transform="translate(-0.922 -0.519)" fill="#a2c683"/>
            <path id="Path_2174" data-name="Path 2174" d="M36.439,76.036c-.916-1.492-2.832-4.1-4.856-4.1-1.979,0-.111,3.587.286,4.235.916,1.492,2.833,4.1,4.856,4.1,1.979,0,.112-3.586-.286-4.232" transform="translate(-0.498 -1.166)" fill="#a2c683"/>
            <path id="Path_2175" data-name="Path 2175" d="M13.136,82.011c-1.323,0-3.206,4.119-1.957,4.119,1.322,0,3.206-4.119,1.957-4.119" transform="translate(-0.175 -1.33)" fill="#a2c683"/>
          </g>
        </g>
        <g id="Group_620" data-name="Group 620" transform="translate(222.471 738.515)">
          <g id="Group_609-2" data-name="Group 609" transform="translate(0 0)" clip-path="url(#clip-path-3)">
            <path id="Path_2156-2" data-name="Path 2156" d="M322.238,90.37a8.972,8.972,0,0,0-4.355-3.775c-2.607-1-5.584-.787-8.127-1.942-2.025-.917-3.582-2.617-5.454-3.819-9.573-6.147-22.238,2.483-33.411.343,3.655-6.137-3.253-15.2-10.139-13.3,6.121-4.8,6.33-15.36.405-20.4-1.5-1.276-3.292-2.222-4.585-3.708-1.421-1.632-2.116-3.773-3.38-5.53-3.469-4.821-11.448-5.417-15.6-1.168-1.643,1.683-3.114,4.138-5.465,4.069-1.323-.039-2.446-.92-3.547-1.656-7.8-5.207-19.359-3.716-25.586,3.3-2.059-4.794-8.288-6.6-13.356-5.35s-9.225,4.755-13.183,8.158c1.354-5.95-3.7-12.488-9.8-12.681,4.658-4.957,4.035-13.868-1.267-18.13-2.327-1.87-5.3-2.882-7.376-5.03-2.544-2.635-3.558-6.806-6.83-8.452-5.568-2.8-11.169,3.926-17.275,5.179-3.131.641-6.376-.222-9.565-.009-6.669.45-12.121,5.489-16.069,10.882s-7.087,11.5-12.12,15.9c-.109-2.727-3.075-4.619-5.8-4.573s-5.218,1.473-7.567,2.861a8.737,8.737,0,0,0-3.155-10.882A8.734,8.734,0,0,0,68.5,22.732c-6.6-5.89-18.847-2.72-21.762,5.633-2.667-1.808-6.422-1.155-9.061.7s-4.412,4.664-6.114,7.4q-2.326,3.735-4.65,7.472c-1.989,3.2-3.933,7.528-1.519,10.415C17.975,52.145,9.276,57.912,8.421,65.6a23.651,23.651,0,0,0-7.8-2.72V90.37Z" transform="translate(-0.01 -0.01)" fill="#5daf80"/>
            <path id="Path_2157-2" data-name="Path 2157" d="M322.238,90.37a8.972,8.972,0,0,0-4.355-3.775c-2.607-1-5.584-.787-8.127-1.942-2.025-.917-3.582-2.617-5.454-3.819-9.573-6.147-22.238,2.483-33.411.343,3.655-6.137-3.253-15.2-10.139-13.3,6.121-4.8,6.33-15.36.405-20.4-1.5-1.276-3.292-2.222-4.585-3.708-1.421-1.632-2.116-3.773-3.38-5.53-3.469-4.821-11.448-5.417-15.6-1.168-1.643,1.683-3.114,4.138-5.465,4.069-1.323-.039-2.446-.92-3.547-1.656-7.8-5.207-19.359-3.716-25.586,3.3-2.059-4.794-8.288-6.6-13.356-5.35s-9.225,4.755-13.183,8.158c1.354-5.95-3.7-12.488-9.8-12.681,4.658-4.957,4.035-13.868-1.267-18.13-2.327-1.87-5.3-2.882-7.376-5.03-2.544-2.635-3.558-6.806-6.83-8.452-5.568-2.8-11.169,3.926-17.275,5.179-3.131.641-6.376-.222-9.565-.009-6.669.45-12.121,5.489-16.069,10.882s-7.087,11.5-12.12,15.9c-.109-2.727-3.075-4.619-5.8-4.573s-5.218,1.473-7.567,2.861a8.737,8.737,0,0,0-3.155-10.882A8.734,8.734,0,0,0,68.5,22.732c-6.6-5.89-18.847-2.72-21.762,5.633-2.667-1.808-6.422-1.155-9.061.7s-4.412,4.664-6.114,7.4q-2.326,3.735-4.65,7.472c-1.989,3.2-3.933,7.528-1.519,10.415C17.975,52.145,9.276,57.912,8.421,65.6a23.651,23.651,0,0,0-7.8-2.72V90.37Z" transform="translate(-0.01 -0.01)" fill="none" stroke="#fff" stroke-linecap="round" stroke-linejoin="round" stroke-width="1.242"/>
            <path id="Path_2158-2" data-name="Path 2158" d="M116.795,73.887c-1.07-1.4-4.022-1.76-5.608-1.76-1.175,0-3.036.453-1.953,1.865,1.07,1.4,4.022,1.758,5.607,1.758,1.176,0,3.037-.453,1.954-1.863" transform="translate(-1.766 -1.169)" fill="#a2c683"/>
            <path id="Path_2159-2" data-name="Path 2159" d="M133.268,27.54c-1.951,0-5.032,5.526-3.43,5.526,1.95,0,5.032-5.526,3.43-5.526" transform="translate(-2.098 -0.446)" fill="#a2c683"/>
            <path id="Path_2160-2" data-name="Path 2160" d="M156.848,64.547c-.68-1.008-1.991-2.531-3.349-2.531-1.317,0,.088,2.41.339,2.782.68,1.008,1.991,2.531,3.349,2.531,1.316,0-.089-2.41-.339-2.782" transform="translate(-2.48 -1.005)" fill="#a2c683"/>
            <path id="Path_2161-2" data-name="Path 2161" d="M153.3,84.888c-.357-.723-2.235-.811-2.878-.811-.777,0-1.321.255-.965.976s2.235.811,2.878.811c.777,0,1.321-.255.965-.976" transform="translate(-2.422 -1.363)" fill="#a2c683"/>
            <path id="Path_2162-2" data-name="Path 2162" d="M195.573,66.53c-2.237,0-3.471,6.833-2.007,6.833,2.238,0,3.472-6.833,2.007-6.833" transform="translate(-3.129 -1.079)" fill="#a2c683"/>
            <path id="Path_2163-2" data-name="Path 2163" d="M185.858,51.082a4.92,4.92,0,0,0-3.244-1.323c-1.007,0-1.071.554-.5,1.233a4.922,4.922,0,0,0,3.244,1.323c1.008,0,1.072-.556.5-1.233" transform="translate(-2.947 -0.807)" fill="#a2c683"/>
            <path id="Path_2164-2" data-name="Path 2164" d="M223.19,75.235a6.5,6.5,0,0,0-4.271,1.956c-.863.967-.552,1.623.743,1.623a6.509,6.509,0,0,0,4.272-1.956c.862-.968.551-1.623-.744-1.623" transform="translate(-3.542 -1.22)" fill="#a2c683"/>
            <path id="Path_2165-2" data-name="Path 2165" d="M229.42,54.34c-3.339,0,.913,10.88,4.269,10.88,3.339,0-.913-10.88-4.269-10.88" transform="translate(-3.701 -0.881)" fill="#a2c683"/>
            <path id="Path_2166-2" data-name="Path 2166" d="M248.041,74.472c-1.862,0-5.007.6-6.2,2.211-1.231,1.661,1.009,2,2.267,2,1.863,0,5.008-.6,6.2-2.212,1.231-1.66-1.009-2-2.267-2" transform="translate(-3.916 -1.207)" fill="#a2c683"/>
            <path id="Path_2167-2" data-name="Path 2167" d="M250.549,57.329c-.466-1.547-4.283-1.973-5.463-1.973-1.005,0-4,.007-3.484,1.706.467,1.545,4.284,1.974,5.463,1.974,1.005,0,4-.008,3.484-1.707" transform="translate(-3.917 -0.897)" fill="#a2c683"/>
            <path id="Path_2168-2" data-name="Path 2168" d="M122.124,65.465c-3.033,0-2.866,11.53.344,11.53,3.034,0,2.866-11.53-.344-11.53" transform="translate(-1.945 -1.061)" fill="#a2c683"/>
            <path id="Path_2169-2" data-name="Path 2169" d="M130.594,53.023a4.352,4.352,0,0,0-2.95-1.889c-1.1,0,.265,2.045.462,2.293a4.344,4.344,0,0,0,2.949,1.89c1.1,0-.265-2.045-.461-2.294" transform="translate(-2.063 -0.829)" fill="#a2c683"/>
            <path id="Path_2170-2" data-name="Path 2170" d="M109.331,47.484a11.932,11.932,0,0,0-7.453-2.83c-2.133,0-2.621,1.422-1.076,2.832a11.932,11.932,0,0,0,7.454,2.83c2.132,0,2.621-1.422,1.075-2.832" transform="translate(-1.62 -0.724)" fill="#a2c683"/>
            <path id="Path_2171-2" data-name="Path 2171" d="M82.882,71.173c-.914-2.4-6.383-3.216-8.407-3.216-1.358,0-6.444-.069-5.447,2.546.914,2.4,6.383,3.214,8.408,3.214,1.357,0,6.443.069,5.446-2.544" transform="translate(-1.117 -1.102)" fill="#a2c683"/>
            <path id="Path_2172-2" data-name="Path 2172" d="M66.607,79.474A12.683,12.683,0,0,0,58.489,82.9c-1.717,1.689-1.094,3.084,1.3,3.084a12.675,12.675,0,0,0,8.117-3.423c1.718-1.688,1.094-3.085-1.3-3.085" transform="translate(-0.933 -1.289)" fill="#a2c683"/>
            <path id="Path_2173-2" data-name="Path 2173" d="M60.837,32.007c-4,0-5.39,13.207-2.232,13.207,4,0,5.39-13.207,2.232-13.207" transform="translate(-0.922 -0.519)" fill="#a2c683"/>
            <path id="Path_2174-2" data-name="Path 2174" d="M36.439,76.036c-.916-1.492-2.832-4.1-4.856-4.1-1.979,0-.111,3.587.286,4.235.916,1.492,2.833,4.1,4.856,4.1,1.979,0,.112-3.586-.286-4.232" transform="translate(-0.498 -1.166)" fill="#a2c683"/>
            <path id="Path_2175-2" data-name="Path 2175" d="M13.136,82.011c-1.323,0-3.206,4.119-1.957,4.119,1.322,0,3.206-4.119,1.957-4.119" transform="translate(-0.175 -1.33)" fill="#a2c683"/>
          </g>
        </g>
      </g>
      <g id="Group_640" data-name="Group 640" transform="translate(1307.595 -1042.485)">
        <g id="Group_619-2" data-name="Group 619" transform="translate(222.471)">
          <g id="Group_609-3" data-name="Group 609" transform="translate(0 0)" clip-path="url(#clip-path-3)">
            <path id="Path_2156-3" data-name="Path 2156" d="M.62,90.37a8.972,8.972,0,0,1,4.355-3.775c2.607-1,5.584-.787,8.127-1.942,2.025-.917,3.582-2.617,5.454-3.819,9.573-6.147,22.238,2.483,33.411.343-3.655-6.137,3.253-15.2,10.139-13.3-6.121-4.8-6.33-15.36-.405-20.4,1.5-1.276,3.292-2.222,4.585-3.708,1.421-1.632,2.116-3.773,3.38-5.53,3.469-4.821,11.448-5.417,15.6-1.168,1.643,1.683,3.114,4.138,5.465,4.069,1.323-.039,2.446-.92,3.547-1.656,7.8-5.207,19.359-3.716,25.586,3.3,2.059-4.794,8.288-6.6,13.356-5.35s9.225,4.755,13.183,8.158c-1.354-5.95,3.7-12.488,9.8-12.681-4.658-4.957-4.035-13.868,1.267-18.13,2.327-1.87,5.3-2.882,7.376-5.03,2.544-2.635,3.558-6.806,6.83-8.452,5.568-2.8,11.169,3.926,17.275,5.179,3.131.641,6.376-.222,9.565-.009,6.669.45,12.121,5.489,16.069,10.882s7.087,11.5,12.12,15.9c.109-2.727,3.075-4.619,5.8-4.573s5.218,1.473,7.567,2.861a8.737,8.737,0,0,1,3.155-10.882,8.734,8.734,0,0,1,11.136,2.076c6.6-5.89,18.847-2.72,21.762,5.633,2.667-1.808,6.422-1.155,9.061.7s4.412,4.664,6.114,7.4q2.326,3.735,4.65,7.472c1.989,3.2,3.933,7.528,1.519,10.415,7.415-2.2,16.113,3.563,16.968,11.252a23.651,23.651,0,0,1,7.8-2.72V90.37Z" transform="translate(-0.009 -0.01)" fill="#5daf80"/>
            <path id="Path_2157-3" data-name="Path 2157" d="M.62,90.37a8.972,8.972,0,0,1,4.355-3.775c2.607-1,5.584-.787,8.127-1.942,2.025-.917,3.582-2.617,5.454-3.819,9.573-6.147,22.238,2.483,33.411.343-3.655-6.137,3.253-15.2,10.139-13.3-6.121-4.8-6.33-15.36-.405-20.4,1.5-1.276,3.292-2.222,4.585-3.708,1.421-1.632,2.116-3.773,3.38-5.53,3.469-4.821,11.448-5.417,15.6-1.168,1.643,1.683,3.114,4.138,5.465,4.069,1.323-.039,2.446-.92,3.547-1.656,7.8-5.207,19.359-3.716,25.586,3.3,2.059-4.794,8.288-6.6,13.356-5.35s9.225,4.755,13.183,8.158c-1.354-5.95,3.7-12.488,9.8-12.681-4.658-4.957-4.035-13.868,1.267-18.13,2.327-1.87,5.3-2.882,7.376-5.03,2.544-2.635,3.558-6.806,6.83-8.452,5.568-2.8,11.169,3.926,17.275,5.179,3.131.641,6.376-.222,9.565-.009,6.669.45,12.121,5.489,16.069,10.882s7.087,11.5,12.12,15.9c.109-2.727,3.075-4.619,5.8-4.573s5.218,1.473,7.567,2.861a8.737,8.737,0,0,1,3.155-10.882,8.734,8.734,0,0,1,11.136,2.076c6.6-5.89,18.847-2.72,21.762,5.633,2.667-1.808,6.422-1.155,9.061.7s4.412,4.664,6.114,7.4q2.326,3.735,4.65,7.472c1.989,3.2,3.933,7.528,1.519,10.415,7.415-2.2,16.113,3.563,16.968,11.252a23.651,23.651,0,0,1,7.8-2.72V90.37Z" transform="translate(-0.009 -0.01)" fill="none" stroke="#fff" stroke-linecap="round" stroke-linejoin="round" stroke-width="1.242"/>
            <path id="Path_2158-3" data-name="Path 2158" d="M109.235,73.887c1.07-1.4,4.022-1.76,5.608-1.76,1.175,0,3.036.453,1.953,1.865-1.07,1.4-4.022,1.758-5.607,1.758-1.176,0-3.037-.453-1.954-1.863" transform="translate(98.575 -1.169)" fill="#a2c683"/>
            <path id="Path_2159-3" data-name="Path 2159" d="M129.838,27.54c1.951,0,5.032,5.526,3.43,5.526-1.95,0-5.032-5.526-3.43-5.526" transform="translate(61.831 -0.446)" fill="#a2c683"/>
            <path id="Path_2160-3" data-name="Path 2160" d="M153.838,64.547c.68-1.008,1.991-2.531,3.349-2.531,1.317,0-.088,2.41-.339,2.782-.68,1.008-1.991,2.531-3.349,2.531-1.316,0,.089-2.41.339-2.782" transform="translate(14.633 -1.005)" fill="#a2c683"/>
            <path id="Path_2161-3" data-name="Path 2161" d="M149.462,84.888c.357-.723,2.235-.811,2.878-.811.777,0,1.321.255.965.976s-2.235.811-2.878.811c-.777,0-1.321-.255-.965-.976" transform="translate(22.493 -1.363)" fill="#a2c683"/>
            <path id="Path_2162-3" data-name="Path 2162" d="M193.567,66.53c2.237,0,3.471,6.833,2.007,6.833-2.238,0-3.472-6.833-2.007-6.833" transform="translate(-63.173 -1.079)" fill="#a2c683"/>
            <path id="Path_2163-3" data-name="Path 2163" d="M182.113,51.082a4.92,4.92,0,0,1,3.244-1.323c1.007,0,1.071.554.5,1.233a4.922,4.922,0,0,1-3.244,1.323c-1.008,0-1.072-.556-.5-1.233" transform="translate(-42.185 -0.807)" fill="#a2c683"/>
            <path id="Path_2164-3" data-name="Path 2164" d="M219.662,75.235a6.5,6.5,0,0,1,4.271,1.956c.863.967.552,1.623-.743,1.623a6.509,6.509,0,0,1-4.272-1.956c-.862-.968-.551-1.623.744-1.623" transform="translate(-116.471 -1.22)" fill="#a2c683"/>
            <path id="Path_2165-3" data-name="Path 2165" d="M233.689,54.34c3.339,0-.913,10.88-4.269,10.88-3.339,0,.913-10.88,4.269-10.88" transform="translate(-136.569 -0.881)" fill="#a2c683"/>
            <path id="Path_2166-3" data-name="Path 2166" d="M244.108,74.472c1.862,0,5.007.6,6.2,2.211,1.231,1.661-1.009,2-2.267,2-1.863,0-5.008-.6-6.2-2.212-1.231-1.66,1.009-2,2.267-2" transform="translate(-165.394 -1.207)" fill="#a2c683"/>
            <path id="Path_2167-3" data-name="Path 2167" d="M241.6,57.329c.466-1.547,4.283-1.973,5.463-1.973,1.005,0,4,.007,3.484,1.706-.467,1.545-4.284,1.974-5.463,1.974-1.005,0-4-.008-3.484-1.707" transform="translate(-165.395 -0.897)" fill="#a2c683"/>
            <path id="Path_2168-3" data-name="Path 2168" d="M122.469,65.465c3.033,0,2.866,11.53-.344,11.53-3.034,0-2.866-11.53.344-11.53" transform="translate(80.191 -1.061)" fill="#a2c683"/>
            <path id="Path_2169-3" data-name="Path 2169" d="M128.105,53.023a4.352,4.352,0,0,1,2.95-1.889c1.1,0-.265,2.045-.462,2.293a4.344,4.344,0,0,1-2.949,1.89c-1.1,0,.265-2.045.461-2.294" transform="translate(66.202 -0.829)" fill="#a2c683"/>
            <path id="Path_2170-3" data-name="Path 2170" d="M100.8,47.484a11.932,11.932,0,0,1,7.453-2.83c2.133,0,2.621,1.422,1.076,2.832a11.932,11.932,0,0,1-7.454,2.83c-2.132,0-2.621-1.422-1.075-2.832" transform="translate(114.326 -0.724)" fill="#a2c683"/>
            <path id="Path_2171-3" data-name="Path 2171" d="M69.027,71.173c.914-2.4,6.383-3.216,8.407-3.216,1.358,0,6.444-.069,5.447,2.546-.914,2.4-6.383,3.214-8.408,3.214-1.357,0-6.443.069-5.446-2.544" transform="translate(172.047 -1.102)" fill="#a2c683"/>
            <path id="Path_2172-3" data-name="Path 2172" d="M59.79,79.474A12.683,12.683,0,0,1,67.908,82.9c1.717,1.689,1.094,3.084-1.3,3.084a12.675,12.675,0,0,1-8.117-3.423c-1.718-1.688-1.094-3.085,1.3-3.085" transform="translate(197.374 -1.289)" fill="#a2c683"/>
            <path id="Path_2173-3" data-name="Path 2173" d="M58.6,32.007c4,0,5.39,13.207,2.232,13.207-4,0-5.39-13.207-2.232-13.207" transform="translate(204.32 -0.519)" fill="#a2c683"/>
            <path id="Path_2174-3" data-name="Path 2174" d="M31.87,76.036c.916-1.492,2.832-4.1,4.856-4.1,1.979,0,.111,3.587-.286,4.235-.916,1.492-2.833,4.1-4.856,4.1-1.979,0-.112-3.586.286-4.232" transform="translate(255.027 -1.166)" fill="#a2c683"/>
            <path id="Path_2175-3" data-name="Path 2175" d="M11.179,82.011c1.323,0,3.206,4.119,1.957,4.119-1.322,0-3.206-4.119-1.957-4.119" transform="translate(298.698 -1.33)" fill="#a2c683"/>
          </g>
        </g>
        <g id="Group_620-2" data-name="Group 620" transform="translate(0 36)">
          <g id="Group_609-4" data-name="Group 609" transform="translate(0 0)" clip-path="url(#clip-path-3)">
            <path id="Path_2156-4" data-name="Path 2156" d="M.62,90.37a8.972,8.972,0,0,1,4.355-3.775c2.607-1,5.584-.787,8.127-1.942,2.025-.917,3.582-2.617,5.454-3.819,9.573-6.147,22.238,2.483,33.411.343-3.655-6.137,3.253-15.2,10.139-13.3-6.121-4.8-6.33-15.36-.405-20.4,1.5-1.276,3.292-2.222,4.585-3.708,1.421-1.632,2.116-3.773,3.38-5.53,3.469-4.821,11.448-5.417,15.6-1.168,1.643,1.683,3.114,4.138,5.465,4.069,1.323-.039,2.446-.92,3.547-1.656,7.8-5.207,19.359-3.716,25.586,3.3,2.059-4.794,8.288-6.6,13.356-5.35s9.225,4.755,13.183,8.158c-1.354-5.95,3.7-12.488,9.8-12.681-4.658-4.957-4.035-13.868,1.267-18.13,2.327-1.87,5.3-2.882,7.376-5.03,2.544-2.635,3.558-6.806,6.83-8.452,5.568-2.8,11.169,3.926,17.275,5.179,3.131.641,6.376-.222,9.565-.009,6.669.45,12.121,5.489,16.069,10.882s7.087,11.5,12.12,15.9c.109-2.727,3.075-4.619,5.8-4.573s5.218,1.473,7.567,2.861a8.737,8.737,0,0,1,3.155-10.882,8.734,8.734,0,0,1,11.136,2.076c6.6-5.89,18.847-2.72,21.762,5.633,2.667-1.808,6.422-1.155,9.061.7s4.412,4.664,6.114,7.4q2.326,3.735,4.65,7.472c1.989,3.2,3.933,7.528,1.519,10.415,7.415-2.2,16.113,3.563,16.968,11.252a23.651,23.651,0,0,1,7.8-2.72V90.37Z" transform="translate(-0.009 -0.01)" fill="#5daf80"/>
            <path id="Path_2157-4" data-name="Path 2157" d="M.62,90.37a8.972,8.972,0,0,1,4.355-3.775c2.607-1,5.584-.787,8.127-1.942,2.025-.917,3.582-2.617,5.454-3.819,9.573-6.147,22.238,2.483,33.411.343-3.655-6.137,3.253-15.2,10.139-13.3-6.121-4.8-6.33-15.36-.405-20.4,1.5-1.276,3.292-2.222,4.585-3.708,1.421-1.632,2.116-3.773,3.38-5.53,3.469-4.821,11.448-5.417,15.6-1.168,1.643,1.683,3.114,4.138,5.465,4.069,1.323-.039,2.446-.92,3.547-1.656,7.8-5.207,19.359-3.716,25.586,3.3,2.059-4.794,8.288-6.6,13.356-5.35s9.225,4.755,13.183,8.158c-1.354-5.95,3.7-12.488,9.8-12.681-4.658-4.957-4.035-13.868,1.267-18.13,2.327-1.87,5.3-2.882,7.376-5.03,2.544-2.635,3.558-6.806,6.83-8.452,5.568-2.8,11.169,3.926,17.275,5.179,3.131.641,6.376-.222,9.565-.009,6.669.45,12.121,5.489,16.069,10.882s7.087,11.5,12.12,15.9c.109-2.727,3.075-4.619,5.8-4.573s5.218,1.473,7.567,2.861a8.737,8.737,0,0,1,3.155-10.882,8.734,8.734,0,0,1,11.136,2.076c6.6-5.89,18.847-2.72,21.762,5.633,2.667-1.808,6.422-1.155,9.061.7s4.412,4.664,6.114,7.4q2.326,3.735,4.65,7.472c1.989,3.2,3.933,7.528,1.519,10.415,7.415-2.2,16.113,3.563,16.968,11.252a23.651,23.651,0,0,1,7.8-2.72V90.37Z" transform="translate(-0.009 -0.01)" fill="none" stroke="#fff" stroke-linecap="round" stroke-linejoin="round" stroke-width="1.242"/>
            <path id="Path_2158-4" data-name="Path 2158" d="M109.235,73.887c1.07-1.4,4.022-1.76,5.608-1.76,1.175,0,3.036.453,1.953,1.865-1.07,1.4-4.022,1.758-5.607,1.758-1.176,0-3.037-.453-1.954-1.863" transform="translate(98.575 -1.169)" fill="#a2c683"/>
            <path id="Path_2159-4" data-name="Path 2159" d="M129.838,27.54c1.951,0,5.032,5.526,3.43,5.526-1.95,0-5.032-5.526-3.43-5.526" transform="translate(61.831 -0.446)" fill="#a2c683"/>
            <path id="Path_2160-4" data-name="Path 2160" d="M153.838,64.547c.68-1.008,1.991-2.531,3.349-2.531,1.317,0-.088,2.41-.339,2.782-.68,1.008-1.991,2.531-3.349,2.531-1.316,0,.089-2.41.339-2.782" transform="translate(14.633 -1.005)" fill="#a2c683"/>
            <path id="Path_2161-4" data-name="Path 2161" d="M149.462,84.888c.357-.723,2.235-.811,2.878-.811.777,0,1.321.255.965.976s-2.235.811-2.878.811c-.777,0-1.321-.255-.965-.976" transform="translate(22.493 -1.363)" fill="#a2c683"/>
            <path id="Path_2162-4" data-name="Path 2162" d="M193.567,66.53c2.237,0,3.471,6.833,2.007,6.833-2.238,0-3.472-6.833-2.007-6.833" transform="translate(-63.173 -1.079)" fill="#a2c683"/>
            <path id="Path_2163-4" data-name="Path 2163" d="M182.113,51.082a4.92,4.92,0,0,1,3.244-1.323c1.007,0,1.071.554.5,1.233a4.922,4.922,0,0,1-3.244,1.323c-1.008,0-1.072-.556-.5-1.233" transform="translate(-42.185 -0.807)" fill="#a2c683"/>
            <path id="Path_2164-4" data-name="Path 2164" d="M219.662,75.235a6.5,6.5,0,0,1,4.271,1.956c.863.967.552,1.623-.743,1.623a6.509,6.509,0,0,1-4.272-1.956c-.862-.968-.551-1.623.744-1.623" transform="translate(-116.471 -1.22)" fill="#a2c683"/>
            <path id="Path_2165-4" data-name="Path 2165" d="M233.689,54.34c3.339,0-.913,10.88-4.269,10.88-3.339,0,.913-10.88,4.269-10.88" transform="translate(-136.569 -0.881)" fill="#a2c683"/>
            <path id="Path_2166-4" data-name="Path 2166" d="M244.108,74.472c1.862,0,5.007.6,6.2,2.211,1.231,1.661-1.009,2-2.267,2-1.863,0-5.008-.6-6.2-2.212-1.231-1.66,1.009-2,2.267-2" transform="translate(-165.394 -1.207)" fill="#a2c683"/>
            <path id="Path_2167-4" data-name="Path 2167" d="M241.6,57.329c.466-1.547,4.283-1.973,5.463-1.973,1.005,0,4,.007,3.484,1.706-.467,1.545-4.284,1.974-5.463,1.974-1.005,0-4-.008-3.484-1.707" transform="translate(-165.395 -0.897)" fill="#a2c683"/>
            <path id="Path_2168-4" data-name="Path 2168" d="M122.469,65.465c3.033,0,2.866,11.53-.344,11.53-3.034,0-2.866-11.53.344-11.53" transform="translate(80.191 -1.061)" fill="#a2c683"/>
            <path id="Path_2169-4" data-name="Path 2169" d="M128.105,53.023a4.352,4.352,0,0,1,2.95-1.889c1.1,0-.265,2.045-.462,2.293a4.344,4.344,0,0,1-2.949,1.89c-1.1,0,.265-2.045.461-2.294" transform="translate(66.202 -0.829)" fill="#a2c683"/>
            <path id="Path_2170-4" data-name="Path 2170" d="M100.8,47.484a11.932,11.932,0,0,1,7.453-2.83c2.133,0,2.621,1.422,1.076,2.832a11.932,11.932,0,0,1-7.454,2.83c-2.132,0-2.621-1.422-1.075-2.832" transform="translate(114.326 -0.724)" fill="#a2c683"/>
            <path id="Path_2171-4" data-name="Path 2171" d="M69.027,71.173c.914-2.4,6.383-3.216,8.407-3.216,1.358,0,6.444-.069,5.447,2.546-.914,2.4-6.383,3.214-8.408,3.214-1.357,0-6.443.069-5.446-2.544" transform="translate(172.047 -1.102)" fill="#a2c683"/>
            <path id="Path_2172-4" data-name="Path 2172" d="M59.79,79.474A12.683,12.683,0,0,1,67.908,82.9c1.717,1.689,1.094,3.084-1.3,3.084a12.675,12.675,0,0,1-8.117-3.423c-1.718-1.688-1.094-3.085,1.3-3.085" transform="translate(197.374 -1.289)" fill="#a2c683"/>
            <path id="Path_2173-4" data-name="Path 2173" d="M58.6,32.007c4,0,5.39,13.207,2.232,13.207-4,0-5.39-13.207-2.232-13.207" transform="translate(204.32 -0.519)" fill="#a2c683"/>
            <path id="Path_2174-4" data-name="Path 2174" d="M31.87,76.036c.916-1.492,2.832-4.1,4.856-4.1,1.979,0,.111,3.587-.286,4.235-.916,1.492-2.833,4.1-4.856,4.1-1.979,0-.112-3.586.286-4.232" transform="translate(255.027 -1.166)" fill="#a2c683"/>
            <path id="Path_2175-4" data-name="Path 2175" d="M11.179,82.011c1.323,0,3.206,4.119,1.957,4.119-1.322,0-3.206-4.119-1.957-4.119" transform="translate(298.698 -1.33)" fill="#a2c683"/>
          </g>
        </g>
      </g>
      <g id="Group_641" data-name="Group 641" transform="translate(1580.25 -974)">
        <g id="Group_623" data-name="Group 623" clip-path="url(#clip-path-7)">
          <path id="Path_2186" data-name="Path 2186" d="M92.464,50.29a9.571,9.571,0,0,1-.284-1.429c-2.343-1.4-5.445-1.537-9.348.394a11.583,11.583,0,0,0-3.8,2.718,10.3,10.3,0,0,0-1.562,2.675c1.7-.542,1.88-.4,2.592,1.653a10.359,10.359,0,0,1-.386,8.734,10.249,10.249,0,0,0-1.1,3.694c-.161,1.459.636,1.958,1.861,1.434.284.249.569.5.834.727,1.654-1.1,1.648-1.056,3.3-.824,2.583.364,5.178.635,7.76,1a1.3,1.3,0,0,0,1.608-.85,15.85,15.85,0,0,0,.728-3.087c.547-4.759,1.172-9.531-1.126-14.076a18.108,18.108,0,0,1-1.065-2.763" fill="#f9c287"/>
          <path id="Path_2187" data-name="Path 2187" d="M92.464,50.29a9.571,9.571,0,0,1-.284-1.429c-2.343-1.4-5.445-1.537-9.348.394a11.583,11.583,0,0,0-3.8,2.718,10.3,10.3,0,0,0-1.562,2.675c1.7-.542,1.88-.4,2.592,1.653a10.359,10.359,0,0,1-.386,8.734,10.249,10.249,0,0,0-1.1,3.694c-.161,1.459.636,1.958,1.861,1.434.284.249.569.5.834.727,1.654-1.1,1.648-1.056,3.3-.824,2.583.364,5.178.635,7.76,1a1.3,1.3,0,0,0,1.608-.85,15.85,15.85,0,0,0,.728-3.087c.547-4.759,1.172-9.531-1.126-14.076A18.108,18.108,0,0,1,92.464,50.29Z" fill="none" stroke="#fff" stroke-linecap="round" stroke-linejoin="round" stroke-width="3.864"/>
          <path id="Path_2188" data-name="Path 2188" d="M200.2,66.591a30.369,30.369,0,0,0-3.358-2.22,179.466,179.466,0,0,0-40.682-16.082,22.834,22.834,0,0,1-12.719-8.517c-5.257-6.95-10.743-13.691-17.539-19.23-2.748-2.239-5.561-4.4-8.357-6.578a3.625,3.625,0,0,0-2.937-.986,2.059,2.059,0,0,1-1.174-.448c-2.132-1.307-3.992-3.021-6.488-3.779a51.6,51.6,0,0,1-4.967-2.226A55.241,55.241,0,0,0,80.795,1.934,73.236,73.236,0,0,0,70.209,3.082c-2.795.384-5.638.421-8.354,1.418A54.773,54.773,0,0,0,41.828,17.678a6.177,6.177,0,0,1-1.6,1.38c-3.954,1.8-7.855,3.777-11.942,5.217-5.009,1.764-9.571,4.088-13.311,7.913a34.544,34.544,0,0,0-5.513,7.677c-2.029,3.7-4.2,7.318-6.3,10.974A15.085,15.085,0,0,0,2.149,52.71a3.456,3.456,0,0,0-.147.6,3.082,3.082,0,0,0,.815,2.824c.8.837,1.894.587,2.9.248.336-.114.666-.251.991-.4q11.423-5.1,22.847-10.2a6.288,6.288,0,0,1,1.765-.554c.05-.018.1-.041.151-.058,5.2-1.729,12.241.234,16.667,3.059,1.61,1.027,3.221,2.528,3.222,4.438,0-1.91-1.612-3.411-3.222-4.438C43.71,45.4,36.673,43.44,31.469,45.169c-.05.017-.1.04-.151.058a.174.174,0,0,1,.022-.005.969.969,0,0,1,1.194,1.112c-.147,1.45-.344,2.9-.613,4.332a2.372,2.372,0,0,1-2.193,2.03,2.178,2.178,0,0,0-2.063,1.8,15.442,15.442,0,0,0-.46,3.02c0,.033,0,.066,0,.1a7.365,7.365,0,0,0-3,2.413,15.953,15.953,0,0,0-1.8,4.107,1.562,1.562,0,0,0,.324,1.855.17.17,0,0,0,.115.052c.058,0,.1-.061.125-.111a24.428,24.428,0,0,0,1.1-2.557,6.248,6.248,0,0,1,1.5-2.321c.349-.312.432-.02.363.3a5.573,5.573,0,0,1-.485.884,7.535,7.535,0,0,0-.733,2.324,3.419,3.419,0,0,0,.7,2.612c.655-1.7,1.314-3.413,2.115-5.05.075.438.166.872.277,1.3-.129.5-.249,1-.334,1.511a3.506,3.506,0,0,0,.356,2.2c.1.212.279.448.514.419a.426.426,0,0,0,.318-.28,1.639,1.639,0,0,0,.081-.436c.048-.426.136-.863.23-1.3a1.39,1.39,0,0,0,.983.06,9.477,9.477,0,0,0,.33,1.594c.126.41.409.894.833.83a2.4,2.4,0,0,0-.047-.984,4.194,4.194,0,0,1,.008-1.305l.5.378c.437-.76.814-1.442,1.215-2.108a1.9,1.9,0,0,1,2.07-1.042,5.787,5.787,0,0,0,5.293-2.014c2.311-2.38,4.676-4.722,7.174-6.9.941-.822,2.314-1.149,3.786-1.84-.077.748-.132,1.281-.183,1.784a4.079,4.079,0,0,1-1.769.968,12.225,12.225,0,0,0-5.486,4.864c-.447.652-.873,1.324-1.283,2.007-.228.981-.464,1.962-.658,2.947a6.77,6.77,0,0,0-2.243,2.014,15.959,15.959,0,0,0-1.8,4.108,1.563,1.563,0,0,0,.324,1.855.177.177,0,0,0,.116.052c.058,0,.1-.061.124-.112a24.292,24.292,0,0,0,1.1-2.556,6.264,6.264,0,0,1,1.5-2.322c.35-.311.433-.019.363.3a5.61,5.61,0,0,1-.484.884A7.494,7.494,0,0,0,40,71.329a3.417,3.417,0,0,0,.7,2.612c.439-1.14.879-2.283,1.362-3.406.108.266.219.529.331.782a1.938,1.938,0,0,0,.352.532,3.535,3.535,0,0,0,.369,2.053c.1.213.279.448.514.42a.43.43,0,0,0,.319-.28,1.646,1.646,0,0,0,.08-.436c.068-.6.213-1.225.344-1.835.005-.006.01-.009.016-.015l.823.393a9.371,9.371,0,0,0,.361,1.811c.125.41.408.893.832.83a2.36,2.36,0,0,0-.047-.984,6.63,6.63,0,0,1,.269-2.612c.846-2,1.164-2.1,3.672-1.854a10.4,10.4,0,0,0,8.486-3.1,35.279,35.279,0,0,1,5.817-4.676,18.132,18.132,0,0,1,2.954-1.474c.049-.019.062-.129.1-.22l-.838-.947,5.739-.979-.883-1.381,5.282-1.743c.154-.051.28-.091.41-.132l.108-.035a10.25,10.25,0,0,1,1.561-2.674,11.583,11.583,0,0,1,3.8-2.718c3.9-1.932,7-1.794,9.348-.4-.043-.286-.088-.591-.151-.946,1.239.826,2.146,1.436,3.058,2.038.773.511,1.5,1.054,2.21,1.614a21.855,21.855,0,0,1,8.135,12.446,4.165,4.165,0,0,1-.418,3.6,7.024,7.024,0,0,0-1.04,2.259,4.47,4.47,0,0,0-.043,2c.26,1.226.669,1.409,1.779.888l.862.735.036-.382a21.123,21.123,0,0,1,2.626-.164c1.26.071,2.514.273,3.768.442a6.674,6.674,0,0,0,6.1-2.156,7.335,7.335,0,0,0,1.935-4.709,32.692,32.692,0,0,1,.522-4.586,6.482,6.482,0,0,0-1.339-5.878,2.111,2.111,0,0,1-.5-1.465,4.691,4.691,0,0,0-.559-3.19,7.3,7.3,0,0,0-.427-.713c-.495-.714-1.057-1.384-1.521-2.116a1.4,1.4,0,0,1,.447-2.1,9.885,9.885,0,0,1,.688,1.441c.332,1.15.854,1.538,2.128,1.107,1.714-.579,2.076-.295,2.789,1.388.2.46.4.918.626,1.451l1.907-1.013,1.071,2.787c.431-.133.729-.228,1.03-.316.319-.093.641-.18.961-.269.543,1.916.543,1.916,2.737,1.854.145.854.291,1.72.457,2.707l2.768-1.1c.171.908.328,1.738.493,2.613.777-.225,1.6-.746,2.146-.542.529.2.781,1.141,1.217,1.859l2.176-1.04c.259.649.471,1.18.7,1.749a4.294,4.294,0,0,0,.644-.253,1.5,1.5,0,0,1,2.377.486,1.886,1.886,0,0,0,1.191.654c1.09.18,2.2.238,3.3.345,6.131.6,12.3.952,18.387,1.855,8.872,1.316,17.677,3.084,26.533,4.526a26.826,26.826,0,0,0,5.756-.017,1.659,1.659,0,0,0,1.171-.955c.1-.294-.347-.93-.708-1.2M50.853,54.75l1.21-.374-1.21.374" fill="#f9c287"/>
          <path id="Path_2189" data-name="Path 2189" d="M200.2,66.591a30.369,30.369,0,0,0-3.358-2.22,179.466,179.466,0,0,0-40.682-16.082,22.834,22.834,0,0,1-12.719-8.517c-5.257-6.95-10.743-13.691-17.539-19.23-2.748-2.239-5.561-4.4-8.357-6.578a3.625,3.625,0,0,0-2.937-.986,2.059,2.059,0,0,1-1.174-.448c-2.132-1.307-3.992-3.021-6.488-3.779a51.6,51.6,0,0,1-4.967-2.226A55.241,55.241,0,0,0,80.795,1.934,73.236,73.236,0,0,0,70.209,3.082c-2.795.384-5.638.421-8.354,1.418A54.773,54.773,0,0,0,41.828,17.678a6.177,6.177,0,0,1-1.6,1.38c-3.954,1.8-7.855,3.777-11.942,5.217-5.009,1.764-9.571,4.088-13.311,7.913a34.544,34.544,0,0,0-5.513,7.677c-2.029,3.7-4.2,7.318-6.3,10.974A15.085,15.085,0,0,0,2.149,52.71a3.456,3.456,0,0,0-.147.6,3.082,3.082,0,0,0,.815,2.824c.8.837,1.894.587,2.9.248.336-.114.666-.251.991-.4q11.423-5.1,22.847-10.2a6.288,6.288,0,0,1,1.765-.554c.05-.018.1-.041.151-.058,5.2-1.729,12.241.234,16.667,3.059,1.61,1.027,3.221,2.528,3.222,4.438,0-1.91-1.612-3.411-3.222-4.438C43.71,45.4,36.673,43.44,31.469,45.169c-.05.017-.1.04-.151.058a.174.174,0,0,1,.022-.005.969.969,0,0,1,1.194,1.112c-.147,1.45-.344,2.9-.613,4.332a2.372,2.372,0,0,1-2.193,2.03,2.178,2.178,0,0,0-2.063,1.8,15.442,15.442,0,0,0-.46,3.02c0,.033,0,.066,0,.1a7.365,7.365,0,0,0-3,2.413,15.953,15.953,0,0,0-1.8,4.107,1.562,1.562,0,0,0,.324,1.855.17.17,0,0,0,.115.052c.058,0,.1-.061.125-.111a24.428,24.428,0,0,0,1.1-2.557,6.248,6.248,0,0,1,1.5-2.321c.349-.312.432-.02.363.3a5.573,5.573,0,0,1-.485.884,7.535,7.535,0,0,0-.733,2.324,3.419,3.419,0,0,0,.7,2.612c.655-1.7,1.314-3.413,2.115-5.05.075.438.166.872.277,1.3-.129.5-.249,1-.334,1.511a3.506,3.506,0,0,0,.356,2.2c.1.212.279.448.514.419a.426.426,0,0,0,.318-.28,1.639,1.639,0,0,0,.081-.436c.048-.426.136-.863.23-1.3a1.39,1.39,0,0,0,.983.06,9.477,9.477,0,0,0,.33,1.594c.126.41.409.894.833.83a2.4,2.4,0,0,0-.047-.984,4.194,4.194,0,0,1,.008-1.305l.5.378c.437-.76.814-1.442,1.215-2.108a1.9,1.9,0,0,1,2.07-1.042,5.787,5.787,0,0,0,5.293-2.014c2.311-2.38,4.676-4.722,7.174-6.9.941-.822,2.314-1.149,3.786-1.84-.077.748-.132,1.281-.183,1.784a4.079,4.079,0,0,1-1.769.968,12.225,12.225,0,0,0-5.486,4.864c-.447.652-.873,1.324-1.283,2.007-.228.981-.464,1.962-.658,2.947a6.77,6.77,0,0,0-2.243,2.014,15.959,15.959,0,0,0-1.8,4.108,1.563,1.563,0,0,0,.324,1.855.177.177,0,0,0,.116.052c.058,0,.1-.061.124-.112a24.292,24.292,0,0,0,1.1-2.556,6.264,6.264,0,0,1,1.5-2.322c.35-.311.433-.019.363.3a5.61,5.61,0,0,1-.484.884A7.494,7.494,0,0,0,40,71.329a3.417,3.417,0,0,0,.7,2.612c.439-1.14.879-2.283,1.362-3.406.108.266.219.529.331.782a1.938,1.938,0,0,0,.352.532,3.535,3.535,0,0,0,.369,2.053c.1.213.279.448.514.42a.43.43,0,0,0,.319-.28,1.646,1.646,0,0,0,.08-.436c.068-.6.213-1.225.344-1.835.005-.006.01-.009.016-.015l.823.393a9.371,9.371,0,0,0,.361,1.811c.125.41.408.893.832.83a2.36,2.36,0,0,0-.047-.984,6.63,6.63,0,0,1,.269-2.612c.846-2,1.164-2.1,3.672-1.854a10.4,10.4,0,0,0,8.486-3.1,35.279,35.279,0,0,1,5.817-4.676,18.132,18.132,0,0,1,2.954-1.474c.049-.019.062-.129.1-.22l-.838-.947,5.739-.979-.883-1.381,5.282-1.743c.154-.051.28-.091.41-.132l.108-.035a10.25,10.25,0,0,1,1.561-2.674,11.583,11.583,0,0,1,3.8-2.718c3.9-1.932,7-1.794,9.348-.4-.043-.286-.088-.591-.151-.946,1.239.826,2.146,1.436,3.058,2.038.773.511,1.5,1.054,2.21,1.614a21.855,21.855,0,0,1,8.135,12.446,4.165,4.165,0,0,1-.418,3.6,7.024,7.024,0,0,0-1.04,2.259,4.47,4.47,0,0,0-.043,2c.26,1.226.669,1.409,1.779.888l.862.735.036-.382a21.123,21.123,0,0,1,2.626-.164c1.26.071,2.514.273,3.768.442a6.674,6.674,0,0,0,6.1-2.156,7.335,7.335,0,0,0,1.935-4.709,32.692,32.692,0,0,1,.522-4.586,6.482,6.482,0,0,0-1.339-5.878,2.111,2.111,0,0,1-.5-1.465,4.691,4.691,0,0,0-.559-3.19,7.3,7.3,0,0,0-.427-.713c-.495-.714-1.057-1.384-1.521-2.116a1.4,1.4,0,0,1,.447-2.1,9.885,9.885,0,0,1,.688,1.441c.332,1.15.854,1.538,2.128,1.107,1.714-.579,2.076-.295,2.789,1.388.2.46.4.918.626,1.451l1.907-1.013,1.071,2.787c.431-.133.729-.228,1.03-.316.319-.093.641-.18.961-.269.543,1.916.543,1.916,2.737,1.854.145.854.291,1.72.457,2.707l2.768-1.1c.171.908.328,1.738.493,2.613.777-.225,1.6-.746,2.146-.542.529.2.781,1.141,1.217,1.859l2.176-1.04c.259.649.471,1.18.7,1.749a4.294,4.294,0,0,0,.644-.253,1.5,1.5,0,0,1,2.377.486,1.886,1.886,0,0,0,1.191.654c1.09.18,2.2.238,3.3.345,6.131.6,12.3.952,18.387,1.855,8.872,1.316,17.677,3.084,26.533,4.526a26.826,26.826,0,0,0,5.756-.017,1.659,1.659,0,0,0,1.171-.955C201.008,67.5,200.56,66.86,200.2,66.591ZM50.853,54.75l1.21-.374Z" fill="none" stroke="#fff" stroke-linecap="round" stroke-linejoin="round" stroke-width="3.864"/>
          <path id="Path_2190" data-name="Path 2190" d="M82.832,49.255a11.583,11.583,0,0,0-3.8,2.718,10.267,10.267,0,0,0-1.561,2.674c1.7-.541,1.879-.4,2.592,1.653a10.362,10.362,0,0,1-.387,8.734,10.269,10.269,0,0,0-1.1,3.694c-.161,1.46.637,1.959,1.861,1.435l.834.727c1.655-1.1,1.648-1.057,3.3-.825,2.582.364,5.178.635,7.76,1a1.3,1.3,0,0,0,1.608-.851,15.906,15.906,0,0,0,.728-3.087c.547-4.759,1.171-9.531-1.126-14.076a18,18,0,0,1-1.066-2.762,9.733,9.733,0,0,1-.283-1.429c-2.344-1.4-5.446-1.538-9.349.394" fill="#736357"/>
          <path id="Path_2191" data-name="Path 2191" d="M58.325,61.1c-3.27.647-5.894,2.989-8.77,4.673-2.459,1.44-5.645,2.354-8.167,1.318-.008.1-.026.2-.033.3a8.942,8.942,0,0,0,1.03,3.924c.322.723,1.139,1.4,1.993.439l1.608.767c.17-.326.3-.526.384-.741,1.061-2.592,1.177-2.709,3.918-2.442a10.4,10.4,0,0,0,8.486-3.106,35.28,35.28,0,0,1,5.818-4.675,14.024,14.024,0,0,0-6.267-.454" fill="#f9c287"/>
          <path id="Path_2192" data-name="Path 2192" d="M115.413,68.492c-2.562,3.058-7.418.9-11.439,1.377a4.474,4.474,0,0,0-.043,2c.259,1.226.669,1.408,1.779.887l.862.735.036-.382a20.929,20.929,0,0,1,2.626-.163c1.26.07,2.514.273,3.768.441a6.672,6.672,0,0,0,6.1-2.156,7.33,7.33,0,0,0,1.935-4.709,32.692,32.692,0,0,1,.522-4.586,6.482,6.482,0,0,0-1.339-5.878,2.111,2.111,0,0,1-.5-1.465,4.687,4.687,0,0,0-.56-3.19q-1.158,6.585-2.317,13.171a8.129,8.129,0,0,1-1.423,3.92" fill="#f9c287"/>
          <path id="Path_2193" data-name="Path 2193" d="M117.206,48.572a1.4,1.4,0,0,1,.447-2.1,9.845,9.845,0,0,1,.688,1.442c.332,1.149.854,1.537,2.128,1.106,1.715-.579,2.076-.295,2.79,1.388.195.46.4.919.625,1.451l1.907-1.013c.369.96.714,1.859,1.071,2.787.431-.133.729-.228,1.03-.316.319-.093.641-.179.961-.268.543,1.915.543,1.915,2.737,1.853.145.855.291,1.72.457,2.707l2.768-1.1c.171.908.328,1.738.493,2.614.777-.226,1.6-.747,2.146-.543.529.2.781,1.141,1.217,1.859l2.176-1.04c.259.65.471,1.18.7,1.749a4.294,4.294,0,0,0,.644-.253,1.5,1.5,0,0,1,2.377.486,1.886,1.886,0,0,0,1.191.654c1.09.181,2.2.238,3.3.346,6.131.6,12.3.951,18.387,1.854,8.872,1.316,17.677,3.085,26.533,4.526a26.826,26.826,0,0,0,5.756-.017,1.657,1.657,0,0,0,1.171-.955c.1-.294-.347-.93-.708-1.2a30.442,30.442,0,0,0-3.357-2.219,179.5,179.5,0,0,0-40.683-16.083,22.834,22.834,0,0,1-12.719-8.517C138.183,32.821,132.7,26.08,125.9,20.542c-2.748-2.239-5.561-4.4-8.357-6.579a3.624,3.624,0,0,0-2.937-.986,2.05,2.05,0,0,1-1.174-.447c-2.132-1.308-3.992-3.021-6.488-3.779a51.612,51.612,0,0,1-4.967-2.227A55.241,55.241,0,0,0,80.795,1.933,73.392,73.392,0,0,0,70.209,3.081c-2.795.384-5.638.421-8.354,1.419A54.766,54.766,0,0,0,41.829,17.677a6.178,6.178,0,0,1-1.6,1.38c-3.954,1.8-7.855,3.777-11.942,5.217-5.009,1.765-9.571,4.088-13.311,7.913a34.567,34.567,0,0,0-5.513,7.677c-2.029,3.7-4.2,7.318-6.3,10.975a14.865,14.865,0,0,0-1.016,1.87,3.392,3.392,0,0,0-.148.6,3.508,3.508,0,0,0,3.1-.223c9.993-4.882,18.212-13.507,29-16.2a5.258,5.258,0,0,1,2.994-.1c1.347.474,2.125,1.834,2.951,3a16.536,16.536,0,0,0,8.4,6.144c1.714.547,3.722.956,4.618,2.516.917,1.6.142,3.719-1.218,4.958a7.33,7.33,0,0,1-.939.7c-.022.213-.043.424-.066.642l1.21-.374a12.415,12.415,0,0,1-7.9,5.3,3.511,3.511,0,0,0-.483.148c-.447.652-.873,1.323-1.283,2.006A37.442,37.442,0,0,0,41.388,67.1c2.522,1.036,5.708.122,8.167-1.318,2.876-1.685,5.5-4.027,8.769-4.673a14.028,14.028,0,0,1,6.268.454,18.136,18.136,0,0,1,2.954-1.475c.049-.019.062-.129.1-.22l-.838-.947,5.74-.979c-.347-.541-.587-.917-.884-1.381l5.282-1.743.41-.132c.053-.154.121-.3.172-.457.839-2.5,1.5-5.111,2.924-7.336s3.816-4.051,6.454-3.939a8.387,8.387,0,0,1,4.214,1.6A19.179,19.179,0,0,1,97.3,51.567a21.849,21.849,0,0,1,8.135,12.445,4.166,4.166,0,0,1-.418,3.6,7.019,7.019,0,0,0-1.04,2.258c4.021-.481,8.877,1.681,11.439-1.377a8.129,8.129,0,0,0,1.423-3.92Q118,57.987,119.154,51.4a7.543,7.543,0,0,0-.427-.713c-.495-.713-1.057-1.383-1.521-2.116" fill="#a67c52"/>
          <path id="Path_2194" data-name="Path 2194" d="M62.745,9.684a1.219,1.219,0,0,0-.524-.153,1.257,1.257,0,0,0-.691.314l-6.94,5.09A22.052,22.052,0,0,0,66.6,19.33a.914.914,0,0,0,.527-.08.966.966,0,0,0,.336-.528c.794-2.126,2.965-3.108,1.461-5.029-1.367-1.747-4.214-3.089-6.177-4.009" fill="#9b6842"/>
          <path id="Path_2195" data-name="Path 2195" d="M93.75,7.6a1.243,1.243,0,0,0-.53-.155,1.276,1.276,0,0,0-.7.318L85.509,12.9a22.275,22.275,0,0,0,12.135,4.441.915.915,0,0,0,.532-.08.979.979,0,0,0,.34-.533c.8-2.149,3-3.141,1.476-5.083C98.61,9.884,95.734,8.528,93.75,7.6" fill="#8c6239"/>
          <path id="Path_2196" data-name="Path 2196" d="M77.373,4.662a1.538,1.538,0,0,0-.654-.191,1.569,1.569,0,0,0-.862.392L67.2,11.212a27.5,27.5,0,0,0,14.98,5.483,1.128,1.128,0,0,0,.657-.1,1.207,1.207,0,0,0,.419-.658c.991-2.652,3.7-3.877,1.823-6.274-1.706-2.179-5.257-3.853-7.706-5" fill="#9b6842"/>
          <path id="Path_2197" data-name="Path 2197" d="M60.026,22.854A1.219,1.219,0,0,0,59.5,22.7a1.257,1.257,0,0,0-.691.314l-6.94,5.09a22.052,22.052,0,0,0,12.008,4.4.914.914,0,0,0,.527-.08.966.966,0,0,0,.336-.528c.794-2.126,2.965-3.108,1.461-5.029-1.367-1.747-4.214-3.089-6.177-4.009" fill="#8c6239"/>
          <path id="Path_2198" data-name="Path 2198" d="M49.762,15.631a1.012,1.012,0,0,0-.454-.015,1.043,1.043,0,0,0-.492.395l-4.545,5.531a18.331,18.331,0,0,0,10.583,1.069.751.751,0,0,0,.409-.173.809.809,0,0,0,.162-.494c.2-1.877,1.749-3.115.141-4.354-1.462-1.127-4.032-1.622-5.8-1.959" fill="#9b6842"/>
          <path id="Path_2199" data-name="Path 2199" d="M42.994,24.326a1.012,1.012,0,0,0-.454-.015,1.043,1.043,0,0,0-.492.395L37.5,30.237a18.331,18.331,0,0,0,10.583,1.069.751.751,0,0,0,.409-.173.809.809,0,0,0,.162-.494c.2-1.877,1.749-3.115.141-4.354-1.462-1.127-4.032-1.622-5.8-1.959" fill="#9b6842"/>
          <path id="Path_2200" data-name="Path 2200" d="M57.752,33.546a1.012,1.012,0,0,0-.454-.015,1.043,1.043,0,0,0-.492.4l-4.545,5.531a18.331,18.331,0,0,0,10.583,1.069.751.751,0,0,0,.409-.173.809.809,0,0,0,.162-.494c.2-1.877,1.749-3.115.141-4.354-1.462-1.127-4.032-1.622-5.8-1.959" fill="#9b6842"/>
          <path id="Path_2201" data-name="Path 2201" d="M105.4,12.568a1.012,1.012,0,0,0-.454-.015,1.043,1.043,0,0,0-.492.395L99.9,18.479a18.331,18.331,0,0,0,10.583,1.069.751.751,0,0,0,.409-.173.809.809,0,0,0,.162-.494c.2-1.877,1.749-3.115.141-4.354-1.462-1.127-4.032-1.622-5.8-1.959" fill="#9b6842"/>
          <path id="Path_2202" data-name="Path 2202" d="M130.214,41.4a1.012,1.012,0,0,0-.334-.308,1.05,1.05,0,0,0-.631-.022l-7.054,1.221a18.341,18.341,0,0,0,7.317,7.721.753.753,0,0,0,.422.136.81.81,0,0,0,.445-.269c1.38-1.29,3.36-1.217,2.951-3.205-.371-1.808-1.994-3.862-3.116-5.274" fill="#9b6842"/>
          <path id="Path_2203" data-name="Path 2203" d="M143.1,42.723a1.012,1.012,0,0,0-.334-.308,1.05,1.05,0,0,0-.631-.022l-7.054,1.221a18.341,18.341,0,0,0,7.317,7.721.753.753,0,0,0,.422.136.811.811,0,0,0,.445-.269c1.38-1.29,3.36-1.217,2.951-3.2-.371-1.808-1.994-3.862-3.116-5.274" fill="#9b6842"/>
          <path id="Path_2204" data-name="Path 2204" d="M91.031,20.768a1.243,1.243,0,0,0-.53-.155,1.276,1.276,0,0,0-.7.318L82.79,26.074a22.275,22.275,0,0,0,12.135,4.441.915.915,0,0,0,.532-.08.979.979,0,0,0,.34-.533c.8-2.149,3-3.141,1.476-5.083-1.382-1.765-4.258-3.121-6.242-4.051" fill="#8c6239"/>
          <path id="Path_2205" data-name="Path 2205" d="M74.654,17.832A1.538,1.538,0,0,0,74,17.641a1.569,1.569,0,0,0-.862.392l-8.657,6.349a27.5,27.5,0,0,0,14.98,5.483,1.128,1.128,0,0,0,.657-.1,1.207,1.207,0,0,0,.419-.658c.991-2.652,3.7-3.877,1.823-6.274-1.706-2.179-5.257-3.853-7.706-5" fill="#9b6842"/>
          <path id="Path_2206" data-name="Path 2206" d="M73.333,36.437a1.219,1.219,0,0,0-.524-.153,1.257,1.257,0,0,0-.691.314l-6.94,5.09a22.052,22.052,0,0,0,12.008,4.4.914.914,0,0,0,.527-.08.966.966,0,0,0,.336-.528c.794-2.126,2.965-3.108,1.461-5.029-1.367-1.747-4.214-3.089-6.177-4.009" fill="#8c6239"/>
          <path id="Path_2207" data-name="Path 2207" d="M104.338,34.351a1.243,1.243,0,0,0-.53-.155,1.276,1.276,0,0,0-.7.318L96.1,39.657A22.275,22.275,0,0,0,108.232,44.1a.915.915,0,0,0,.532-.08.983.983,0,0,0,.34-.533c.8-2.149,3-3.141,1.476-5.083-1.382-1.765-4.258-3.121-6.242-4.051" fill="#8c6239"/>
          <path id="Path_2208" data-name="Path 2208" d="M125.277,28.127a1.243,1.243,0,0,0-.53-.155,1.276,1.276,0,0,0-.7.318l-7.013,5.143a22.275,22.275,0,0,0,12.135,4.441.915.915,0,0,0,.532-.08.983.983,0,0,0,.34-.533c.8-2.149,3-3.141,1.476-5.083-1.382-1.765-4.258-3.121-6.242-4.051" fill="#8c6239"/>
          <path id="Path_2209" data-name="Path 2209" d="M119.244,18.908a.717.717,0,0,0-.307-.09.737.737,0,0,0-.4.184l-4.062,2.979a12.908,12.908,0,0,0,7.028,2.572.524.524,0,0,0,.309-.047.567.567,0,0,0,.2-.308c.465-1.245,1.736-1.819.855-2.944a10.5,10.5,0,0,0-3.615-2.346" fill="#8c6239"/>
          <path id="Path_2210" data-name="Path 2210" d="M150.389,51.924a.721.721,0,0,0-.308-.09.74.74,0,0,0-.4.184L145.615,55a12.908,12.908,0,0,0,7.028,2.572.524.524,0,0,0,.309-.047.561.561,0,0,0,.2-.308c.465-1.245,1.736-1.819.855-2.944a10.5,10.5,0,0,0-3.614-2.346" fill="#9b6842"/>
          <path id="Path_2211" data-name="Path 2211" d="M159.275,50.091a.717.717,0,0,0-.307-.09.737.737,0,0,0-.4.184L154.5,53.164a12.908,12.908,0,0,0,7.028,2.572.524.524,0,0,0,.309-.047.567.567,0,0,0,.2-.308c.465-1.245,1.736-1.819.855-2.944a10.5,10.5,0,0,0-3.615-2.346" fill="#8c6239"/>
          <path id="Path_2212" data-name="Path 2212" d="M163.069,55.5a.717.717,0,0,0-.307-.09.737.737,0,0,0-.4.184L158.3,58.574a12.908,12.908,0,0,0,7.028,2.572.524.524,0,0,0,.309-.047.567.567,0,0,0,.2-.308c.465-1.245,1.736-1.819.855-2.944a10.5,10.5,0,0,0-3.615-2.346" fill="#9b6842"/>
          <path id="Path_2213" data-name="Path 2213" d="M136.183,49.479a.717.717,0,0,0-.307-.09.737.737,0,0,0-.4.184l-4.062,2.979a12.908,12.908,0,0,0,7.028,2.572.524.524,0,0,0,.309-.047.567.567,0,0,0,.2-.308c.465-1.245,1.736-1.819.855-2.944a10.5,10.5,0,0,0-3.615-2.346" fill="#8c6239"/>
          <path id="Path_2214" data-name="Path 2214" d="M170.81,53.551a.717.717,0,0,0-.307-.09.737.737,0,0,0-.4.184l-4.062,2.979a12.908,12.908,0,0,0,7.028,2.572.524.524,0,0,0,.309-.047.567.567,0,0,0,.2-.308c.465-1.245,1.736-1.819.855-2.944a10.5,10.5,0,0,0-3.615-2.346" fill="#9b6842"/>
          <path id="Path_2215" data-name="Path 2215" d="M178.954,58.957a.717.717,0,0,0-.308-.09.74.74,0,0,0-.4.184L174.18,62.03a12.911,12.911,0,0,0,7.028,2.572.529.529,0,0,0,.31-.047.567.567,0,0,0,.2-.308c.464-1.245,1.735-1.819.854-2.944a10.5,10.5,0,0,0-3.614-2.346" fill="#8c6239"/>
          <path id="Path_2216" data-name="Path 2216" d="M87.961,31.415a1.542,1.542,0,0,0-.655-.191,1.569,1.569,0,0,0-.862.392q-4.328,3.174-8.657,6.349a27.5,27.5,0,0,0,14.981,5.483,1.124,1.124,0,0,0,.656-.1,1.207,1.207,0,0,0,.419-.658c.991-2.652,3.7-3.877,1.823-6.274-1.705-2.179-5.256-3.853-7.705-5" fill="#9b6842"/>
          <path id="Path_2217" data-name="Path 2217" d="M109.057,22.156a1.538,1.538,0,0,0-.654-.191,1.569,1.569,0,0,0-.862.392l-8.657,6.349a27.5,27.5,0,0,0,14.98,5.483,1.128,1.128,0,0,0,.657-.1,1.207,1.207,0,0,0,.419-.658c.991-2.652,3.7-3.877,1.823-6.274-1.706-2.179-5.257-3.853-7.706-5" fill="#9b6842"/>
          <path id="Path_2218" data-name="Path 2218" d="M91.123,44.553a8.4,8.4,0,0,0-4.213-1.6c-2.638-.111-5.034,1.715-6.455,3.94s-2.085,4.832-2.923,7.336c-.052.154-.119.3-.173.457l.108-.035a10.273,10.273,0,0,1,1.561-2.675,11.581,11.581,0,0,1,3.8-2.717c3.9-1.932,7.006-1.794,9.349-.4-.043-.287-.089-.591-.151-.946,1.239.826,2.145,1.436,3.057,2.038.774.511,1.5,1.054,2.21,1.614a19.166,19.166,0,0,0-6.174-7.014" fill="#f9c287"/>
          <path id="Path_2219" data-name="Path 2219" d="M53.076,48.448c-.9-1.56-2.9-1.97-4.618-2.516a16.542,16.542,0,0,1-8.4-6.144c-.826-1.165-1.6-2.524-2.951-3a5.258,5.258,0,0,0-2.994.1C23.316,39.576,15.1,48.2,5.1,53.083a3.517,3.517,0,0,1-3.1.223,3.083,3.083,0,0,0,.816,2.824c.8.837,1.894.587,2.9.248.337-.114.667-.251.992-.4q11.423-5.1,22.846-10.2a6.3,6.3,0,0,1,1.766-.554c.05-.018.1-.041.151-.058,5.2-1.729,12.241.234,16.667,3.059,1.61,1.027,3.221,2.528,3.222,4.437a2.115,2.115,0,0,1-.367,1.27c-.018.023-.042.037-.06.059l-.012.114a7.168,7.168,0,0,0,.938-.7c1.36-1.239,2.135-3.361,1.219-4.957" fill="#f9c287"/>
          <path id="Path_2220" data-name="Path 2220" d="M19.214,45.246c1.637.175,2.658-.384,2.7-1.273a1.375,1.375,0,0,0-1.326-1.511,1.918,1.918,0,0,0-1.9,1.839c.006.389.425.772.529.945" fill="#4d4d4d"/>
          <path id="Path_2221" data-name="Path 2221" d="M37.689,70.9a1.563,1.563,0,0,0,.324,1.855.172.172,0,0,0,.115.052c.059,0,.1-.061.125-.112a24.2,24.2,0,0,0,1.1-2.556,6.24,6.24,0,0,1,1.5-2.321c.35-.312.432-.02.363.3a5.647,5.647,0,0,1-.484.884,7.512,7.512,0,0,0-.734,2.323,3.42,3.42,0,0,0,.7,2.613,47.143,47.143,0,0,1,2.919-6.577c.285.1.225.516.115.8A17.869,17.869,0,0,0,42.75,71.7a3.5,3.5,0,0,0,.356,2.2c.1.213.279.448.514.42a.425.425,0,0,0,.318-.28,1.6,1.6,0,0,0,.081-.436c.085-.754.3-1.552.443-2.3a13.727,13.727,0,0,1,.864-2.816,6.987,6.987,0,0,1-.113,1.584,9.479,9.479,0,0,0,.349,3.89c.126.41.409.894.833.83a2.378,2.378,0,0,0-.047-.984,7.254,7.254,0,0,1,.31-2.795q.332-1.557.664-3.113a1.955,1.955,0,0,0,.064-.653c-.06-.48-.644-1.419-1.139-1.494-.275-.042-.6-.041-.774-.256-.1-.122-.131-.29-.236-.407-.253-.28-.7-.1-1.077-.044a.237.237,0,0,1-.2-.038.247.247,0,0,1-.059-.136c-.066-.3-.179-.643-.469-.743a.873.873,0,0,0-.622.1,7.638,7.638,0,0,0-3.316,2.573,15.938,15.938,0,0,0-1.8,4.107" fill="#f9c287"/>
          <path id="Path_2222" data-name="Path 2222" d="M32.535,46.334c-.148,1.45-.345,2.9-.614,4.331A2.373,2.373,0,0,1,29.727,52.7a2.18,2.18,0,0,0-2.063,1.8,15.441,15.441,0,0,0-.459,3.02,18.762,18.762,0,0,0,.134,3.417,15.37,15.37,0,0,0,.831,3.654c.469,1.167,1.352,1.334,2.393.767.306.229.611.456,1.013.758.436-.76.813-1.442,1.216-2.108a1.9,1.9,0,0,1,2.069-1.042,5.784,5.784,0,0,0,5.292-2.014c2.312-2.381,4.677-4.722,7.174-6.9.942-.822,2.315-1.149,3.786-1.84-.076.747-.131,1.281-.182,1.784.019-.022.042-.036.059-.059a2.109,2.109,0,0,0,.368-1.27c0-1.909-1.612-3.41-3.222-4.438C43.709,45.4,36.672,43.44,31.469,45.169c-.05.017-.1.04-.151.058l.022-.006a.971.971,0,0,1,1.195,1.113" fill="#736357"/>
          <path id="Path_2223" data-name="Path 2223" d="M22.405,64.139a1.563,1.563,0,0,0,.324,1.855.172.172,0,0,0,.115.052c.059,0,.1-.061.125-.112a24.2,24.2,0,0,0,1.1-2.556,6.24,6.24,0,0,1,1.5-2.321c.35-.312.432-.02.363.3a5.647,5.647,0,0,1-.484.884,7.513,7.513,0,0,0-.734,2.323,3.42,3.42,0,0,0,.7,2.613A47.143,47.143,0,0,1,28.327,60.6c.285.1.225.516.115.8a17.869,17.869,0,0,0-.976,3.539,3.5,3.5,0,0,0,.356,2.2c.1.213.279.448.514.42a.425.425,0,0,0,.318-.28,1.6,1.6,0,0,0,.081-.436c.085-.754.3-1.552.443-2.3a13.727,13.727,0,0,1,.864-2.816,6.987,6.987,0,0,1-.113,1.584,9.479,9.479,0,0,0,.349,3.89c.126.41.409.894.833.83a2.378,2.378,0,0,0-.047-.984,7.254,7.254,0,0,1,.31-2.795q.331-1.557.664-3.113a1.955,1.955,0,0,0,.064-.653c-.06-.48-.644-1.419-1.139-1.494-.276-.042-.6-.041-.774-.256-.1-.122-.131-.29-.236-.407-.253-.28-.7-.1-1.077-.044a.237.237,0,0,1-.2-.038.247.247,0,0,1-.059-.136c-.066-.3-.179-.643-.469-.743a.873.873,0,0,0-.622.1,7.638,7.638,0,0,0-3.316,2.573,15.938,15.938,0,0,0-1.8,4.107" fill="#736357"/>
          <path id="Path_2224" data-name="Path 2224" d="M23.817,37.787a5.923,5.923,0,0,1,5.164-1.252.9.9,0,0,1,.515.262.979.979,0,0,1,.16.541,5.7,5.7,0,0,1-.271,3.026,1.965,1.965,0,0,1-2.533,1.061" fill="#f9c287"/>
        </g>
      </g>
      <g id="Group_643" data-name="Group 643" transform="translate(8 -1081.905)">
        <g id="Group_625" data-name="Group 625" clip-path="url(#clip-path-8)">
          <path id="Path_2225" data-name="Path 2225" d="M171.493,151.1c-.783-6.155-4.173-11.625-7.481-16.875-2.467-3.914-4.857-7.662-7.3-11.514A11.4,11.4,0,0,1,154.955,117l-.368-10.923a8.021,8.021,0,0,1,.169-2.442c.367-1.308,1.372-2.347,1.857-3.615a4.159,4.159,0,0,0-2.025-5.261c-1.595-.624-3.881,0-4.443,1.387a1.03,1.03,0,0,1-1.315.535,29.471,29.471,0,0,0-13.639-1.719,16.153,16.153,0,0,0-7.122,2.673,1.691,1.691,0,0,1-1.612.21,6.612,6.612,0,0,0-3.361-.556,3.414,3.414,0,0,0-1.947.938c-1.732,1.734.979,5.367,1.268,7.448.7,5.009.027,7.831.356,12.746a.478.478,0,0,1-.8.377c-2.254-2.131-4.649-5.3-6.86-7.107-1.332-1.09-4.109-2-4.888-3.531-.929-1.829-.459-2.872-.5-4.922A68.552,68.552,0,0,0,97.243,65.352a16.508,16.508,0,0,1-2.361-5.917,26.936,26.936,0,0,1-.95-6.751c-.092-8.52.624-16.4-.266-25.376a17.1,17.1,0,0,1,2.817-10.254,7.431,7.431,0,0,0,.558-6.77c-.786-1.882-1.174-2.792-3.119-3.8a6.079,6.079,0,0,0-3.839-.565,11.828,11.828,0,0,0-3.351,1,2.408,2.408,0,0,1-2.705-.481C80.571,3.12,73.58,1.678,68.8,1.508a40.739,40.739,0,0,0-7.972,1.034,41.673,41.673,0,0,0-9.407,3.439c-2.926,1.4-4.805,3.338-6.968,5.519a3.15,3.15,0,0,1-2.776.862c-3.761-.637-8.341,1.7-8.831,5.417-.671,5.078,1.661,6.912,4.211,8.966A3.136,3.136,0,0,1,38.2,28.8c1,8.067-.91,15.378-3.736,23.01-2.061,5.566-5.3,9.411-8.087,14.651C17.569,83.021,14.2,104.133,14.239,123.122a3.937,3.937,0,0,1-2.269,3.567,13.952,13.952,0,0,0-5.263,4.119c-1.97,2.34-3.557,6.948-4.305,9.913-1.449,5.743-1.006,13.747.3,19.523s2.438,8.419,7.848,10.83a26.24,26.24,0,0,0,16.373,1.15A3.492,3.492,0,0,1,30.3,173.29a12.973,12.973,0,0,0,3.728,2.842,44.284,44.284,0,0,0,7.1,2.675c-.007.141-.017.28-.023.421a2.554,2.554,0,0,0,.345,1.9.576.576,0,0,0,.816,0,2.56,2.56,0,0,0,.35-1.9c0-.009,0-.018,0-.027a44.929,44.929,0,0,0,4.641.892,4.981,4.981,0,0,0,.619,2.274.53.53,0,0,0,.957-.125,4.463,4.463,0,0,0-.157-1.977q2,.209,4.007.237a6.2,6.2,0,0,0,.55,2.45c.352.661,1.2.269,1.277-.345a5.405,5.405,0,0,0-.287-2.11c.438-.01.876-.024,1.314-.047A17.313,17.313,0,0,0,58.9,180a4.7,4.7,0,0,0,.629,1.215.717.717,0,0,0,1.238-.724,9.936,9.936,0,0,0-.523-.947,6.8,6.8,0,0,0,1.939-1.222,4.764,4.764,0,0,0,1.3-4.821,10.871,10.871,0,0,1-.289-3.267.959.959,0,0,1,1.331-.882,10.705,10.705,0,0,0,3.763.749c2.617.155,5.927-.7,8.747-1.034a.565.565,0,0,1,.5.926c-.861,1.03-1.657,2.212-1.138,3.242a7.088,7.088,0,0,0,2.948,2.337c-.119.219-.24.437-.356.657a4.021,4.021,0,0,0-.662,1.889.635.635,0,0,0,1.07.443,4.039,4.039,0,0,0,.931-1.768c.107-.3.208-.6.311-.9q2.027.358,3.943.557a3.636,3.636,0,0,0,.024,1.941c.152.441.893.672,1.121.146a5.468,5.468,0,0,0,.369-1.778c0-.059.015-.118.022-.178,1.372.1,2.712.121,4.031.084-.007.055-.018.11-.024.166a1.436,1.436,0,0,0,.741,1.615c.412.175.983-.117.822-.631a3.1,3.1,0,0,1-.006-1.224c1.184-.081,2.357-.213,3.527-.406a6.315,6.315,0,0,0,.067,1.473.8.8,0,0,0,.885.578.817.817,0,0,0,.7-.792,6.033,6.033,0,0,0-.131-1.293c-.011-.08-.024-.16-.034-.241a44.507,44.507,0,0,0,7.446-2.269,12.606,12.606,0,0,0,6.33-5.494,15.019,15.019,0,0,0,1.726-3.847,1.361,1.361,0,0,1,1.185-1.045c1.589-.172,3.068-.186,4.194-1.061a.8.8,0,0,1,1.243.435c.822,2.786.224,5.8,1.769,7.943-.054.112-.1.226-.159.338a5.311,5.311,0,0,0-.571,1.333.63.63,0,0,0,1.145.483,4.472,4.472,0,0,0,.529-1.178c.024.02.045.041.07.06a5.508,5.508,0,0,0,.823.506,3.38,3.38,0,0,0,.006,1.333.648.648,0,0,0,1.171.153,2.545,2.545,0,0,0,.307-.987,6.517,6.517,0,0,0,.73.1,2.467,2.467,0,0,0,.131.79.64.64,0,0,0,.694.453.625.625,0,0,0,.548-.621,3.338,3.338,0,0,0-.131-.627,13.743,13.743,0,0,0,2.5-.45,1.5,1.5,0,0,0,.35,1.031.561.561,0,0,0,.927-.245,1.849,1.849,0,0,0-.15-1.117q.246-.078.491-.158a1.255,1.255,0,0,1,1.384.385,4.711,4.711,0,0,0,1.462,1.183,1.891,1.891,0,0,0-.33,1.175.476.476,0,0,0,.7.283,1.869,1.869,0,0,0,.632-1.015,8.833,8.833,0,0,0,1.02.3,2.427,2.427,0,0,0-.094.943c.062.437.734.479.924.121a2.313,2.313,0,0,0,.211-.88,9.873,9.873,0,0,0,1.6.068,2.972,2.972,0,0,0-.047,1.716.458.458,0,0,0,.9-.121,11.98,11.98,0,0,0,.087-1.552.483.483,0,0,0-.023-.133l.077-.011c.482-.083.973-.191,1.464-.312.008.05.016.1.025.151a1.233,1.233,0,0,0,.114.382,2.016,2.016,0,0,0,.274.325.552.552,0,0,0,.729.044.567.567,0,0,0,.143-.716l-.01-.023a1.928,1.928,0,0,0-.2-.419.291.291,0,0,1-.015-.034,13.556,13.556,0,0,0,6.131-3.579,1.874,1.874,0,0,1,1-.568q4.617-.99,9.315-1.531a24.034,24.034,0,0,0,6.463-1.277c5.739-2.361,8.347-9.414,7.564-15.569" transform="translate(-0.451 -0.451)" fill="#fff"/>
          <path id="Path_2226" data-name="Path 2226" d="M171.493,151.1c-.783-6.155-4.173-11.625-7.481-16.875-2.467-3.914-4.857-7.662-7.3-11.514A11.4,11.4,0,0,1,154.955,117l-.368-10.923a8.021,8.021,0,0,1,.169-2.442c.367-1.308,1.372-2.347,1.857-3.615a4.159,4.159,0,0,0-2.025-5.261c-1.595-.624-3.881,0-4.443,1.387a1.03,1.03,0,0,1-1.315.535,29.471,29.471,0,0,0-13.639-1.719,16.153,16.153,0,0,0-7.122,2.673,1.691,1.691,0,0,1-1.612.21,6.612,6.612,0,0,0-3.361-.556,3.414,3.414,0,0,0-1.947.938c-1.732,1.734.979,5.367,1.268,7.448.7,5.009.027,7.831.356,12.746a.478.478,0,0,1-.8.377c-2.254-2.131-4.649-5.3-6.86-7.107-1.332-1.09-4.109-2-4.888-3.531-.929-1.829-.459-2.872-.5-4.922A68.552,68.552,0,0,0,97.243,65.352a16.508,16.508,0,0,1-2.361-5.917,26.936,26.936,0,0,1-.95-6.751c-.092-8.52.624-16.4-.266-25.376a17.1,17.1,0,0,1,2.817-10.254,7.431,7.431,0,0,0,.558-6.77c-.786-1.882-1.174-2.792-3.119-3.8a6.079,6.079,0,0,0-3.839-.565,11.828,11.828,0,0,0-3.351,1,2.408,2.408,0,0,1-2.705-.481C80.571,3.12,73.58,1.678,68.8,1.508a40.739,40.739,0,0,0-7.972,1.034,41.673,41.673,0,0,0-9.407,3.439c-2.926,1.4-4.805,3.338-6.968,5.519a3.15,3.15,0,0,1-2.776.862c-3.761-.637-8.341,1.7-8.831,5.417-.671,5.078,1.661,6.912,4.211,8.966A3.136,3.136,0,0,1,38.2,28.8c1,8.067-.91,15.378-3.736,23.01-2.061,5.566-5.3,9.411-8.087,14.651C17.569,83.021,14.2,104.133,14.239,123.122a3.937,3.937,0,0,1-2.269,3.567,13.952,13.952,0,0,0-5.263,4.119c-1.97,2.34-3.557,6.948-4.305,9.913-1.449,5.743-1.006,13.747.3,19.523s2.438,8.419,7.848,10.83a26.24,26.24,0,0,0,16.373,1.15A3.492,3.492,0,0,1,30.3,173.29a12.973,12.973,0,0,0,3.728,2.842,44.284,44.284,0,0,0,7.1,2.675c-.007.141-.017.28-.023.421a2.554,2.554,0,0,0,.345,1.9.576.576,0,0,0,.816,0,2.56,2.56,0,0,0,.35-1.9c0-.009,0-.018,0-.027a44.929,44.929,0,0,0,4.641.892,4.981,4.981,0,0,0,.619,2.274.53.53,0,0,0,.957-.125,4.463,4.463,0,0,0-.157-1.977q2,.209,4.007.237a6.2,6.2,0,0,0,.55,2.45c.352.661,1.2.269,1.277-.345a5.405,5.405,0,0,0-.287-2.11c.438-.01.876-.024,1.314-.047A17.313,17.313,0,0,0,58.9,180a4.7,4.7,0,0,0,.629,1.215.717.717,0,0,0,1.238-.724,9.936,9.936,0,0,0-.523-.947,6.8,6.8,0,0,0,1.939-1.222,4.764,4.764,0,0,0,1.3-4.821,10.871,10.871,0,0,1-.289-3.267.959.959,0,0,1,1.331-.882,10.705,10.705,0,0,0,3.763.749c2.617.155,5.927-.7,8.747-1.034a.565.565,0,0,1,.5.926c-.861,1.03-1.657,2.212-1.138,3.242a7.088,7.088,0,0,0,2.948,2.337c-.119.219-.24.437-.356.657a4.021,4.021,0,0,0-.662,1.889.635.635,0,0,0,1.07.443,4.039,4.039,0,0,0,.931-1.768c.107-.3.208-.6.311-.9q2.027.358,3.943.557a3.636,3.636,0,0,0,.024,1.941c.152.441.893.672,1.121.146a5.468,5.468,0,0,0,.369-1.778c0-.059.015-.118.022-.178,1.372.1,2.712.121,4.031.084-.007.055-.018.11-.024.166a1.436,1.436,0,0,0,.741,1.615c.412.175.983-.117.822-.631a3.1,3.1,0,0,1-.006-1.224c1.184-.081,2.357-.213,3.527-.406a6.315,6.315,0,0,0,.067,1.473.8.8,0,0,0,.885.578.817.817,0,0,0,.7-.792,6.033,6.033,0,0,0-.131-1.293c-.011-.08-.024-.16-.034-.241a44.507,44.507,0,0,0,7.446-2.269,12.606,12.606,0,0,0,6.33-5.494,15.019,15.019,0,0,0,1.726-3.847,1.361,1.361,0,0,1,1.185-1.045c1.589-.172,3.068-.186,4.194-1.061a.8.8,0,0,1,1.243.435c.822,2.786.224,5.8,1.769,7.943-.054.112-.1.226-.159.338a5.311,5.311,0,0,0-.571,1.333.63.63,0,0,0,1.145.483,4.472,4.472,0,0,0,.529-1.178c.024.02.045.041.07.06a5.508,5.508,0,0,0,.823.506,3.38,3.38,0,0,0,.006,1.333.648.648,0,0,0,1.171.153,2.545,2.545,0,0,0,.307-.987,6.517,6.517,0,0,0,.73.1,2.467,2.467,0,0,0,.131.79.64.64,0,0,0,.694.453.625.625,0,0,0,.548-.621,3.338,3.338,0,0,0-.131-.627,13.743,13.743,0,0,0,2.5-.45,1.5,1.5,0,0,0,.35,1.031.561.561,0,0,0,.927-.245,1.849,1.849,0,0,0-.15-1.117q.246-.078.491-.158a1.255,1.255,0,0,1,1.384.385,4.711,4.711,0,0,0,1.462,1.183,1.891,1.891,0,0,0-.33,1.175.476.476,0,0,0,.7.283,1.869,1.869,0,0,0,.632-1.015,8.833,8.833,0,0,0,1.02.3,2.427,2.427,0,0,0-.094.943c.062.437.734.479.924.121a2.313,2.313,0,0,0,.211-.88,9.873,9.873,0,0,0,1.6.068,2.972,2.972,0,0,0-.047,1.716.458.458,0,0,0,.9-.121,11.98,11.98,0,0,0,.087-1.552.483.483,0,0,0-.023-.133l.077-.011c.482-.083.973-.191,1.464-.312.008.05.016.1.025.151a1.233,1.233,0,0,0,.114.382,2.016,2.016,0,0,0,.274.325.552.552,0,0,0,.729.044.567.567,0,0,0,.143-.716l-.01-.023a1.928,1.928,0,0,0-.2-.419.291.291,0,0,1-.015-.034,13.556,13.556,0,0,0,6.131-3.579,1.874,1.874,0,0,1,1-.568q4.617-.99,9.315-1.531a24.034,24.034,0,0,0,6.463-1.277C169.668,164.313,172.276,157.259,171.493,151.1Z" transform="translate(-0.451 -0.451)" fill="none" stroke="#fff" stroke-linecap="round" stroke-linejoin="round" stroke-width="3"/>
          <path id="Path_2227" data-name="Path 2227" d="M38.2,28.8a3.138,3.138,0,0,0-1.145-2.054c-2.549-2.054-4.881-3.888-4.211-8.966.49-3.718,5.07-6.054,8.831-5.418a3.148,3.148,0,0,0,2.776-.861c2.163-2.182,4.041-4.115,6.968-5.519a41.661,41.661,0,0,1,9.407-3.439A40.74,40.74,0,0,1,68.8,1.507C73.58,1.677,80.57,3.12,84.028,6.432a2.41,2.41,0,0,0,2.705.481,11.848,11.848,0,0,1,3.351-1,6.085,6.085,0,0,1,3.839.566c1.945,1.01,2.333,1.92,3.119,3.8a7.429,7.429,0,0,1-.557,6.769,17.1,17.1,0,0,0-2.817,10.254c.89,8.976.175,16.856.266,25.376a26.9,26.9,0,0,0,.95,6.751,16.52,16.52,0,0,0,2.36,5.917,68.547,68.547,0,0,1,12.476,37.886c.043,2.051-.427,3.094.5,4.923.78,1.535,3.556,2.44,4.888,3.531,2.212,1.811,4.606,4.976,6.86,7.106a.477.477,0,0,0,.8-.376c-.329-4.915.341-7.737-.356-12.747-.289-2.08-3-5.713-1.268-7.447a3.416,3.416,0,0,1,1.947-.938,6.619,6.619,0,0,1,3.361.555,1.691,1.691,0,0,0,1.612-.21,16.157,16.157,0,0,1,7.122-2.673,29.477,29.477,0,0,1,13.64,1.719,1.029,1.029,0,0,0,1.314-.535c.563-1.382,2.849-2.011,4.444-1.387a4.159,4.159,0,0,1,2.024,5.261c-.486,1.268-1.489,2.307-1.857,3.615a8,8,0,0,0-.169,2.442L154.955,117a11.412,11.412,0,0,0,1.761,5.714c2.438,3.853,4.828,7.6,7.3,11.514,3.308,5.249,6.7,10.719,7.481,16.875s-1.825,13.209-7.564,15.569a24.056,24.056,0,0,1-6.463,1.277q-4.692.539-9.315,1.53a1.878,1.878,0,0,0-1,.569c-2.124,2.347-5.544,3.644-8.657,4.18-2.277.392-5.669-.249-7.111-2.077a1.257,1.257,0,0,0-1.384-.385c-2.9.959-5.986,1.649-8.4-.161-2.821-2.117-1.818-5.709-2.783-8.98a.8.8,0,0,0-1.243-.435c-1.127.875-2.605.889-4.195,1.061a1.362,1.362,0,0,0-1.185,1.046,15.043,15.043,0,0,1-1.726,3.847,12.6,12.6,0,0,1-6.331,5.493c-8.1,3.217-15.214,3.819-24.211,2.129a7,7,0,0,1-3.531-2.534c-.519-1.03.278-2.212,1.137-3.242a.565.565,0,0,0-.494-.926c-2.82.331-6.13,1.189-8.746,1.033a10.69,10.69,0,0,1-3.764-.749.959.959,0,0,0-1.331.882,10.875,10.875,0,0,0,.289,3.268,4.766,4.766,0,0,1-1.3,4.821c-1.808,1.657-4.281,2.008-6.651,2.129a44.687,44.687,0,0,1-21.5-4.318A12.973,12.973,0,0,1,30.3,173.29a3.5,3.5,0,0,0-3.377-1.066,26.229,26.229,0,0,1-16.372-1.15c-5.409-2.41-6.539-5.053-7.847-10.829s-1.752-13.781-.3-19.523c.748-2.966,2.335-7.573,4.3-9.913a13.964,13.964,0,0,1,5.264-4.119,3.938,3.938,0,0,0,2.269-3.567c-.042-18.989,3.33-40.1,12.139-56.662,2.787-5.24,6.025-9.085,8.087-14.651C37.29,44.176,39.205,36.865,38.2,28.8" transform="translate(-0.451 -0.451)" fill="#4d4d4d"/>
          <path id="Path_2228" data-name="Path 2228" d="M91.821,30.022a11.365,11.365,0,0,0,5.439,4.9,15.75,15.75,0,0,0,10.265.521,8.224,8.224,0,0,0,3.221-1.512c2.593-2.195,1.591-5.874.9-8.636-1.065-4.279-3.992-11.763-10.157-10.212a13.838,13.838,0,0,0-5.626,3.647c-2.169,2.127-5.216,6.114-4.739,9.209a6.886,6.886,0,0,0,.693,2.084" transform="translate(-27.392 -4.473)" fill="#c69c6d"/>
          <path id="Path_2229" data-name="Path 2229" d="M200.144,171.444a5.533,5.533,0,0,1-2.647,2.384,7.665,7.665,0,0,1-5,.254,4.007,4.007,0,0,1-1.568-.736c-1.262-1.068-.775-2.859-.44-4.2.518-2.082,1.943-5.725,4.943-4.97a6.74,6.74,0,0,1,2.738,1.775c1.056,1.036,2.538,2.976,2.306,4.482a3.347,3.347,0,0,1-.337,1.015" transform="translate(-57.178 -49.345)" fill="#c69c6d"/>
          <path id="Path_2230" data-name="Path 2230" d="M53.476,24.347a14.65,14.65,0,0,1,1.819.868q.387.209.756.446.482.08.024.547c-.194,1.254-.992,2.461-1.235,3.733a.58.58,0,0,0,1.055.445,18.788,18.788,0,0,0,1.261-2.862,4.078,4.078,0,0,0,.543-2.133c-.318-1.35-2.756-1.966-3.886-2.271a.636.636,0,0,0-.338,1.226" transform="translate(-15.952 -6.945)" fill="#333"/>
          <path id="Path_2231" data-name="Path 2231" d="M129.226,12.7c-.659.653-1.352,1.271-2.012,1.923-.373.368-.9.778-.889,1.347.017,1.036,1.5,2.7,2.373,3.107.41.193,1.076-.139.868-.667a3.806,3.806,0,0,0-.674-1.072c-.141-.174-1.175-1.27-1.145-1.5-.027.212.444-.247.438-.242a6.527,6.527,0,0,0,.51-.614c.424-.513.848-1.024,1.285-1.526s-.26-1.241-.753-.753" transform="translate(-37.992 -3.772)" fill="#333"/>
          <path id="Path_2232" data-name="Path 2232" d="M117.483,20.924a41.5,41.5,0,0,1,1.108,4.614c.3,1.752.229,3.5.457,5.249.094.718,1.224,1.056,1.4.189.7-3.444-.441-7.4-2.156-10.393a.445.445,0,0,0-.809.341" transform="translate(-35.328 -6.127)" fill="#333"/>
          <path id="Path_2233" data-name="Path 2233" d="M111.011,43.34c-2.478.678-4.979.734-7.469,1.224a.636.636,0,0,0,0,1.217c2.61.454,5.492-.485,7.806-1.64.45-.224.134-.929-.338-.8" transform="translate(-31.005 -13.03)" fill="#333"/>
          <path id="Path_2234" data-name="Path 2234" d="M67.722,100.608A70.118,70.118,0,0,0,84.478,117.22c.794.545,1.476-.711.742-1.269a101.48,101.48,0,0,1-16.887-15.814c-.279-.336-.872.114-.61.471" transform="translate(-20.348 -30.081)" fill="#333"/>
          <path id="Path_2235" data-name="Path 2235" d="M109.1,115.758c6.007-3.121,12.033-7.263,16.4-12.507a.578.578,0,0,0-.817-.817c-5.2,4.462-10.222,8.857-16.032,12.552a.447.447,0,0,0,.452.772" transform="translate(-32.612 -30.759)" fill="#333"/>
          <path id="Path_2236" data-name="Path 2236" d="M97.528,128.709a231.214,231.214,0,0,0,.736,23.536.645.645,0,0,0,1.289,0,230.856,230.856,0,0,0-.961-23.536.533.533,0,0,0-1.065,0" transform="translate(-29.33 -38.555)" fill="#333"/>
          <path id="Path_2237" data-name="Path 2237" d="M90.422,219.4a108.093,108.093,0,0,1,.961-24.423c1.029-7.483,2.288-15.036,1.894-22.615a.533.533,0,0,0-1.065,0c-.173,8.513-1.677,16.79-2.8,25.206-.959,7.176-1.733,14.854.027,21.965.133.536,1.033.44.985-.133" transform="translate(-26.582 -51.684)" fill="#333"/>
          <path id="Path_2238" data-name="Path 2238" d="M101.47,167.515c.153,8.143,2.036,16.1,3.686,24.036a114.431,114.431,0,0,1,2.778,25.924c-.02.979,1.361.914,1.478,0,1.028-7.992-.48-16.2-2.094-24.016-1.784-8.639-3.872-17.177-4.973-25.944-.068-.542-.887-.58-.876,0" transform="translate(-30.517 -50.254)" fill="#333"/>
          <path id="Path_2239" data-name="Path 2239" d="M156.14,155.738c-.155,9,.559,18.071.822,27.073.125,4.3.245,8.6.319,12.9.073,4.286-.32,8.838.394,13.068a.613.613,0,0,0,1.174,0c.706-4.23.252-8.787.193-13.068-.063-4.516-.149-9.034-.3-13.549-.3-8.813-.48-17.808-1.727-26.546-.073-.506-.861-.364-.87.117" transform="translate(-46.953 -46.708)" fill="#333"/>
          <path id="Path_2240" data-name="Path 2240" d="M31.317,161.578c1.343,10.2,2.8,20.368,3.565,30.633.382,5.139.745,10.278,1.011,15.425.2,3.913.331,7.55,1.873,11.2.281.668,1.362.189,1.161-.49-1.325-4.486-1.045-9.3-1.258-13.923-.227-4.938-.587-9.86-1.125-14.774a247.332,247.332,0,0,0-4.384-28.181c-.106-.462-.907-.372-.843.114" transform="translate(-9.418 -48.47)" fill="#333"/>
          <path id="Path_2241" data-name="Path 2241" d="M25.145,182.012a156.094,156.094,0,0,0,8.078,14.951c.309.492,1.237.173.99-.417a79.588,79.588,0,0,0-8.428-14.907.371.371,0,0,0-.641.374" transform="translate(-7.549 -54.576)" fill="#333"/>
          <path id="Path_2242" data-name="Path 2242" d="M116.775,239.255l-.5-.082-.134.994c2.37-.231,4.671-.943,7.023-1.329,3.014-.493,6.041-.68,9.078-.958a.65.65,0,0,0,0-1.3c-5.169-.21-11.658.365-16.357,2.642-.5.242-.19.894.255.943l.507.055c.546.059.678-.878.131-.966" transform="translate(-34.775 -71.141)" fill="#333"/>
          <path id="Path_2243" data-name="Path 2243" d="M54.556,241.13c5.92,1.278,12.049,2.868,18.12,3.128a.521.521,0,0,0,.138-1.019c-5.857-1.479-12.057-1.981-18.01-3.006-.58-.1-.84.769-.248.9" transform="translate(-16.307 -72.249)" fill="#333"/>
          <path id="Path_2244" data-name="Path 2244" d="M174.787,141.64l.843.506c.141.085.28.171.422.253.209.122.178.06.176.23,0,.221-.3.606-.4.808a6.013,6.013,0,0,0-.356.862c-.186.6.643.884.965.406a9.765,9.765,0,0,0,.717-1.4,1.542,1.542,0,0,0,.24-1.006,1.053,1.053,0,0,0-.6-.68c-.5-.285-1.033-.515-1.544-.77a.461.461,0,0,0-.465.8" transform="translate(-52.5 -42.343)" fill="#333"/>
          <path id="Path_2245" data-name="Path 2245" d="M217.019,138.427c-.579.379-1.851.9-1.78,1.752.035.437.437.762.708,1.067a5.458,5.458,0,0,0,1.191,1.18.568.568,0,0,0,.771-.771,5.412,5.412,0,0,0-1.336-1.534l-.163-.171c.02.086.041.172.06.258.034.015.294-.258.327-.289.269-.244.534-.493.8-.739a.48.48,0,0,0-.58-.752" transform="translate(-64.733 -41.61)" fill="#333"/>
          <path id="Path_2246" data-name="Path 2246" d="M188.419,164.233a6.875,6.875,0,0,0-1.08,7.022c.306.758,1.5.482,1.261-.348a8.355,8.355,0,0,1,.592-6.078c.2-.473-.357-1.041-.773-.6" transform="translate(-56.191 -49.345)" fill="#333"/>
          <path id="Path_2247" data-name="Path 2247" d="M193.87,179.785a5.6,5.6,0,0,0,4.975.114c.551-.283.138-1.02-.393-.933a9.226,9.226,0,0,1-4.21-.064c-.512-.15-.879.65-.372.883" transform="translate(-58.234 -53.8)" fill="#333"/>
          <path id="Path_2248" data-name="Path 2248" d="M171.341,170.278a21.327,21.327,0,0,0-3.916,9.31c-.568,3.916.52,7.8.366,11.726-.279,7.075-4.558,13.932-1.064,20.849.285.563,1.25.171,1.031-.435-2.514-6.963,1.544-13.46,1.832-20.414.137-3.31-.691-6.574-.621-9.881.085-4.017,2.025-7.09,3.264-10.78.189-.564-.585-.785-.892-.376" transform="translate(-49.733 -51.149)" fill="#333"/>
          <path id="Path_2249" data-name="Path 2249" d="M186.726,233.618a20.03,20.03,0,0,0,5.143-11.354,45.171,45.171,0,0,0-.009-8.532c-.078-1.5.33-4.21-.684-5.533-1.253-1.635-3.106,0-3.47,1.51-1.1,4.572-.443,10.236.83,14.7a.645.645,0,0,0,1.243-.343,55.878,55.878,0,0,1-.946-10.285c.015-.634-.192-5.7,1.374-3.694.5.64.166,3.391.208,4.253.161,3.332.385,6.623-.373,9.907-.748,3.239-2.374,6-3.983,8.858a.427.427,0,0,0,.667.515" transform="translate(-55.941 -62.412)" fill="#333"/>
          <path id="Path_2250" data-name="Path 2250" d="M219.375,192.289c-3.3,4.07-2.785,9.319-3.139,14.249-.281,3.921-1.955,6.49-3.322,10.057-1.065,2.779-.913,5.787-2.3,8.473a.686.686,0,0,0,1.183.692c1.531-2.152,1.644-4.587,2.317-7.073.8-2.958,2.689-5.4,3.337-8.434,1.247-5.838-.2-11.907,2.641-17.411.224-.434-.373-.977-.717-.553" transform="translate(-63.315 -57.786)" fill="#333"/>
          <path id="Path_2251" data-name="Path 2251" d="M218.736,221.386c3.364-5.087,5.764-10.722,10.334-14.9a.476.476,0,0,0-.574-.745c-5.236,3.21-8.065,9.844-10.5,15.212a.43.43,0,0,0,.741.434" transform="translate(-65.549 -61.857)" fill="#333"/>
          <path id="Path_2252" data-name="Path 2252" d="M58.3,252.012c-.093.8-.146,1.591-.178,2.391a2.557,2.557,0,0,0,.345,1.9.578.578,0,0,0,.817,0,2.561,2.561,0,0,0,.35-1.9c-.029-.8-.079-1.6-.17-2.391a.582.582,0,0,0-1.164,0" transform="translate(-17.473 -75.625)" fill="#1a1a1a"/>
          <path id="Path_2253" data-name="Path 2253" d="M66.8,254.8a7.939,7.939,0,0,0,.708,3.6.53.53,0,0,0,.957-.124,7.732,7.732,0,0,0-.673-3.61c-.167-.515-1.038-.461-.993.134" transform="translate(-20.09 -76.487)" fill="#1a1a1a"/>
          <path id="Path_2254" data-name="Path 2254" d="M74.554,254.956c.106,1.275.032,2.914.645,4.065.352.661,1.2.268,1.278-.345.148-1.233-.508-2.7-.85-3.865-.166-.568-1.126-.489-1.073.145" transform="translate(-22.422 -76.52)" fill="#1a1a1a"/>
          <path id="Path_2255" data-name="Path 2255" d="M82.987,253.994c.141.524.155,1.059.33,1.578A4.969,4.969,0,0,0,84.031,257a.717.717,0,0,0,1.238-.724,13.427,13.427,0,0,0-.694-1.233,8.457,8.457,0,0,1-.769-1.273.425.425,0,0,0-.819.226" transform="translate(-24.953 -76.234)" fill="#1a1a1a"/>
          <path id="Path_2256" data-name="Path 2256" d="M113.078,248.5c-.35.645-.707,1.285-1.048,1.933a4.021,4.021,0,0,0-.662,1.889.635.635,0,0,0,1.07.443,4.037,4.037,0,0,0,.931-1.767c.247-.688.477-1.383.715-2.074a.553.553,0,0,0-1.006-.424" transform="translate(-33.494 -74.659)" fill="#1a1a1a"/>
          <path id="Path_2257" data-name="Path 2257" d="M121.148,248.5a5.366,5.366,0,0,0-.863,4.1c.153.441.893.672,1.122.146a5.486,5.486,0,0,0,.368-1.778c.061-.7.228-1.371.322-2.063a.522.522,0,0,0-.949-.4" transform="translate(-36.132 -74.661)" fill="#1a1a1a"/>
          <path id="Path_2258" data-name="Path 2258" d="M128.841,247.873a24.3,24.3,0,0,0-.607,2.939,1.436,1.436,0,0,0,.741,1.616c.413.175.984-.117.822-.631a4.912,4.912,0,0,1,.029-1.6c.037-.724.043-1.451.07-2.176a.54.54,0,0,0-1.055-.143" transform="translate(-38.562 -74.434)" fill="#1a1a1a"/>
          <path id="Path_2259" data-name="Path 2259" d="M135.68,249.316a7.3,7.3,0,0,0-.11,2.749.8.8,0,0,0,.885.578.817.817,0,0,0,.7-.792,6.038,6.038,0,0,0-.131-1.293,6.66,6.66,0,0,0-.239-1.242.577.577,0,0,0-1.1,0" transform="translate(-40.748 -74.86)" fill="#1a1a1a"/>
          <path id="Path_2260" data-name="Path 2260" d="M171.96,241.733c-.206.45-.413.9-.633,1.34a5.308,5.308,0,0,0-.572,1.334.63.63,0,0,0,1.146.482,5.369,5.369,0,0,0,.582-1.329c.173-.463.359-.919.548-1.375.251-.609-.8-1.055-1.072-.452" transform="translate(-51.351 -72.616)" fill="#1a1a1a"/>
          <path id="Path_2261" data-name="Path 2261" d="M174.659,243.2a6.061,6.061,0,0,0-.243,1.4,3.7,3.7,0,0,0,0,1.428.648.648,0,0,0,1.17.153,3.775,3.775,0,0,0,.01-3.1c-.192-.44-.8-.245-.932.122" transform="translate(-52.433 -73.03)" fill="#1a1a1a"/>
          <path id="Path_2262" data-name="Path 2262" d="M178.4,244.234l-.01-.015-.16.611.02-.013-.62-.163c-.036-.219-.055-.231-.057-.034a2.419,2.419,0,0,0-.012.276c0,.16.006.321.014.48a3.389,3.389,0,0,0,.143,1.05.642.642,0,0,0,.694.454.627.627,0,0,0,.549-.622,9.777,9.777,0,0,0-.322-1.3c-.073-.308-.083-.745-.389-.922a.461.461,0,0,0-.62.163l-.013.022a.455.455,0,0,0,.16.611l.016.01a.446.446,0,0,0,.606-.606" transform="translate(-53.401 -73.376)" fill="#1a1a1a"/>
          <path id="Path_2263" data-name="Path 2263" d="M182.895,243.16a11.779,11.779,0,0,0,.02,1.4,1.864,1.864,0,0,0,.367,1.281.561.561,0,0,0,.928-.245,2.277,2.277,0,0,0-.2-1.268,11.876,11.876,0,0,1-.257-1.282c-.074-.507-.841-.354-.861.117" transform="translate(-55.003 -73.002)" fill="#1a1a1a"/>
          <path id="Path_2264" data-name="Path 2264" d="M189.963,245c-.241.453-.478.907-.7,1.368a2.184,2.184,0,0,0-.4,1.311.476.476,0,0,0,.7.283,2.234,2.234,0,0,0,.694-1.177c.194-.474.376-.951.555-1.43s-.6-.812-.842-.355" transform="translate(-56.797 -73.618)" fill="#1a1a1a"/>
          <path id="Path_2265" data-name="Path 2265" d="M192.381,247.314a3.168,3.168,0,0,0-.3,1.547c.062.437.734.479.924.121a3.25,3.25,0,0,0,.218-1.554.432.432,0,0,0-.843-.114" transform="translate(-57.765 -74.291)" fill="#1a1a1a"/>
          <path id="Path_2266" data-name="Path 2266" d="M195.955,248.411a2.986,2.986,0,0,0-.069,1.8.458.458,0,0,0,.9-.121,11.974,11.974,0,0,0,.087-1.552.468.468,0,0,0-.914-.124" transform="translate(-58.882 -74.613)" fill="#1a1a1a"/>
          <path id="Path_2267" data-name="Path 2267" d="M199.41,247.044a5.277,5.277,0,0,0,.093.725,1.235,1.235,0,0,0,.115.383,2.058,2.058,0,0,0,.274.326.552.552,0,0,0,.729.043.567.567,0,0,0,.143-.716c-.01-.022-.02-.043-.029-.064.025.1.051.19.077.285a1.332,1.332,0,0,0-.258-.663,1.433,1.433,0,0,1-.159-.452.5.5,0,0,0-.985.134" transform="translate(-59.973 -74.152)" fill="#1a1a1a"/>
          <path id="Path_2268" data-name="Path 2268" d="M109.6,28.74a20.517,20.517,0,0,1,.28,4.2c-.031.942,1.415.936,1.46,0a12.032,12.032,0,0,0-.636-4.5.573.573,0,0,0-1.1.3" transform="translate(-32.96 -8.43)" fill="#1a1a1a"/>
          <path id="Path_2269" data-name="Path 2269" d="M104.589,38.182c1.115-.456,2.212-1.5,3.342-1.815,1.7-.472,3.861,1.474,5.205,2.27a.74.74,0,0,0,.746-1.276c-1.015-.6-2.026-1.2-3.048-1.783a4.854,4.854,0,0,0-2.242-.98c-1.44.081-3.45,1.839-4.464,2.792-.325.306.012.976.462.792" transform="translate(-31.278 -10.405)" fill="#1a1a1a"/>
          <path id="Path_2270" data-name="Path 2270" d="M196.218,173.018a16.625,16.625,0,0,0,.059,1.794c.138.8,1.484.622,1.425-.193a16.508,16.508,0,0,0-.376-1.75.566.566,0,0,0-1.108.15" transform="translate(-59.013 -51.87)" fill="#1a1a1a"/>
          <path id="Path_2271" data-name="Path 2271" d="M194.486,176.662a7.444,7.444,0,0,0,1.886-.038,4.347,4.347,0,0,0,1.851-.259.624.624,0,0,0,0-1.067,3.116,3.116,0,0,0-2.052-.157,3.822,3.822,0,0,0-1.91.669.513.513,0,0,0,.225.852" transform="translate(-58.379 -52.646)" fill="#1a1a1a"/>
          <path id="Path_2272" data-name="Path 2272" d="M187.125,159.767c-.273-.331-.459-.861-.151-1.161a.769.769,0,0,1,.561-.178,1.908,1.908,0,0,1,1.634,1.234,1.068,1.068,0,0,1,.069.729c-.338,1-1.776-.215-2.113-.624" transform="translate(-56.185 -47.648)" fill="#1a1a1a"/>
          <path id="Path_2273" data-name="Path 2273" d="M206.71,159.24a3.74,3.74,0,0,1-1.241.335.688.688,0,0,1-.34-.033c-.28-.125-.294-.533-.158-.808a2.143,2.143,0,0,1,1.554-.964.943.943,0,0,1,.665.035.692.692,0,0,1,.133.952,2.013,2.013,0,0,1-.858.627" transform="translate(-61.621 -47.437)" fill="#1a1a1a"/>
          <path id="Path_2274" data-name="Path 2274" d="M194.8,171.381a1.933,1.933,0,0,0,1.813.541,1.037,1.037,0,0,0,1-.54,4.66,4.66,0,0,0,.637-.979,1.57,1.57,0,0,0,.087-1.14,1.666,1.666,0,0,0-.565-.723,2.86,2.86,0,0,0-3.84.276c-1.1,1.154-.012,1.783.866,2.564" transform="translate(-58.187 -50.505)" fill="#1a1a1a"/>
          <path id="Path_2275" data-name="Path 2275" d="M88.431,13.814a2.73,2.73,0,0,1-2.338.212,1.477,1.477,0,0,1-.8-1.961,1.919,1.919,0,0,1,1.929-.682,2.21,2.21,0,0,1,1.646.845,1.077,1.077,0,0,1-.438,1.587" transform="translate(-25.608 -3.417)" fill="#1a1a1a"/>
          <path id="Path_2276" data-name="Path 2276" d="M116.3,14.043a1.164,1.164,0,0,1,.015-2.318,2.016,2.016,0,0,1,1.358.545,1.475,1.475,0,0,1,.642.917,1.053,1.053,0,0,1-.756,1.035,2.09,2.09,0,0,1-1.356-.1" transform="translate(-34.661 -3.525)" fill="#1a1a1a"/>
          <path id="Path_2277" data-name="Path 2277" d="M103.67,20.718a1.57,1.57,0,0,0-.248.859,1.63,1.63,0,0,0,.337.738,10.6,10.6,0,0,0,2.054,2.354,4.7,4.7,0,0,0,2.872,1.108,4.585,4.585,0,0,0,4.128-3.523,1.386,1.386,0,0,0,.046-.7,1.571,1.571,0,0,0-.224-.438l-.845-1.294a4,4,0,0,0-.773-.952,3.662,3.662,0,0,0-2.764-.483,25.681,25.681,0,0,0-2.8-.029c-.74.224-1.45,1.728-1.786,2.359" transform="translate(-31.103 -5.502)" fill="#1a1a1a"/>
          <path id="Path_2278" data-name="Path 2278" d="M85.8,92.862c2.067,1.688,4.464,3.6,7.086,3.1a8.754,8.754,0,0,0,3.381-1.768l14.356-10.445a8.372,8.372,0,0,1-1.568,3.653L92.218,113.89c-5.5-3.778-8.465-10.152-11.882-15.881C76.8,92.074,72.055,87.286,68.046,81.8A72.709,72.709,0,0,1,85.8,92.862" transform="translate(-20.465 -24.603)" fill="#fff"/>
          <path id="Path_2279" data-name="Path 2279" d="M193.171,191.365c-.959.783-2.07,1.668-3.286,1.438a4.062,4.062,0,0,1-1.568-.82l-6.659-4.844a3.892,3.892,0,0,0,.728,1.694l7.81,12.286c2.549-1.752,3.926-4.708,5.51-7.366,1.642-2.752,3.841-4.973,5.7-7.516a33.714,33.714,0,0,0-8.236,5.128" transform="translate(-54.634 -56.012)" fill="#fff"/>
        </g>
      </g>
    </g>
  </g>
</svg>
