<svg xmlns="http://www.w3.org/2000/svg" width="24" height="24" viewBox="0 0 24 24">
  <g id="ic-accept" transform="translate(-0.168 -0.168)">
    <g id="Group_699" data-name="Group 699" transform="translate(0.168 0.168)">
      <rect id="Rectangle_626" data-name="Rectangle 626" width="24" height="24" transform="translate(0 0)" fill="none"/>
    </g>
    <g id="Group_701" data-name="Group 701" transform="translate(3.093 1.076)">
      <g id="Group_700" data-name="Group 700">
        <path id="Path_2505" data-name="Path 2505" d="M5.017,5.034H7.034V8.059H17.118V5.034h2.017v5.042h2.017V5.034a2.023,2.023,0,0,0-2.017-2.017H14.919a3.013,3.013,0,0,0-5.687,0H5.017A2.023,2.023,0,0,0,3,5.034V19.151a2.023,2.023,0,0,0,2.017,2.017h6.05V19.151H5.017Zm7.059-2.017a1.008,1.008,0,1,1-1.008,1.008A1.011,1.011,0,0,1,12.076,3.017Z" transform="translate(-3 -1)" fill="#74c1ee"/>
        <path id="Path_2506" data-name="Path 2506" d="M21.084,11.5l-5.536,5.546-3.035-3.025L11,15.534l4.548,4.538L22.6,13.013Z" transform="translate(-2.933 -0.912)" fill="#74c1ee"/>
      </g>
    </g>
  </g>
</svg>
