<svg xmlns="http://www.w3.org/2000/svg" xmlns:xlink="http://www.w3.org/1999/xlink" width="30" height="30" viewBox="0 0 30 30">
  <defs>
    <clipPath id="clip-path">
      <rect id="Rectangle_628" data-name="Rectangle 628" width="28.182" height="30" fill="#fff"/>
    </clipPath>
  </defs>
  <g id="ic-attachment-white" transform="translate(-370 -472)">
    <g id="Group_706" data-name="Group 706" transform="translate(370 472)">
      <rect id="Rectangle_629" data-name="Rectangle 629" width="30" height="30" fill="none"/>
    </g>
    <g id="Group_750" data-name="Group 750" transform="translate(371 472)">
      <g id="Group_704" data-name="Group 704" clip-path="url(#clip-path)">
        <path id="Path_2515" data-name="Path 2515" d="M23.273,0H8.727A4.075,4.075,0,0,0,4.678,3.678,4.075,4.075,0,0,0,1,7.727v.455H3.727V7.727A1.366,1.366,0,0,1,5.091,6.364H19.636A1.366,1.366,0,0,1,21,7.727V25.909a1.366,1.366,0,0,1-1.364,1.364H5.091a1.366,1.366,0,0,1-1.364-1.364v-.455H1v.455A4.09,4.09,0,0,0,5.091,30H19.636a4.077,4.077,0,0,0,4.049-3.678,4.077,4.077,0,0,0,3.678-4.049V4.091A4.09,4.09,0,0,0,23.273,0m.455,23.544V7.727a4.09,4.09,0,0,0-4.091-4.091H7.456a1.352,1.352,0,0,1,1.271-.909H23.273a1.366,1.366,0,0,1,1.364,1.364V22.273a1.355,1.355,0,0,1-.909,1.271" transform="translate(0.818)" fill="#fff"/>
        <path id="Path_2516" data-name="Path 2516" d="M1.364,9.545H5A1.364,1.364,0,1,0,5,6.818H4.545V6.364a1.364,1.364,0,1,0-2.727,0v.455H1.364a1.364,1.364,0,1,0,0,2.727" transform="translate(0 4.091)" fill="#fff"/>
        <path id="Path_2517" data-name="Path 2517" d="M1.364,12.545H5A1.364,1.364,0,0,0,5,9.818H4.545V9.364a1.364,1.364,0,1,0-2.727,0v.455H1.364a1.364,1.364,0,0,0,0,2.727" transform="translate(0 6.545)" fill="#fff"/>
        <path id="Path_2518" data-name="Path 2518" d="M6.364,14.182A1.364,1.364,0,0,0,5,12.818H4.545v-.455a1.364,1.364,0,1,0-2.727,0v.455H1.364a1.364,1.364,0,0,0,0,2.727H5a1.364,1.364,0,0,0,1.364-1.364" transform="translate(0 9)" fill="#fff"/>
        <path id="Path_2519" data-name="Path 2519" d="M9.472,17.16a.909.909,0,0,0,.909-.909v-6.9l2.084,2.085a.91.91,0,1,0,1.287-1.287L10.115,6.516l0,0a.91.91,0,0,0-1.285,0L5.192,10.152A.91.91,0,0,0,6.479,11.44L8.563,9.354v6.9a.909.909,0,0,0,.909.909" transform="translate(4.03 5.113)" fill="#fff"/>
      </g>
    </g>
  </g>
</svg>
