<svg id="ic-book" xmlns="http://www.w3.org/2000/svg" width="22.999" height="22.999" viewBox="0 0 22.999 22.999">
  <g id="Group_410" data-name="Group 410">
    <rect id="Rectangle_323" data-name="Rectangle 323" width="22.999" height="22.999" fill="none"/>
  </g>
  <g id="Group_411" data-name="Group 411" transform="translate(0.958 0.479)">
    <path id="Path_559" data-name="Path 559" d="M21.574,5a10.13,10.13,0,0,0-1.409-.585V15.948a9.859,9.859,0,0,0-3.354-.594,10.155,10.155,0,0,0-5.271,1.514V5.272A10.472,10.472,0,0,0,1.508,5,.932.932,0,0,0,1,5.847V17.423a.947.947,0,0,0,.958.949,1.021,1.021,0,0,0,.46-.115,8.331,8.331,0,0,1,3.852-.987,8.667,8.667,0,0,1,5.271,1.917,8.667,8.667,0,0,1,5.271-1.917,8.224,8.224,0,0,1,3.852,1,1.021,1.021,0,0,0,.46.115.953.953,0,0,0,.958-.949V5.847A.932.932,0,0,0,21.574,5ZM9.625,15.948a9.764,9.764,0,0,0-6.708,0v-9.5a8.552,8.552,0,0,1,6.708.01ZM18.249.5,13.458,5.291v9.1l4.791-4.312Z" transform="translate(-1 -0.5)" fill="#fff"/>
  </g>
</svg>
