<svg xmlns="http://www.w3.org/2000/svg" width="25.126" height="17.274" viewBox="0 0 25.126 17.274">
  <g id="ic-cloud-arrow-up" transform="translate(0 -2)">
    <path id="Path_2526" data-name="Path 2526" d="M8.87,5.23a.785.785,0,0,1,1.112,0l3.141,3.141a.786.786,0,1,1-1.112,1.112l-1.8-1.8v5.956a.785.785,0,1,1-1.57,0V7.681l-1.8,1.8A.786.786,0,0,1,5.73,8.371Z" transform="translate(3.137 1.711)" fill="#fff" fill-rule="evenodd"/>
    <path id="Path_2527" data-name="Path 2527" d="M6.919,4.107A8.684,8.684,0,0,1,12.563,2a8.066,8.066,0,0,1,8.113,7.191,5.061,5.061,0,0,1-.752,10.083H5.938A5.771,5.771,0,0,1,4.62,7.85a6.6,6.6,0,0,1,2.3-3.742M7.945,5.3A4.65,4.65,0,0,0,6.134,8.525v.7l-.7.077A4.27,4.27,0,0,0,1.57,13.492,4.291,4.291,0,0,0,5.938,17.7H19.923a3.5,3.5,0,1,0,0-7h-.785V9.923A6.464,6.464,0,0,0,12.563,3.57,7.114,7.114,0,0,0,7.945,5.3Z" fill="#fff"/>
  </g>
</svg>
