<svg xmlns="http://www.w3.org/2000/svg" xmlns:xlink="http://www.w3.org/1999/xlink" width="196" height="137" viewBox="0 0 196 137">
  <defs>
    <clipPath id="clip-path">
      <rect id="Rectangle_6" data-name="Rectangle 6" width="141.487" height="136.658" fill="none"/>
    </clipPath>
    <clipPath id="clip-path-2">
      <path id="Path_29" data-name="Path 29" d="M174.574,79.673l.018,4.833h26.377l-.008-2.191-6.642-6.2L190.065,80.5l-8.519-8.018Z" transform="translate(-174.574 -72.485)" fill="none"/>
    </clipPath>
    <linearGradient id="linear-gradient" x1="-3.126" y1="8.519" x2="-3.108" y2="8.519" gradientUnits="objectBoundingBox">
      <stop offset="0" stop-color="#c7c271"/>
      <stop offset="0.164" stop-color="#c7c271"/>
      <stop offset="0.684" stop-color="#769247"/>
      <stop offset="1" stop-color="#769247"/>
    </linearGradient>
  </defs>
  <g id="ic-cooperation" transform="translate(2410 294)">
    <rect id="Rectangle_591" data-name="Rectangle 591" width="196" height="137" transform="translate(-2410 -294)" fill="none"/>
    <g id="Group_7" data-name="Group 7" transform="translate(-2382.743 -294)">
      <g id="Group_2" data-name="Group 2">
        <g id="Group_1" data-name="Group 1" clip-path="url(#clip-path)">
          <path id="Path_1" data-name="Path 1" d="M140.8,68.329A68.329,68.329,0,1,1,72.472,0,68.329,68.329,0,0,1,140.8,68.329" transform="translate(-2.185)" fill="#dfebda"/>
          <path id="Rectangle_1" data-name="Rectangle 1" d="M9.059,0h96.207a9.057,9.057,0,0,1,9.057,9.057V60.406a9.055,9.055,0,0,1-9.055,9.055H9.056A9.056,9.056,0,0,1,0,60.405V9.059A9.059,9.059,0,0,1,9.059,0Z" transform="translate(13.125 36.676)" fill="#5f5e5e"/>
          <path id="Path_2" data-name="Path 2" d="M27.774,213v1.754a4.031,4.031,0,0,0,4.28,3.724H137.817a4.03,4.03,0,0,0,4.28-3.724V213Z" transform="translate(-14.649 -112.343)" fill="#474645"/>
          <path id="Path_3" data-name="Path 3" d="M140.574,216.123H0v4.171a11.478,11.478,0,0,0,7.809,4.261H132.792a11.5,11.5,0,0,0,7.782-4.225Z" transform="translate(0 -113.989)" fill="#f0efef" fill-rule="evenodd"/>
          <path id="Path_4" data-name="Path 4" d="M.16,225.218a11.553,11.553,0,0,0,7.723,4.134H132.864a11.558,11.558,0,0,0,7.719-4.134Z" transform="translate(-0.084 -118.786)" fill="#aeaead" fill-rule="evenodd"/>
          <path id="Path_5" data-name="Path 5" d="M123.67,216.348a3.134,3.134,0,0,0,3.122,2.878h17.442a3.135,3.135,0,0,0,3.123-2.878Z" transform="translate(-65.227 -114.108)" fill="#aeaead"/>
          <path id="Path_6" data-name="Path 6" d="M47.539,87.008H42.11V142.68H142.883v-7.6Z" transform="translate(-22.21 -45.89)" fill="#f0efef"/>
          <path id="Path_7" data-name="Path 7" d="M148.942,87.008H53.6l95.344,48.076Z" transform="translate(-28.269 -45.89)" fill="#fff"/>
          <path id="Path_8" data-name="Path 8" d="M8.735,118.825l.014,3.657.119,30.882H61.238l-.119-30.882-.014-3.657Z" transform="translate(-4.607 -62.672)" fill="#767676"/>
          <path id="Path_9" data-name="Path 9" d="M56.627,115.111H4.256l.014,3.657H56.641Z" transform="translate(-2.244 -60.713)" fill="#124c9b"/>
          <path id="Path_10" data-name="Path 10" d="M4.285,122.85,4.4,153.732H56.775l-.119-30.882Z" transform="translate(-2.26 -64.794)" fill="#ebebeb"/>
          <path id="Path_11" data-name="Path 11" d="M56.907,127.044H8.579l.043,11.326H56.95Z" transform="translate(-4.525 -67.006)" fill="#fff"/>
          <path id="Path_12" data-name="Path 12" d="M8.7,158.5l.046,12.052H57.075L57.028,158.5Z" transform="translate(-4.589 -83.598)" fill="#fff"/>
          <path id="Path_13" data-name="Path 13" d="M12.874,131.238,12.9,138.6h8.765l-.028-7.363Z" transform="translate(-6.79 -69.218)" fill="#bbcfeb"/>
          <path id="Path_14" data-name="Path 14" d="M13,162.7l.031,8.088h8.765L21.76,162.7Z" transform="translate(-6.854 -85.81)" fill="#bbcfeb"/>
          <path id="Path_15" data-name="Path 15" d="M69.456,131.238H36.192l.009,2.454H69.465Z" transform="translate(-19.088 -69.218)" fill="#bbcfeb"/>
          <path id="Path_16" data-name="Path 16" d="M69.577,162.7H36.312l.01,2.7H69.587Z" transform="translate(-19.152 -85.81)" fill="#bbcfeb"/>
          <path id="Path_17" data-name="Path 17" d="M36.232,141.624l.009,2.454H48.058l-.009-2.454Z" transform="translate(-19.11 -74.696)" fill="#bbcfeb"/>
          <path id="Path_18" data-name="Path 18" d="M36.356,174.105l.01,2.7H55.9l-.01-2.7Z" transform="translate(-19.175 -91.828)" fill="#bbcfeb"/>
          <path id="Path_19" data-name="Path 19" d="M9.018,117.966a.748.748,0,0,1-.757.842.954.954,0,0,1-.928-.842.748.748,0,0,1,.757-.842.954.954,0,0,1,.928.842" transform="translate(-3.865 -61.774)" fill="#de627f"/>
          <path id="Path_20" data-name="Path 20" d="M15.366,117.966a.748.748,0,0,1-.757.842.954.954,0,0,1-.928-.842.748.748,0,0,1,.757-.842.954.954,0,0,1,.928.842" transform="translate(-7.214 -61.774)" fill="#f9a34b"/>
          <path id="Path_21" data-name="Path 21" d="M21.713,117.966a.748.748,0,0,1-.757.842.954.954,0,0,1-.928-.842.748.748,0,0,1,.757-.842.954.954,0,0,1,.928.842" transform="translate(-10.561 -61.774)" fill="#009770"/>
          <rect id="Rectangle_2" data-name="Rectangle 2" width="52.153" height="12.798" transform="translate(80.329 80.193)" fill="#3d7d75"/>
          <rect id="Rectangle_3" data-name="Rectangle 3" width="52.153" height="12.798" transform="translate(78.694 77.906)" fill="#51b4a9"/>
          <line id="Line_1" data-name="Line 1" x2="7.504" transform="translate(87.699 81.372)" fill="none" stroke="#fff" stroke-linecap="round" stroke-miterlimit="10" stroke-width="3"/>
          <line id="Line_2" data-name="Line 2" x2="17.778" transform="translate(98.204 81.372)" fill="none" stroke="#fff" stroke-linecap="round" stroke-miterlimit="10" stroke-width="3"/>
          <line id="Line_3" data-name="Line 3" x2="31.285" transform="translate(84.697 84.478)" fill="none" stroke="#fff" stroke-linecap="round" stroke-miterlimit="10" stroke-width="3"/>
          <line id="Line_4" data-name="Line 4" x2="25.532" transform="translate(90.45 87.584)" fill="none" stroke="#fff" stroke-linecap="round" stroke-miterlimit="10" stroke-width="3"/>
          <path id="Path_22" data-name="Path 22" d="M261.29,177.919h-5.275a1.475,1.475,0,0,1-1.474-1.474v-5.275a1.475,1.475,0,0,1,1.474-1.474h5.275a1.475,1.475,0,0,1,1.474,1.474v5.275a1.474,1.474,0,0,1-1.474,1.474" transform="translate(-134.252 -89.502)" fill="#fff"/>
          <rect id="Rectangle_4" data-name="Rectangle 4" width="52.153" height="12.798" transform="translate(89.334 58.543)" fill="#3d7d75"/>
          <rect id="Rectangle_5" data-name="Rectangle 5" width="52.153" height="12.798" transform="translate(87.699 56.256)" fill="#51b4a9"/>
          <line id="Line_5" data-name="Line 5" x2="7.504" transform="translate(96.704 59.722)" fill="none" stroke="#fff" stroke-linecap="round" stroke-miterlimit="10" stroke-width="3"/>
          <line id="Line_6" data-name="Line 6" x2="17.778" transform="translate(107.209 59.722)" fill="none" stroke="#fff" stroke-linecap="round" stroke-miterlimit="10" stroke-width="3"/>
          <line id="Line_7" data-name="Line 7" x2="31.285" transform="translate(93.702 62.828)" fill="none" stroke="#fff" stroke-linecap="round" stroke-miterlimit="10" stroke-width="3"/>
          <line id="Line_8" data-name="Line 8" x2="25.532" transform="translate(99.455 65.933)" fill="none" stroke="#fff" stroke-linecap="round" stroke-miterlimit="10" stroke-width="3"/>
          <path id="Path_23" data-name="Path 23" d="M280.345,132.1H275.07a1.475,1.475,0,0,1-1.474-1.474v-5.275a1.475,1.475,0,0,1,1.474-1.474h5.275a1.474,1.474,0,0,1,1.474,1.474v5.275a1.474,1.474,0,0,1-1.474,1.474" transform="translate(-144.302 -65.338)" fill="#fff"/>
          <path id="Path_24" data-name="Path 24" d="M91.807,66.51H49.1v12.8H75.212l3.467,5.284V79.308H91.807Z" transform="translate(-25.898 -35.079)" fill="#3d7d75"/>
          <path id="Path_25" data-name="Path 25" d="M88.807,62.51H46.1v12.8H72.212l3.467,5.284V75.308H88.807Z" transform="translate(-24.316 -32.97)" fill="#51b4a9"/>
          <line id="Line_9" data-name="Line 9" x2="7.504" transform="translate(30.498 33.006)" fill="none" stroke="#fff" stroke-linecap="round" stroke-miterlimit="10" stroke-width="3"/>
          <line id="Line_10" data-name="Line 10" x2="17.778" transform="translate(41.004 33.006)" fill="none" stroke="#fff" stroke-linecap="round" stroke-miterlimit="10" stroke-width="3"/>
          <line id="Line_11" data-name="Line 11" x2="31.285" transform="translate(27.497 36.112)" fill="none" stroke="#fff" stroke-linecap="round" stroke-miterlimit="10" stroke-width="3"/>
          <line id="Line_12" data-name="Line 12" x2="25.532" transform="translate(33.25 39.218)" fill="none" stroke="#fff" stroke-linecap="round" stroke-miterlimit="10" stroke-width="3"/>
          <path id="Path_26" data-name="Path 26" d="M174.542,63.862l.008,2.124.069,17.938H205.04l-.069-17.938-.008-2.124Z" transform="translate(-92.058 -33.683)" fill="#767676"/>
          <path id="Path_27" data-name="Path 27" d="M170.187,59.661l.008,2.124.069,17.938h30.421l-.069-17.938-.008-2.124Z" transform="translate(-89.761 -31.467)" fill="#fff"/>
          <path id="Path_28" data-name="Path 28" d="M174.544,79.954l-.062-16.1h26.377l.062,16.1Z" transform="translate(-92.026 -33.679)" fill="#d6effc"/>
        </g>
      </g>
      <g id="Group_4" data-name="Group 4" transform="translate(82.499 34.254)">
        <g id="Group_3" data-name="Group 3" clip-path="url(#clip-path-2)">
          <rect id="Rectangle_7" data-name="Rectangle 7" width="26.395" height="12.02" transform="translate(0 0)" fill="url(#linear-gradient)"/>
        </g>
      </g>
      <g id="Group_6" data-name="Group 6">
        <g id="Group_5" data-name="Group 5" clip-path="url(#clip-path)">
          <path id="Path_30" data-name="Path 30" d="M206.747,70.473a2.439,2.439,0,0,1-2.453,2.532,2.63,2.63,0,0,1-2.611-2.532,2.439,2.439,0,0,1,2.453-2.532,2.63,2.63,0,0,1,2.611,2.532" transform="translate(-106.373 -35.834)" fill="#fff"/>
        </g>
      </g>
    </g>
  </g>
</svg>
