<svg id="ic-done" xmlns="http://www.w3.org/2000/svg" width="24" height="24" viewBox="0 0 24 24">
  <g id="Group_778" data-name="Group 778">
    <rect id="Rectangle_752" data-name="Rectangle 752" width="24" height="24" fill="none"/>
  </g>
  <g id="Group_780" data-name="Group 780" transform="translate(-1 -0.955)">
    <g id="Group_779" data-name="Group 779" transform="translate(1 1.5)">
      <path id="Path_2563" data-name="Path 2563" d="M25,12.944,22.338,9.9l.371-4.025L18.771,4.98,16.709,1.5,13,3.093,9.291,1.5,7.229,4.98l-3.938.884L3.662,9.9,1,12.944l2.662,3.044-.371,4.036,3.938.895,2.062,3.491L13,22.805,16.709,24.4l2.062-3.48,3.938-.895L22.338,16Zm-4.309,1.615-.611.709.087.927.2,2.127-2.073.469L17.375,19l-.48.807-1.08,1.833-1.942-.84L13,20.427l-.862.371-1.942.84-1.08-1.822-.48-.807L7.72,18.8l-2.073-.469.2-2.138.087-.927-.611-.709-1.407-1.6L5.32,11.34l.611-.709-.1-.938-.2-2.116,2.073-.469L8.625,6.9l.48-.807,1.08-1.833,1.942.84L13,5.471l.862-.371L15.8,4.26l1.08,1.833.48.807.916.207,2.073.469-.2,2.127-.087.927.611.709,1.407,1.6Z" transform="translate(-1 -1.5)" fill="#74c1ee"/>
      <path id="Path_2564" data-name="Path 2564" d="M10.435,14.285,7.9,11.743,6.29,13.368l4.145,4.156L18.443,9.5,16.828,7.87Z" transform="translate(-0.519 -0.921)" fill="#74c1ee"/>
    </g>
  </g>
</svg>
