<svg xmlns="http://www.w3.org/2000/svg" width="32" height="32" viewBox="0 0 32 32">
  <g id="ic-edit" transform="translate(0 -0.136)">
    <g id="Group_743" data-name="Group 743" transform="translate(0 0.136)">
      <rect id="Rectangle_722" data-name="Rectangle 722" width="32" height="32" fill="none"/>
    </g>
    <g id="Group_745" data-name="Group 745" transform="translate(4.015 5.369)">
      <g id="Group_744" data-name="Group 744">
        <path id="Path_2542" data-name="Path 2542" d="M16.353,16,11,21.353H24.384V16Z" transform="translate(-0.293 0.06)" fill="#999"/>
        <path id="Path_2543" data-name="Path 2543" d="M15.126,7.19,3,19.316v5.019H8.019L20.144,12.209ZM6.908,21.658H5.677V20.426l9.449-9.449,1.231,1.231Z" transform="translate(-3 -2.921)" fill="#999"/>
        <path id="Path_2544" data-name="Path 2544" d="M20.6,9.407a1.333,1.333,0,0,0,0-1.887L17.466,4.388A1.314,1.314,0,0,0,16.516,4a1.34,1.34,0,0,0-.937.388L13.13,6.837l5.019,5.019Z" transform="translate(0.428 -4)" fill="#999"/>
      </g>
    </g>
  </g>
</svg>
