<svg xmlns="http://www.w3.org/2000/svg" width="16" height="16" viewBox="0 0 16 16">
  <path id="ic-gear-fill" d="M9.4,1.05a1.465,1.465,0,0,0-2.81,0l-.1.34a1.464,1.464,0,0,1-2.105.872l-.31-.17A1.465,1.465,0,0,0,2.093,4.079l.169.311A1.464,1.464,0,0,1,1.39,6.495l-.34.1a1.465,1.465,0,0,0,0,2.81l.34.1a1.464,1.464,0,0,1,.872,2.105l-.17.31a1.465,1.465,0,0,0,1.987,1.987l.311-.169a1.464,1.464,0,0,1,2.1.872l.1.34a1.465,1.465,0,0,0,2.81,0l.1-.34a1.464,1.464,0,0,1,2.1-.872l.31.17a1.465,1.465,0,0,0,1.987-1.987l-.169-.311a1.464,1.464,0,0,1,.872-2.105l.34-.1a1.465,1.465,0,0,0,0-2.81l-.34-.1a1.464,1.464,0,0,1-.872-2.105l.17-.31a1.465,1.465,0,0,0-1.987-1.987l-.311.169A1.464,1.464,0,0,1,9.5,1.39ZM8,10.93A2.93,2.93,0,1,1,10.929,8,2.93,2.93,0,0,1,8,10.93Z"/>
</svg>
