<svg xmlns="http://www.w3.org/2000/svg" width="24" height="24" viewBox="0 0 24 24">
  <g id="ic-info" transform="translate(0)">
    <path id="Path_2567" data-name="Path 2567" d="M20.485,3.515A12,12,0,1,0,24,12,11.965,11.965,0,0,0,20.485,3.515Zm-1.568,15.4A9.781,9.781,0,1,1,21.782,12,9.748,9.748,0,0,1,18.917,18.916Z" transform="translate(0 0)" fill="#74c1ee"/>
    <path id="Path_2568" data-name="Path 2568" d="M214.785,120.51a1.815,1.815,0,1,0-1.815-1.815A1.816,1.816,0,0,0,214.785,120.51Z" transform="translate(-202.987 -111.401)" fill="#74c1ee"/>
    <path id="Path_2569" data-name="Path 2569" d="M203.287,218.7h-.247a.457.457,0,0,1-.458-.457v-6.39a.239.239,0,0,0-.351-.212l-3.119,1.734c-.907.454-.472,1-.134.982s1.344-.113,1.344-.113v4a.457.457,0,0,1-.458.457h-.485a.229.229,0,0,0-.229.229v1a.229.229,0,0,0,.229.229h3.906a.229.229,0,0,0,.229-.229v-1A.229.229,0,0,0,203.287,218.7Z" transform="translate(-189.264 -201.696)" fill="#74c1ee"/>
  </g>
</svg>
