<svg id="ic-money" xmlns="http://www.w3.org/2000/svg" width="42" height="42" viewBox="0 0 42 42">
  <g id="Group_439" data-name="Group 439">
    <rect id="ic-money-2" data-name="ic-money" width="42" height="42" fill="none"/>
  </g>
  <g id="Group_440" data-name="Group 440" transform="translate(3.5 3.5)">
    <path id="Path_671" data-name="Path 671" d="M19.5,2A17.5,17.5,0,1,0,37,19.5,17.506,17.506,0,0,0,19.5,2Zm0,31.5a14,14,0,1,1,14-14A14.019,14.019,0,0,1,19.5,33.5Zm1.558-15.575c-3.115-1.033-4.62-1.68-4.62-3.325,0-1.785,1.942-2.433,3.167-2.433a3.381,3.381,0,0,1,3.325,2.345l2.765-1.172a5.994,5.994,0,0,0-4.655-3.9V7.25H17.977v2.2a5.4,5.4,0,0,0-4.585,5.18c0,3.972,3.937,5.093,5.862,5.793,2.765.98,3.99,1.872,3.99,3.552,0,1.977-1.837,2.817-3.465,2.817-3.185,0-4.1-3.273-4.2-3.658l-2.9,1.173a7.064,7.064,0,0,0,5.285,5.18V31.75h3.063V29.58c.91-.157,5.285-1.032,5.285-5.635C26.325,21.512,25.257,19.378,21.058,17.925Z" transform="translate(-2 -2)" fill="#135e5c"/>
  </g>
</svg>
