<svg id="ic-movie" xmlns="http://www.w3.org/2000/svg" width="22.999" height="22.999" viewBox="0 0 22.999 22.999">
  <path id="Path_560" data-name="Path 560" d="M0,0H23V23H0Z" fill="none"/>
  <path id="Path_561" data-name="Path 561" d="M8.666,9.666v7.666L15.374,13.5Zm11.5-3.833H12.9L16.055,2.68,15.374,2,11.541,5.833h-.029L7.679,2l-.661.68,3.143,3.153H2.917A1.922,1.922,0,0,0,1,7.75v11.5a1.922,1.922,0,0,0,1.917,1.917H20.166a1.922,1.922,0,0,0,1.917-1.917V7.75A1.922,1.922,0,0,0,20.166,5.833Zm0,13.416H2.917V7.75H20.166Z" transform="translate(-0.042 -0.083)" fill="#fff"/>
</svg>
