<svg xmlns="http://www.w3.org/2000/svg" xmlns:xlink="http://www.w3.org/1999/xlink" width="42" height="42" viewBox="0 0 42 42">
  <defs>
    <clipPath id="clip-path">
      <rect id="Rectangle_627" data-name="Rectangle 627" width="38.673" height="40.966" fill="#c1bfbf"/>
    </clipPath>
  </defs>
  <g id="ic-plan" transform="translate(-180 -2833)">
    <g id="Group_767" data-name="Group 767" transform="translate(182 2834)">
      <g id="Group_702" data-name="Group 702" clip-path="url(#clip-path)">
        <path id="Path_2507" data-name="Path 2507" d="M88.353,394.18a.354.354,0,0,0-.354.354v1.716a.354.354,0,0,0,.354.354h9.218a.354.354,0,0,0,.354-.354v-1.716a.354.354,0,0,0-.354-.354Z" transform="translate(-81.08 -363.185)" fill="#c1bfbf"/>
        <path id="Path_2508" data-name="Path 2508" d="M100.958,305.684h-12.6a.354.354,0,0,0-.354.354v1.716a.354.354,0,0,0,.354.354h12.6a.354.354,0,0,0,.354-.354v-1.716a.354.354,0,0,0-.354-.354" transform="translate(-81.08 -281.648)" fill="#c1bfbf"/>
        <path id="Path_2509" data-name="Path 2509" d="M106.56,219.525a.356.356,0,0,0,.1-.25v-1.716a.354.354,0,0,0-.354-.354H88.353a.354.354,0,0,0-.354.354v1.716a.354.354,0,0,0,.354.354h17.957a.356.356,0,0,0,.25-.1" transform="translate(-81.08 -200.126)" fill="#c1bfbf"/>
        <path id="Path_2510" data-name="Path 2510" d="M217.9,129.08a.354.354,0,0,0-.354-.354h-8.464a.354.354,0,0,0-.354.354V130.8a.354.354,0,0,0,.354.354h8.464a.354.354,0,0,0,.354-.354Z" transform="translate(-192.316 -118.604)" fill="#c1bfbf"/>
        <path id="Path_2511" data-name="Path 2511" d="M32.285,26.779a.354.354,0,0,0-.386.077L29.84,28.915a.356.356,0,0,0-.1.25v7.787A1.25,1.25,0,0,1,28.488,38.2H4.015a1.25,1.25,0,0,1-1.248-1.249V14.546h9.44a2.32,2.32,0,0,0,2.318-2.319V2.766H28.488a1.249,1.249,0,0,1,1.248,1.247V15.578a.354.354,0,0,0,.6.25L32.4,13.77a.356.356,0,0,0,.1-.25V4.014A4.019,4.019,0,0,0,28.488,0H13.638a4.374,4.374,0,0,0-3.094,1.281L1.282,10.544h0A4.374,4.374,0,0,0,0,13.638V36.952a4.019,4.019,0,0,0,4.015,4.015H28.488A4.019,4.019,0,0,0,32.5,36.952V27.106a.354.354,0,0,0-.218-.327M3.729,12.009l8.258-8.257v7.375a1.687,1.687,0,0,1-.054.469.585.585,0,0,1-.091.191.4.4,0,0,1-.091.088.664.664,0,0,1-.235.1,1.864,1.864,0,0,1-.413.039Z" transform="translate(0)" fill="#c1bfbf"/>
        <path id="Path_2512" data-name="Path 2512" d="M421.829,178.383a1.313,1.313,0,0,0-.294-.45l-.25.25.25-.25-2.183-2.183a1.326,1.326,0,0,0-1.876,0l-1.415,1.415a.354.354,0,0,0,0,.5l3.559,3.558a.354.354,0,0,0,.5,0l1.415-1.415a1.307,1.307,0,0,0,.388-.922,1.379,1.379,0,0,0-.094-.5" transform="translate(-383.25 -161.572)" fill="#c1bfbf"/>
        <path id="Path_2513" data-name="Path 2513" d="M234.357,364.644a.353.353,0,0,0-.249.254l-1.213,4.772a.354.354,0,0,0,.43.43l4.771-1.213a.354.354,0,0,0,.163-.593l-3.558-3.558a.353.353,0,0,0-.344-.091" transform="translate(-214.572 -335.96)" fill="#c1bfbf"/>
        <path id="Path_2514" data-name="Path 2514" d="M269.979,205.311a.354.354,0,0,0-.5,0l-11.807,11.808a.354.354,0,0,0,0,.5l3.559,3.558a.354.354,0,0,0,.5,0l11.807-11.807a.354.354,0,0,0,0-.5Z" transform="translate(-237.315 -189.071)" fill="#c1bfbf"/>
      </g>
    </g>
    <rect id="Rectangle_729" data-name="Rectangle 729" width="42" height="42" transform="translate(180 2833)" fill="none"/>
  </g>
</svg>
