<svg xmlns="http://www.w3.org/2000/svg" xmlns:xlink="http://www.w3.org/1999/xlink" width="196" height="137" viewBox="0 0 196 137">
  <defs>
    <clipPath id="clip-path">
      <rect id="Rectangle_435" data-name="Rectangle 435" width="101.512" height="106.311" fill="none"/>
    </clipPath>
  </defs>
  <g id="ic-plan-info" transform="translate(1595 274)">
    <g id="Group_671" data-name="Group 671" transform="translate(-29.09 14.602)">
      <circle id="Ellipse_26" data-name="Ellipse 26" cx="68.386" cy="68.386" r="68.386" transform="translate(-1535.91 -288.602)" fill="#a6e1f3" opacity="0.5"/>
      <g id="Group_668" data-name="Group 668" transform="translate(-1520.281 -274.627)">
        <path id="Path_805" data-name="Path 805" d="M83.671,0V26.577l-8.4-4.429L66.9,26.577V0H19.393V106.311h83.842L103.231,0Z" transform="translate(0.279 1.344)" fill="#94d8d8" stroke="#fff" stroke-width="1"/>
        <path id="Path_806" data-name="Path 806" d="M.013,0,0,106.311H15.575V0Z" transform="translate(4.096 1.344)" fill="#c9db6b" stroke="#fff" stroke-width="1"/>
        <rect id="Rectangle_434" data-name="Rectangle 434" width="61.484" height="44.505" transform="translate(30.849 36.108)" fill="#fff"/>
        <path id="Path_807" data-name="Path 807" d="M60.6,0V33.376l8.37-5.562,8.4,5.562V0Z" transform="translate(6.582 -1)" fill="#ffba53" stroke="#fff" stroke-width="1"/>
        <g id="Group_522" data-name="Group 522" transform="translate(2 1.344)">
          <g id="Group_521" data-name="Group 521" clip-path="url(#clip-path)">
            <path id="Path_808" data-name="Path 808" d="M78.116,54.337H38.99a1.27,1.27,0,1,1,0-2.476H78.116a1.27,1.27,0,1,1,0,2.476" transform="translate(1.039 -4.249)" fill="#c9c9c9"/>
            <path id="Path_809" data-name="Path 809" d="M38.99,63.853a1.27,1.27,0,1,1,0-2.476l19.563,0a1.27,1.27,0,1,1,0,2.476l-19.56,0Z" transform="translate(1.039 -5.028)" fill="#c9c9c9"/>
            <path id="Path_810" data-name="Path 810" d="M78.116,73.112H38.99a1.27,1.27,0,1,1,0-2.478H78.116a1.271,1.271,0,1,1,0,2.478" transform="translate(1.039 -5.787)" fill="#c9c9c9"/>
          </g>
        </g>
      </g>
    </g>
    <rect id="Rectangle_593" data-name="Rectangle 593" width="196" height="137" transform="translate(-1595 -274)" fill="none"/>
  </g>
</svg>
