<svg xmlns="http://www.w3.org/2000/svg" xmlns:xlink="http://www.w3.org/1999/xlink" width="30" height="30" viewBox="0 0 30 30">
  <defs>
    <clipPath id="clip-path">
      <rect id="Rectangle_627" data-name="Rectangle 627" width="23.841" height="25.255" fill="#fff"/>
    </clipPath>
  </defs>
  <g id="ic-plan-white" transform="translate(-374 -472)">
    <rect id="Rectangle_630" data-name="Rectangle 630" width="30" height="30" transform="translate(374 472)" fill="none"/>
    <g id="Group_711" data-name="Group 711" transform="translate(377.67 474.373)">
      <g id="Group_702" data-name="Group 702" clip-path="url(#clip-path)">
        <path id="Path_2507" data-name="Path 2507" d="M88.217,394.18A.218.218,0,0,0,88,394.4v1.058a.218.218,0,0,0,.218.218H93.9a.218.218,0,0,0,.218-.218V394.4a.218.218,0,0,0-.218-.218Z" transform="translate(-83.733 -375.072)" fill="#fff"/>
        <path id="Path_2508" data-name="Path 2508" d="M95.988,305.684H88.217A.218.218,0,0,0,88,305.9v1.058a.218.218,0,0,0,.218.218h7.771a.218.218,0,0,0,.218-.218V305.9a.218.218,0,0,0-.218-.218" transform="translate(-83.733 -290.866)" fill="#fff"/>
        <path id="Path_2509" data-name="Path 2509" d="M99.441,218.635a.22.22,0,0,0,.064-.154v-1.058a.218.218,0,0,0-.218-.218H88.217a.218.218,0,0,0-.218.218v1.058a.218.218,0,0,0,.218.218h11.07a.219.219,0,0,0,.154-.064" transform="translate(-83.733 -206.676)" fill="#fff"/>
        <path id="Path_2510" data-name="Path 2510" d="M214.382,128.944a.218.218,0,0,0-.218-.218h-5.218a.218.218,0,0,0-.218.218V130a.218.218,0,0,0,.218.218h5.218a.218.218,0,0,0,.218-.218Z" transform="translate(-198.61 -122.486)" fill="#fff"/>
        <path id="Path_2511" data-name="Path 2511" d="M19.9,16.509a.218.218,0,0,0-.238.047L18.4,17.825a.22.22,0,0,0-.064.154v4.8a.771.771,0,0,1-.77.77H2.475a.771.771,0,0,1-.77-.77V8.968h5.82A1.431,1.431,0,0,0,8.954,7.538V1.705h8.609a.77.77,0,0,1,.77.769V9.6a.218.218,0,0,0,.372.154l1.269-1.269a.22.22,0,0,0,.064-.154V2.474A2.477,2.477,0,0,0,17.562,0H8.408A2.7,2.7,0,0,0,6.5.789L.79,6.5h0A2.7,2.7,0,0,0,0,8.408V22.78a2.478,2.478,0,0,0,2.475,2.475H17.562a2.478,2.478,0,0,0,2.475-2.475V16.711a.218.218,0,0,0-.135-.2M2.3,7.4l5.091-5.09V6.859a1.04,1.04,0,0,1-.033.289.361.361,0,0,1-.056.118.245.245,0,0,1-.056.054.409.409,0,0,1-.145.06,1.149,1.149,0,0,1-.254.024Z" transform="translate(0 0)" fill="#fff"/>
        <path id="Path_2512" data-name="Path 2512" d="M419.577,177.224a.809.809,0,0,0-.181-.278l-.154.154.154-.154L418.05,175.6a.818.818,0,0,0-1.157,0l-.872.872a.218.218,0,0,0,0,.308l2.194,2.194a.218.218,0,0,0,.308,0l.872-.872a.806.806,0,0,0,.239-.569.85.85,0,0,0-.058-.31" transform="translate(-395.794 -166.86)" fill="#fff"/>
        <path id="Path_2513" data-name="Path 2513" d="M233.792,364.639a.218.218,0,0,0-.154.157l-.748,2.942a.218.218,0,0,0,.265.265l2.941-.748a.218.218,0,0,0,.1-.366L234,364.695a.218.218,0,0,0-.212-.056" transform="translate(-221.594 -346.956)" fill="#fff"/>
        <path id="Path_2514" data-name="Path 2514" d="M265.219,205.271a.218.218,0,0,0-.308,0l-7.279,7.279a.218.218,0,0,0,0,.308l2.194,2.194a.218.218,0,0,0,.308,0l7.279-7.279a.218.218,0,0,0,0-.309Z" transform="translate(-245.083 -195.26)" fill="#fff"/>
      </g>
    </g>
  </g>
</svg>
