<svg id="ic-pin" xmlns="http://www.w3.org/2000/svg" width="30" height="30" viewBox="0 0 30 30">
  <g id="Group_347" data-name="Group 347">
    <path id="Path_427" data-name="Path 427" d="M0,0H30V30H0Z" fill="none"/>
  </g>
  <g id="Group_349" data-name="Group 349" transform="translate(2.5 5)">
    <g id="Group_348" data-name="Group 348">
      <path id="Path_428" data-name="Path 428" d="M24.5,4H4.5A2.507,2.507,0,0,0,2,6.5v15A2.507,2.507,0,0,0,4.5,24h20A2.507,2.507,0,0,0,27,21.5V6.5A2.507,2.507,0,0,0,24.5,4Zm0,17.5H4.5V6.5h20Z" transform="translate(-2 -4)" fill="#58beb4"/>
      <path id="Path_429" data-name="Path 429" d="M6.86,10.875V16.5H8.3V9H7.21l-2.2,1.588L5.735,11.7Z" transform="translate(-1.247 -2.75)" fill="#58beb4"/>
      <path id="Path_430" data-name="Path 430" d="M11.948,10.312a.92.92,0,0,1,1.012.9,1.812,1.812,0,0,1-.675,1.325c-.45.475-1.325,1.35-2.663,2.687V16.5h4.863V15.262H11.523l-.037-.062c.85-.85,1.437-1.425,1.75-1.738a3.29,3.29,0,0,0,1.15-2.325,2.027,2.027,0,0,0-1.137-1.85A2.928,2.928,0,0,0,10.81,9.25a2.326,2.326,0,0,0-1.25,1.438l1.262.525A1.181,1.181,0,0,1,11.948,10.312Z" transform="translate(-0.11 -2.75)" fill="#58beb4"/>
      <path id="Path_431" data-name="Path 431" d="M17.5,15.175A1.3,1.3,0,0,1,16.227,14.1l-1.287.512A2.552,2.552,0,0,0,17.5,16.5a2.465,2.465,0,0,0,2.2-1.062,2.032,2.032,0,0,0-.013-2.2,1.835,1.835,0,0,0-.85-.65V12.5a1.734,1.734,0,0,0,.65-.6,1.879,1.879,0,0,0-.025-1.962A2.353,2.353,0,0,0,17.44,9a2.335,2.335,0,0,0-2.313,1.55l1.238.513a1.072,1.072,0,0,1,1.063-.8.839.839,0,0,1,.938.813c0,.725-.687.9-1.1.9H16.69v1.25h.625c.7,0,1.3.3,1.3.988A1.053,1.053,0,0,1,17.5,15.175Z" transform="translate(1.235 -2.75)" fill="#58beb4"/>
    </g>
  </g>
</svg>
