<svg xmlns="http://www.w3.org/2000/svg" width="90.236" height="78.966" viewBox="0 0 90.236 78.966">
  <g id="ic-photo" transform="translate(-0.002 -1)">
    <path id="Path_2556" data-name="Path 2556" d="M11.463,22.921A8.461,8.461,0,1,0,3,14.461a8.461,8.461,0,0,0,8.461,8.461" transform="translate(13.921 23.202)" fill="#c1bfbf"/>
    <path id="Path_2557" data-name="Path 2557" d="M78.968,68.685A11.281,11.281,0,0,1,67.687,79.966h-56.4A11.281,11.281,0,0,1,0,68.685V23.562a11.281,11.281,0,0,1,11.27-11.281A11.281,11.281,0,0,1,22.553,1h56.4A11.281,11.281,0,0,1,90.238,12.281V57.4a11.281,11.281,0,0,1-11.27,11.281M78.957,6.64h-56.4a5.64,5.64,0,0,0-5.64,5.64H67.687A11.281,11.281,0,0,1,78.968,23.562V63.045A5.64,5.64,0,0,0,84.6,57.4V12.281a5.64,5.64,0,0,0-5.64-5.64M11.283,17.921a5.64,5.64,0,0,0-5.64,5.64V68.685L20.567,55.408a2.82,2.82,0,0,1,3.553-.35l15,10L60.05,44.133A2.82,2.82,0,0,1,63.3,43.6L73.328,54.584V23.562a5.64,5.64,0,0,0-5.64-5.64Z" transform="translate(0)" fill="#c1bfbf"/>
  </g>
</svg>
