<svg xmlns="http://www.w3.org/2000/svg" width="66.539" height="50.02" viewBox="0 0 66.539 50.02">
  <g id="ic-sign" transform="translate(-748.482 -662.502)">
    <g id="万年筆のイラスト1" transform="translate(748.482 662.502)">
      <path id="Path_2561" data-name="Path 2561" d="M49.288.738c-1.366-1.366-3.722-.755-6.219,1.274C40.806,3.807,28.951,13.4,22.747,19.368c-4.324,3.764-7.688,7.43-8.429,10.146a4.018,4.018,0,0,0-.131.724l-3.138,3.139L3.626,38.608a3.855,3.855,0,0,0-.5.419,3.787,3.787,0,0,0-1.012,1.828L0,50.025l9.172-2.116A3.79,3.79,0,0,0,11,46.9a3.667,3.667,0,0,0,.417-.5l5.232-7.422,3.139-3.138a3.947,3.947,0,0,0,.724-.131c2.715-.74,6.382-4.1,10.147-8.429,5.97-6.2,15.561-18.059,17.356-20.322C50.044,4.459,50.653,2.1,49.288.738ZM10.038,45.427a2.03,2.03,0,0,1-.232.275,2.1,2.1,0,0,1-1.013.562l-5.7,1.316,3.8-3.8a1.169,1.169,0,1,0-.642-.643l-3.8,3.8,1.317-5.7a2.1,2.1,0,0,1,.562-1.013,2.144,2.144,0,0,1,.275-.232l7.143-5.035,3.331,3.331Zm5.619-7.844L12.444,34.37l2.244-2.245a4.842,4.842,0,0,0,.564.656l1.993,1.993a4.853,4.853,0,0,0,.656.564Z" transform="translate(0 -0.005)" fill="#999"/>
    </g>
    <path id="Path_2562" data-name="Path 2562" d="M-1.164,8.767c.9-.317,2.947-1.236,3.909-1.594A162.233,162.233,0,0,1,25.416.606c.758-.161,1.75-.222,2.11.428a1.288,1.288,0,0,1,.082.854c-.3,1.6-1.847,2.675-2.99,3.892s-1.885,3.258-.613,4.359a3.887,3.887,0,0,0,2.156.715c10.093,1.115,20-2.621,29.393-6.285" transform="translate(758.82 700.874)" fill="none" stroke="#999" stroke-linecap="round" stroke-linejoin="round" stroke-width="1"/>
  </g>
</svg>
