<svg xmlns="http://www.w3.org/2000/svg" width="10.703" height="12.232" viewBox="0 0 10.703 12.232">
  <path id="ic-trash-orange" d="M8.645,1.147v.765h2.676a.382.382,0,1,1,0,.765H10.91l-.652,8.15a1.529,1.529,0,0,1-1.524,1.407H3.97a1.529,1.529,0,0,1-1.524-1.407L1.794,2.676H1.382a.382.382,0,0,1,0-.765H4.058V1.147A1.147,1.147,0,0,1,5.2,0H7.5A1.147,1.147,0,0,1,8.645,1.147m-3.823,0v.765H7.881V1.147A.382.382,0,0,0,7.5.765H5.2a.382.382,0,0,0-.382.382m-1.147,2.7.382,6.5a.382.382,0,1,0,.763-.046L4.439,3.8a.382.382,0,1,0-.763.046m4.992-.4a.382.382,0,0,0-.4.359l-.382,6.5a.382.382,0,0,0,.763.044l.382-6.5a.382.382,0,0,0-.359-.4m-2.316,0a.382.382,0,0,0-.382.382v6.5a.382.382,0,0,0,.765,0v-6.5a.382.382,0,0,0-.382-.382" transform="translate(-1)" fill="#f67250"/>
</svg>
