<svg xmlns="http://www.w3.org/2000/svg" width="24" height="24" viewBox="0 0 24 24">
  <g id="ic-work-item" transform="translate(-391 -6546)">
    <g id="川アイコン3" transform="translate(391 6535.591)">
      <path id="Path_2501" data-name="Path 2501" d="M216.438,17.524h0v1.318h1.449V17.521c1.438-.028,2.093-.839,1.53-2.98-.446-1.7-.574-4.132-2.295-4.132s-1.849,2.434-2.3,4.132C214.258,16.721,214.946,17.524,216.438,17.524Z" transform="translate(-204.569 0)" fill="#74c1ee"/>
      <path id="Path_2502" data-name="Path 2502" d="M328.413,73.2h.005V74.83h1.8V73.192c1.783-.035,2.6-1.041,1.9-3.7-.553-2.1-.711-5.123-2.846-5.123s-2.293,3.018-2.846,5.123C325.71,72.2,326.564,73.2,328.413,73.2Z" transform="translate(-310.882 -51.434)" fill="#74c1ee"/>
      <path id="Path_2503" data-name="Path 2503" d="M15.4,33.641c-5.045-2.2-7.523-3.027-9.265-5.138-1.784-2.16,1.925-5.413,4.127-6.879H6.654c-3.959,1.442-9.278,6.49-5.173,10.735a3.1,3.1,0,0,1,2.846-1.8c2.814,0,3.457,3.039,3.926,5.258.1.483.2.939.309,1.357a9.037,9.037,0,0,1,.308,1.882c1,1.717.705,3.271-.99,5.071H23.752C25.037,39.878,21.2,36.17,15.4,33.641Z" transform="translate(0 -10.689)" fill="#74c1ee"/>
      <path id="Path_2504" data-name="Path 2504" d="M20.3,233.723c-2.442,0-2.623,3.452-3.255,5.861-.814,3.093.163,4.233,2.279,4.233h.006v1.869H21.39v-1.873c2.039-.04,2.97-1.191,2.171-4.229C22.928,237.175,22.747,233.723,20.3,233.723Z" transform="translate(-15.978 -212.846)" fill="#74c1ee"/>
    </g>
    <rect id="Rectangle_765" data-name="Rectangle 765" width="24" height="24" transform="translate(391 6546)" fill="none"/>
  </g>
</svg>
