<svg xmlns="http://www.w3.org/2000/svg" width="30" height="30" viewBox="0 0 30 30">
  <g id="ic-workitems-white" transform="translate(-371 -472)">
    <g id="Group_706" data-name="Group 706" transform="translate(371 472)">
      <rect id="Rectangle_629" data-name="Rectangle 629" width="30" height="30" fill="none"/>
    </g>
    <g id="川アイコン3" transform="translate(372 462.591)">
      <path id="Path_2501" data-name="Path 2501" d="M216.8,18.946h.005v1.581h1.739V18.943c1.725-.033,2.512-1.007,1.836-3.576-.535-2.037-.688-4.958-2.754-4.958s-2.218,2.921-2.754,4.958C214.183,17.982,215.01,18.946,216.8,18.946Z" transform="translate(-202.558)" fill="#fff"/>
      <path id="Path_2502" data-name="Path 2502" d="M328.861,74.959h.007v1.96h2.156V74.955c2.139-.042,3.115-1.248,2.277-4.435-.664-2.525-.854-6.147-3.415-6.147s-2.751,3.622-3.415,6.147C325.618,73.764,326.642,74.959,328.861,74.959Z" transform="translate(-307.826 -50.929)" fill="#fff"/>
      <path id="Path_2503" data-name="Path 2503" d="M18.482,36.042C12.428,33.4,9.456,32.41,7.365,29.878c-2.141-2.592,2.31-6.495,4.952-8.254H7.984C3.233,23.354-3.148,29.411,1.777,34.5a3.715,3.715,0,0,1,3.415-2.166c3.376,0,4.147,3.646,4.711,6.309.122.579.238,1.126.371,1.628a10.844,10.844,0,0,1,.37,2.258c1.194,2.061.846,3.924-1.187,6.085H28.5C30.04,43.527,25.439,39.078,18.482,36.042Z" transform="translate(0 -10.584)" fill="#fff"/>
      <path id="Path_2504" data-name="Path 2504" d="M21.012,233.723c-2.93,0-3.147,4.142-3.906,7.032-.976,3.711.2,5.079,2.734,5.079h.008v2.243h2.467v-2.247c2.447-.048,3.564-1.429,2.6-5.074C24.16,237.865,23.943,233.723,21.012,233.723Z" transform="translate(-15.821 -210.754)" fill="#fff"/>
    </g>
  </g>
</svg>
