<svg xmlns="http://www.w3.org/2000/svg" width="24" height="24" viewBox="0 0 24 24">
  <g id="ic-working" transform="translate(-0.053 -0.053)">
    <g id="Group_706" data-name="Group 706" transform="translate(0.053 0.053)">
      <rect id="Rectangle_629" data-name="Rectangle 629" width="24" height="24" fill="none"/>
    </g>
    <g id="Group_710" data-name="Group 710" transform="translate(2.013 2.053)">
      <g id="Group_709" data-name="Group 709">
        <g id="Group_707" data-name="Group 707" transform="translate(10.793 11.819)">
          <path id="Path_2520" data-name="Path 2520" d="M21.632,18.147,16.355,12.87h-.986L12.84,15.4v.986l5.277,5.277a.992.992,0,0,0,1.4,0l2.111-2.111A.992.992,0,0,0,21.632,18.147Zm-2.818,1.414-4.222-4.222.707-.707,4.222,4.222Z" transform="translate(-12.84 -12.87)" fill="#74c1ee"/>
        </g>
        <g id="Group_708" data-name="Group 708">
          <path id="Path_2521" data-name="Path 2521" d="M17.274,10.15l1.4-1.4,2.111,2.111a2.987,2.987,0,0,0,0-4.222L17.264,3.111l-1.4,1.4V1.707L15.163,1,11.638,4.525l.707.707h2.818l-1.4,1.4,1.055,1.055-2.878,2.878L7.825,6.456V5.042L4.818,2.036,2,4.853,5.017,7.87h1.4l4.112,4.112-.846.846H7.576L2.3,18.106a.992.992,0,0,0,0,1.4L4.41,21.621a.992.992,0,0,0,1.4,0l5.277-5.277V14.233L16.218,9.1ZM9.328,15.278,5.107,19.5,4.4,18.793l4.222-4.222h0l.707.707Z" transform="translate(-2 -1)" fill="#74c1ee"/>
        </g>
      </g>
    </g>
  </g>
</svg>
