<svg xmlns="http://www.w3.org/2000/svg" width="42" height="42" viewBox="0 0 42 42">
  <g id="ic-workitems" transform="translate(-793 -2838)">
    <g id="川アイコン3" transform="translate(794 2829.591)">
      <path id="Path_2501" data-name="Path 2501" d="M217.643,22.268h.007v2.2h2.415v-2.2c2.4-.046,3.489-1.4,2.55-4.967-.744-2.829-.956-6.887-3.825-6.887s-3.081,4.057-3.826,6.887C214.009,20.929,215.157,22.268,217.643,22.268Z" transform="translate(-197.861)" fill="#c1bfbf"/>
      <path id="Path_2502" data-name="Path 2502" d="M329.907,79.078h.009V81.8h2.995V79.072c2.971-.059,4.327-1.734,3.163-6.16-.922-3.508-1.186-8.538-4.744-8.538s-3.821,5.031-4.743,8.538C325.4,77.418,326.825,79.078,329.907,79.078Z" transform="translate(-300.689 -49.748)" fill="#c1bfbf"/>
      <path id="Path_2503" data-name="Path 2503" d="M25.673,41.652c-8.409-3.67-12.538-5.045-15.442-8.563-2.974-3.6,3.209-9.022,6.879-11.465H11.09c-6.6,2.4-15.464,10.816-8.622,17.892a5.16,5.16,0,0,1,4.743-3.008c4.69,0,5.761,5.065,6.544,8.763.17.8.331,1.565.515,2.262a15.063,15.063,0,0,1,.514,3.137c1.658,2.862,1.175,5.451-1.649,8.452H39.587C41.728,52.048,35.336,45.868,25.673,41.652Z" transform="translate(0 -10.339)" fill="#c1bfbf"/>
      <path id="Path_2504" data-name="Path 2504" d="M22.665,233.723c-4.07,0-4.371,5.754-5.426,9.768-1.356,5.155.272,7.055,3.8,7.055h.011v3.115h3.426v-3.122c3.4-.067,4.951-1.985,3.618-7.048C27.037,239.477,26.736,233.723,22.665,233.723Z" transform="translate(-15.454 -205.867)" fill="#c1bfbf"/>
    </g>
    <rect id="Rectangle_732" data-name="Rectangle 732" width="42" height="42" transform="translate(793 2838)" fill="none"/>
  </g>
</svg>
