<svg xmlns="http://www.w3.org/2000/svg" xmlns:xlink="http://www.w3.org/1999/xlink" width="132.32" height="229.465" viewBox="0 0 132.32 229.465">
  <defs>
    <clipPath id="clip-path">
      <rect id="Rectangle_517" data-name="Rectangle 517" width="39.32" height="39.356" transform="translate(0 0)" fill="none"/>
    </clipPath>
    <clipPath id="clip-path-2">
      <rect id="Rectangle_518" data-name="Rectangle 518" width="30.41" height="30.719" transform="translate(0 0)" fill="none"/>
    </clipPath>
    <clipPath id="clip-path-3">
      <rect id="Rectangle_519" data-name="Rectangle 519" width="41.27" height="41.972" fill="none"/>
    </clipPath>
  </defs>
  <g id="img-butterfly" transform="translate(-1699 -771.635)">
    <g id="Group_585" data-name="Group 585" transform="translate(1792 857.952)">
      <g id="Group_584" data-name="Group 584" clip-path="url(#clip-path)">
        <path id="Path_1224" data-name="Path 1224" d="M39.311,16.449c-.2-1.917-4.9-3.1-9.8-3.194S19.437,16.88,19.437,16.88s.2-6.376-2.621-10.383S10.4-.753,8.695.153,8.5,3.809,8.426,5.094,8.084,6.308,8.36,7.221s-.022.755-.248,1.61.424,1.062.256,1.808-.39,2.162.62,2.839c.423.283,2.162,1.219,4.043,2.211-1.785-.037-4.588.006-5.309.6-1.082.887-.375.846-1.547,1.476s-.2,1.081-.454,1.709S4.584,20.61,5.032,21.2s.727.638.034,1.224-.047.232-.211,1.4-.165,1.167-1.867,1.933S-.573,27.481.167,28.5s1.782-.653,3.4-1.117,1.5-.666,2.3-.029,1.171-.771,1.71-.066,1.049,1.6,1.6.853.689-1.724,1.575-1.53,1.142.716,2.218-1.448,3.757-5.057,5.078-5.678c.222,1.442-.68,5.282-1.874,7.383s-.619,2.02.037,2.648-.074,1.284-.389,2.162.716.8,1.6.853-.076,1.144.9,1.455.741.324,1.259,1.924-.287,3.4.973,3.444,1.019-2.035.7-3.875-.315-1.84.561-2.628.943-.055,1.042-.957.3-.7,1.034-.655.668-.969,1.045-1.534,1.3-.006,1.165-1.331.229-.715.361-2.108c.088-.929-1.442-3.278-2.469-4.739,1.874,1.007,3.621,1.927,4.092,2.119,1.126.46,2.177-.513,2.7-1.07s1.061-.132,1.643-.8.286-.823,1.2-1.1.7-.462,1.727-1.242,4.146-1.066,3.948-2.983" fill="#8d9def"/>
      </g>
    </g>
    <g id="Group_587" data-name="Group 587" transform="translate(1761.59 771.635)">
      <g id="Group_586" data-name="Group 586" clip-path="url(#clip-path-2)">
        <path id="Path_1225" data-name="Path 1225" d="M27.663,18.017c1.417-1.213,3.075-1.809,2.69-4.66s-5.059-2.2-7.024-1.905c-1.749.267-8.072,3.378-9.445,4.061-.094-1.53-.561-8.562-1.2-10.21-.724-1.851-2.5-6.222-5.162-5.131S5.168,3,4.826,4.832,2.685,7.3,2.164,9.03c-.42,1.392.377,2.557,1.618,3.425a4.593,4.593,0,0,0-3.65,3.406c-.684,3.668,1.55,5.555.951,6.4s-.6.849.694,1.715,1.5,1.341,3.285.1,1.594.2,3.189-1.145a37.714,37.714,0,0,0,3.841-4.32A37.56,37.56,0,0,0,10.27,24.1c-.371,2.056.779,1.167.6,3.335s.338,2.107,1.733,2.793,1.4.687,1.832-.257,3.187.048,6.021-2.377a4.594,4.594,0,0,0,1.125-4.865c1.372.641,2.779.748,3.775-.311,1.238-1.317.887-3.192,2.3-4.405" fill="#ffaea6"/>
      </g>
    </g>
    <g id="Group_589" data-name="Group 589" transform="translate(1699 959.128)">
      <g id="Group_588" data-name="Group 588" clip-path="url(#clip-path-3)">
        <path id="Path_1226" data-name="Path 1226" d="M35.015.085c-2.555-.8-8.343,4.187-10.124,7.208-1.628,2.765-3.089,8.561-3.326,9.527-.85-.517-5.975-3.594-9.08-4.4-3.393-.886-11.013-.334-12.26,2.034s3.033,6.6,4.025,8.1c.941,1.427,1.731,3.692,5.038,2.434-.475,1.077-.913,2.465-.583,3.265a26.518,26.518,0,0,0,1.155,2.8c.542,1.012.591.683,1.655,1.912s2.607.777,3.624,1.594,2.387.992,3.072,2.5-.1,4.86.67,4.914.893-1.727,1.719-4.664c.773-2.746,3.4-12.516,3.734-13.78,1.132.656,9.883,5.73,12.368,7.13,2.657,1.5,4.007,2.671,4.51,2.094s-2.414-2.4-2.993-3.956.268-2.644.412-3.94,1.558-2.064,1.444-3.686.154-1.423-.176-2.522a26.477,26.477,0,0,0-1.156-2.8c-.33-.8-1.62-1.475-2.717-1.9,3.232-1.441,2.193-3.6,1.853-5.278C37.52,6.9,37.57.885,35.015.085" fill="#58cdff"/>
      </g>
    </g>
  </g>
</svg>
