<svg xmlns="http://www.w3.org/2000/svg" xmlns:xlink="http://www.w3.org/1999/xlink" width="426" height="77" viewBox="0 0 426 77">
  <defs>
    <clipPath id="clip-path">
      <rect id="Rectangle_581" data-name="Rectangle 581" width="426" height="77" transform="translate(1017 1709)" fill="#fff" stroke="#707070" stroke-width="1"/>
    </clipPath>
    <clipPath id="clip-path-2">
      <rect id="Rectangle_571" data-name="Rectangle 571" width="322.839" height="90.97" fill="none"/>
    </clipPath>
    <clipPath id="clip-path-3">
      <rect id="Rectangle_571-2" data-name="Rectangle 571" width="247.268" height="60.207" fill="none"/>
    </clipPath>
    <clipPath id="clip-path-4">
      <rect id="Rectangle_576" data-name="Rectangle 576" width="141.321" height="88.643" fill="none"/>
    </clipPath>
  </defs>
  <g id="img-bird-top" transform="translate(-1017 -1709)" clip-path="url(#clip-path)">
    <g id="Group_639" data-name="Group 639" transform="translate(969 1666.962)">
      <g id="Group_610" data-name="Group 610" transform="translate(151.1 55.072)">
        <g id="Group_609" data-name="Group 609" transform="translate(0 0)" clip-path="url(#clip-path-2)">
          <path id="Path_2156" data-name="Path 2156" d="M.62,90.37a8.972,8.972,0,0,1,4.355-3.775c2.607-1,5.584-.787,8.127-1.942,2.025-.917,3.582-2.617,5.454-3.819,9.573-6.147,22.238,2.483,33.411.343-3.655-6.137,3.253-15.2,10.139-13.3-6.121-4.8-6.33-15.36-.405-20.4,1.5-1.276,3.292-2.222,4.585-3.708,1.421-1.632,2.116-3.773,3.38-5.53,3.469-4.821,11.448-5.417,15.6-1.168,1.643,1.683,3.114,4.138,5.465,4.069,1.323-.039,2.446-.92,3.547-1.656,7.8-5.207,19.359-3.716,25.586,3.3,2.059-4.794,8.288-6.6,13.356-5.35s9.225,4.755,13.183,8.158c-1.354-5.95,3.7-12.488,9.8-12.681-4.658-4.957-4.035-13.868,1.267-18.13,2.327-1.87,5.3-2.882,7.376-5.03,2.544-2.635,3.558-6.806,6.83-8.452,5.568-2.8,11.169,3.926,17.275,5.179,3.131.641,6.376-.222,9.565-.009,6.669.45,12.121,5.489,16.069,10.882s7.087,11.5,12.12,15.9c.109-2.727,3.075-4.619,5.8-4.573s5.218,1.473,7.567,2.861a8.737,8.737,0,0,1,3.155-10.882,8.734,8.734,0,0,1,11.136,2.076c6.6-5.89,18.847-2.72,21.762,5.633,2.667-1.808,6.422-1.155,9.061.7s4.412,4.664,6.114,7.4q2.326,3.735,4.65,7.472c1.989,3.2,3.933,7.528,1.519,10.415,7.415-2.2,16.113,3.563,16.968,11.252a23.651,23.651,0,0,1,7.8-2.72V90.37Z" transform="translate(-0.009 -0.01)" fill="#5daf80"/>
          <path id="Path_2157" data-name="Path 2157" d="M.62,90.37a8.972,8.972,0,0,1,4.355-3.775c2.607-1,5.584-.787,8.127-1.942,2.025-.917,3.582-2.617,5.454-3.819,9.573-6.147,22.238,2.483,33.411.343-3.655-6.137,3.253-15.2,10.139-13.3-6.121-4.8-6.33-15.36-.405-20.4,1.5-1.276,3.292-2.222,4.585-3.708,1.421-1.632,2.116-3.773,3.38-5.53,3.469-4.821,11.448-5.417,15.6-1.168,1.643,1.683,3.114,4.138,5.465,4.069,1.323-.039,2.446-.92,3.547-1.656,7.8-5.207,19.359-3.716,25.586,3.3,2.059-4.794,8.288-6.6,13.356-5.35s9.225,4.755,13.183,8.158c-1.354-5.95,3.7-12.488,9.8-12.681-4.658-4.957-4.035-13.868,1.267-18.13,2.327-1.87,5.3-2.882,7.376-5.03,2.544-2.635,3.558-6.806,6.83-8.452,5.568-2.8,11.169,3.926,17.275,5.179,3.131.641,6.376-.222,9.565-.009,6.669.45,12.121,5.489,16.069,10.882s7.087,11.5,12.12,15.9c.109-2.727,3.075-4.619,5.8-4.573s5.218,1.473,7.567,2.861a8.737,8.737,0,0,1,3.155-10.882,8.734,8.734,0,0,1,11.136,2.076c6.6-5.89,18.847-2.72,21.762,5.633,2.667-1.808,6.422-1.155,9.061.7s4.412,4.664,6.114,7.4q2.326,3.735,4.65,7.472c1.989,3.2,3.933,7.528,1.519,10.415,7.415-2.2,16.113,3.563,16.968,11.252a23.651,23.651,0,0,1,7.8-2.72V90.37Z" transform="translate(-0.009 -0.01)" fill="none" stroke="#fff" stroke-linecap="round" stroke-linejoin="round" stroke-width="1.242"/>
          <path id="Path_2158" data-name="Path 2158" d="M109.235,73.887c1.07-1.4,4.022-1.76,5.608-1.76,1.175,0,3.036.453,1.953,1.865-1.07,1.4-4.022,1.758-5.607,1.758-1.176,0-3.037-.453-1.954-1.863" transform="translate(98.575 -1.169)" fill="#a2c683"/>
          <path id="Path_2159" data-name="Path 2159" d="M129.838,27.54c1.951,0,5.032,5.526,3.43,5.526-1.95,0-5.032-5.526-3.43-5.526" transform="translate(61.831 -0.446)" fill="#a2c683"/>
          <path id="Path_2160" data-name="Path 2160" d="M153.838,64.547c.68-1.008,1.991-2.531,3.349-2.531,1.317,0-.088,2.41-.339,2.782-.68,1.008-1.991,2.531-3.349,2.531-1.316,0,.089-2.41.339-2.782" transform="translate(14.633 -1.005)" fill="#a2c683"/>
          <path id="Path_2161" data-name="Path 2161" d="M149.462,84.888c.357-.723,2.235-.811,2.878-.811.777,0,1.321.255.965.976s-2.235.811-2.878.811c-.777,0-1.321-.255-.965-.976" transform="translate(22.493 -1.363)" fill="#a2c683"/>
          <path id="Path_2162" data-name="Path 2162" d="M193.567,66.53c2.237,0,3.471,6.833,2.007,6.833-2.238,0-3.472-6.833-2.007-6.833" transform="translate(-63.173 -1.079)" fill="#a2c683"/>
          <path id="Path_2163" data-name="Path 2163" d="M182.113,51.082a4.92,4.92,0,0,1,3.244-1.323c1.007,0,1.071.554.5,1.233a4.922,4.922,0,0,1-3.244,1.323c-1.008,0-1.072-.556-.5-1.233" transform="translate(-42.185 -0.807)" fill="#a2c683"/>
          <path id="Path_2164" data-name="Path 2164" d="M219.662,75.235a6.5,6.5,0,0,1,4.271,1.956c.863.967.552,1.623-.743,1.623a6.509,6.509,0,0,1-4.272-1.956c-.862-.968-.551-1.623.744-1.623" transform="translate(-116.471 -1.22)" fill="#a2c683"/>
          <path id="Path_2165" data-name="Path 2165" d="M233.689,54.34c3.339,0-.913,10.88-4.269,10.88-3.339,0,.913-10.88,4.269-10.88" transform="translate(-136.569 -0.881)" fill="#a2c683"/>
          <path id="Path_2166" data-name="Path 2166" d="M244.108,74.472c1.862,0,5.007.6,6.2,2.211,1.231,1.661-1.009,2-2.267,2-1.863,0-5.008-.6-6.2-2.212-1.231-1.66,1.009-2,2.267-2" transform="translate(-165.394 -1.207)" fill="#a2c683"/>
          <path id="Path_2167" data-name="Path 2167" d="M241.6,57.329c.466-1.546,4.283-1.973,5.463-1.973,1.005,0,4,.007,3.484,1.706-.467,1.545-4.284,1.974-5.463,1.974-1.005,0-4-.008-3.484-1.707" transform="translate(-165.395 -0.897)" fill="#a2c683"/>
          <path id="Path_2168" data-name="Path 2168" d="M122.469,65.465c3.033,0,2.866,11.53-.344,11.53-3.034,0-2.866-11.53.344-11.53" transform="translate(80.191 -1.061)" fill="#a2c683"/>
          <path id="Path_2169" data-name="Path 2169" d="M128.105,53.023a4.352,4.352,0,0,1,2.95-1.889c1.1,0-.265,2.045-.462,2.293a4.344,4.344,0,0,1-2.949,1.89c-1.1,0,.265-2.045.461-2.294" transform="translate(66.202 -0.829)" fill="#a2c683"/>
          <path id="Path_2170" data-name="Path 2170" d="M100.8,47.484a11.932,11.932,0,0,1,7.453-2.83c2.133,0,2.621,1.422,1.076,2.832a11.932,11.932,0,0,1-7.454,2.83c-2.132,0-2.621-1.422-1.075-2.832" transform="translate(114.326 -0.724)" fill="#a2c683"/>
          <path id="Path_2171" data-name="Path 2171" d="M69.027,71.173c.914-2.4,6.383-3.216,8.407-3.216,1.358,0,6.444-.069,5.447,2.546-.914,2.4-6.383,3.214-8.408,3.214-1.357,0-6.443.069-5.446-2.544" transform="translate(172.047 -1.102)" fill="#a2c683"/>
          <path id="Path_2172" data-name="Path 2172" d="M59.79,79.474A12.683,12.683,0,0,1,67.908,82.9c1.717,1.689,1.094,3.084-1.3,3.084a12.675,12.675,0,0,1-8.117-3.423c-1.718-1.688-1.094-3.085,1.3-3.085" transform="translate(197.374 -1.289)" fill="#a2c683"/>
          <path id="Path_2173" data-name="Path 2173" d="M58.6,32.007c4,0,5.39,13.207,2.232,13.207-4,0-5.39-13.207-2.232-13.207" transform="translate(204.32 -0.519)" fill="#a2c683"/>
          <path id="Path_2174" data-name="Path 2174" d="M31.87,76.036c.916-1.492,2.832-4.1,4.856-4.1,1.979,0,.111,3.587-.286,4.235-.916,1.492-2.833,4.1-4.856,4.1-1.979,0-.112-3.586.286-4.232" transform="translate(255.027 -1.166)" fill="#a2c683"/>
          <path id="Path_2175" data-name="Path 2175" d="M11.179,82.011c1.323,0,3.206,4.119,1.957,4.119-1.322,0-3.206-4.119-1.957-4.119" transform="translate(298.698 -1.33)" fill="#a2c683"/>
        </g>
      </g>
      <g id="Group_611" data-name="Group 611" transform="translate(0 83.108)">
        <g id="Group_609-2" data-name="Group 609" transform="translate(0 0)" clip-path="url(#clip-path-3)">
          <path id="Path_2156-2" data-name="Path 2156" d="M.62,60.019a6.679,6.679,0,0,1,3.336-2.5c2-.663,4.277-.521,6.225-1.285a35.832,35.832,0,0,0,4.177-2.528c7.332-4.068,17.033,1.643,25.59.227-2.8-4.062,2.492-10.06,7.766-8.8a8.32,8.32,0,0,1-.31-13.5,29.983,29.983,0,0,0,3.512-2.454c1.088-1.08,1.621-2.5,2.589-3.66,2.657-3.19,8.768-3.585,11.946-.773,1.258,1.114,2.385,2.739,4.186,2.693a5.914,5.914,0,0,0,2.716-1.1c5.977-3.446,14.827-2.459,19.6,2.185,1.577-3.173,6.348-4.366,10.229-3.541s7.066,3.147,10.1,5.4c-1.037-3.938,2.832-8.265,7.5-8.393a7.754,7.754,0,0,1,.971-12c1.782-1.238,4.063-1.908,5.65-3.329,1.949-1.744,2.725-4.5,5.232-5.594,4.265-1.853,8.554,2.6,13.231,3.427,2.4.425,4.883-.147,7.326-.006,5.108.3,9.284,3.632,12.308,7.2s5.428,7.613,9.283,10.524c.084-1.8,2.355-3.057,4.445-3.026a13.436,13.436,0,0,1,5.8,1.893,5.36,5.36,0,0,1,2.416-7.2,7.422,7.422,0,0,1,8.53,1.374c5.057-3.9,14.436-1.8,16.668,3.728,2.043-1.2,4.919-.764,6.94.461a16.747,16.747,0,0,1,4.683,4.9l3.562,4.945c1.524,2.116,3.012,4.982,1.163,6.893,5.679-1.458,12.342,2.358,13,7.447a20.073,20.073,0,0,1,5.975-1.8V60.019Z" transform="translate(-0.152 -0.217)" fill="#5daf80"/>
          <path id="Path_2157-2" data-name="Path 2157" d="M.62,60.019a6.679,6.679,0,0,1,3.336-2.5c2-.663,4.277-.521,6.225-1.285a35.832,35.832,0,0,0,4.177-2.528c7.332-4.068,17.033,1.643,25.59.227-2.8-4.062,2.492-10.06,7.766-8.8a8.32,8.32,0,0,1-.31-13.5,29.983,29.983,0,0,0,3.512-2.454c1.088-1.08,1.621-2.5,2.589-3.66,2.657-3.19,8.768-3.585,11.946-.773,1.258,1.114,2.385,2.739,4.186,2.693a5.914,5.914,0,0,0,2.716-1.1c5.977-3.446,14.827-2.459,19.6,2.185,1.577-3.173,6.348-4.366,10.229-3.541s7.066,3.147,10.1,5.4c-1.037-3.938,2.832-8.265,7.5-8.393a7.754,7.754,0,0,1,.971-12c1.782-1.238,4.063-1.908,5.65-3.329,1.949-1.744,2.725-4.5,5.232-5.594,4.265-1.853,8.554,2.6,13.231,3.427,2.4.425,4.883-.147,7.326-.006,5.108.3,9.284,3.632,12.308,7.2s5.428,7.613,9.283,10.524c.084-1.8,2.355-3.057,4.445-3.026a13.436,13.436,0,0,1,5.8,1.893,5.36,5.36,0,0,1,2.416-7.2,7.422,7.422,0,0,1,8.53,1.374c5.057-3.9,14.436-1.8,16.668,3.728,2.043-1.2,4.919-.764,6.94.461a16.747,16.747,0,0,1,4.683,4.9l3.562,4.945c1.524,2.116,3.012,4.982,1.163,6.893,5.679-1.458,12.342,2.358,13,7.447a20.073,20.073,0,0,1,5.975-1.8V60.019Z" transform="translate(-0.152 -0.217)" fill="none" stroke="#fff" stroke-linecap="round" stroke-linejoin="round" stroke-width="1.242"/>
          <path id="Path_2158-2" data-name="Path 2158" d="M109.158,73.292c.82-.923,3.08-1.165,4.295-1.165.9,0,2.325.3,1.5,1.234s-3.08,1.164-4.294,1.164c-.9,0-2.326-.3-1.5-1.233" transform="translate(50.007 -25.165)" fill="#a2c683"/>
          <path id="Path_2159-2" data-name="Path 2159" d="M129.733,27.54c1.494,0,3.854,3.657,2.627,3.657-1.493,0-3.854-3.657-2.627-3.657" transform="translate(17.069 -9.609)" fill="#a2c683"/>
          <path id="Path_2160-2" data-name="Path 2160" d="M153.628,63.691a3.87,3.87,0,0,1,2.565-1.675c1.009,0-.067,1.6-.26,1.841a3.87,3.87,0,0,1-2.565,1.675c-1.008,0,.068-1.6.26-1.841" transform="translate(-24.593 -21.638)" fill="#a2c683"/>
          <path id="Path_2161-2" data-name="Path 2161" d="M149.436,84.613c.274-.479,1.712-.537,2.2-.537.6,0,1.012.169.739.646s-1.712.537-2.2.537c-.6,0-1.012-.169-.739-.646" transform="translate(-17.732 -29.335)" fill="#a2c683"/>
          <path id="Path_2162-2" data-name="Path 2162" d="M193.418,66.53c1.713,0,2.658,4.523,1.537,4.523-1.714,0-2.659-4.523-1.537-4.523" transform="translate(-93.548 -23.213)" fill="#a2c683"/>
          <path id="Path_2163-2" data-name="Path 2163" d="M182.029,50.635a4.1,4.1,0,0,1,2.484-.876c.772,0,.821.367.385.816a4.1,4.1,0,0,1-2.484.876c-.772,0-.821-.368-.385-.816" transform="translate(-74.856 -17.361)" fill="#a2c683"/>
          <path id="Path_2164-2" data-name="Path 2164" d="M219.374,75.235a5.354,5.354,0,0,1,3.271,1.294c.661.64.423,1.074-.569,1.074a5.359,5.359,0,0,1-3.272-1.294c-.66-.641-.422-1.074.57-1.074" transform="translate(-140.339 -26.25)" fill="#a2c683"/>
          <path id="Path_2165-2" data-name="Path 2165" d="M232.405,54.34c2.557,0-.7,7.2-3.269,7.2s.7-7.2,3.269-7.2" transform="translate(-158.02 -18.959)" fill="#a2c683"/>
          <path id="Path_2166-2" data-name="Path 2166" d="M243.493,74.472c1.426,0,3.835.4,4.749,1.463.943,1.1-.773,1.326-1.736,1.326-1.427,0-3.836-.4-4.749-1.464-.943-1.1.773-1.325,1.736-1.325" transform="translate(-183.205 -25.984)" fill="#a2c683"/>
          <path id="Path_2167-2" data-name="Path 2167" d="M241.588,56.662c.357-1.024,3.281-1.306,4.184-1.306.77,0,3.061,0,2.668,1.129-.358,1.022-3.281,1.307-4.184,1.307-.77,0-3.061-.005-2.668-1.13" transform="translate(-183.22 -19.314)" fill="#a2c683"/>
          <path id="Path_2168-2" data-name="Path 2168" d="M121.88,65.465c2.323,0,2.195,7.631-.264,7.631-2.324,0-2.195-7.631.264-7.631" transform="translate(33.341 -22.841)" fill="#a2c683"/>
          <path id="Path_2169-2" data-name="Path 2169" d="M127.9,52.384a3.42,3.42,0,0,1,2.26-1.25c.845,0-.2,1.354-.354,1.518a3.414,3.414,0,0,1-2.259,1.251c-.845,0,.2-1.354.353-1.518" transform="translate(20.926 -17.841)" fill="#a2c683"/>
          <path id="Path_2170-2" data-name="Path 2170" d="M100.59,46.527a10.012,10.012,0,0,1,5.708-1.873c1.634,0,2.007.941.824,1.875a10.013,10.013,0,0,1-5.709,1.873c-1.633,0-2.007-.941-.824-1.875" transform="translate(64.18 -15.58)" fill="#a2c683"/>
          <path id="Path_2171-2" data-name="Path 2171" d="M69,70.085c.7-1.587,4.889-2.128,6.439-2.128,1.04,0,4.935-.046,4.172,1.685-.7,1.587-4.889,2.127-6.44,2.127-1.039,0-4.935.046-4.171-1.684" transform="translate(115.646 -23.71)" fill="#a2c683"/>
          <path id="Path_2172-2" data-name="Path 2172" d="M59.257,79.474a10.537,10.537,0,0,1,6.218,2.266c1.315,1.118.838,2.041-1,2.041a10.53,10.53,0,0,1-6.217-2.265c-1.316-1.117-.838-2.042,1-2.042" transform="translate(137.709 -27.729)" fill="#a2c683"/>
          <path id="Path_2173-2" data-name="Path 2173" d="M58.2,32.007c3.061,0,4.128,8.741,1.71,8.741-3.062,0-4.128-8.741-1.71-8.741" transform="translate(143.18 -11.167)" fill="#a2c683"/>
          <path id="Path_2174-2" data-name="Path 2174" d="M31.593,74.65c.7-.988,2.169-2.713,3.719-2.713,1.516,0,.085,2.374-.219,2.8-.7.988-2.17,2.711-3.719,2.711-1.516,0-.086-2.373.219-2.8" transform="translate(188.146 -25.099)" fill="#a2c683"/>
          <path id="Path_2175-2" data-name="Path 2175" d="M11.083,82.011c1.013,0,2.456,2.726,1.5,2.726-1.013,0-2.456-2.726-1.5-2.726" transform="translate(226.257 -28.614)" fill="#a2c683"/>
        </g>
      </g>
      <g id="Group_629" data-name="Group 629" transform="matrix(0.875, 0.485, -0.485, 0.875, 260.944, 0)">
        <g id="Group_628" data-name="Group 628" transform="translate(0)" clip-path="url(#clip-path-4)">
          <path id="Path_2280" data-name="Path 2280" d="M.019,64.478a9.419,9.419,0,0,1,2.793-4.816c1.6-1.589,2.979-3.791,5.149-4.664a4.217,4.217,0,0,0,.125,1.338A3.916,3.916,0,0,0,8.8,57.38l.06.081a8.364,8.364,0,0,1-.712-1.755c-1.586-5.471,2.705-9.283,7.283-10.983,5.536-2.054,11.428-1.041,17.22-.744,0-.01-.009-.022-.014-.033a25.822,25.822,0,0,0,8.093-.826c6.638-1.939,10.694-7.357,18-8.2,8.353-.965,16.778,1.83,24.9,3.312,4.817.879,7.111,1.57,11.181-1.786,7.2-5.933,14.9-11.4,22.135-17.309C123.927,13.437,130.462,7.33,135.673,0a6.767,6.767,0,0,1,2.279,5.375,12.152,12.152,0,0,1-.358,2.716c.594-.29.723.281.556,1.918a35.014,35.014,0,0,1-1.964,8.041c1.641.205,1.614,1.86,1.223,3.123a26.877,26.877,0,0,1-9.151,12.756h0a37.668,37.668,0,0,1-5.333,3.576,49.846,49.846,0,0,1-5.1,2.441h0a79.549,79.549,0,0,1-8.133,2.807h0c-2.594.76-5.218,1.437-7.83,2.107-1.873.48-3.758.958-5.666,1.249-.592.768-1.178,1.517-1.766,2.246-.109.141-.2.264-.278.363-.151.2-.3.388-.455.581-2,4.321-.212,8.142-.591,12.618a10.071,10.071,0,0,1-.481,2.542c.392.5.772,1,1.127,1.521a7.885,7.885,0,0,1,1.61,3.956A13.3,13.3,0,0,1,93.879,75.5c-.668,1.231-3.192,2.69-2.567,4.266a16.772,16.772,0,0,1,3.309.209c.732.211,1.782,1.046.767,1.776-.725.521-2.242-.458-3-.529-2.261-.211-4.879,1.776-6.551,3.045-.815.618-4.089,2.475-2.929.108.991-2.023,3.71-2.514,5.325-3.8a9.931,9.931,0,0,0-4.411.579c-1.3.431-2.745,1.386-4.173,1.065-.128-2.258,6.709-3.308,8.433-3.543,1.654-.225,1.91.483,2.6-1.252,1.234-3.118,3.023-5.45,2.071-9.063a6.617,6.617,0,0,0-1.419-2.381c-1.519.544-3.858-.928-6.617-1-3.32-.081-5.33,1.525-7.384,3.393.48.874.955,1.743,1.444,2.558.915-1.971,4.743-4.7,6.8-3.106-2.309,2.422-4.972,3.784-6.8,6.88-1.559,2.635-2.539,5.844-4.633,8.123-1.923-2.394,2.571-6.553,2.975-9.082.207-1.293-.769-2.481-1.666-3.67a19.42,19.42,0,0,1-2.109,1.607A34.943,34.943,0,0,1,42.1,75.457c-.023-.019-.045-.04-.068-.06-.319-.28-.648-.546-.977-.811-6.031-2.767-10.505-7.314-15.271-11.281A13.184,13.184,0,0,0,17.442,59.8c-3.023-.106-5.482.368-7.227-.806a2.8,2.8,0,0,1,.3.294c.255.314.091.559-.177.867-1.019,1.171-3.8,1.765-5.171,2.553-1.209.693-2.425,1.334-3.678,1.924-.855.4-1.621,1.014-1.472-.153" transform="translate(1.552 1.552)" fill="gray"/>
          <path id="Path_2281" data-name="Path 2281" d="M.019,64.478a9.419,9.419,0,0,1,2.793-4.816c1.6-1.589,2.979-3.791,5.149-4.664a4.217,4.217,0,0,0,.125,1.338A3.916,3.916,0,0,0,8.8,57.38l.06.081a8.364,8.364,0,0,1-.712-1.755c-1.586-5.471,2.705-9.283,7.283-10.983,5.536-2.054,11.428-1.041,17.22-.744,0-.01-.009-.022-.014-.033a25.822,25.822,0,0,0,8.093-.826c6.638-1.939,10.694-7.357,18-8.2,8.353-.965,16.778,1.83,24.9,3.312,4.817.879,7.111,1.57,11.181-1.786,7.2-5.933,14.9-11.4,22.135-17.309C123.927,13.437,130.462,7.33,135.673,0a6.767,6.767,0,0,1,2.279,5.375,12.152,12.152,0,0,1-.358,2.716c.594-.29.723.281.556,1.918a35.014,35.014,0,0,1-1.964,8.041c1.641.205,1.614,1.86,1.223,3.123a26.877,26.877,0,0,1-9.151,12.756h0a37.668,37.668,0,0,1-5.333,3.576,49.846,49.846,0,0,1-5.1,2.441h0a79.549,79.549,0,0,1-8.133,2.807h0c-2.594.76-5.218,1.437-7.83,2.107-1.873.48-3.758.958-5.666,1.249-.592.768-1.178,1.517-1.766,2.246-.109.141-.2.264-.278.363-.151.2-.3.388-.455.581-2,4.321-.212,8.142-.591,12.618a10.071,10.071,0,0,1-.481,2.542c.392.5.772,1,1.127,1.521a7.885,7.885,0,0,1,1.61,3.956A13.3,13.3,0,0,1,93.879,75.5c-.668,1.231-3.192,2.69-2.567,4.266a16.772,16.772,0,0,1,3.309.209c.732.211,1.782,1.046.767,1.776-.725.521-2.242-.458-3-.529-2.261-.211-4.879,1.776-6.551,3.045-.815.618-4.089,2.475-2.929.108.991-2.023,3.71-2.514,5.325-3.8a9.931,9.931,0,0,0-4.411.579c-1.3.431-2.745,1.386-4.173,1.065-.128-2.258,6.709-3.308,8.433-3.543,1.654-.225,1.91.483,2.6-1.252,1.234-3.118,3.023-5.45,2.071-9.063a6.617,6.617,0,0,0-1.419-2.381c-1.519.544-3.858-.928-6.617-1-3.32-.081-5.33,1.525-7.384,3.393.48.874.955,1.743,1.444,2.558.915-1.971,4.743-4.7,6.8-3.106-2.309,2.422-4.972,3.784-6.8,6.88-1.559,2.635-2.539,5.844-4.633,8.123-1.923-2.394,2.571-6.553,2.975-9.082.207-1.293-.769-2.481-1.666-3.67a19.42,19.42,0,0,1-2.109,1.607A34.943,34.943,0,0,1,42.1,75.457c-.023-.019-.045-.04-.068-.06-.319-.28-.648-.546-.977-.811-6.031-2.767-10.505-7.314-15.271-11.281A13.184,13.184,0,0,0,17.442,59.8c-3.023-.106-5.482.368-7.227-.806a2.8,2.8,0,0,1,.3.294c.255.314.091.559-.177.867-1.019,1.171-3.8,1.765-5.171,2.553-1.209.693-2.425,1.334-3.678,1.924C.636,65.033-.13,65.645.019,64.478Z" transform="translate(1.552 1.552)" fill="none" stroke="#fff" stroke-linecap="round" stroke-linejoin="round" stroke-width="3.104"/>
          <path id="Path_2282" data-name="Path 2282" d="M45.965,13.171C43.759,20.3,38.006,25.89,31.481,29.505s-13.839,5.5-21.064,7.356a38.872,38.872,0,0,1-8.55,1.524,1.9,1.9,0,0,1-1.682-.553,1.836,1.836,0,0,1,.181-1.843c2.893-5.428,9.711-7.21,14.454-11.126,1.432-1.182,2.681-2.57,4.065-3.808,3.1-2.773,6.812-4.744,10.327-6.965A88.22,88.22,0,0,0,44.84,1.193c1.718-1.742,2.118-1.664,1.867.815a34.99,34.99,0,0,1-1.965,8.041c1.642.2,1.614,1.86,1.223,3.122" transform="translate(92.995 9.553)" fill="#fff"/>
          <path id="Path_2283" data-name="Path 2283" d="M45.965,13.171C43.759,20.3,38.006,25.89,31.481,29.505s-13.839,5.5-21.064,7.356a38.872,38.872,0,0,1-8.55,1.524,1.9,1.9,0,0,1-1.682-.553,1.836,1.836,0,0,1,.181-1.843c2.893-5.428,9.711-7.21,14.454-11.126,1.432-1.182,2.681-2.57,4.065-3.808,3.1-2.773,6.812-4.744,10.327-6.965A88.22,88.22,0,0,0,44.84,1.193c1.718-1.742,2.118-1.664,1.867.815a34.99,34.99,0,0,1-1.965,8.041C46.384,10.253,46.356,11.909,45.965,13.171Z" transform="translate(92.995 9.553)" fill="none" stroke="#fff" stroke-miterlimit="10" stroke-width="0.477"/>
          <path id="Path_2284" data-name="Path 2284" d="M14.237,13.9a13.3,13.3,0,0,0,1.481-5.555,7.889,7.889,0,0,0-1.61-3.957A26.4,26.4,0,0,0,10.357,0c-.624,1.116-.069,2.527.687,3.558a10.27,10.27,0,0,1,2.06,3.2c.952,3.613-.836,5.946-2.07,9.063-.688,1.736-.944,1.027-2.6,1.252C6.712,17.307-.125,18.357,0,20.616c1.429.321,2.869-.635,4.174-1.065a9.914,9.914,0,0,1,4.411-.58c-1.615,1.29-4.334,1.781-5.325,3.8-1.16,2.367,2.114.511,2.929-.107,1.672-1.27,4.29-3.257,6.55-3.045.763.071,2.28,1.05,3.005.529,1.015-.731-.035-1.565-.767-1.777a16.777,16.777,0,0,0-3.309-.209c-.625-1.575,1.9-3.035,2.567-4.266" transform="translate(81.194 63.146)" fill="#f05a24"/>
          <path id="Path_2285" data-name="Path 2285" d="M14.237,13.9a13.3,13.3,0,0,0,1.481-5.555,7.889,7.889,0,0,0-1.61-3.957A26.4,26.4,0,0,0,10.357,0c-.624,1.116-.069,2.527.687,3.558a10.27,10.27,0,0,1,2.06,3.2c.952,3.613-.836,5.946-2.07,9.063-.688,1.736-.944,1.027-2.6,1.252C6.712,17.307-.125,18.357,0,20.616c1.429.321,2.869-.635,4.174-1.065a9.914,9.914,0,0,1,4.411-.58c-1.615,1.29-4.334,1.781-5.325,3.8-1.16,2.367,2.114.511,2.929-.107,1.672-1.27,4.29-3.257,6.55-3.045.763.071,2.28,1.05,3.005.529,1.015-.731-.035-1.565-.767-1.777a16.777,16.777,0,0,0-3.309-.209C11.045,16.591,13.569,15.131,14.237,13.9Z" transform="translate(81.194 63.146)" fill="none" stroke="#fff" stroke-miterlimit="10" stroke-width="0.477"/>
          <path id="Path_2286" data-name="Path 2286" d="M1.269,0C2.677,2.028,3.847,4.488,5.113,6.6c.915-1.971,4.743-4.7,6.8-3.106-2.309,2.422-4.972,3.784-6.8,6.88C3.551,13.008,2.57,16.218.476,18.5-1.447,16.1,3.047,11.944,3.452,9.415,3.9,6.589-1.3,4.265,1.034,1.336" transform="translate(75.21 65.878)" fill="#f05a24"/>
          <path id="Path_2287" data-name="Path 2287" d="M1.269,0C2.677,2.028,3.847,4.488,5.113,6.6c.915-1.971,4.743-4.7,6.8-3.106-2.309,2.422-4.972,3.784-6.8,6.88C3.551,13.008,2.57,16.218.476,18.5-1.447,16.1,3.047,11.944,3.452,9.415,3.9,6.589-1.3,4.265,1.034,1.336" transform="translate(75.21 65.878)" fill="none" stroke="#fff" stroke-miterlimit="10" stroke-width="0.477"/>
          <path id="Path_2288" data-name="Path 2288" d="M86.82,19.135c-7.233,5.908-14.94,11.376-22.135,17.309-4.07,3.356-6.364,2.665-11.181,1.785-8.127-1.481-16.551-4.277-24.9-3.311-7.309.845-11.365,6.263-18,8.2a25.825,25.825,0,0,1-8.093.826,11.619,11.619,0,0,1,.934,6.145,14.448,14.448,0,0,1-1.459,4.953c-1,1.979-2.223,4.006-1.937,6.32.479,3.869,3.706,7.657,6.662,9.993,1.725,1.363,3.543,2.588,5.2,4.04.023.02.045.041.068.06A34.943,34.943,0,0,0,43.2,71.678c4.122-2.674,6.083-6.832,11.376-6.7,4.449.109,7.807,3.874,8.394-3.055.38-4.5-1.43-8.33.614-12.672,1.144-2.432,1.642-7.422,3.991-8.9a10.608,10.608,0,0,1,3.256-1.129A62.082,62.082,0,0,0,96.85,25.909a32.265,32.265,0,0,0,5-5.215,36.464,36.464,0,0,0,4.644-9.451,17.878,17.878,0,0,0,1.324-5.868A6.767,6.767,0,0,0,105.542,0C100.331,7.33,93.8,13.437,86.82,19.135" transform="translate(31.683 1.552)" fill="#4a6ba0"/>
          <path id="Path_2289" data-name="Path 2289" d="M86.82,19.135c-7.233,5.908-14.94,11.376-22.135,17.309-4.07,3.356-6.364,2.665-11.181,1.785-8.127-1.481-16.551-4.277-24.9-3.311-7.309.845-11.365,6.263-18,8.2a25.825,25.825,0,0,1-8.093.826,11.619,11.619,0,0,1,.934,6.145,14.448,14.448,0,0,1-1.459,4.953c-1,1.979-2.223,4.006-1.937,6.32.479,3.869,3.706,7.657,6.662,9.993,1.725,1.363,3.543,2.588,5.2,4.04.023.02.045.041.068.06A34.943,34.943,0,0,0,43.2,71.678c4.122-2.674,6.083-6.832,11.376-6.7,4.449.109,7.807,3.874,8.394-3.055.38-4.5-1.43-8.33.614-12.672,1.144-2.432,1.642-7.422,3.991-8.9a10.608,10.608,0,0,1,3.256-1.129A62.082,62.082,0,0,0,96.85,25.909a32.265,32.265,0,0,0,5-5.215,36.464,36.464,0,0,0,4.644-9.451,17.878,17.878,0,0,0,1.324-5.868A6.767,6.767,0,0,0,105.542,0C100.331,7.33,93.8,13.437,86.82,19.135Z" transform="translate(31.683 1.552)" fill="none" stroke="#fff" stroke-miterlimit="10" stroke-width="0.477"/>
          <path id="Path_2290" data-name="Path 2290" d="M17.974,19.837c4.811,4,9.32,8.606,15.438,11.364.107.049.216.093.324.14-1.12-.884-2.264-1.738-3.4-2.612a21.64,21.64,0,0,1-6.655-8.293,7.64,7.64,0,0,1-.566-4.291,23.186,23.186,0,0,1,2.162-5.185,13.056,13.056,0,0,0,1.247-6.535A10.563,10.563,0,0,0,25.4.54C19.427.285,13.334-.865,7.619,1.255,3.041,2.954-1.25,6.767.336,12.238c1.482,5.1,4.758,3.935,9.3,4.093a13.184,13.184,0,0,1,8.342,3.506" transform="translate(9.361 45.02)" fill="#4d4d4d"/>
          <path id="Path_2291" data-name="Path 2291" d="M17.974,19.837c4.811,4,9.32,8.606,15.438,11.364.107.049.216.093.324.14-1.12-.884-2.264-1.738-3.4-2.612a21.64,21.64,0,0,1-6.655-8.293,7.64,7.64,0,0,1-.566-4.291,23.186,23.186,0,0,1,2.162-5.185,13.056,13.056,0,0,0,1.247-6.535A10.563,10.563,0,0,0,25.4.54C19.427.285,13.334-.865,7.619,1.255,3.041,2.954-1.25,6.767.336,12.238c1.482,5.1,4.758,3.935,9.3,4.093A13.184,13.184,0,0,1,17.974,19.837Z" transform="translate(9.361 45.02)" fill="none" stroke="#fff" stroke-miterlimit="10" stroke-width="0.477"/>
          <path id="Path_2292" data-name="Path 2292" d="M10.34,5.156c.268-.309.432-.553.177-.867s-.614-.542-.884-.835c-.306-.33-.557-.709-.835-1.072a3.98,3.98,0,0,1-.712-1.044A4.19,4.19,0,0,1,7.962,0C5.791.873,4.415,3.074,2.812,4.664A9.418,9.418,0,0,0,.019,9.48c-.149,1.167.617.555,1.473.153C2.745,9.043,3.961,8.4,5.169,7.708c1.374-.787,4.153-1.381,5.171-2.552" transform="translate(1.551 56.55)" fill="#f05a24"/>
          <path id="Path_2293" data-name="Path 2293" d="M10.34,5.156c.268-.309.432-.553.177-.867s-.614-.542-.884-.835c-.306-.33-.557-.709-.835-1.072a3.98,3.98,0,0,1-.712-1.044A4.19,4.19,0,0,1,7.962,0C5.791.873,4.415,3.074,2.812,4.664A9.418,9.418,0,0,0,.019,9.48c-.149,1.167.617.555,1.473.153C2.745,9.043,3.961,8.4,5.169,7.708,6.543,6.921,9.322,6.327,10.34,5.156Z" transform="translate(1.551 56.55)" fill="none" stroke="#fff" stroke-miterlimit="10" stroke-width="0.477"/>
          <path id="Path_2294" data-name="Path 2294" d="M2.23.081A1.7,1.7,0,1,0,1.21,3.314a1.733,1.733,0,0,0,2.5-1.042A1.916,1.916,0,0,0,2.23.081" transform="translate(11.421 55.151)" fill="#fff69f"/>
          <path id="Path_2295" data-name="Path 2295" d="M.032,24.107c-.679,4.262,9.529,9.805,12.993,11.27,7.345,3.107,14.775,1.935,21.7-1.523,4.244-2.12,7.737-5.221,11.688-7.843,6.465-4.29,11.642-7.38,16.33-13.6,1.205-1.6,7.2-8.968,6.707-11.27-.567-2.643-4.584,0-6.7,1.041-5.2,2.551-10.561,5.5-15.573,8.214.285-.753.784-.677,1.411-1.082" transform="translate(32.96 37.865)" fill="none" stroke="#fff" stroke-miterlimit="10" stroke-width="0.477"/>
          <path id="Path_2296" data-name="Path 2296" d="M20.508,3.627C22.853.519,20.838-.1,17.426.012,11.284.215,5.128.957,0,4.4" transform="translate(64.237 42.115)" fill="none" stroke="#fff" stroke-miterlimit="10" stroke-width="0.477"/>
          <path id="Path_2297" data-name="Path 2297" d="M1.308.048a1,1,0,1,0-.6,1.9,1.017,1.017,0,0,0,1.466-.611A1.126,1.126,0,0,0,1.308.048" transform="translate(12.197 55.88)" fill="#333"/>
          <path id="Path_2298" data-name="Path 2298" d="M11.007,17.961c3.482-2.6,5.819-5.653,8.451-9.073A36.318,36.318,0,0,0,21.924,5.13a13.789,13.789,0,0,0,1.811-3.1c.995-4.347-6.19-.482-7.65.347-3.172,1.8-6.627,3.1-9.8,4.917C4.228,8.472,2.114,9.562,0,10.572" transform="translate(78.794 38.119)" fill="#4a6ba0"/>
          <path id="Path_2299" data-name="Path 2299" d="M11.007,17.961c3.482-2.6,5.819-5.653,8.451-9.073A36.318,36.318,0,0,0,21.924,5.13a13.789,13.789,0,0,0,1.811-3.1c.995-4.347-6.19-.482-7.65.347-3.172,1.8-6.627,3.1-9.8,4.917C4.228,8.472,2.114,9.562,0,10.572" transform="translate(78.794 38.119)" fill="none" stroke="#fff" stroke-miterlimit="10" stroke-width="0.477"/>
          <path id="Path_2300" data-name="Path 2300" d="M0,0H0" transform="translate(129.808 35.482)" fill="#d7ecff"/>
          <path id="Path_2301" data-name="Path 2301" d="M0,0Z" transform="translate(129.808 35.482)" fill="none" stroke="#fff" stroke-miterlimit="10" stroke-width="0.477"/>
          <line id="Line_1" data-name="Line 1" transform="translate(119.377 41.5)" fill="#d7ecff"/>
          <path id="Path_2302" data-name="Path 2302" d="M0,0Z" transform="translate(119.377 41.5)" fill="none" stroke="#fff" stroke-miterlimit="10" stroke-width="0.477"/>
          <path id="Path_2303" data-name="Path 2303" d="M0,0H0" transform="translate(111.241 44.308)" fill="#d7ecff"/>
          <path id="Path_2304" data-name="Path 2304" d="M0,0H0Z" transform="translate(111.241 44.308)" fill="none" stroke="#fff" stroke-miterlimit="10" stroke-width="0.477"/>
          <path id="Path_2305" data-name="Path 2305" d="M0,5.092a3.327,3.327,0,0,1,.073-.638c.112-.1.231-.182.343-.279A35.318,35.318,0,0,0,4.59,0a1.565,1.565,0,0,1,.818,1c.431,1.153.21,2.539.481,3.742.186.823.563,1.639.783,2.473A31.27,31.27,0,0,1,1.692,12.2h0L.263,6.663A6.158,6.158,0,0,1,0,5.092" transform="translate(128.117 23.285)" fill="gray"/>
          <path id="Path_2306" data-name="Path 2306" d="M0,5.092a3.327,3.327,0,0,1,.073-.638c.112-.1.231-.182.343-.279A35.318,35.318,0,0,0,4.59,0a1.565,1.565,0,0,1,.818,1c.431,1.153.21,2.539.481,3.742.186.823.563,1.639.783,2.473A31.27,31.27,0,0,1,1.692,12.2h0L.263,6.663A6.158,6.158,0,0,1,0,5.092Z" transform="translate(128.117 23.285)" fill="none" stroke="#fff" stroke-miterlimit="10" stroke-width="0.477"/>
          <path id="Path_2307" data-name="Path 2307" d="M5.318,0a22.438,22.438,0,0,1,.6,3.224,16.828,16.828,0,0,1,.441,3.705c0,.235-.018.469-.037.7A50.5,50.5,0,0,1,1.572,9.9C.964,7.7.45,5.48,0,3.247A61.889,61.889,0,0,0,5.318,0" transform="translate(117.805 31.605)" fill="gray"/>
          <path id="Path_2308" data-name="Path 2308" d="M5.318,0a22.438,22.438,0,0,1,.6,3.224,16.828,16.828,0,0,1,.441,3.705c0,.235-.018.469-.037.7A50.5,50.5,0,0,1,1.572,9.9C.964,7.7.45,5.48,0,3.247A61.889,61.889,0,0,0,5.318,0Z" transform="translate(117.805 31.605)" fill="none" stroke="#fff" stroke-miterlimit="10" stroke-width="0.477"/>
          <path id="Path_2309" data-name="Path 2309" d="M0,2.633a5.108,5.108,0,0,1,.079-.981C1.677,1.172,3.249.609,4.8,0c.1.289.2.615.295,1.007a14.165,14.165,0,0,1,.3,5.1h0C3.844,6.567,2.28,6.991.714,7.4A16.832,16.832,0,0,1,0,2.633" transform="translate(105.842 38.197)" fill="gray"/>
          <path id="Path_2310" data-name="Path 2310" d="M0,2.633a5.108,5.108,0,0,1,.079-.981C1.677,1.172,3.249.609,4.8,0c.1.289.2.615.295,1.007a14.165,14.165,0,0,1,.3,5.1h0C3.844,6.567,2.28,6.991.714,7.4A16.832,16.832,0,0,1,0,2.633Z" transform="translate(105.842 38.197)" fill="none" stroke="#fff" stroke-miterlimit="10" stroke-width="0.477"/>
        </g>
      </g>
    </g>
  </g>
</svg>
