<svg xmlns="http://www.w3.org/2000/svg" xmlns:xlink="http://www.w3.org/1999/xlink" width="420" height="108" viewBox="0 0 420 108">
  <defs>
    <clipPath id="clip-path">
      <rect id="Rectangle_583" data-name="Rectangle 583" width="420" height="108" transform="translate(366 173)" fill="#fff" stroke="#707070" stroke-width="1"/>
    </clipPath>
    <clipPath id="clip-path-2">
      <rect id="Rectangle_572" data-name="Rectangle 572" width="90.885" height="102.365" fill="none"/>
    </clipPath>
    <clipPath id="clip-path-3">
      <rect id="Rectangle_571" data-name="Rectangle 571" width="322.839" height="90.971" fill="none"/>
    </clipPath>
    <clipPath id="clip-path-4">
      <rect id="Rectangle_571-2" data-name="Rectangle 571" width="247.268" height="60.207" fill="none"/>
    </clipPath>
  </defs>
  <g id="img-animal-top" transform="translate(-366 -173)" clip-path="url(#clip-path)">
    <g id="Group_639" data-name="Group 639">
      <g id="Group_613" data-name="Group 613" transform="translate(499.867 172.82)">
        <g id="Group_612" data-name="Group 612" clip-path="url(#clip-path-2)">
          <path id="Path_2176" data-name="Path 2176" d="M89.588,84.733A17.766,17.766,0,0,0,82.665,72.7c.378-.143.157-.72-.131-1a13.687,13.687,0,0,0-6.844-3.383,40.8,40.8,0,0,0-7.7-.613c-2.224-.036-6.212-.25-9.413.478-1.866-5.633-5.342-10.647-8.949-15.295-4.463-5.749-10.1-11.763-12.074-19.742C35.117,23.3,42.473,18.074,47.893,13.332a6.913,6.913,0,0,0,2.183-2.887C51.712,5.709,43.09,4.791,40.8,4.114,35.516,2.551,30.958.6,25.358,1.96A33.751,33.751,0,0,0,15.439,5.9,13.05,13.05,0,0,0,11.395,9.53c-1.093,1.639-1.148,3.6-1.93,5.4C5.811,23.35,3.847,32.828,2.658,42.28a114.577,114.577,0,0,0-.7,26.057c.9,8.646,3.27,17.166,7.5,24.017a8.357,8.357,0,0,0,1.855,2.287c2.015,1.539,4.305.52,6.481.795,1.676.212,2.978,1.3,4.691,1.411,5.01.333,10.223-.361,15.205-.976,3.2-.395,7.213-2.322,10.087-.677,2.657,1.52,4.677,3.926,7.327,5.46a2.828,2.828,0,0,0,1.554.493c1.148-.078,1.824-1.313,2.158-2.414a32.1,32.1,0,0,0,.911-9.442c-.012-3.8-.37-7.623-.326-11.407a9.483,9.483,0,0,1,.244-1.77c1.341-.047,2.684-.143,4.025-.163A13.471,13.471,0,0,1,71.1,77.564c2.588,1.628,4.062,4.522,5.269,7.332.924,2.15,1.772,4.583.956,6.778-.408,1.1-1.221,2.272-.7,3.321,3.546,0,7.5-.182,9.969-2.73a13.344,13.344,0,0,0,1.632-2.236A9.432,9.432,0,0,0,89.5,87.457a7.439,7.439,0,0,0,.093-2.724" transform="translate(-0.142 -0.142)" fill="#fff"/>
          <path id="Path_2177" data-name="Path 2177" d="M89.588,84.733A17.766,17.766,0,0,0,82.665,72.7c.378-.143.157-.72-.131-1a13.687,13.687,0,0,0-6.844-3.383,40.8,40.8,0,0,0-7.7-.613c-2.224-.036-6.212-.25-9.413.478-1.866-5.633-5.342-10.647-8.949-15.295-4.463-5.749-10.1-11.763-12.074-19.742C35.117,23.3,42.473,18.074,47.893,13.332a6.913,6.913,0,0,0,2.183-2.887C51.712,5.709,43.09,4.791,40.8,4.114,35.516,2.551,30.958.6,25.358,1.96A33.751,33.751,0,0,0,15.439,5.9,13.05,13.05,0,0,0,11.395,9.53c-1.093,1.639-1.148,3.6-1.93,5.4C5.811,23.35,3.847,32.828,2.658,42.28a114.577,114.577,0,0,0-.7,26.057c.9,8.646,3.27,17.166,7.5,24.017a8.357,8.357,0,0,0,1.855,2.287c2.015,1.539,4.305.52,6.481.795,1.676.212,2.978,1.3,4.691,1.411,5.01.333,10.223-.361,15.205-.976,3.2-.395,7.213-2.322,10.087-.677,2.657,1.52,4.677,3.926,7.327,5.46a2.828,2.828,0,0,0,1.554.493c1.148-.078,1.824-1.313,2.158-2.414a32.1,32.1,0,0,0,.911-9.442c-.012-3.8-.37-7.623-.326-11.407a9.483,9.483,0,0,1,.244-1.77c1.341-.047,2.684-.143,4.025-.163A13.471,13.471,0,0,1,71.1,77.564c2.588,1.628,4.062,4.522,5.269,7.332.924,2.15,1.772,4.583.956,6.778-.408,1.1-1.221,2.272-.7,3.321,3.546,0,7.5-.182,9.969-2.73a13.344,13.344,0,0,0,1.632-2.236A9.432,9.432,0,0,0,89.5,87.457,7.439,7.439,0,0,0,89.588,84.733Z" transform="translate(-0.142 -0.142)" fill="none" stroke="#fff" stroke-linecap="round" stroke-linejoin="round" stroke-width="3"/>
          <path id="Path_2178" data-name="Path 2178" d="M37.7,95.87c-4.983.615-10.2,1.309-15.205.976-1.713-.114-3.015-1.2-4.691-1.411-2.176-.275-4.467.744-6.481-.795a8.338,8.338,0,0,1-1.855-2.287c-4.233-6.851-6.6-15.371-7.5-24.017a114.584,114.584,0,0,1,.7-26.058c1.19-9.451,3.154-18.928,6.808-27.35.781-1.8.836-3.759,1.929-5.4A13.06,13.06,0,0,1,15.439,5.9,33.756,33.756,0,0,1,25.359,1.96C30.958.6,35.516,2.551,40.8,4.113c2.29.677,10.912,1.6,9.276,6.333a6.912,6.912,0,0,1-2.182,2.887C42.473,18.074,35.118,23.3,37.551,33.142c1.974,7.98,7.611,13.994,12.073,19.742,3.914,5.042,7.7,10.509,9.411,16.738a18.919,18.919,0,0,1,.824,4.86c0,1.169-.44,2.231-.454,3.4-.043,3.785.315,7.612.326,11.408a32.1,32.1,0,0,1-.911,9.442c-.334,1.1-1.009,2.336-2.157,2.413a2.818,2.818,0,0,1-1.555-.493c-2.649-1.533-4.669-3.939-7.326-5.459-2.875-1.645-6.885.283-10.087.677" transform="translate(-0.142 -0.142)" fill="#998675"/>
          <path id="Path_2179" data-name="Path 2179" d="M73.436,74.607a40.791,40.791,0,0,1,7.7.613A13.68,13.68,0,0,1,87.983,78.6c.289.283.51.859.131,1a17.762,17.762,0,0,1,6.924,12.034,7.439,7.439,0,0,1-.092,2.724,9.427,9.427,0,0,1-1.272,2.574,13.366,13.366,0,0,1-1.632,2.236c-2.466,2.548-6.423,2.73-9.969,2.729-.52-1.049.292-2.224.7-3.321.816-2.194-.032-4.628-.956-6.778-1.207-2.81-2.68-5.7-5.269-7.332a13.469,13.469,0,0,0-7.424-1.614,59.042,59.042,0,0,1-7.7.065A2.7,2.7,0,0,1,60.1,82.5a2.314,2.314,0,0,1-.768-1.354C57.55,73.753,69,74.535,73.436,74.607" transform="translate(-5.592 -7.049)" fill="#998675"/>
          <path id="Path_2180" data-name="Path 2180" d="M16.443,48.284c2.39,2.24,4.855,4.528,7.893,5.755,1.447.585,2.986.911,4.446,1.463a24.117,24.117,0,0,1,7.7,5.2c.908.847,1.865,1.952,1.615,3.169a5.78,5.78,0,0,1-1.591-.475,4.741,4.741,0,0,1,.829,2.364,2.86,2.86,0,0,1-2.15-.4,1.36,1.36,0,0,1-1.412,2.213" transform="translate(-1.555 -4.565)" fill="none" stroke="#736357" stroke-linecap="round" stroke-linejoin="round" stroke-width="1.586"/>
          <path id="Path_2181" data-name="Path 2181" d="M40.793,69.195a108.779,108.779,0,0,0-1.759,17.656c-.037,2.117.148,4.565,1.867,5.8a11.661,11.661,0,0,1,1.18-2.858,8.7,8.7,0,0,1,1.491,1.967,4.158,4.158,0,0,0,.991-1.209l1.365,1.2c.87-5,3.41-9.541,4.707-14.442a29.8,29.8,0,0,0,.924-5.631" transform="translate(-3.69 -6.542)" fill="none" stroke="#736357" stroke-linecap="round" stroke-linejoin="round" stroke-width="1.586"/>
          <path id="Path_2182" data-name="Path 2182" d="M37.884,8.787A1.584,1.584,0,1,1,36.3,7.2a1.584,1.584,0,0,1,1.585,1.585" transform="translate(-3.282 -0.681)" fill="#333"/>
          <path id="Path_2183" data-name="Path 2183" d="M22.972,8.365a.632.632,0,0,0-.464.011,5.562,5.562,0,0,0-2.4,1.33,3.169,3.169,0,0,0-.97,2.5,4.732,4.732,0,0,0,.535,1.559,3.114,3.114,0,0,0,.6.911,2.923,2.923,0,0,0,1.872.625,2.975,2.975,0,0,0,1.825-.323" transform="translate(-1.808 -0.787)" fill="none" stroke="#736357" stroke-linecap="round" stroke-linejoin="round" stroke-width="1.586"/>
          <path id="Path_2184" data-name="Path 2184" d="M52.127,8.484a1.166,1.166,0,0,0-.646.45,1.107,1.107,0,0,0,.133,1.1,2.659,2.659,0,0,0,.676.739,1.734,1.734,0,0,0,.729.337,1.022,1.022,0,0,0,.772-.159,1.228,1.228,0,0,0,.3-.34,3.581,3.581,0,0,0,.455-1.342.825.825,0,0,0-.057-.589c-.441-.666-1.775-.4-2.361-.2" transform="translate(-4.858 -0.781)" fill="#ffa08d"/>
          <path id="Path_2185" data-name="Path 2185" d="M9.441,26.708c-.1.46-.18.928-.244,1.393a1.834,1.834,0,0,0,1.408-.507c.392-.334.7-.752,1.079-1.1.091-.085.209-.171.328-.134.152.048.173.25.237.4a.769.769,0,0,0,1.094.2,3.525,3.525,0,0,0,.827-.945A3.99,3.99,0,0,1,15.486,24.9a.832.832,0,0,1,.626-.12c.453.149.448.872.875,1.086a.958.958,0,0,0,.843-.126c.444-.233,4.083-2.786,4.105-2.746q.334.584.667,1.167A19.161,19.161,0,0,0,27.9,21.631a2.511,2.511,0,0,1,.773-.412,5.451,5.451,0,0,1,1-.043A2.8,2.8,0,0,0,31.7,19.9a8.309,8.309,0,0,0,.984-2.266,12.024,12.024,0,0,1-4.772,1.813,8.524,8.524,0,0,0-1.378.126,6.235,6.235,0,0,0-1.666.83,8.338,8.338,0,0,1-2.659,1.408.46.46,0,0,1-.311-.028c-.169-.1-.154-.347-.2-.538-.146-.542-.9-.668-1.413-.435-.906.416-1.627,1.24-2.522,1.715a2.194,2.194,0,0,1-.544.23,2.21,2.21,0,0,1-.674.009l-.7-.062a.489.489,0,0,1-.231-.06.84.84,0,0,1-.158-.177.833.833,0,0,0-1.024-.1,2.65,2.65,0,0,0-.771.795,2.094,2.094,0,0,1-.812.745.273.273,0,0,1-.182.025.284.284,0,0,1-.134-.115,4.149,4.149,0,0,1-.415-1.55.313.313,0,0,0-.138-.228c-.11-.052-.235.032-.324.115a9.443,9.443,0,0,0-1.38,2.379,7.18,7.18,0,0,0-.836,2.18" transform="translate(-0.87 -1.667)" fill="#fff"/>
        </g>
      </g>
      <g id="Group_610" data-name="Group 610" transform="translate(353.84 219.499)">
        <g id="Group_609" data-name="Group 609" transform="translate(0 0)" clip-path="url(#clip-path-3)">
          <path id="Path_2156" data-name="Path 2156" d="M322.238,90.37a8.972,8.972,0,0,0-4.355-3.775c-2.607-1-5.584-.787-8.127-1.942-2.025-.917-3.582-2.617-5.454-3.819-9.573-6.147-22.238,2.483-33.411.343,3.655-6.137-3.253-15.2-10.139-13.3,6.121-4.8,6.33-15.36.405-20.4-1.5-1.276-3.292-2.222-4.585-3.708-1.421-1.632-2.116-3.773-3.38-5.53-3.469-4.821-11.448-5.417-15.6-1.168-1.643,1.683-3.114,4.138-5.465,4.069-1.323-.039-2.446-.92-3.547-1.656-7.8-5.207-19.359-3.716-25.586,3.3-2.059-4.794-8.288-6.6-13.356-5.35s-9.225,4.755-13.183,8.158c1.354-5.95-3.7-12.488-9.8-12.681,4.658-4.957,4.035-13.868-1.267-18.13-2.327-1.87-5.3-2.882-7.376-5.03-2.544-2.635-3.558-6.806-6.83-8.452-5.568-2.8-11.169,3.926-17.275,5.179-3.131.641-6.376-.222-9.565-.009-6.669.45-12.121,5.489-16.069,10.882s-7.087,11.5-12.12,15.9c-.109-2.727-3.075-4.619-5.8-4.573s-5.218,1.473-7.567,2.861a8.737,8.737,0,0,0-3.155-10.882A8.734,8.734,0,0,0,68.5,22.732c-6.6-5.89-18.847-2.72-21.762,5.633-2.667-1.808-6.422-1.155-9.061.7s-4.412,4.664-6.114,7.4q-2.326,3.735-4.65,7.472c-1.989,3.2-3.933,7.528-1.519,10.415C17.975,52.145,9.276,57.912,8.421,65.6a23.651,23.651,0,0,0-7.8-2.72V90.37Z" transform="translate(-0.01 -0.01)" fill="#5daf80"/>
          <path id="Path_2157" data-name="Path 2157" d="M322.238,90.37a8.972,8.972,0,0,0-4.355-3.775c-2.607-1-5.584-.787-8.127-1.942-2.025-.917-3.582-2.617-5.454-3.819-9.573-6.147-22.238,2.483-33.411.343,3.655-6.137-3.253-15.2-10.139-13.3,6.121-4.8,6.33-15.36.405-20.4-1.5-1.276-3.292-2.222-4.585-3.708-1.421-1.632-2.116-3.773-3.38-5.53-3.469-4.821-11.448-5.417-15.6-1.168-1.643,1.683-3.114,4.138-5.465,4.069-1.323-.039-2.446-.92-3.547-1.656-7.8-5.207-19.359-3.716-25.586,3.3-2.059-4.794-8.288-6.6-13.356-5.35s-9.225,4.755-13.183,8.158c1.354-5.95-3.7-12.488-9.8-12.681,4.658-4.957,4.035-13.868-1.267-18.13-2.327-1.87-5.3-2.882-7.376-5.03-2.544-2.635-3.558-6.806-6.83-8.452-5.568-2.8-11.169,3.926-17.275,5.179-3.131.641-6.376-.222-9.565-.009-6.669.45-12.121,5.489-16.069,10.882s-7.087,11.5-12.12,15.9c-.109-2.727-3.075-4.619-5.8-4.573s-5.218,1.473-7.567,2.861a8.737,8.737,0,0,0-3.155-10.882A8.734,8.734,0,0,0,68.5,22.732c-6.6-5.89-18.847-2.72-21.762,5.633-2.667-1.808-6.422-1.155-9.061.7s-4.412,4.664-6.114,7.4q-2.326,3.735-4.65,7.472c-1.989,3.2-3.933,7.528-1.519,10.415C17.975,52.145,9.276,57.912,8.421,65.6a23.651,23.651,0,0,0-7.8-2.72V90.37Z" transform="translate(-0.01 -0.01)" fill="none" stroke="#fff" stroke-linecap="round" stroke-linejoin="round" stroke-width="1.242"/>
          <path id="Path_2158" data-name="Path 2158" d="M116.795,73.887c-1.07-1.4-4.022-1.76-5.608-1.76-1.175,0-3.036.453-1.953,1.865,1.07,1.4,4.022,1.758,5.607,1.758,1.176,0,3.037-.453,1.954-1.863" transform="translate(-1.766 -1.169)" fill="#a2c683"/>
          <path id="Path_2159" data-name="Path 2159" d="M133.268,27.54c-1.951,0-5.032,5.526-3.43,5.526,1.95,0,5.032-5.526,3.43-5.526" transform="translate(-2.098 -0.446)" fill="#a2c683"/>
          <path id="Path_2160" data-name="Path 2160" d="M156.848,64.547c-.68-1.008-1.991-2.531-3.349-2.531-1.317,0,.088,2.41.339,2.782.68,1.008,1.991,2.531,3.349,2.531,1.316,0-.089-2.41-.339-2.782" transform="translate(-2.48 -1.005)" fill="#a2c683"/>
          <path id="Path_2161" data-name="Path 2161" d="M153.3,84.888c-.357-.723-2.235-.811-2.878-.811-.777,0-1.321.255-.965.976s2.235.811,2.878.811c.777,0,1.321-.255.965-.976" transform="translate(-2.422 -1.363)" fill="#a2c683"/>
          <path id="Path_2162" data-name="Path 2162" d="M195.573,66.53c-2.237,0-3.471,6.833-2.007,6.833,2.238,0,3.472-6.833,2.007-6.833" transform="translate(-3.129 -1.079)" fill="#a2c683"/>
          <path id="Path_2163" data-name="Path 2163" d="M185.858,51.082a4.92,4.92,0,0,0-3.244-1.323c-1.007,0-1.071.554-.5,1.233a4.922,4.922,0,0,0,3.244,1.323c1.008,0,1.072-.556.5-1.233" transform="translate(-2.947 -0.807)" fill="#a2c683"/>
          <path id="Path_2164" data-name="Path 2164" d="M223.19,75.235a6.5,6.5,0,0,0-4.271,1.956c-.863.967-.552,1.623.743,1.623a6.509,6.509,0,0,0,4.272-1.956c.862-.968.551-1.623-.744-1.623" transform="translate(-3.542 -1.22)" fill="#a2c683"/>
          <path id="Path_2165" data-name="Path 2165" d="M229.42,54.34c-3.339,0,.913,10.88,4.269,10.88,3.339,0-.913-10.88-4.269-10.88" transform="translate(-3.701 -0.881)" fill="#a2c683"/>
          <path id="Path_2166" data-name="Path 2166" d="M248.041,74.472c-1.862,0-5.007.6-6.2,2.211-1.231,1.661,1.009,2,2.267,2,1.863,0,5.008-.6,6.2-2.212,1.231-1.66-1.009-2-2.267-2" transform="translate(-3.916 -1.207)" fill="#a2c683"/>
          <path id="Path_2167" data-name="Path 2167" d="M250.549,57.329c-.466-1.547-4.283-1.973-5.463-1.973-1.005,0-4,.007-3.484,1.706.467,1.545,4.284,1.974,5.463,1.974,1.005,0,4-.008,3.484-1.707" transform="translate(-3.917 -0.897)" fill="#a2c683"/>
          <path id="Path_2168" data-name="Path 2168" d="M122.124,65.465c-3.033,0-2.866,11.53.344,11.53,3.034,0,2.866-11.53-.344-11.53" transform="translate(-1.945 -1.061)" fill="#a2c683"/>
          <path id="Path_2169" data-name="Path 2169" d="M130.594,53.023a4.352,4.352,0,0,0-2.95-1.889c-1.1,0,.265,2.045.462,2.293a4.344,4.344,0,0,0,2.949,1.89c1.1,0-.265-2.045-.461-2.294" transform="translate(-2.063 -0.829)" fill="#a2c683"/>
          <path id="Path_2170" data-name="Path 2170" d="M109.331,47.484a11.932,11.932,0,0,0-7.453-2.83c-2.133,0-2.621,1.422-1.076,2.832a11.932,11.932,0,0,0,7.454,2.83c2.132,0,2.621-1.422,1.075-2.832" transform="translate(-1.62 -0.724)" fill="#a2c683"/>
          <path id="Path_2171" data-name="Path 2171" d="M82.882,71.173c-.914-2.4-6.383-3.216-8.407-3.216-1.358,0-6.444-.069-5.447,2.546.914,2.4,6.383,3.214,8.408,3.214,1.357,0,6.443.069,5.446-2.544" transform="translate(-1.117 -1.102)" fill="#a2c683"/>
          <path id="Path_2172" data-name="Path 2172" d="M66.607,79.474A12.683,12.683,0,0,0,58.489,82.9c-1.717,1.689-1.094,3.084,1.3,3.084a12.675,12.675,0,0,0,8.117-3.423c1.718-1.688,1.094-3.085-1.3-3.085" transform="translate(-0.933 -1.289)" fill="#a2c683"/>
          <path id="Path_2173" data-name="Path 2173" d="M60.837,32.007c-4,0-5.39,13.207-2.232,13.207,4,0,5.39-13.207,2.232-13.207" transform="translate(-0.922 -0.519)" fill="#a2c683"/>
          <path id="Path_2174" data-name="Path 2174" d="M36.439,76.036c-.916-1.492-2.832-4.1-4.856-4.1-1.979,0-.111,3.587.286,4.235.916,1.492,2.833,4.1,4.856,4.1,1.979,0,.112-3.586-.286-4.232" transform="translate(-0.498 -1.166)" fill="#a2c683"/>
          <path id="Path_2175" data-name="Path 2175" d="M13.136,82.011c-1.323,0-3.206,4.119-1.957,4.119,1.322,0,3.206-4.119,1.957-4.119" transform="translate(-0.175 -1.33)" fill="#a2c683"/>
        </g>
      </g>
      <g id="Group_611" data-name="Group 611" transform="translate(580.511 247.536)">
        <g id="Group_609-2" data-name="Group 609" transform="translate(0 0)" clip-path="url(#clip-path-4)">
          <path id="Path_2156-2" data-name="Path 2156" d="M246.953,60.019a6.679,6.679,0,0,0-3.336-2.5c-2-.663-4.277-.521-6.225-1.285a35.833,35.833,0,0,1-4.177-2.528c-7.332-4.068-17.033,1.643-25.59.227,2.8-4.062-2.492-10.06-7.766-8.8a8.32,8.32,0,0,0,.31-13.5,29.983,29.983,0,0,1-3.512-2.454c-1.088-1.08-1.621-2.5-2.589-3.66-2.657-3.19-8.768-3.585-11.946-.773-1.258,1.114-2.385,2.739-4.186,2.693a5.914,5.914,0,0,1-2.716-1.1c-5.977-3.446-14.827-2.459-19.6,2.185-1.577-3.173-6.348-4.366-10.229-3.541s-7.066,3.147-10.1,5.4c1.037-3.938-2.832-8.265-7.5-8.393a7.754,7.754,0,0,0-.971-12c-1.782-1.238-4.063-1.908-5.65-3.329-1.949-1.744-2.725-4.5-5.232-5.594-4.265-1.853-8.554,2.6-13.231,3.427-2.4.425-4.883-.147-7.326-.006-5.108.3-9.284,3.632-12.308,7.2S77.649,19.3,73.794,22.215c-.084-1.8-2.355-3.057-4.445-3.026a13.436,13.436,0,0,0-5.8,1.893,5.36,5.36,0,0,0-2.416-7.2,7.422,7.422,0,0,0-8.53,1.374c-5.057-3.9-14.436-1.8-16.668,3.728-2.043-1.2-4.919-.764-6.94.461a16.747,16.747,0,0,0-4.683,4.9l-3.562,4.945c-1.524,2.116-3.012,4.982-1.163,6.893-5.679-1.458-12.342,2.358-13,7.447a20.073,20.073,0,0,0-5.975-1.8V60.019Z" transform="translate(-0.153 -0.217)" fill="#5daf80"/>
          <path id="Path_2157-2" data-name="Path 2157" d="M246.953,60.019a6.679,6.679,0,0,0-3.336-2.5c-2-.663-4.277-.521-6.225-1.285a35.833,35.833,0,0,1-4.177-2.528c-7.332-4.068-17.033,1.643-25.59.227,2.8-4.062-2.492-10.06-7.766-8.8a8.32,8.32,0,0,0,.31-13.5,29.983,29.983,0,0,1-3.512-2.454c-1.088-1.08-1.621-2.5-2.589-3.66-2.657-3.19-8.768-3.585-11.946-.773-1.258,1.114-2.385,2.739-4.186,2.693a5.914,5.914,0,0,1-2.716-1.1c-5.977-3.446-14.827-2.459-19.6,2.185-1.577-3.173-6.348-4.366-10.229-3.541s-7.066,3.147-10.1,5.4c1.037-3.938-2.832-8.265-7.5-8.393a7.754,7.754,0,0,0-.971-12c-1.782-1.238-4.063-1.908-5.65-3.329-1.949-1.744-2.725-4.5-5.232-5.594-4.265-1.853-8.554,2.6-13.231,3.427-2.4.425-4.883-.147-7.326-.006-5.108.3-9.284,3.632-12.308,7.2S77.649,19.3,73.794,22.215c-.084-1.8-2.355-3.057-4.445-3.026a13.436,13.436,0,0,0-5.8,1.893,5.36,5.36,0,0,0-2.416-7.2,7.422,7.422,0,0,0-8.53,1.374c-5.057-3.9-14.436-1.8-16.668,3.728-2.043-1.2-4.919-.764-6.94.461a16.747,16.747,0,0,0-4.683,4.9l-3.562,4.945c-1.524,2.116-3.012,4.982-1.163,6.893-5.679-1.458-12.342,2.358-13,7.447a20.073,20.073,0,0,0-5.975-1.8V60.019Z" transform="translate(-0.153 -0.217)" fill="none" stroke="#fff" stroke-linecap="round" stroke-linejoin="round" stroke-width="1.242"/>
          <path id="Path_2158-2" data-name="Path 2158" d="M114.949,73.292c-.82-.923-3.08-1.165-4.295-1.165-.9,0-2.325.3-1.5,1.234s3.08,1.164,4.294,1.164c.9,0,2.326-.3,1.5-1.233" transform="translate(-26.846 -25.165)" fill="#a2c683"/>
          <path id="Path_2159-2" data-name="Path 2159" d="M132.361,27.54c-1.494,0-3.854,3.657-2.627,3.657,1.493,0,3.854-3.657,2.627-3.657" transform="translate(-31.895 -9.609)" fill="#a2c683"/>
          <path id="Path_2160-2" data-name="Path 2160" d="M155.934,63.691a3.87,3.87,0,0,0-2.565-1.675c-1.009,0,.067,1.6.26,1.841a3.87,3.87,0,0,0,2.565,1.675c1.008,0-.068-1.6-.26-1.841" transform="translate(-37.701 -21.638)" fill="#a2c683"/>
          <path id="Path_2161-2" data-name="Path 2161" d="M152.379,84.614c-.274-.479-1.712-.537-2.2-.537-.6,0-1.012.169-.739.646s1.712.537,2.2.537c.6,0,1.012-.169.739-.646" transform="translate(-36.815 -29.335)" fill="#a2c683"/>
          <path id="Path_2162-2" data-name="Path 2162" d="M194.955,66.53c-1.713,0-2.658,4.523-1.537,4.523,1.714,0,2.659-4.523,1.537-4.523" transform="translate(-47.558 -23.212)" fill="#a2c683"/>
          <path id="Path_2163-2" data-name="Path 2163" d="M184.9,50.635a4.1,4.1,0,0,0-2.484-.876c-.772,0-.821.367-.385.816a4.1,4.1,0,0,0,2.484.876c.772,0,.821-.368.385-.816" transform="translate(-44.803 -17.361)" fill="#a2c683"/>
          <path id="Path_2164-2" data-name="Path 2164" d="M222.076,75.235a5.354,5.354,0,0,0-3.271,1.294c-.661.64-.423,1.074.569,1.074a5.359,5.359,0,0,0,3.272-1.294c.66-.641.422-1.074-.57-1.074" transform="translate(-53.844 -26.25)" fill="#a2c683"/>
          <path id="Path_2165-2" data-name="Path 2165" d="M229.136,54.34c-2.557,0,.7,7.2,3.269,7.2s-.7-7.2-3.269-7.2" transform="translate(-56.253 -18.959)" fill="#a2c683"/>
          <path id="Path_2166-2" data-name="Path 2166" d="M246.506,74.472c-1.426,0-3.835.4-4.749,1.463-.943,1.1.773,1.326,1.736,1.326,1.427,0,3.836-.4,4.749-1.464.943-1.1-.773-1.325-1.736-1.325" transform="translate(-59.526 -25.983)" fill="#a2c683"/>
          <path id="Path_2167-2" data-name="Path 2167" d="M248.441,56.662c-.357-1.024-3.281-1.306-4.184-1.306-.77,0-3.061,0-2.668,1.129.358,1.022,3.281,1.307,4.184,1.307.77,0,3.061-.005,2.668-1.13" transform="translate(-59.541 -19.314)" fill="#a2c683"/>
          <path id="Path_2168-2" data-name="Path 2168" d="M121.616,65.465c-2.323,0-2.195,7.631.264,7.631,2.324,0,2.195-7.631-.264-7.631" transform="translate(-29.568 -22.841)" fill="#a2c683"/>
          <path id="Path_2169-2" data-name="Path 2169" d="M129.8,52.384a3.42,3.42,0,0,0-2.26-1.25c-.845,0,.2,1.354.354,1.518a3.414,3.414,0,0,0,2.259,1.251c.845,0-.2-1.354-.353-1.518" transform="translate(-31.36 -17.841)" fill="#a2c683"/>
          <path id="Path_2170-2" data-name="Path 2170" d="M107.123,46.527a10.012,10.012,0,0,0-5.708-1.873c-1.634,0-2.007.941-.824,1.875A10.013,10.013,0,0,0,106.3,48.4c1.633,0,2.007-.941.824-1.875" transform="translate(-24.625 -15.58)" fill="#a2c683"/>
          <path id="Path_2171-2" data-name="Path 2171" d="M79.608,70.085c-.7-1.587-4.889-2.128-6.439-2.128-1.04,0-4.935-.046-4.172,1.685.7,1.587,4.889,2.127,6.44,2.127,1.039,0,4.935.046,4.171-1.684" transform="translate(-16.984 -23.71)" fill="#a2c683"/>
          <path id="Path_2172-2" data-name="Path 2172" d="M64.479,79.474a10.537,10.537,0,0,0-6.218,2.266c-1.315,1.118-.838,2.041,1,2.041a10.53,10.53,0,0,0,6.217-2.265c1.316-1.117.838-2.042-1-2.042" transform="translate(-14.177 -27.729)" fill="#a2c683"/>
          <path id="Path_2173-2" data-name="Path 2173" d="M59.908,32.007c-3.061,0-4.128,8.741-1.71,8.741,3.062,0,4.128-8.741,1.71-8.741" transform="translate(-14.018 -11.167)" fill="#a2c683"/>
          <path id="Path_2174-2" data-name="Path 2174" d="M35.093,74.65c-.7-.988-2.169-2.713-3.719-2.713-1.516,0-.085,2.374.219,2.8.7.988,2.17,2.711,3.719,2.711,1.516,0,.086-2.373-.219-2.8" transform="translate(-7.565 -25.099)" fill="#a2c683"/>
          <path id="Path_2175-2" data-name="Path 2175" d="M12.582,82.011c-1.013,0-2.456,2.726-1.5,2.726,1.013,0,2.456-2.726,1.5-2.726" transform="translate(-2.655 -28.614)" fill="#a2c683"/>
        </g>
      </g>
    </g>
  </g>
</svg>
