<svg id="login-vision" xmlns="http://www.w3.org/2000/svg" xmlns:xlink="http://www.w3.org/1999/xlink" width="394.701" height="381.063" viewBox="0 0 394.701 381.063">
  <defs>
    <clipPath id="clip-path">
      <rect id="Rectangle_590" data-name="Rectangle 590" width="394.701" height="381.063" fill="none"/>
    </clipPath>
    <clipPath id="clip-path-3">
      <rect id="Rectangle_582" data-name="Rectangle 582" width="394.702" height="381.063" fill="none"/>
    </clipPath>
    <clipPath id="clip-path-4">
      <rect id="Rectangle_583" data-name="Rectangle 583" width="77.862" height="68.789" transform="translate(295.341 284.885)" fill="none"/>
    </clipPath>
    <clipPath id="clip-path-5">
      <rect id="Rectangle_584" data-name="Rectangle 584" width="3.468" height="4.055" transform="translate(224.818 124.2)" fill="none"/>
    </clipPath>
    <clipPath id="clip-path-6">
      <rect id="Rectangle_585" data-name="Rectangle 585" width="233.221" height="148.809" transform="translate(100.556 109.925)" fill="none"/>
    </clipPath>
    <clipPath id="clip-path-7">
      <path id="Path_2345" data-name="Path 2345" d="M120.132,94.451,100.714,231.766H261.348L280.767,94.451Z" fill="none"/>
    </clipPath>
    <clipPath id="clip-path-8">
      <rect id="Rectangle_587" data-name="Rectangle 587" width="151.102" height="104.981" transform="translate(158.945 109.748)" fill="none"/>
    </clipPath>
    <clipPath id="clip-path-10">
      <rect id="Rectangle_588" data-name="Rectangle 588" width="7.44" height="12.977" transform="translate(178.606 147.027)" fill="none"/>
    </clipPath>
  </defs>
  <g id="Group_664" data-name="Group 664" clip-path="url(#clip-path)">
    <g id="Group_653" data-name="Group 653">
      <g id="Group_652" data-name="Group 652" clip-path="url(#clip-path)">
        <g id="Group_642" data-name="Group 642" opacity="0.55" style="mix-blend-mode: multiply;isolation: isolate">
          <g id="Group_641" data-name="Group 641">
            <g id="Group_640" data-name="Group 640" clip-path="url(#clip-path-3)">
              <path id="Path_2313" data-name="Path 2313" d="M48.557,24.276C19.612,46.1,7.842,88.036,21.21,121.729c7.56,19.054,22.366,39.032,14.174,57.823-2.89,6.63-8.306,11.752-12.977,17.273C-2.08,225.77-6.3,269.152,8.788,303.931S56.42,364.492,92.819,375.1a149.675,149.675,0,0,0,39.866,5.953c23.721.309,47.178-5.031,69.852-12.006,10-3.077,20.072-6.563,28.552-12.7,11.023-7.972,18.53-19.787,25.726-31.331,13.8-22.141,28.606-45.45,51.9-57.2,24.937-12.576,58.377-11.377,75.312-33.584,9.076-11.9,10.794-27.787,10.666-42.753-.122-14.28-1.674-28.775-7.118-41.978-10.707-25.97-35.41-44-61.733-53.811S271.214,83.082,243.4,79.117c-8.491-1.211-17.308-2.67-24.312-7.621-10.733-7.588-14.677-21.342-21.12-32.8C168.708-13.331,90.632-7.44,48.557,24.276" fill="#bceced"/>
            </g>
          </g>
        </g>
        <g id="Group_645" data-name="Group 645" opacity="0.55" style="mix-blend-mode: multiply;isolation: isolate">
          <g id="Group_644" data-name="Group 644">
            <g id="Group_643" data-name="Group 643" clip-path="url(#clip-path-4)">
              <path id="Path_2314" data-name="Path 2314" d="M307.828,302.207c-4.184,2.468-8.657,5.269-10.367,9.815-1.147,3.047-.856,6.412-1.012,9.663-.323,6.678-2.526,13.755.359,19.785,2.291,4.786,7.328,7.671,12.391,9.26,6.781,2.128,13.976,2.448,21.076,2.752,9.467.4,19.6.644,27.621-4.4,7.189-4.52,11.425-12.619,13.6-20.828,2.705-10.215,2.534-21.679-2.974-30.7-15.813-25.886-43.008-5.782-60.692,4.649" fill="#bceced"/>
            </g>
          </g>
        </g>
        <path id="Path_2315" data-name="Path 2315" d="M99.039,94.451c0-4.561,2.807-8.161,7.036-10.636a38.452,38.452,0,0,0-3.013-7.281c-4.741,1.241-8.579-.617-11.8-3.842s-4.214-7.065-2.973-11.806A38.368,38.368,0,0,0,81,57.874,13.785,13.785,0,0,1,69.5,64.91a13.791,13.791,0,0,1-11.508-7.036,38.4,38.4,0,0,0-7.279,3.011c1.24,4.742.253,8.58-2.973,11.807s-7.065,5.083-11.805,3.844a38.38,38.38,0,0,0-3.013,7.279c4.229,2.475,7.036,6.075,7.036,10.636a13.784,13.784,0,0,1-7.036,11.507,38.435,38.435,0,0,0,3.013,7.282c4.741-1.241,8.579-.253,11.805,2.972s4.213,7.064,2.973,11.805a38.369,38.369,0,0,0,7.281,3.012A13.789,13.789,0,0,1,69.5,123.993,13.787,13.787,0,0,1,81,131.029a38.408,38.408,0,0,0,7.282-3.013c-1.24-4.74-.254-8.578,2.972-11.8s7.064-5.084,11.8-3.843a38.434,38.434,0,0,0,3.013-7.282c-4.229-2.474-7.036-6.074-7.036-10.636M69.5,110.359A15.908,15.908,0,1,1,85.4,94.451,15.907,15.907,0,0,1,69.5,110.359" fill="#fff"/>
        <path id="Path_2316" data-name="Path 2316" d="M142.052,33.89c0-2.28,1.4-4.081,3.518-5.318a19.24,19.24,0,0,0-1.506-3.64c-2.371.62-4.29-.309-5.9-1.922a5.691,5.691,0,0,1-1.486-5.9,19.243,19.243,0,0,0-3.64-1.507,6.465,6.465,0,0,1-11.508,0,19.305,19.305,0,0,0-3.64,1.506,5.693,5.693,0,0,1-1.486,5.9c-1.613,1.613-3.532,2.542-5.9,1.922a19.239,19.239,0,0,0-1.506,3.64c2.114,1.237,3.518,3.038,3.518,5.318a6.9,6.9,0,0,1-3.518,5.754,19.239,19.239,0,0,0,1.506,3.64,5.932,5.932,0,0,1,7.389,7.389,19.156,19.156,0,0,0,3.641,1.506,6.464,6.464,0,0,1,11.507,0,19.113,19.113,0,0,0,3.64-1.507,5.691,5.691,0,0,1,1.486-5.9c1.613-1.613,3.532-2.543,5.9-1.922a19.222,19.222,0,0,0,1.506-3.641c-2.114-1.237-3.518-3.037-3.518-5.318m-14.771,7.954a7.954,7.954,0,1,1,7.953-7.954,7.953,7.953,0,0,1-7.953,7.954" fill="#fff"/>
        <path id="Path_2317" data-name="Path 2317" d="M336.326,120.34h-4.99a4.276,4.276,0,0,0-1.868-.429h-8.887l2.083-14.733a6.1,6.1,0,0,0-6.179-7.2H280.267l.5-3.53,1.167-8.247c1.192-8.438-4.681-15.278-13.119-15.278H91.02c-8.439,0-16.245,6.84-17.438,15.278L52.177,237.562a3.983,3.983,0,0,0,3.944,4.542h46.322l-5.677,38.111a4.329,4.329,0,0,0,2.069,4.515H16.368c-.635,0-1.152.7-1.152,1.561v11.186c0,.86.517,1.56,1.152,1.56H307.146c.637,0,1.153-.7,1.153-1.56V286.291a1.911,1.911,0,0,0-.24-.943h3.415a6.242,6.242,0,0,0,6.014-5.12L340.8,125.46a4.349,4.349,0,0,0-4.471-5.12" fill="#fff"/>
        <path id="Path_2318" data-name="Path 2318" d="M336.326,120.34h-4.99a4.276,4.276,0,0,0-1.868-.429h-8.887l2.083-14.733a6.1,6.1,0,0,0-6.179-7.2H280.267l.5-3.53,1.167-8.247c1.192-8.438-4.681-15.278-13.119-15.278H91.02c-8.439,0-16.245,6.84-17.438,15.278L52.177,237.562a3.983,3.983,0,0,0,3.944,4.542h46.322l-5.677,38.111a4.329,4.329,0,0,0,2.069,4.515H16.368c-.635,0-1.152.7-1.152,1.561v11.186c0,.86.517,1.56,1.152,1.56H307.146c.637,0,1.153-.7,1.153-1.56V286.291a1.911,1.911,0,0,0-.24-.943h3.415a6.242,6.242,0,0,0,6.014-5.12L340.8,125.46A4.349,4.349,0,0,0,336.326,120.34Z" fill="none" stroke="#fff" stroke-linecap="round" stroke-linejoin="round" stroke-width="7"/>
        <path id="Path_2319" data-name="Path 2319" d="M307.241,70.616l-1.313-28.333-13.463,2.445L302.507,71.77a39.352,39.352,0,0,1,4.734-1.154" fill="#f4d123"/>
        <path id="Path_2320" data-name="Path 2320" d="M307.241,70.616l-1.313-28.333-13.463,2.445L302.507,71.77A39.352,39.352,0,0,1,307.241,70.616Z" fill="none" stroke="#fff" stroke-linecap="round" stroke-linejoin="round" stroke-width="2"/>
        <path id="Path_2321" data-name="Path 2321" d="M328.919,71.928l12.24-27.945-13.152-3.775-3.239,31.157a40.415,40.415,0,0,1,4.151.563" fill="#f4d123"/>
        <path id="Path_2322" data-name="Path 2322" d="M328.919,71.928l12.24-27.945-13.152-3.775-3.239,31.157A40.415,40.415,0,0,1,328.919,71.928Z" fill="none" stroke="#fff" stroke-linecap="round" stroke-linejoin="round" stroke-width="2"/>
        <path id="Path_2323" data-name="Path 2323" d="M346.576,80.568l23.415-18.629-9.866-9.48L343.113,77.892Z" fill="#f4d123"/>
        <path id="Path_2324" data-name="Path 2324" d="M346.576,80.568l23.415-18.629-9.866-9.48L343.113,77.892Z" fill="none" stroke="#fff" stroke-linecap="round" stroke-linejoin="round" stroke-width="2"/>
        <path id="Path_2325" data-name="Path 2325" d="M336.326,120.34H128.542a6.24,6.24,0,0,0-6.013,5.12L99.219,280.228a4.35,4.35,0,0,0,4.472,5.12H311.474a6.242,6.242,0,0,0,6.014-5.12L340.8,125.46a4.35,4.35,0,0,0-4.471-5.12" fill="#ededed"/>
        <path id="Path_2326" data-name="Path 2326" d="M329.208,119.912H125.778a6.172,6.172,0,0,0-5.9,5.133L96.766,280.216a4.317,4.317,0,0,0,4.368,5.132H304.565a6.172,6.172,0,0,0,5.9-5.132l23.114-155.171a4.317,4.317,0,0,0-4.368-5.133" fill="#ccc"/>
        <path id="Path_2327" data-name="Path 2327" d="M329.208,119.912H125.778a6.172,6.172,0,0,0-5.9,5.133L96.766,280.216a4.317,4.317,0,0,0,4.368,5.132H304.565a6.172,6.172,0,0,0,5.9-5.132l23.114-155.171A4.317,4.317,0,0,0,329.208,119.912Z" fill="none" stroke="#93adf5" stroke-miterlimit="10" stroke-width="10"/>
        <g id="Group_648" data-name="Group 648" opacity="0.46">
          <g id="Group_647" data-name="Group 647">
            <g id="Group_646" data-name="Group 646" clip-path="url(#clip-path-5)">
              <path id="Path_2328" data-name="Path 2328" d="M228.259,126.228a2.271,2.271,0,0,1-2.009,2.027,1.592,1.592,0,0,1-1.4-2.027,2.271,2.271,0,0,1,2.009-2.027,1.592,1.592,0,0,1,1.4,2.027" fill="gray"/>
            </g>
          </g>
        </g>
        <path id="Path_2329" data-name="Path 2329" d="M115.055,299.037c-.636,0-1.154-.7-1.154-1.561V286.291c0-.861.518-1.561,1.154-1.561H307.146c.636,0,1.154.7,1.154,1.561v11.185c0,.861-.518,1.561-1.154,1.561Z" fill="#d4d4d4"/>
        <path id="Path_2330" data-name="Path 2330" d="M115.055,299.037c-.636,0-1.154-.7-1.154-1.561V286.291c0-.861.518-1.561,1.154-1.561H307.146c.636,0,1.154.7,1.154,1.561v11.185c0,.861-.518,1.561-1.154,1.561Z" fill="#668bdd"/>
        <path id="Path_2331" data-name="Path 2331" d="M16.369,299.037c-.636,0-1.154-.7-1.154-1.561V286.291c0-.861.518-1.561,1.154-1.561H208.46c.636,0,1.154.7,1.154,1.561v11.185c0,.861-.518,1.561-1.154,1.561Z" fill="#93adf5"/>
        <path id="Path_2332" data-name="Path 2332" d="M99.675,292.294c-1.563,0-2.835-1.72-2.835-3.833v-3.73h31.148v3.73c0,2.113-1.272,3.833-2.835,3.833Z" fill="#d6d6d6"/>
        <g id="Group_651" data-name="Group 651" opacity="0.58" style="mix-blend-mode: multiply;isolation: isolate">
          <g id="Group_650" data-name="Group 650">
            <g id="Group_649" data-name="Group 649" clip-path="url(#clip-path-6)">
              <path id="Path_2333" data-name="Path 2333" d="M329.469,119.912H301.316a12.908,12.908,0,0,0-12.982-9.987H121.6L100.557,258.734H258.376l17.4-.134a8.267,8.267,0,0,0,8.124-7.121l5.33-38.1h21.568a11.247,11.247,0,0,0,11.124-9.583l11.811-78.941a4.307,4.307,0,0,0-4.26-4.944" fill="#ccc"/>
            </g>
          </g>
        </g>
        <path id="Path_2334" data-name="Path 2334" d="M256.426,242.1H56.121a3.983,3.983,0,0,1-3.944-4.542L73.581,86.2c1.194-8.438,9-15.278,17.439-15.278h177.8c8.438,0,14.311,6.84,13.117,15.278L260.371,238.679a3.984,3.984,0,0,1-3.945,3.426" fill="#65cecb"/>
        <path id="Path_2335" data-name="Path 2335" d="M261,234.252H52.645L71.49,100.99H279.843Z" fill="#fff"/>
        <path id="Path_2336" data-name="Path 2336" d="M257.925,133.877H85.267a3.415,3.415,0,0,1-3.381-3.892l1.973-13.951A3.414,3.414,0,0,1,87.24,113.1H259.9a3.413,3.413,0,0,1,3.38,3.892l-1.972,13.951a3.415,3.415,0,0,1-3.381,2.936" fill="#e6e6e6"/>
        <path id="Path_2337" data-name="Path 2337" d="M119.07,221.239H72.912a3.414,3.414,0,0,1-3.38-3.892l10.031-70.934a3.414,3.414,0,0,1,3.381-2.936H129.1a3.415,3.415,0,0,1,3.381,3.892L122.451,218.3a3.415,3.415,0,0,1-3.381,2.936" fill="#e6e6e6"/>
        <path id="Path_2338" data-name="Path 2338" d="M182.32,221.239H136.163a3.414,3.414,0,0,1-3.381-3.892l10.031-70.934a3.415,3.415,0,0,1,3.381-2.936h46.157a3.414,3.414,0,0,1,3.381,3.892L185.7,218.3a3.415,3.415,0,0,1-3.381,2.936" fill="#e6e6e6"/>
        <path id="Path_2339" data-name="Path 2339" d="M245.57,221.239H199.413a3.414,3.414,0,0,1-3.381-3.892l10.031-70.934a3.415,3.415,0,0,1,3.381-2.936H255.6a3.415,3.415,0,0,1,3.381,3.892L248.951,218.3a3.415,3.415,0,0,1-3.381,2.936" fill="#e6e6e6"/>
        <path id="Path_2340" data-name="Path 2340" d="M96.9,86.641a7.126,7.126,0,0,1-6.83,5.984,5.075,5.075,0,0,1-5.138-5.984,7.128,7.128,0,0,1,6.83-5.984A5.075,5.075,0,0,1,96.9,86.641" fill="#f5dc38"/>
        <path id="Path_2341" data-name="Path 2341" d="M112.059,86.641a7.126,7.126,0,0,1-6.83,5.984,5.075,5.075,0,0,1-5.138-5.984,7.128,7.128,0,0,1,6.83-5.984,5.075,5.075,0,0,1,5.138,5.984" fill="#7986cb"/>
        <path id="Path_2342" data-name="Path 2342" d="M127.221,86.641a7.126,7.126,0,0,1-6.83,5.984,5.075,5.075,0,0,1-5.138-5.984,7.128,7.128,0,0,1,6.831-5.984,5.075,5.075,0,0,1,5.137,5.984" fill="#f48fb1"/>
        <path id="Path_2343" data-name="Path 2343" d="M266.853,90.231H140.222a3.044,3.044,0,0,1-3.083-3.59,4.276,4.276,0,0,1,4.1-3.591H267.869a3.045,3.045,0,0,1,3.082,3.591,4.275,4.275,0,0,1-4.1,3.59" fill="#fff"/>
      </g>
    </g>
    <g id="Group_658" data-name="Group 658">
      <g id="Group_657" data-name="Group 657" clip-path="url(#clip-path-7)">
        <g id="Group_656" data-name="Group 656" opacity="0.4" style="mix-blend-mode: multiply;isolation: isolate">
          <g id="Group_655" data-name="Group 655">
            <g id="Group_654" data-name="Group 654" clip-path="url(#clip-path-8)">
              <path id="Path_2344" data-name="Path 2344" d="M290.863,201.2H250.252L217.4,214.73l9.32-13.534H165.2a6.1,6.1,0,0,1-6.18-7.2l10.9-77.054a8.572,8.572,0,0,1,8.215-7.2H303.8a6.1,6.1,0,0,1,6.18,7.2L299.078,194a8.572,8.572,0,0,1-8.215,7.2" fill="#b3b3b3"/>
            </g>
          </g>
        </g>
      </g>
    </g>
    <g id="Group_663" data-name="Group 663">
      <g id="Group_662" data-name="Group 662" clip-path="url(#clip-path)">
        <path id="Path_2346" data-name="Path 2346" d="M303.553,189.429H254.444l-37.045,25.3,8.068-25.3H147.381a6.1,6.1,0,0,1-6.18-7.2l10.9-77.053a8.572,8.572,0,0,1,8.215-7.2H316.485a6.1,6.1,0,0,1,6.18,7.2l-10.9,77.053a8.572,8.572,0,0,1-8.215,7.2" fill="#62ad5e"/>
        <path id="Path_2347" data-name="Path 2347" d="M194.74,133.025h5.183l.479-3.39c1.178-8.324-4.637-15.1-12.961-15.1s-16.054,6.772-17.232,15.1l-1.672,11.825h5.183l1.673-11.825a11.822,11.822,0,0,1,11.315-9.913,8.415,8.415,0,0,1,8.511,9.913Z" fill="#fefeff"/>
        <path id="Path_2348" data-name="Path 2348" d="M179.707,169.228h0c-9.438,0-16.006-7.651-14.672-17.088l1.464-10.347a2.112,2.112,0,0,1,2.024-1.774h30.629a1.5,1.5,0,0,1,1.523,1.774l-1.463,10.347c-1.335,9.437-10.067,17.088-19.505,17.088" fill="#f5dc38"/>
        <g id="Group_661" data-name="Group 661" opacity="0.85" style="mix-blend-mode: multiply;isolation: isolate">
          <g id="Group_660" data-name="Group 660">
            <g id="Group_659" data-name="Group 659" clip-path="url(#clip-path-10)">
              <path id="Path_2349" data-name="Path 2349" d="M186.009,150.711a3.123,3.123,0,0,0-3.162-3.683,4.387,4.387,0,0,0-4.2,3.683,3.134,3.134,0,0,0,1.456,3.209l-.61,4.311a1.5,1.5,0,0,0,1.523,1.774,2.113,2.113,0,0,0,2.024-1.774l.61-4.311a4.387,4.387,0,0,0,2.363-3.209" fill="#301300"/>
            </g>
          </g>
        </g>
        <path id="Path_2350" data-name="Path 2350" d="M279.8,160H227.189c-8.136,0-13.779-6.732-12.6-15.036l.043-.3c1.174-8.3,8.722-15.035,16.858-15.035H284.1c8.135,0,13.779,6.731,12.605,15.035l-.043.3C295.485,153.272,287.938,160,279.8,160" fill="#e8e8e8"/>
        <path id="Path_2351" data-name="Path 2351" d="M280.276,160h-50.92c-7.874,0-13.391-6.121-12.324-13.671l.04-.277c1.067-7.55,8.316-13.671,16.19-13.671h50.92c7.874,0,13.391,6.121,12.323,13.671l-.039.277C295.4,153.883,288.15,160,280.276,160" fill="#fff"/>
        <path id="Path_2352" data-name="Path 2352" d="M233.879,137.738h3.608l-1.255,5.3,4.785-2.954,1.3,3.229-5,2.088,4.413,2.069-2.208,3.228-3.95-2.954-.242,5.3h-3.608l1.276-5.3-4.786,2.954-1.294-3.228,5-2.069-4.411-2.088,2.208-3.229,3.95,2.954Z" fill="#52aa5a"/>
        <path id="Path_2353" data-name="Path 2353" d="M233.879,137.738h3.608l-1.255,5.3,4.785-2.954,1.3,3.229-5,2.088,4.413,2.069-2.208,3.228-3.95-2.954-.242,5.3h-3.608l1.276-5.3-4.786,2.954-1.294-3.228,5-2.069-4.411-2.088,2.208-3.229,3.95,2.954Z" fill="none" stroke="#fff" stroke-linecap="round" stroke-linejoin="round" stroke-width="0.5"/>
        <path id="Path_2354" data-name="Path 2354" d="M255.971,137.738h3.608l-1.255,5.3,4.785-2.954,1.3,3.229-5,2.088,4.413,2.069-2.209,3.228-3.95-2.954-.242,5.3h-3.608l1.276-5.3-4.785,2.954L249,147.466l5-2.069-4.41-2.088,2.208-3.229,3.949,2.954Z" fill="#52aa5a"/>
        <path id="Path_2355" data-name="Path 2355" d="M255.971,137.738h3.608l-1.255,5.3,4.785-2.954,1.3,3.229-5,2.088,4.413,2.069-2.209,3.228-3.95-2.954-.242,5.3h-3.608l1.276-5.3-4.785,2.954L249,147.466l5-2.069-4.41-2.088,2.208-3.229,3.949,2.954Z" fill="none" stroke="#fff" stroke-linecap="round" stroke-linejoin="round" stroke-width="0.5"/>
        <path id="Path_2356" data-name="Path 2356" d="M278.063,137.738h3.609l-1.256,5.3,4.786-2.954,1.3,3.229-5,2.088,4.413,2.069-2.208,3.228-3.95-2.954-.243,5.3H275.9l1.277-5.3-4.786,2.954-1.295-3.228,5-2.069-4.41-2.088,2.208-3.229,3.95,2.954Z" fill="#52aa5a"/>
        <path id="Path_2357" data-name="Path 2357" d="M278.063,137.738h3.609l-1.256,5.3,4.786-2.954,1.3,3.229-5,2.088,4.413,2.069-2.208,3.228-3.95-2.954-.243,5.3H275.9l1.277-5.3-4.786,2.954-1.295-3.228,5-2.069-4.41-2.088,2.208-3.229,3.95,2.954Z" fill="none" stroke="#fff" stroke-linecap="round" stroke-linejoin="round" stroke-width="0.5"/>
        <path id="Path_2358" data-name="Path 2358" d="M278.056,217.8S288.6,235.382,290,241.686l-5.927,2.147s-10.221-16.921-11.207-20.313c0,0,2.652-5.336,5.194-5.717" fill="#fff"/>
        <path id="Path_2359" data-name="Path 2359" d="M278.056,217.8S288.6,235.382,290,241.686l-5.927,2.147s-10.221-16.921-11.207-20.313C272.862,223.52,275.514,218.184,278.056,217.8Z" fill="none" stroke="#fff" stroke-miterlimit="10" stroke-width="4"/>
        <path id="Path_2360" data-name="Path 2360" d="M328.235,301.52s5.864,12.753,10.155,16.608l7.249-4.921s-3.57-6.4-7.96-16.565Z" fill="#fff"/>
        <path id="Path_2361" data-name="Path 2361" d="M328.235,301.52s5.864,12.753,10.155,16.608l7.249-4.921s-3.57-6.4-7.96-16.565Z" fill="none" stroke="#fff" stroke-miterlimit="10" stroke-width="4"/>
        <path id="Path_2362" data-name="Path 2362" d="M271.51,171.2s2.962,6.091,1.691,16.682c-.133,1.106-.46,2.316-.012,3.274.495,1.057,1.323,1.975,1.8,3.1a16.744,16.744,0,0,1,1.518,5.376,6.415,6.415,0,0,1-1.793,5.125c-2.146,1.974-5.662,1.592-8.332,2.075a13.554,13.554,0,0,1-4.654-.136c-.557-.1-4.406-1.032-4.343-1.786,0,0,2.852-34.168,14.13-33.711" fill="#fff"/>
        <path id="Path_2363" data-name="Path 2363" d="M271.51,171.2s2.962,6.091,1.691,16.682c-.133,1.106-.46,2.316-.012,3.274.495,1.057,1.323,1.975,1.8,3.1a16.744,16.744,0,0,1,1.518,5.376,6.415,6.415,0,0,1-1.793,5.125c-2.146,1.974-5.662,1.592-8.332,2.075a13.554,13.554,0,0,1-4.654-.136c-.557-.1-4.406-1.032-4.343-1.786C257.38,204.912,260.232,170.745,271.51,171.2Z" fill="none" stroke="#fff" stroke-miterlimit="10" stroke-width="4"/>
        <path id="Path_2364" data-name="Path 2364" d="M258.42,200.567a3.017,3.017,0,0,0,1.931,1.389c1.3.244-2.055.73-3.075.828s1.144-2.217,1.144-2.217" fill="#fff"/>
        <path id="Path_2365" data-name="Path 2365" d="M258.42,200.567a3.017,3.017,0,0,0,1.931,1.389c1.3.244-2.055.73-3.075.828S258.42,200.567,258.42,200.567Z" fill="none" stroke="#fff" stroke-miterlimit="10" stroke-width="4"/>
        <path id="Path_2366" data-name="Path 2366" d="M268.746,168.143c-4.179-3.147-8.683-4.646-13.431-3.452-1.614-.372-4.291-.08-7.663,3.631-4.033,4.437-8.021,15.065-3.63,21.1,3.131,4.3,6.79,5.114,6.79,5.114s12.083,7.457,18.244-4.155c0,0,1.422-3.977,2.654-6.819s3.217-10.768-2.964-15.422" fill="#fff"/>
        <path id="Path_2367" data-name="Path 2367" d="M268.746,168.143c-4.179-3.147-8.683-4.646-13.431-3.452-1.614-.372-4.291-.08-7.663,3.631-4.033,4.437-8.021,15.065-3.63,21.1,3.131,4.3,6.79,5.114,6.79,5.114s12.083,7.457,18.244-4.155c0,0,1.422-3.977,2.654-6.819S274.927,172.8,268.746,168.143Z" fill="none" stroke="#fff" stroke-miterlimit="10" stroke-width="4"/>
        <path id="Path_2368" data-name="Path 2368" d="M260.756,195.331s-.255.709-.6,1.688c-.671,1.885-1.687,4.768-1.891,5.493,0,0-7.9,1.7-10.2-4.542,0,0,.565-1.177,1.1-2.667a14.269,14.269,0,0,0,.936-4.019,4.5,4.5,0,0,0-.014-.5s7.677,3.812,10.668,4.546" fill="#fff"/>
        <path id="Path_2369" data-name="Path 2369" d="M260.756,195.331s-.255.709-.6,1.688c-.671,1.885-1.687,4.768-1.891,5.493,0,0-7.9,1.7-10.2-4.542,0,0,.565-1.177,1.1-2.667a14.269,14.269,0,0,0,.936-4.019,4.5,4.5,0,0,0-.014-.5S257.765,194.6,260.756,195.331Z" fill="none" stroke="#fff" stroke-miterlimit="10" stroke-width="4"/>
        <path id="Path_2370" data-name="Path 2370" d="M270.3,176.848s-.942,7.488-1.135,9.209c-.532,4.764-2.175,10.6-7.05,10.943-6.382.442-10.9-2.693-13.855-8.749-2.933-6,1.5-19.251,8-19.31s13.6,2.338,14.039,7.907" fill="#fff"/>
        <path id="Path_2371" data-name="Path 2371" d="M270.3,176.848s-.942,7.488-1.135,9.209c-.532,4.764-2.175,10.6-7.05,10.943-6.382.442-10.9-2.693-13.855-8.749-2.933-6,1.5-19.251,8-19.31S269.863,171.279,270.3,176.848Z" fill="none" stroke="#fff" stroke-miterlimit="10" stroke-width="4"/>
        <path id="Path_2372" data-name="Path 2372" d="M255.374,168.79s1.716,5.473,11.432,9.981c1.641.761,3.277,1.69,3.489,3.425,0,0,2.39-7.11-2.323-10.989-1.926-1.586-4.971-2.3-6.845-2.618a16.335,16.335,0,0,0-5.753.2" fill="#fff"/>
        <path id="Path_2373" data-name="Path 2373" d="M255.374,168.79s1.716,5.473,11.432,9.981c1.641.761,3.277,1.69,3.489,3.425,0,0,2.39-7.11-2.323-10.989-1.926-1.586-4.971-2.3-6.845-2.618A16.335,16.335,0,0,0,255.374,168.79Z" fill="none" stroke="#fff" stroke-miterlimit="10" stroke-width="4"/>
        <path id="Path_2374" data-name="Path 2374" d="M249.52,185.8a12.183,12.183,0,0,1-.486-3.645c.026-1.354.343-2.19.366-2.918a2.694,2.694,0,0,0-3.286.408c-1.99,2.14.766,7.229,3.406,6.155" fill="#fff"/>
        <path id="Path_2375" data-name="Path 2375" d="M249.52,185.8a12.183,12.183,0,0,1-.486-3.645c.026-1.354.343-2.19.366-2.918a2.694,2.694,0,0,0-3.286.408C244.124,181.783,246.88,186.872,249.52,185.8Z" fill="none" stroke="#fff" stroke-miterlimit="10" stroke-width="4"/>
        <path id="Path_2376" data-name="Path 2376" d="M264.493,202.5c2.236.285,7.294,2.119,11.25,8.186,3.449,5.288,3.929,7.694,3.929,7.694s-3.974,2.9-7.065,3.3c0,0-8.146-15.6-8.114-19.176" fill="#fff"/>
        <path id="Path_2377" data-name="Path 2377" d="M264.493,202.5c2.236.285,7.294,2.119,11.25,8.186,3.449,5.288,3.929,7.694,3.929,7.694s-3.974,2.9-7.065,3.3C272.607,221.678,264.461,206.076,264.493,202.5Z" fill="none" stroke="#fff" stroke-miterlimit="10" stroke-width="4"/>
        <path id="Path_2378" data-name="Path 2378" d="M248.066,199.89a12.752,12.752,0,0,0,12.69,1.856s3.935.14,5.673,1.961c4.078,4.272,9.13,16.163,8,20.4s-7.329,21.7-7.329,21.7-28.487,19.768-33.775,4.627c0,0,3.593-13.243,5.717-18.586,0,0-6.718-21.556-3.738-26.718,0,0,9.614-4.131,12.765-5.233" fill="#fff"/>
        <path id="Path_2379" data-name="Path 2379" d="M248.066,199.89a12.752,12.752,0,0,0,12.69,1.856s3.935.14,5.673,1.961c4.078,4.272,9.13,16.163,8,20.4s-7.329,21.7-7.329,21.7-28.487,19.768-33.775,4.627c0,0,3.593-13.243,5.717-18.586,0,0-6.718-21.556-3.738-26.718C235.3,205.123,244.915,200.992,248.066,199.89Z" fill="none" stroke="#fff" stroke-miterlimit="10" stroke-width="4"/>
        <path id="Path_2380" data-name="Path 2380" d="M255.315,164.692s-8.882-2.257-15.227,10.666c-1.563,3.183.135,7.116-1.18,10.615a37.039,37.039,0,0,1-2.206,4.213,21.511,21.511,0,0,0-2.45,8.564,7.869,7.869,0,0,0,.974,5,7.242,7.242,0,0,0,3.347,2.45,20.992,20.992,0,0,0,6.7,1.369c2.362.145,4.937-.01,6.758-1.521a3.7,3.7,0,0,0,1.2-1.66,5.6,5.6,0,0,0-.178-3.047c-.637-2.57-1.6-5.217-1.593-7.862a56.831,56.831,0,0,1,.319-7.048A33.273,33.273,0,0,1,257.1,171.8Z" fill="#fff"/>
        <path id="Path_2381" data-name="Path 2381" d="M255.315,164.692s-8.882-2.257-15.227,10.666c-1.563,3.183.135,7.116-1.18,10.615a37.039,37.039,0,0,1-2.206,4.213,21.511,21.511,0,0,0-2.45,8.564,7.869,7.869,0,0,0,.974,5,7.242,7.242,0,0,0,3.347,2.45,20.992,20.992,0,0,0,6.7,1.369c2.362.145,4.937-.01,6.758-1.521a3.7,3.7,0,0,0,1.2-1.66,5.6,5.6,0,0,0-.178-3.047c-.637-2.57-1.6-5.217-1.593-7.862a56.831,56.831,0,0,1,.319-7.048A33.273,33.273,0,0,1,257.1,171.8Z" fill="none" stroke="#fff" stroke-miterlimit="10" stroke-width="4"/>
        <path id="Path_2382" data-name="Path 2382" d="M241.477,222.828s1.834,9.455,1.464,12.9c0,0,13.876.6,23.23,3.322,0,0,2.248,3.047.258,4.589s-24.952,3.747-30.488-2.383c0,0-4.5-13.85-4.262-18.425,0,0,8.332-1.206,9.8,0" fill="#fff"/>
        <path id="Path_2383" data-name="Path 2383" d="M241.477,222.828s1.834,9.455,1.464,12.9c0,0,13.876.6,23.23,3.322,0,0,2.248,3.047.258,4.589s-24.952,3.747-30.488-2.383c0,0-4.5-13.85-4.262-18.425C231.679,222.828,240.011,221.622,241.477,222.828Z" fill="none" stroke="#fff" stroke-miterlimit="10" stroke-width="4"/>
        <path id="Path_2384" data-name="Path 2384" d="M235.656,204.893a1.248,1.248,0,0,1,1.032.2c2.848,1.888,4.829,3.669,5.586,7.207.6,2.789.1,5.722.681,8.479a36.966,36.966,0,0,1,1.278,7.032,2.824,2.824,0,0,1-.727,2.346,2.866,2.866,0,0,1-1.383.469,37.188,37.188,0,0,1-14.235-.358c-.573-5.366.589-10.718,2.025-15.86a9.207,9.207,0,0,0,.454-1.558,2.741,2.741,0,0,1,.411-1.052l1.943-3.466c.276-.492.552-.984.874-1.447.516-.74,1.226-1.782,2.061-1.993" fill="#fff"/>
        <path id="Path_2385" data-name="Path 2385" d="M235.656,204.893a1.248,1.248,0,0,1,1.032.2c2.848,1.888,4.829,3.669,5.586,7.207.6,2.789.1,5.722.681,8.479a36.966,36.966,0,0,1,1.278,7.032,2.824,2.824,0,0,1-.727,2.346,2.866,2.866,0,0,1-1.383.469,37.188,37.188,0,0,1-14.235-.358c-.573-5.366.589-10.718,2.025-15.86a9.207,9.207,0,0,0,.454-1.558,2.741,2.741,0,0,1,.411-1.052l1.943-3.466c.276-.492.552-.984.874-1.447C234.111,206.146,234.821,205.1,235.656,204.893Z" fill="none" stroke="#fff" stroke-miterlimit="10" stroke-width="4"/>
        <path id="Path_2386" data-name="Path 2386" d="M281.175,301.265s-1.329,13.806.692,18.889l7.92-.321a198.874,198.874,0,0,0,1.608-20.219Z" fill="#fff"/>
        <path id="Path_2387" data-name="Path 2387" d="M281.175,301.265s-1.329,13.806.692,18.889l7.92-.321a198.874,198.874,0,0,0,1.608-20.219Z" fill="none" stroke="#fff" stroke-miterlimit="10" stroke-width="4"/>
        <path id="Path_2388" data-name="Path 2388" d="M273.7,224.1H300.68a1.525,1.525,0,0,1,1.254,1.934l-6.14,31.829H266.17l6.28-32.549A1.372,1.372,0,0,1,273.7,224.1" fill="#fff"/>
        <path id="Path_2389" data-name="Path 2389" d="M273.7,224.1H300.68a1.525,1.525,0,0,1,1.254,1.934l-6.14,31.829H266.17l6.28-32.549A1.372,1.372,0,0,1,273.7,224.1Z" fill="none" stroke="#fff" stroke-miterlimit="10" stroke-width="4"/>
        <path id="Path_2390" data-name="Path 2390" d="M273.7,218.5H300.68a1.524,1.524,0,0,1,1.254,1.934l-6.14,31.829H266.17l6.28-32.55A1.371,1.371,0,0,1,273.7,218.5" fill="#fff"/>
        <path id="Path_2391" data-name="Path 2391" d="M273.7,218.5H300.68a1.524,1.524,0,0,1,1.254,1.934l-6.14,31.829H266.17l6.28-32.55A1.371,1.371,0,0,1,273.7,218.5Z" fill="none" stroke="#fff" stroke-miterlimit="10" stroke-width="4"/>
        <path id="Path_2392" data-name="Path 2392" d="M291.756,244.059s6.793-5.888,15.1-1.369,28.2,44.23,32.2,56.9c0,0-3.884,6.073-10.13,7.653,0,0-24.518-30.949-28.7-46.985,0,0-6.593,2.187-11.013.628s2.537-16.824,2.537-16.824" fill="#fff"/>
        <path id="Path_2393" data-name="Path 2393" d="M291.756,244.059s6.793-5.888,15.1-1.369,28.2,44.23,32.2,56.9c0,0-3.884,6.073-10.13,7.653,0,0-24.518-30.949-28.7-46.985,0,0-6.593,2.187-11.013.628S291.756,244.059,291.756,244.059Z" fill="none" stroke="#fff" stroke-miterlimit="10" stroke-width="4"/>
        <path id="Path_2394" data-name="Path 2394" d="M233.323,250.427s-7.092,18.829.776,25.3,26.548,6.812,46.835-9.667a76.342,76.342,0,0,0-1.952,38.157s4.437,2.524,13.472,1.111c0,0,10.045-49.06,3.306-62.638,0,0-9.941-9.565-47.693,10.809,0,0-11.425,5.21-14.744-3.072" fill="#fff"/>
        <path id="Path_2395" data-name="Path 2395" d="M233.323,250.427s-7.092,18.829.776,25.3,26.548,6.812,46.835-9.667a76.342,76.342,0,0,0-1.952,38.157s4.437,2.524,13.472,1.111c0,0,10.045-49.06,3.306-62.638,0,0-9.941-9.565-47.693,10.809C248.067,253.5,236.642,258.709,233.323,250.427Z" fill="none" stroke="#fff" stroke-miterlimit="10" stroke-width="4"/>
        <path id="Path_2396" data-name="Path 2396" d="M261.6,240.265,263.2,238.4s2.951-3.649,5.831-4.907c0,0,2.1-2.008,2.738-2.006s-.23,2.839-1.92,3.915c0,0,2.61-.183,3.559-.3.343-.041,4.786-2.769,5.182-2.42,1.359,1.194-1.352,5.72-2.08,6.969-1.289,2.212-7.991,4.1-12.624,4.181Z" fill="#fff"/>
        <path id="Path_2397" data-name="Path 2397" d="M261.6,240.265,263.2,238.4s2.951-3.649,5.831-4.907c0,0,2.1-2.008,2.738-2.006s-.23,2.839-1.92,3.915c0,0,2.61-.183,3.559-.3.343-.041,4.786-2.769,5.182-2.42,1.359,1.194-1.352,5.72-2.08,6.969-1.289,2.212-7.991,4.1-12.624,4.181Z" fill="none" stroke="#fff" stroke-miterlimit="10" stroke-width="4"/>
        <path id="Path_2398" data-name="Path 2398" d="M278.949,233.424a35.825,35.825,0,0,1-3.6,3.118,25.635,25.635,0,0,1-3.567.768s2.8.2,3.818-.444c.7-.443,3.42-3.121,3.344-3.442" fill="#fff"/>
        <path id="Path_2399" data-name="Path 2399" d="M278.949,233.424a35.825,35.825,0,0,1-3.6,3.118,25.635,25.635,0,0,1-3.567.768s2.8.2,3.818-.444C276.306,236.423,279.025,233.745,278.949,233.424Z" fill="none" stroke="#fff" stroke-miterlimit="10" stroke-width="4"/>
        <path id="Path_2400" data-name="Path 2400" d="M278.626,235.385s-2.116,2.416-3.059,2.716-2.7.947-2.7.947a20.949,20.949,0,0,0,2.986-.705,11.013,11.013,0,0,0,2.778-2.958" fill="#fff"/>
        <path id="Path_2401" data-name="Path 2401" d="M278.626,235.385s-2.116,2.416-3.059,2.716-2.7.947-2.7.947a20.949,20.949,0,0,0,2.986-.705A11.013,11.013,0,0,0,278.626,235.385Z" fill="none" stroke="#fff" stroke-miterlimit="10" stroke-width="4"/>
        <path id="Path_2402" data-name="Path 2402" d="M277.386,238.111a9.921,9.921,0,0,1-1.669,1.341c-.557.257-2.422,1.051-2.422,1.051s2.064-.582,2.566-.813a7.854,7.854,0,0,0,1.525-1.579" fill="#fff"/>
        <path id="Path_2403" data-name="Path 2403" d="M277.386,238.111a9.921,9.921,0,0,1-1.669,1.341c-.557.257-2.422,1.051-2.422,1.051s2.064-.582,2.566-.813A7.854,7.854,0,0,0,277.386,238.111Z" fill="none" stroke="#fff" stroke-miterlimit="10" stroke-width="4"/>
        <path id="Path_2404" data-name="Path 2404" d="M344.825,312.52s-3.66,4.61-8.089,3.5c-2.98-.747.75,6.88,2.3,9.464a1.437,1.437,0,0,0,1.679.627c2.223-.724,7.313-2.467,9.882-4.039,0,0,7.509-3.927,12.375-6.339,7.213-3.575,6.037-4.8,6.037-4.8s-3-3.764-10.592-1.509c-.645.191-1.322.428-2.03.717-1.842.751-1.925-.032-3.872-.436a30.755,30.755,0,0,0-6.361-.862c-2.3.2-1.329,3.676-1.329,3.676" fill="#fff"/>
        <path id="Path_2405" data-name="Path 2405" d="M344.825,312.52s-3.66,4.61-8.089,3.5c-2.98-.747.75,6.88,2.3,9.464a1.437,1.437,0,0,0,1.679.627c2.223-.724,7.313-2.467,9.882-4.039,0,0,7.509-3.927,12.375-6.339,7.213-3.575,6.037-4.8,6.037-4.8s-3-3.764-10.592-1.509c-.645.191-1.322.428-2.03.717-1.842.751-1.925-.032-3.872-.436a30.755,30.755,0,0,0-6.361-.862C343.857,309.039,344.825,312.52,344.825,312.52Z" fill="none" stroke="#fff" stroke-miterlimit="10" stroke-width="4"/>
        <path id="Path_2406" data-name="Path 2406" d="M359.862,309.054s-1.055,3.062,1.662,7.4c0,0,8.906-3.149,8.552-5.522a11.293,11.293,0,0,0-10.214-1.879" fill="#fff"/>
        <path id="Path_2407" data-name="Path 2407" d="M359.862,309.054s-1.055,3.062,1.662,7.4c0,0,8.906-3.149,8.552-5.522A11.293,11.293,0,0,0,359.862,309.054Z" fill="none" stroke="#fff" stroke-miterlimit="10" stroke-width="4"/>
        <path id="Path_2408" data-name="Path 2408" d="M369.009,310.933s2.248,1.248-10.489,6.74-16.416,8.483-19.483,7.81c0,0,.338,2.033,1.157,2.336s13.48-5.423,17.278-7.155,12.168-5.194,12.573-7.64a1.99,1.99,0,0,0-1.036-2.091" fill="#fff"/>
        <path id="Path_2409" data-name="Path 2409" d="M369.009,310.933s2.248,1.248-10.489,6.74-16.416,8.483-19.483,7.81c0,0,.338,2.033,1.157,2.336s13.48-5.423,17.278-7.155,12.168-5.194,12.573-7.64A1.99,1.99,0,0,0,369.009,310.933Z" fill="none" stroke="#fff" stroke-miterlimit="10" stroke-width="4"/>
        <path id="Path_2410" data-name="Path 2410" d="M355.611,310.375a8.077,8.077,0,0,0-1.564,2.774.451.451,0,0,1-.219.33c-.192.112-.524.174-.606-.435-.133-.984,1.21-2.654,1.21-2.654s.81-.338,1.179-.015" fill="#fff"/>
        <path id="Path_2411" data-name="Path 2411" d="M355.611,310.375a8.077,8.077,0,0,0-1.564,2.774.451.451,0,0,1-.219.33c-.192.112-.524.174-.606-.435-.133-.984,1.21-2.654,1.21-2.654S355.242,310.052,355.611,310.375Z" fill="none" stroke="#fff" stroke-miterlimit="10" stroke-width="4"/>
        <path id="Path_2412" data-name="Path 2412" d="M352.922,309.765a7.307,7.307,0,0,0-1.491,2.752.5.5,0,0,1-.241.363c-.211.122-.576.191-.667-.479-.146-1.081,1.331-2.918,1.331-2.918a1.57,1.57,0,0,1,1.068.282" fill="#fff"/>
        <path id="Path_2413" data-name="Path 2413" d="M352.922,309.765a7.307,7.307,0,0,0-1.491,2.752.5.5,0,0,1-.241.363c-.211.122-.576.191-.667-.479-.146-1.081,1.331-2.918,1.331-2.918A1.57,1.57,0,0,1,352.922,309.765Z" fill="none" stroke="#fff" stroke-miterlimit="10" stroke-width="4"/>
        <path id="Path_2414" data-name="Path 2414" d="M350.347,309.323a7.21,7.21,0,0,0-1.47,2.713.489.489,0,0,1-.237.358c-.209.121-.569.189-.658-.472-.144-1.066,1.312-2.877,1.312-2.877a1.548,1.548,0,0,1,1.053.278" fill="#fff"/>
        <path id="Path_2415" data-name="Path 2415" d="M350.347,309.323a7.21,7.21,0,0,0-1.47,2.713.489.489,0,0,1-.237.358c-.209.121-.569.189-.658-.472-.144-1.066,1.312-2.877,1.312-2.877A1.548,1.548,0,0,1,350.347,309.323Z" fill="none" stroke="#fff" stroke-miterlimit="10" stroke-width="4"/>
        <path id="Path_2416" data-name="Path 2416" d="M347.429,322.846a9.213,9.213,0,0,0-5.119-2.531,7.946,7.946,0,0,0-5.149,1.251.219.219,0,0,0-.083.117.048.048,0,0,0-.028-.037l-.066.231a.193.193,0,0,1-.144-.16.4.4,0,0,1,.19-.352,8.173,8.173,0,0,1,5.3-1.289,9.456,9.456,0,0,1,5.264,2.6Z" fill="#fff"/>
        <path id="Path_2417" data-name="Path 2417" d="M347.429,322.846a9.213,9.213,0,0,0-5.119-2.531,7.946,7.946,0,0,0-5.149,1.251.219.219,0,0,0-.083.117.048.048,0,0,0-.028-.037l-.066.231a.193.193,0,0,1-.144-.16.4.4,0,0,1,.19-.352,8.173,8.173,0,0,1,5.3-1.289,9.456,9.456,0,0,1,5.264,2.6Z" fill="none" stroke="#fff" stroke-miterlimit="10" stroke-width="4"/>
        <path id="Path_2418" data-name="Path 2418" d="M298.206,260.835l-.24-.019c1.335-17.174-4.05-19.06-4.105-19.076l.072-.23c.23.071,5.623,1.96,4.273,19.325" fill="#fff"/>
        <path id="Path_2419" data-name="Path 2419" d="M298.206,260.835l-.24-.019c1.335-17.174-4.05-19.06-4.105-19.076l.072-.23C294.163,241.581,299.556,243.47,298.206,260.835Z" fill="none" stroke="#fff" stroke-miterlimit="10" stroke-width="4"/>
        <path id="Path_2420" data-name="Path 2420" d="M287.6,304.172a29.218,29.218,0,0,1-9.014-1.635l.085-.225c.083.032,8.411,3.121,14.173.688l.093.222a13.794,13.794,0,0,1-5.337.95" fill="#fff"/>
        <path id="Path_2421" data-name="Path 2421" d="M287.6,304.172a29.218,29.218,0,0,1-9.014-1.635l.085-.225c.083.032,8.411,3.121,14.173.688l.093.222A13.794,13.794,0,0,1,287.6,304.172Z" fill="none" stroke="#fff" stroke-miterlimit="10" stroke-width="4"/>
        <path id="Path_2422" data-name="Path 2422" d="M327.755,306.184l-.1-.219c.074-.034,7.415-3.463,10.526-8.013l.2.136c-3.149,4.606-10.55,8.062-10.624,8.1" fill="#fff"/>
        <path id="Path_2423" data-name="Path 2423" d="M327.755,306.184l-.1-.219c.074-.034,7.415-3.463,10.526-8.013l.2.136C335.23,302.694,327.829,306.15,327.755,306.184Z" fill="none" stroke="#fff" stroke-miterlimit="10" stroke-width="4"/>
        <path id="Path_2424" data-name="Path 2424" d="M289.189,318.349s-5.326,2.505-8.8-.457c-2.338-1.993-2.384,6.5-2.142,9.5a1.436,1.436,0,0,0,1.226,1.307c2.313.339,7.647,1.037,10.647.77,0,0,8.472-.184,13.9-.184,8.049,0,7.156-1.575,7.156-1.575s-.635-4.749-8.437-6.1c-.664-.114-1.375-.2-2.138-.258-1.983-.145-1.71-.883-3.275-2.11a30.744,30.744,0,0,0-5.316-3.6c-2.145-.846-2.824,2.7-2.824,2.7" fill="#fff"/>
        <path id="Path_2425" data-name="Path 2425" d="M289.189,318.349s-5.326,2.505-8.8-.457c-2.338-1.993-2.384,6.5-2.142,9.5a1.436,1.436,0,0,0,1.226,1.307c2.313.339,7.647,1.037,10.647.77,0,0,8.472-.184,13.9-.184,8.049,0,7.156-1.575,7.156-1.575s-.635-4.749-8.437-6.1c-.664-.114-1.375-.2-2.138-.258-1.983-.145-1.71-.883-3.275-2.11a30.744,30.744,0,0,0-5.316-3.6C289.868,314.8,289.189,318.349,289.189,318.349Z" fill="none" stroke="#fff" stroke-miterlimit="10" stroke-width="4"/>
        <path id="Path_2426" data-name="Path 2426" d="M304.2,321.922s-2.305,2.275-1.8,7.369c0,0,8.422.66,9.159-1.623,0,0-1.12-4.615-7.362-5.746" fill="#fff"/>
        <path id="Path_2427" data-name="Path 2427" d="M304.2,321.922s-2.305,2.275-1.8,7.369c0,0,8.422.66,9.159-1.623C311.562,327.668,310.442,323.053,304.2,321.922Z" fill="none" stroke="#fff" stroke-miterlimit="10" stroke-width="4"/>
        <path id="Path_2428" data-name="Path 2428" d="M311.562,327.667s1.46,2.116-12.391,1.381-18.476.311-20.925-1.655c0,0-.6,1.972,0,2.608s14.486,1.127,18.658,1.262,13.209.75,14.658-1.262a1.99,1.99,0,0,0,0-2.334" fill="#fff"/>
        <path id="Path_2429" data-name="Path 2429" d="M311.562,327.667s1.46,2.116-12.391,1.381-18.476.311-20.925-1.655c0,0-.6,1.972,0,2.608s14.486,1.127,18.658,1.262,13.209.75,14.658-1.262A1.99,1.99,0,0,0,311.562,327.667Z" fill="none" stroke="#fff" stroke-miterlimit="10" stroke-width="4"/>
        <path id="Path_2430" data-name="Path 2430" d="M299.468,320.886a8.076,8.076,0,0,0-2.633,1.791.449.449,0,0,1-.343.2c-.222.015-.547-.077-.35-.659.318-.94,2.263-1.84,2.263-1.84s.876.057,1.063.51" fill="#fff"/>
        <path id="Path_2431" data-name="Path 2431" d="M299.468,320.886a8.076,8.076,0,0,0-2.633,1.791.449.449,0,0,1-.343.2c-.222.015-.547-.077-.35-.659.318-.94,2.263-1.84,2.263-1.84S299.281,320.433,299.468,320.886Z" fill="none" stroke="#fff" stroke-miterlimit="10" stroke-width="4"/>
        <path id="Path_2432" data-name="Path 2432" d="M297.567,319.309a7.285,7.285,0,0,0-2.557,1.8.5.5,0,0,1-.378.218c-.244.016-.6-.085-.385-.725.35-1.034,2.488-2.023,2.488-2.023a1.563,1.563,0,0,1,.832.726" fill="#fff"/>
        <path id="Path_2433" data-name="Path 2433" d="M297.567,319.309a7.285,7.285,0,0,0-2.557,1.8.5.5,0,0,1-.378.218c-.244.016-.6-.085-.385-.725.35-1.034,2.488-2.023,2.488-2.023A1.563,1.563,0,0,1,297.567,319.309Z" fill="none" stroke="#fff" stroke-miterlimit="10" stroke-width="4"/>
        <path id="Path_2434" data-name="Path 2434" d="M295.642,317.838a7.206,7.206,0,0,0-2.522,1.778.486.486,0,0,1-.372.215c-.24.016-.593-.083-.379-.715.344-1.019,2.453-1.994,2.453-1.994a1.541,1.541,0,0,1,.82.716" fill="#fff"/>
        <path id="Path_2435" data-name="Path 2435" d="M295.642,317.838a7.206,7.206,0,0,0-2.522,1.778.486.486,0,0,1-.372.215c-.24.016-.593-.083-.379-.715.344-1.019,2.453-1.994,2.453-1.994A1.541,1.541,0,0,1,295.642,317.838Z" fill="none" stroke="#fff" stroke-miterlimit="10" stroke-width="4"/>
        <path id="Path_2436" data-name="Path 2436" d="M286.863,328.838a.121.121,0,0,1-.114-.082,8.96,8.96,0,0,0-3.276-4.539,7.941,7.941,0,0,0-5.168-1.165.121.121,0,0,1-.134-.106.119.119,0,0,1,.105-.133,8.179,8.179,0,0,1,5.326,1.2,9.211,9.211,0,0,1,3.375,4.666.121.121,0,0,1-.075.153.132.132,0,0,1-.039.006" fill="#fff"/>
        <path id="Path_2437" data-name="Path 2437" d="M286.863,328.838a.121.121,0,0,1-.114-.082,8.96,8.96,0,0,0-3.276-4.539,7.941,7.941,0,0,0-5.168-1.165.121.121,0,0,1-.134-.106.119.119,0,0,1,.105-.133,8.179,8.179,0,0,1,5.326,1.2,9.211,9.211,0,0,1,3.375,4.666.121.121,0,0,1-.075.153A.132.132,0,0,1,286.863,328.838Z" fill="none" stroke="#fff" stroke-miterlimit="10" stroke-width="4"/>
        <path id="Path_2438" data-name="Path 2438" d="M265.971,185.359c0,.727.43,1.317.961,1.317s.962-.59.962-1.317-.43-1.317-.962-1.317-.961.59-.961,1.317" fill="#fff"/>
        <path id="Path_2439" data-name="Path 2439" d="M265.971,185.359c0,.727.43,1.317.961,1.317s.962-.59.962-1.317-.43-1.317-.962-1.317S265.971,184.632,265.971,185.359Z" fill="none" stroke="#fff" stroke-miterlimit="10" stroke-width="4"/>
        <path id="Path_2440" data-name="Path 2440" d="M257,184.042c0,.727.43,1.317.961,1.317s.962-.59.962-1.317-.431-1.317-.962-1.317-.961.59-.961,1.317" fill="#fff"/>
        <path id="Path_2441" data-name="Path 2441" d="M257,184.042c0,.727.43,1.317.961,1.317s.962-.59.962-1.317-.431-1.317-.962-1.317S257,183.315,257,184.042Z" fill="none" stroke="#fff" stroke-miterlimit="10" stroke-width="4"/>
        <path id="Path_2442" data-name="Path 2442" d="M264.419,190.794a12.777,12.777,0,0,1-3.726-.031,6.393,6.393,0,0,1-1.932-.745" fill="#fff"/>
        <path id="Path_2443" data-name="Path 2443" d="M264.419,190.794a12.777,12.777,0,0,1-3.726-.031,6.393,6.393,0,0,1-1.932-.745" fill="none" stroke="#fff" stroke-linecap="round" stroke-linejoin="round" stroke-width="4"/>
        <path id="Path_2444" data-name="Path 2444" d="M263.429,185.449a2.227,2.227,0,0,0,.04,1.683,12.37,12.37,0,0,0,.806,1.527" fill="#fff"/>
        <path id="Path_2445" data-name="Path 2445" d="M263.429,185.449a2.227,2.227,0,0,0,.04,1.683,12.37,12.37,0,0,0,.806,1.527" fill="none" stroke="#fff" stroke-linecap="round" stroke-linejoin="round" stroke-width="4"/>
        <path id="Path_2446" data-name="Path 2446" d="M278.056,217.8S288.6,235.382,290,241.686l-5.927,2.147s-10.221-16.921-11.207-20.313c0,0,2.652-5.336,5.194-5.717" fill="#fff"/>
        <path id="Path_2447" data-name="Path 2447" d="M328.235,301.52s5.864,12.753,10.155,16.608l7.249-4.921s-3.57-6.4-7.96-16.565Z" fill="#fff"/>
        <path id="Path_2448" data-name="Path 2448" d="M271.51,171.2s2.962,6.091,1.691,16.682c-.133,1.106-.46,2.316-.012,3.274.495,1.057,1.323,1.975,1.8,3.1a16.744,16.744,0,0,1,1.518,5.376,6.415,6.415,0,0,1-1.793,5.125c-2.146,1.974-5.662,1.592-8.332,2.075a13.554,13.554,0,0,1-4.654-.136c-.557-.1-4.406-1.032-4.343-1.786,0,0,2.852-34.168,14.13-33.711" fill="#736357"/>
        <path id="Path_2449" data-name="Path 2449" d="M258.42,200.567a3.017,3.017,0,0,0,1.931,1.389c1.3.244-2.055.73-3.075.828s1.144-2.217,1.144-2.217" fill="#ffbf9c"/>
        <path id="Path_2450" data-name="Path 2450" d="M268.746,168.143c-4.179-3.147-8.683-4.646-13.431-3.452-1.614-.372-4.291-.08-7.663,3.631-4.033,4.437-8.021,15.065-3.63,21.1,3.131,4.3,6.79,5.114,6.79,5.114s12.083,7.457,18.244-4.155c0,0,1.422-3.977,2.654-6.819s3.217-10.768-2.964-15.422" fill="#736357"/>
        <path id="Path_2451" data-name="Path 2451" d="M260.756,195.331s-.255.709-.6,1.688c-.671,1.885-1.687,4.768-1.891,5.493,0,0-7.9,1.7-10.2-4.542,0,0,.565-1.177,1.1-2.667a14.269,14.269,0,0,0,.936-4.019,4.5,4.5,0,0,0-.014-.5s7.677,3.812,10.668,4.546" fill="#fff"/>
        <path id="Path_2452" data-name="Path 2452" d="M270.3,176.848s-.942,7.488-1.135,9.209c-.532,4.764-2.175,10.6-7.05,10.943-6.382.442-10.9-2.693-13.855-8.749-2.933-6,1.5-19.251,8-19.31s13.6,2.338,14.039,7.907" fill="#fff"/>
        <path id="Path_2453" data-name="Path 2453" d="M255.374,168.79s1.716,5.473,11.432,9.981c1.641.761,3.277,1.69,3.489,3.425,0,0,2.39-7.11-2.323-10.989-1.926-1.586-4.971-2.3-6.845-2.618a16.335,16.335,0,0,0-5.753.2" fill="#736357"/>
        <path id="Path_2454" data-name="Path 2454" d="M249.52,185.8a12.183,12.183,0,0,1-.486-3.645c.026-1.354.343-2.19.366-2.918a2.694,2.694,0,0,0-3.286.408c-1.99,2.14.766,7.229,3.406,6.155" fill="#ffbf9c"/>
        <path id="Path_2455" data-name="Path 2455" d="M264.493,202.5c2.236.285,7.294,2.119,11.25,8.186,3.449,5.288,3.929,7.694,3.929,7.694s-3.974,2.9-7.065,3.3c0,0-8.146-15.6-8.114-19.176" fill="#fbb03b"/>
        <path id="Path_2456" data-name="Path 2456" d="M248.066,199.89a12.752,12.752,0,0,0,12.69,1.856s3.935.14,5.673,1.961c4.078,4.272,9.13,16.163,8,20.4s-7.329,21.7-7.329,21.7-28.487,19.768-33.775,4.627c0,0,3.593-13.243,5.717-18.586,0,0-6.718-21.556-3.738-26.718,0,0,9.614-4.131,12.765-5.233" fill="#fbb03b"/>
        <path id="Path_2457" data-name="Path 2457" d="M255.315,164.692s-8.882-2.257-15.227,10.666c-1.563,3.183.135,7.116-1.18,10.615a37.039,37.039,0,0,1-2.206,4.213,21.511,21.511,0,0,0-2.45,8.564,7.869,7.869,0,0,0,.974,5,7.242,7.242,0,0,0,3.347,2.45,20.992,20.992,0,0,0,6.7,1.369c2.362.145,4.937-.01,6.758-1.521a3.7,3.7,0,0,0,1.2-1.66,5.6,5.6,0,0,0-.178-3.047c-.637-2.57-1.6-5.217-1.593-7.862a56.831,56.831,0,0,1,.319-7.048A33.273,33.273,0,0,1,257.1,171.8Z" fill="#736357"/>
        <path id="Path_2458" data-name="Path 2458" d="M241.477,222.828s1.834,9.455,1.464,12.9c0,0,13.876.6,23.23,3.322,0,0,2.248,3.047.258,4.589s-24.952,3.747-30.488-2.383c0,0-4.5-13.85-4.262-18.425,0,0,8.332-1.206,9.8,0" fill="#fff"/>
        <path id="Path_2459" data-name="Path 2459" d="M235.656,204.893a1.248,1.248,0,0,1,1.032.2c2.848,1.888,4.829,3.669,5.586,7.207.6,2.789.1,5.722.681,8.479a36.966,36.966,0,0,1,1.278,7.032,2.824,2.824,0,0,1-.727,2.346,2.866,2.866,0,0,1-1.383.469,37.188,37.188,0,0,1-14.235-.358c-.573-5.366.589-10.718,2.025-15.86a9.207,9.207,0,0,0,.454-1.558,2.741,2.741,0,0,1,.411-1.052l1.943-3.466c.276-.492.552-.984.874-1.447.516-.74,1.226-1.782,2.061-1.993" fill="#fbb03b"/>
        <path id="Path_2460" data-name="Path 2460" d="M281.175,301.265s-1.329,13.806.692,18.889l7.92-.321a198.874,198.874,0,0,0,1.608-20.219Z" fill="#fff"/>
        <path id="Path_2461" data-name="Path 2461" d="M273.7,224.1H300.68a1.525,1.525,0,0,1,1.254,1.934l-6.14,31.829H266.17l6.28-32.549A1.372,1.372,0,0,1,273.7,224.1" fill="#a6a8ab"/>
        <path id="Path_2462" data-name="Path 2462" d="M273.7,218.5H300.68a1.524,1.524,0,0,1,1.254,1.934l-6.14,31.829H266.17l6.28-32.55A1.371,1.371,0,0,1,273.7,218.5" fill="#666"/>
        <path id="Path_2463" data-name="Path 2463" d="M291.756,244.059s6.793-5.888,15.1-1.369,28.2,44.23,32.2,56.9c0,0-3.884,6.073-10.13,7.653,0,0-24.518-30.949-28.7-46.985,0,0-6.593,2.187-11.013.628s2.537-16.824,2.537-16.824" fill="#998675"/>
        <path id="Path_2464" data-name="Path 2464" d="M233.323,250.427s-7.092,18.829.776,25.3,26.548,6.812,46.835-9.667a76.342,76.342,0,0,0-1.952,38.157s4.437,2.524,13.472,1.111c0,0,10.045-49.06,3.306-62.638,0,0-9.941-9.565-47.693,10.809,0,0-11.425,5.21-14.744-3.072" fill="#998675"/>
        <path id="Path_2465" data-name="Path 2465" d="M261.6,240.265,263.2,238.4s2.951-3.649,5.831-4.907c0,0,2.1-2.008,2.738-2.006s-.23,2.839-1.92,3.915c0,0,2.61-.183,3.559-.3.343-.041,4.786-2.769,5.182-2.42,1.359,1.194-1.352,5.72-2.08,6.969-1.289,2.212-7.991,4.1-12.624,4.181Z" fill="#fff"/>
        <path id="Path_2466" data-name="Path 2466" d="M278.949,233.424a35.825,35.825,0,0,1-3.6,3.118,25.635,25.635,0,0,1-3.567.768s2.8.2,3.818-.444c.7-.443,3.42-3.121,3.344-3.442" fill="#fbb18f"/>
        <path id="Path_2467" data-name="Path 2467" d="M278.626,235.385s-2.116,2.416-3.059,2.716-2.7.947-2.7.947a20.949,20.949,0,0,0,2.986-.705,11.013,11.013,0,0,0,2.778-2.958" fill="#fbb18f"/>
        <path id="Path_2468" data-name="Path 2468" d="M277.386,238.111a9.921,9.921,0,0,1-1.669,1.341c-.557.257-2.422,1.051-2.422,1.051s2.064-.582,2.566-.813a7.854,7.854,0,0,0,1.525-1.579" fill="#fbb18f"/>
        <path id="Path_2469" data-name="Path 2469" d="M344.825,312.52s-3.66,4.61-8.089,3.5c-2.98-.747.75,6.88,2.3,9.464a1.437,1.437,0,0,0,1.679.627c2.223-.724,7.313-2.467,9.882-4.039,0,0,7.509-3.927,12.375-6.339,7.213-3.575,6.037-4.8,6.037-4.8s-3-3.764-10.592-1.509c-.645.191-1.322.428-2.03.717-1.842.751-1.925-.032-3.872-.436a30.755,30.755,0,0,0-6.361-.862c-2.3.2-1.329,3.676-1.329,3.676" fill="#29abe2"/>
        <path id="Path_2470" data-name="Path 2470" d="M359.862,309.054s-1.055,3.062,1.662,7.4c0,0,8.906-3.149,8.552-5.522a11.293,11.293,0,0,0-10.214-1.879" fill="#ccc"/>
        <path id="Path_2471" data-name="Path 2471" d="M369.009,310.933s2.248,1.248-10.489,6.74-16.416,8.483-19.483,7.81c0,0,.338,2.033,1.157,2.336s13.48-5.423,17.278-7.155,12.168-5.194,12.573-7.64a1.99,1.99,0,0,0-1.036-2.091" fill="#ccc"/>
        <path id="Path_2472" data-name="Path 2472" d="M355.611,310.375a8.077,8.077,0,0,0-1.564,2.774.451.451,0,0,1-.219.33c-.192.112-.524.174-.606-.435-.133-.984,1.21-2.654,1.21-2.654s.81-.338,1.179-.015" fill="#fff"/>
        <path id="Path_2473" data-name="Path 2473" d="M352.922,309.765a7.307,7.307,0,0,0-1.491,2.752.5.5,0,0,1-.241.363c-.211.122-.576.191-.667-.479-.146-1.081,1.331-2.918,1.331-2.918a1.57,1.57,0,0,1,1.068.282" fill="#fff"/>
        <path id="Path_2474" data-name="Path 2474" d="M350.347,309.323a7.21,7.21,0,0,0-1.47,2.713.489.489,0,0,1-.237.358c-.209.121-.569.189-.658-.472-.144-1.066,1.312-2.877,1.312-2.877a1.548,1.548,0,0,1,1.053.278" fill="#fff"/>
        <path id="Path_2475" data-name="Path 2475" d="M347.429,322.846a9.213,9.213,0,0,0-5.119-2.531,7.946,7.946,0,0,0-5.149,1.251.219.219,0,0,0-.083.117.048.048,0,0,0-.028-.037l-.066.231a.193.193,0,0,1-.144-.16.4.4,0,0,1,.19-.352,8.173,8.173,0,0,1,5.3-1.289,9.456,9.456,0,0,1,5.264,2.6Z" fill="#fff"/>
        <path id="Path_2476" data-name="Path 2476" d="M298.206,260.835l-.24-.019c1.335-17.174-4.05-19.06-4.105-19.076l.072-.23c.23.071,5.623,1.96,4.273,19.325" fill="#fff"/>
        <path id="Path_2477" data-name="Path 2477" d="M287.6,304.172a29.218,29.218,0,0,1-9.014-1.635l.085-.225c.083.032,8.411,3.121,14.173.688l.093.222a13.794,13.794,0,0,1-5.337.95" fill="#fff"/>
        <path id="Path_2478" data-name="Path 2478" d="M327.755,306.184l-.1-.219c.074-.034,7.415-3.463,10.526-8.013l.2.136c-3.149,4.606-10.55,8.062-10.624,8.1" fill="#fff"/>
        <path id="Path_2479" data-name="Path 2479" d="M289.189,318.349s-5.326,2.505-8.8-.457c-2.338-1.993-2.384,6.5-2.142,9.5a1.436,1.436,0,0,0,1.226,1.307c2.313.339,7.647,1.037,10.647.77,0,0,8.472-.184,13.9-.184,8.049,0,7.156-1.575,7.156-1.575s-.635-4.749-8.437-6.1c-.664-.114-1.375-.2-2.138-.258-1.983-.145-1.71-.883-3.275-2.11a30.744,30.744,0,0,0-5.316-3.6c-2.145-.846-2.824,2.7-2.824,2.7" fill="#29abe2"/>
        <path id="Path_2480" data-name="Path 2480" d="M304.2,321.922s-2.305,2.275-1.8,7.369c0,0,8.422.66,9.159-1.623,0,0-1.12-4.615-7.362-5.746" fill="#ccc"/>
        <path id="Path_2481" data-name="Path 2481" d="M311.562,327.667s1.46,2.116-12.391,1.381-18.476.311-20.925-1.655c0,0-.6,1.972,0,2.608s14.486,1.127,18.658,1.262,13.209.75,14.658-1.262a1.99,1.99,0,0,0,0-2.334" fill="#ccc"/>
        <path id="Path_2482" data-name="Path 2482" d="M299.468,320.886a8.076,8.076,0,0,0-2.633,1.791.449.449,0,0,1-.343.2c-.222.015-.547-.077-.35-.659.318-.94,2.263-1.84,2.263-1.84s.876.057,1.063.51" fill="#fff"/>
        <path id="Path_2483" data-name="Path 2483" d="M297.567,319.309a7.285,7.285,0,0,0-2.557,1.8.5.5,0,0,1-.378.218c-.244.016-.6-.085-.385-.725.35-1.034,2.488-2.023,2.488-2.023a1.563,1.563,0,0,1,.832.726" fill="#fff"/>
        <path id="Path_2484" data-name="Path 2484" d="M295.642,317.838a7.206,7.206,0,0,0-2.522,1.778.486.486,0,0,1-.372.215c-.24.016-.593-.083-.379-.715.344-1.019,2.453-1.994,2.453-1.994a1.541,1.541,0,0,1,.82.716" fill="#fff"/>
        <path id="Path_2485" data-name="Path 2485" d="M286.863,328.838a.121.121,0,0,1-.114-.082,8.96,8.96,0,0,0-3.276-4.539,7.941,7.941,0,0,0-5.168-1.165.121.121,0,0,1-.134-.106.119.119,0,0,1,.105-.133,8.179,8.179,0,0,1,5.326,1.2,9.211,9.211,0,0,1,3.375,4.666.121.121,0,0,1-.075.153.132.132,0,0,1-.039.006" fill="#fff"/>
        <path id="Path_2486" data-name="Path 2486" d="M265.971,185.359c0,.727.43,1.317.961,1.317s.962-.59.962-1.317-.43-1.317-.962-1.317-.961.59-.961,1.317" fill="#666"/>
        <path id="Path_2487" data-name="Path 2487" d="M257,184.042c0,.727.43,1.317.961,1.317s.962-.59.962-1.317-.431-1.317-.962-1.317-.961.59-.961,1.317" fill="#666"/>
        <path id="Path_2488" data-name="Path 2488" d="M264.419,190.794a12.777,12.777,0,0,1-3.726-.031,6.393,6.393,0,0,1-1.932-.745" fill="none" stroke="#666" stroke-linecap="round" stroke-linejoin="round" stroke-width="1.109"/>
        <path id="Path_2489" data-name="Path 2489" d="M263.429,185.449a2.227,2.227,0,0,0,.04,1.683,12.37,12.37,0,0,0,.806,1.527" fill="none" stroke="#666" stroke-linecap="round" stroke-linejoin="round" stroke-width="1.109"/>
      </g>
    </g>
  </g>
</svg>
