<svg id="logo" xmlns="http://www.w3.org/2000/svg" xmlns:xlink="http://www.w3.org/1999/xlink" width="29.94" height="29.94" viewBox="0 0 29.94 29.94">
  <defs>
    <clipPath id="clip-path">
      <rect id="Rectangle_3" data-name="Rectangle 3" width="29.94" height="29.94" fill="none"/>
    </clipPath>
  </defs>
  <g id="Group_1" data-name="Group 1" clip-path="url(#clip-path)">
    <path id="Path_4" data-name="Path 4" d="M29.94,14.969A14.97,14.97,0,1,1,14.97,0a14.97,14.97,0,0,1,14.97,14.97" transform="translate(0 0.001)" fill="#fff"/>
    <path id="Path_5" data-name="Path 5" d="M34.779,20.966A13.812,13.812,0,1,1,20.966,7.154,13.812,13.812,0,0,1,34.779,20.966" transform="translate(-5.996 -5.996)" fill="#3c9a38"/>
    <path id="Path_6" data-name="Path 6" d="M19.03,33.216a14.285,14.285,0,0,1-2.859-.288A14.105,14.105,0,0,1,11.1,30.793a14.229,14.229,0,0,1-5.139-6.241,14.123,14.123,0,0,1-.827-2.663,14.321,14.321,0,0,1,0-5.717A14.109,14.109,0,0,1,7.267,11.1a14.226,14.226,0,0,1,6.241-5.139,14.11,14.11,0,0,1,2.664-.827,14.32,14.32,0,0,1,5.717,0,14.113,14.113,0,0,1,5.073,2.135A14.228,14.228,0,0,1,32.1,13.508a14.116,14.116,0,0,1,.827,2.663,14.321,14.321,0,0,1,0,5.717,14.106,14.106,0,0,1-2.135,5.073A14.229,14.229,0,0,1,24.552,32.1a14.121,14.121,0,0,1-2.664.827,14.285,14.285,0,0,1-2.859.288m0-27.625A13.439,13.439,0,1,0,32.469,19.03,13.454,13.454,0,0,0,19.03,5.591" transform="translate(-4.06 -4.06)" fill="#3c9a38"/>
    <path id="Path_7" data-name="Path 7" d="M8.576,26.545a11.322,11.322,0,0,1-.631-1.921A14.09,14.09,0,0,1,7.6,22.549a13.347,13.347,0,0,1-.042-1.819A13.756,13.756,0,0,1,10.5,12.822a13.846,13.846,0,0,1,2.189-2.212,13.672,13.672,0,0,1,5.878-2.775,13.809,13.809,0,0,1,1.978-.254,14.311,14.311,0,0,1,2.3.057,13.481,13.481,0,0,1,3.12.711,13.8,13.8,0,0,1,8.943,10.5,14.011,14.011,0,0,1,.207,1.873,13.751,13.751,0,0,1-.964,5.744c-.007.017-.012.035-.018.052a3.5,3.5,0,0,1-.752.132,8.236,8.236,0,0,0-2.2-.261,10.026,10.026,0,0,0-1.062.022c-.2.023-.232-.035-.16-.221a13.329,13.329,0,0,0,.82-3.315,8.07,8.07,0,0,0,.064-1.143c0-.142-.012-.15-.153-.128a13.983,13.983,0,0,0-1.811.438,13.789,13.789,0,0,0-2.081.814,10.261,10.261,0,0,0-1.54.919c-.241.175-.253.168-.32-.124a26.568,26.568,0,0,0-.873-2.923,20.74,20.74,0,0,0-1.1-2.561,11.7,11.7,0,0,0-1.54-2.351c-.108-.124-.113-.127-.224,0a10.986,10.986,0,0,0-1.11,1.58,21.242,21.242,0,0,0-1.879,4.4c-.2.628-.379,1.261-.527,1.9-.006.027-.013.054-.021.08-.042.132-.085.151-.2.067a10.072,10.072,0,0,0-1.421-.875,12.577,12.577,0,0,0-1.195-.54,16.154,16.154,0,0,0-2.539-.755c-.126-.027-.254-.044-.38-.07-.1-.019-.133.013-.134.113a9.064,9.064,0,0,0,.035.979,13.859,13.859,0,0,0,.715,3.172c.047.135.11.264.151.4s.022.144-.109.145c-.327,0-.652-.035-.979-.031a10.253,10.253,0,0,0-2.218.236.477.477,0,0,1-.109.015c-.19.017-.375-.03-.564-.031a.2.2,0,0,1-.137-.058" transform="translate(-6.327 -6.335)" fill="#eb6835"/>
    <path id="Path_8" data-name="Path 8" d="M100.627,133.267c0-.566,0-1.133,0-1.7a.337.337,0,0,1,.084-.237q.613-.719,1.222-1.443a.276.276,0,0,1,.405,0,3.2,3.2,0,0,0,3.78.834,6.79,6.79,0,0,0,2.174-1.557,17.447,17.447,0,0,0,2.379-3.122c.25-.4.493-.809.716-1.227a7.069,7.069,0,0,1,.757-.105,13.441,13.441,0,0,1-2.069,3.519,13.84,13.84,0,0,1-8.034,4.843,10.3,10.3,0,0,1-1.415.2" transform="translate(-84.344 -104.528)" fill="#c6d347"/>
    <path id="Path_9" data-name="Path 9" d="M14.614,124.951c-.038.026-.036.053-.014.092a19.445,19.445,0,0,0,3.275,4.491,6.017,6.017,0,0,0,2.174,1.431,3.128,3.128,0,0,0,3.3-.641,1.444,1.444,0,0,0,.205-.2.34.34,0,0,1,.327-.151.255.255,0,0,1,.2.095q.585.7,1.177,1.391a.418.418,0,0,1,.112.3c-.005.557,0,1.114,0,1.671a12.469,12.469,0,0,1-1.427-.206,13.664,13.664,0,0,1-3.809-1.368,13.856,13.856,0,0,1-2.378-1.616,13.638,13.638,0,0,1-2.633-2.97,13.423,13.423,0,0,1-1.2-2.276.726.726,0,0,1-.024-.092l.716.056" transform="translate(-11.649 -104.685)" fill="#c6d347"/>
    <path id="Path_10" data-name="Path 10" d="M83.929,151.327l-.817-.661a.094.094,0,0,1-.034-.042c-.015-.06.2-.32.26-.314.173.017.346.04.519.058.061.006.072.044.072.1,0,.243,0,.487,0,.73v.134" transform="translate(-69.634 -125.987)" fill="#c6d347"/>
    <path id="Path_11" data-name="Path 11" d="M97.081,151.261c0-.319,0-.6,0-.878,0-.056.018-.081.077-.087.16-.017.319-.036.477-.064a.089.089,0,0,1,.109.054c.02.036.041.072.063.107.119.183.12.183-.056.326l-.67.542" transform="translate(-81.371 -125.92)" fill="#c6d347"/>
    <path id="Path_12" data-name="Path 12" d="M148.778,95.58l.066-.081a.442.442,0,0,0-.1.017Z" transform="translate(-124.678 -80.046)" fill="#6f753d"/>
    <path id="Path_13" data-name="Path 13" d="M93.468,60.3a12.054,12.054,0,0,1,1.3,2.009,24.2,24.2,0,0,1,1.877,4.969c.093.346.181.694.251,1.045.006.031.019.061.031.1A13.119,13.119,0,0,1,102.443,66l.026.036-7.388,9.046a.993.993,0,0,1-.236-.341.146.146,0,0,0-.192-.1,7.616,7.616,0,0,1-1.041.116c-.111.005-.149-.015-.147-.136.007-.474,0-.948,0-1.423V60.3Z" transform="translate(-78.34 -50.539)" fill="#3c9a38"/>
    <path id="Path_14" data-name="Path 14" d="M84.813,160.042a2.2,2.2,0,0,1-.964-.266.122.122,0,0,1-.081-.14.35.35,0,0,0-.117-.32c-.1-.1-.177-.212-.271-.314a.11.11,0,0,1-.016-.146,1.311,1.311,0,0,1,.729-.621.1.1,0,0,1,.12.028,1.352,1.352,0,0,0,.374.256.616.616,0,0,0,.653-.049,1.014,1.014,0,0,0,.2-.15.245.245,0,0,1,.352-.038,1.35,1.35,0,0,1,.566.568.119.119,0,0,1-.021.158c-.088.094-.162.2-.252.293a.371.371,0,0,0-.131.342c.013.069-.034.1-.085.125a2.044,2.044,0,0,1-1.053.274" transform="translate(-69.857 -132.622)" fill="#3c9a38"/>
    <path id="Path_15" data-name="Path 15" d="M77.66,153.691a1.728,1.728,0,0,0,.694-.428c.038-.038.063-.016.093.009.235.191.471.382.707.571.06.048.035.065-.019.09a1.449,1.449,0,0,0-.668.594c-.026.044-.043.068-.086.016-.236-.281-.473-.56-.721-.852" transform="translate(-65.093 -128.445)" fill="#3c9a38"/>
    <path id="Path_16" data-name="Path 16" d="M99.963,153.761c-.243.287-.478.563-.711.84-.038.045-.058.06-.095-.006a1.423,1.423,0,0,0-.646-.6c-.081-.039-.067-.065-.009-.111q.329-.261.655-.528c.036-.029.061-.046.1-.005a1.636,1.636,0,0,0,.7.41" transform="translate(-82.523 -128.516)" fill="#3c9a38"/>
    <path id="Path_17" data-name="Path 17" d="M20.454,127.363l-.124-.082.219.342h0a19.321,19.321,0,0,0,2.4,3.315,7.481,7.481,0,0,0,2.006,1.606,3.265,3.265,0,0,0,2.291.371,2.99,2.99,0,0,0,1.183-.575l-7.972-4.976" transform="translate(-17.04 -106.685)" fill="#3c9a38"/>
    <path id="Path_18" data-name="Path 18" d="M30.728,105.971c-.29-.345-.572-.7-.856-1.048l-5.995-7.369c-.154-.19-.31-.378-.465-.567a12.54,12.54,0,0,0,1.033,4.58,12.128,12.128,0,0,0-3.074.058l-.166.022.089.053a.254.254,0,0,0,.036.022l.064.039q3.829,2.392,7.659,4.78c.112.07.225.206.34.186s.2-.178.286-.286a.142.142,0,0,1,.15-.06,1.212,1.212,0,0,0,.871-.234c.08-.056.1-.092.027-.177" transform="translate(-17.774 -81.293)" fill="#3c9a38"/>
    <path id="Path_19" data-name="Path 19" d="M45.155,60.309v-.188l-.04.05h0a21.625,21.625,0,0,0-3.429,8.108,12.741,12.741,0,0,0-5.524-2.388l7.374,9.063a1.321,1.321,0,0,0,.244-.36.131.131,0,0,1,.168-.09,8.854,8.854,0,0,0,1.042.111c.131.006.167-.022.167-.159q-.006-7.074,0-14.147" transform="translate(-30.31 -50.392)" fill="#3c9a38"/>
    <path id="Path_20" data-name="Path 20" d="M123.066,127.288l-.442.294-4.507,2.811q-1.5.935-3,1.871c-.05.031-.163.053-.035.143a2.9,2.9,0,0,0,2.275.523,4.494,4.494,0,0,0,1.883-.88,11.477,11.477,0,0,0,2.331-2.455,23.831,23.831,0,0,0,1.416-2.178Z" transform="translate(-96.412 -106.691)" fill="#3c9a38"/>
    <path id="Path_21" data-name="Path 21" d="M114.231,101.859l.042-.025.147-.088-.089-.012a12.412,12.412,0,0,0-3.162-.074,12.53,12.53,0,0,0,1.032-4.548c-.027.031-.055.061-.081.093l-4.761,5.829q-1.24,1.519-2.482,3.036c-.057.07-.056.105.019.16a.982.982,0,0,0,.687.246.513.513,0,0,1,.527.265c.073.1.137.1.247.036q3.9-2.445,7.813-4.881Z" transform="translate(-87.873 -81.398)" fill="#3c9a38"/>
    <path id="Path_22" data-name="Path 22" d="M88.138,168.981l0-.2-.092.055a2.229,2.229,0,0,1-2.094-.037c0,.394,0,.767,0,1.139,0,.1.049.1.119.106a17.041,17.041,0,0,0,1.959,0c.1,0,.109-.046.109-.128,0-.311,0-.622,0-.933" transform="translate(-72.045 -141.465)" fill="#3c9a38"/>
    <path id="Path_23" data-name="Path 23" d="M90.55,151.76v-.01s0,0,0-.005l-.012-.447c0-.122,0-.244,0-.366,0-.087-.018-.123-.113-.116a5.512,5.512,0,0,1-.812,0c-.084-.006-.112.016-.111.1.005.285.007.57,0,.855a.232.232,0,0,0,.124.237c.052.029.1.067.151.1a.446.446,0,0,0,.482.015c.15-.091.285-.187.289-.369v0" transform="translate(-75.02 -126.411)" fill="#3c9a38"/>
    <path id="Path_24" data-name="Path 24" d="M41.572,68.5a8.153,8.153,0,0,0-1.626-.194,11.2,11.2,0,0,0-1.422.025c-.11.011-.139-.012-.092-.123a9.227,9.227,0,0,0,.317-.9,12.411,12.411,0,0,0,.594-3.676c0-.134-.038-.147-.157-.127q-.5.085-.984.207a13.444,13.444,0,0,0-4.292,1.831c-.137.092-.27.189-.411.288-.072-.283-.137-.555-.209-.824a23.669,23.669,0,0,0-2.1-5.412,11.212,11.212,0,0,0-1.333-1.927c-.055-.063-.089-.09-.151-.005-.081.111-.178.211-.264.319a13.965,13.965,0,0,0-1.785,3.039,26.615,26.615,0,0,0-1.567,4.7c-.025.1-.042.119-.132.054a13.526,13.526,0,0,0-5.632-2.268c-.1-.017-.107.012-.107.093a9.983,9.983,0,0,0,.038,1.048,13.6,13.6,0,0,0,.7,3.115c.066.189.137.375.211.576a11.935,11.935,0,0,0-2.8.09l-.713.114.051.09a.246.246,0,0,0,.023.04l.084.147h0q.254.452.527.893a16.4,16.4,0,0,0,2.851,3.622,6.024,6.024,0,0,0,2.07,1.293,3.213,3.213,0,0,0,3.507-.922.3.3,0,0,1,.456.013c.38.444.753.894,1.135,1.336a.461.461,0,0,1,.123.324c0,.488,0,.976,0,1.464,0,.062-.019.131.04.181a13.5,13.5,0,0,0,2.561,0c.056-.051.038-.12.039-.182q0-.739,0-1.478a.394.394,0,0,1,.1-.279c.4-.454.777-.922,1.17-1.378a.257.257,0,0,1,.415-.009,3.378,3.378,0,0,0,.808.661,3.074,3.074,0,0,0,1.907.428,4.244,4.244,0,0,0,1.9-.723A9.382,9.382,0,0,0,39.45,72.2,22.09,22.09,0,0,0,41.8,68.712c.017-.03.079-.148.079-.148Z" transform="translate(-14.792 -48.287)" fill="#fff"/>
    <path id="Path_25" data-name="Path 25" d="M93.5,60.295A12.054,12.054,0,0,1,94.8,62.3a24.2,24.2,0,0,1,1.877,4.969c.093.346.181.694.251,1.045.006.031.019.061.031.1A13.119,13.119,0,0,1,102.475,66l.026.036-7.388,9.046a.993.993,0,0,1-.236-.341.146.146,0,0,0-.192-.1,7.616,7.616,0,0,1-1.041.116c-.111.005-.149-.015-.147-.136.007-.474,0-.948,0-1.423V60.295Z" transform="translate(-78.367 -50.538)" fill="#3c9a38"/>
    <path id="Path_26" data-name="Path 26" d="M84.844,160.041a2.2,2.2,0,0,1-.964-.266.122.122,0,0,1-.081-.14.35.35,0,0,0-.117-.32c-.1-.1-.177-.212-.271-.314a.11.11,0,0,1-.016-.146,1.311,1.311,0,0,1,.729-.621.1.1,0,0,1,.12.028,1.352,1.352,0,0,0,.374.256.616.616,0,0,0,.653-.049,1.02,1.02,0,0,0,.2-.15.245.245,0,0,1,.352-.038,1.349,1.349,0,0,1,.566.568.119.119,0,0,1-.021.158c-.088.094-.162.2-.252.293a.371.371,0,0,0-.131.342c.013.069-.034.1-.085.125a2.044,2.044,0,0,1-1.053.274" transform="translate(-69.883 -132.622)" fill="#3c9a38"/>
    <path id="Path_27" data-name="Path 27" d="M77.692,153.69a1.728,1.728,0,0,0,.694-.428c.038-.038.063-.016.093.009.235.191.471.382.707.571.06.048.035.065-.019.09a1.449,1.449,0,0,0-.668.594c-.026.044-.043.068-.086.016-.236-.281-.473-.56-.721-.852" transform="translate(-65.12 -128.444)" fill="#3c9a38"/>
    <path id="Path_28" data-name="Path 28" d="M99.995,153.76c-.243.287-.478.563-.711.84-.038.045-.058.06-.095-.006a1.424,1.424,0,0,0-.646-.6c-.081-.039-.067-.065-.009-.111q.329-.261.655-.528c.036-.029.061-.046.1-.005a1.636,1.636,0,0,0,.7.41" transform="translate(-82.55 -128.515)" fill="#3c9a38"/>
    <path id="Path_29" data-name="Path 29" d="M83.961,151.326l-.817-.661a.094.094,0,0,1-.034-.042c-.015-.06.2-.32.26-.314.173.017.346.04.519.058.061.006.072.044.072.1,0,.243,0,.487,0,.73v.134" transform="translate(-69.661 -125.986)" fill="#c6d347"/>
    <path id="Path_30" data-name="Path 30" d="M97.113,151.26c0-.319,0-.6,0-.878,0-.056.018-.081.077-.087.16-.017.319-.036.477-.064a.089.089,0,0,1,.109.054c.02.036.041.072.063.107.119.183.12.183-.056.326l-.67.542" transform="translate(-81.398 -125.919)" fill="#c6d347"/>
    <path id="Path_31" data-name="Path 31" d="M20.486,127.362l-.124-.082.219.342h0a19.321,19.321,0,0,0,2.4,3.315,7.481,7.481,0,0,0,2.006,1.606,3.265,3.265,0,0,0,2.291.371,2.99,2.99,0,0,0,1.183-.575l-7.972-4.976" transform="translate(-17.067 -106.684)" fill="#3c9a38"/>
    <path id="Path_32" data-name="Path 32" d="M30.76,105.97c-.29-.345-.572-.7-.856-1.048l-5.995-7.369c-.154-.19-.31-.378-.465-.567a12.54,12.54,0,0,0,1.033,4.58,12.128,12.128,0,0,0-3.074.058l-.166.022.089.053a.255.255,0,0,0,.036.022l.064.039q3.829,2.392,7.659,4.78c.112.07.225.206.34.186s.2-.178.286-.286a.142.142,0,0,1,.15-.06,1.213,1.213,0,0,0,.871-.234c.08-.056.1-.092.027-.177" transform="translate(-17.8 -81.292)" fill="#3c9a38"/>
    <path id="Path_33" data-name="Path 33" d="M45.187,60.308V60.12l-.04.05h0a21.625,21.625,0,0,0-3.429,8.108,12.741,12.741,0,0,0-5.524-2.388l7.374,9.063a1.32,1.32,0,0,0,.244-.36.131.131,0,0,1,.168-.09,8.854,8.854,0,0,0,1.042.111c.131.006.167-.022.167-.159q-.006-7.074,0-14.147" transform="translate(-30.337 -50.392)" fill="#3c9a38"/>
    <path id="Path_34" data-name="Path 34" d="M123.1,127.287l-.442.294-4.507,2.811q-1.5.935-3,1.871c-.05.031-.163.053-.035.143a2.9,2.9,0,0,0,2.275.523,4.494,4.494,0,0,0,1.883-.88,11.479,11.479,0,0,0,2.331-2.455,23.8,23.8,0,0,0,1.416-2.178Z" transform="translate(-96.439 -106.69)" fill="#3c9a38"/>
    <path id="Path_35" data-name="Path 35" d="M114.263,101.858l.042-.025.147-.088-.089-.012a12.413,12.413,0,0,0-3.162-.074,12.53,12.53,0,0,0,1.032-4.548c-.027.031-.055.061-.081.093l-4.761,5.829q-1.24,1.519-2.482,3.036c-.057.07-.056.105.019.16a.982.982,0,0,0,.687.246.513.513,0,0,1,.527.265c.073.1.137.1.247.036q3.9-2.445,7.813-4.881Z" transform="translate(-87.899 -81.397)" fill="#3c9a38"/>
    <path id="Path_36" data-name="Path 36" d="M88.17,168.98l0-.2-.092.056a2.229,2.229,0,0,1-2.094-.038c0,.394,0,.767,0,1.139,0,.1.049.1.119.106a17.044,17.044,0,0,0,1.959,0c.1-.005.109-.046.109-.128,0-.311,0-.622,0-.933" transform="translate(-72.072 -141.464)" fill="#3c9a38"/>
    <path id="Path_37" data-name="Path 37" d="M90.582,151.759v-.01a.052.052,0,0,0,0-.005l-.012-.447c0-.122,0-.244,0-.366,0-.087-.018-.123-.113-.116a5.514,5.514,0,0,1-.812,0c-.084-.006-.112.016-.111.1.005.285.007.57,0,.855a.232.232,0,0,0,.124.237c.052.029.1.067.151.1a.446.446,0,0,0,.482.015c.15-.091.285-.187.289-.369v0" transform="translate(-75.046 -126.41)" fill="#3c9a38"/>
  </g>
</svg>
